<?xml version="1.0" standalone="no"?>
 <!DOCTYPE svg PUBLIC "-//W3C//DTD SVG 1.1//EN" 
 "http://www.w3.org/Graphics/SVG/1.1/DTD/svg11.dtd"> 
<svg xmlns="http://www.w3.org/2000/svg" version="1.1" 
    width="29.7002cm" height="21.0007cm" viewBox="0 0 116930 82680 ">
<title>SVG Picture created as wordclcockV02-B_SilkS.svg date 2014/11/11 06:20:56 </title>
  <desc>Picture generated by PCBNEW </desc>
<g style="fill:#000000; fill-opacity:1;stroke:#000000; stroke-opacity:1;
stroke-linecap:round; stroke-linejoin:round; "
 transform="translate(0 0) scale(1 1)">
</g>
<g style="fill:#000000; fill-opacity:0.0; 
stroke:#000000; stroke-width:39.3701; stroke-opacity:1; 
stroke-linecap:round; stroke-linejoin:round;">
<path d="M4000 4000
L112930 4000
L112930 78680
L4000 78680
L4000 4000
" />
<path d="M4700 4700
L112230 4700
L112230 77980
L4700 77980
L4700 4700
" />
<path d="M25780 4000
L25780 4700
" />
<path d="M15032 4552
L14747 4552
" />
<path d="M14890 4552
L14890 4052
L14842 4123
L14794 4171
L14747 4195
" />
<path d="M25780 78680
L25780 77980
" />
<path d="M15032 78532
L14747 78532
" />
<path d="M14890 78532
L14890 78032
L14842 78103
L14794 78151
L14747 78175
" />
<path d="M47560 4000
L47560 4700
" />
<path d="M36527 4100
L36550 4076
L36598 4052
L36717 4052
L36765 4076
L36789 4100
L36812 4147
L36812 4195
L36789 4266
L36503 4552
L36812 4552
" />
<path d="M47560 78680
L47560 77980
" />
<path d="M36527 78080
L36550 78056
L36598 78032
L36717 78032
L36765 78056
L36789 78080
L36812 78127
L36812 78175
L36789 78246
L36503 78532
L36812 78532
" />
<path d="M69340 4000
L69340 4700
" />
<path d="M58283 4052
L58592 4052
L58426 4242
L58497 4242
L58545 4266
L58569 4290
L58592 4338
L58592 4457
L58569 4504
L58545 4528
L58497 4552
L58354 4552
L58307 4528
L58283 4504
" />
<path d="M69340 78680
L69340 77980
" />
<path d="M58283 78032
L58592 78032
L58426 78222
L58497 78222
L58545 78246
L58569 78270
L58592 78318
L58592 78437
L58569 78484
L58545 78508
L58497 78532
L58354 78532
L58307 78508
L58283 78484
" />
<path d="M91120 4000
L91120 4700
" />
<path d="M80325 4219
L80325 4552
" />
<path d="M80206 4028
L80087 4385
L80396 4385
" />
<path d="M91120 78680
L91120 77980
" />
<path d="M80325 78199
L80325 78532
" />
<path d="M80206 78008
L80087 78365
L80396 78365
" />
<path d="M102129 4052
L101890 4052
L101867 4290
L101890 4266
L101938 4242
L102057 4242
L102105 4266
L102129 4290
L102152 4338
L102152 4457
L102129 4504
L102105 4528
L102057 4552
L101938 4552
L101890 4528
L101867 4504
" />
<path d="M102129 78032
L101890 78032
L101867 78270
L101890 78246
L101938 78222
L102057 78222
L102105 78246
L102129 78270
L102152 78318
L102152 78437
L102129 78484
L102105 78508
L102057 78532
L101938 78532
L101890 78508
L101867 78484
" />
<path d="M4000 28890
L4700 28890
" />
<path d="M4230 16509
L4469 16509
" />
<path d="M4183 16652
L4350 16152
L4516 16652
" />
<path d="M112930 28890
L112230 28890
" />
<path d="M112460 16509
L112699 16509
" />
<path d="M112413 16652
L112580 16152
L112746 16652
" />
<path d="M4000 53780
L4700 53780
" />
<path d="M4385 41280
L4457 41304
L4480 41328
L4504 41375
L4504 41447
L4480 41494
L4457 41518
L4409 41542
L4219 41542
L4219 41042
L4385 41042
L4433 41066
L4457 41090
L4480 41137
L4480 41185
L4457 41232
L4433 41256
L4385 41280
L4219 41280
" />
<path d="M112930 53780
L112230 53780
" />
<path d="M112615 41280
L112687 41304
L112710 41328
L112734 41375
L112734 41447
L112710 41494
L112687 41518
L112639 41542
L112449 41542
L112449 41042
L112615 41042
L112663 41066
L112687 41090
L112710 41137
L112710 41185
L112687 41232
L112663 41256
L112615 41280
L112449 41280
" />
<path d="M4504 66384
L4480 66408
L4409 66432
L4361 66432
L4290 66408
L4242 66360
L4219 66313
L4195 66218
L4195 66146
L4219 66051
L4242 66003
L4290 65956
L4361 65932
L4409 65932
L4480 65956
L4504 65980
" />
<path d="M112734 66384
L112710 66408
L112639 66432
L112591 66432
L112520 66408
L112472 66360
L112449 66313
L112425 66218
L112425 66146
L112449 66051
L112472 66003
L112520 65956
L112591 65932
L112639 65932
L112710 65956
L112734 65980
" />
<path d="M79380 76422
L79455 75822
L79597 75822
L79680 75851
L79730 75908
L79751 75965
L79765 76080
L79755 76165
L79712 76280
L79676 76337
L79612 76394
L79522 76422
L79380 76422
" />
<path d="M80237 76422
L80276 76108
L80255 76051
L80201 76022
L80087 76022
L80026 76051
" />
<path d="M80240 76394
L80180 76422
L80037 76422
L79983 76394
L79962 76337
L79969 76280
L80005 76222
L80065 76194
L80208 76194
L80269 76165
" />
<path d="M80487 76022
L80715 76022
" />
<path d="M80597 75822
L80533 76337
L80555 76394
L80608 76422
L80665 76422
" />
<path d="M81097 76394
L81037 76422
L80922 76422
L80869 76394
L80847 76337
L80876 76108
L80912 76051
L80972 76022
L81087 76022
L81140 76051
L81162 76108
L81155 76165
L80862 76222
" />
<path d="M81387 76365
L81412 76394
L81380 76422
L81355 76394
L81387 76365
L81380 76422
" />
<path d="M81426 76051
L81451 76080
L81419 76108
L81394 76080
L81426 76051
L81419 76108
" />
<path d="M82437 76422
L82094 76422
" />
<path d="M82265 76422
L82340 75822
L82272 75908
L82208 75965
L82147 75994
" />
<path d="M83008 76422
L82665 76422
" />
<path d="M82837 76422
L82912 75822
L82844 75908
L82780 75965
L82719 75994
" />
<path d="M83772 76022
L83722 76422
" />
<path d="M83765 76080
L83797 76051
L83858 76022
L83944 76022
L83997 76051
L84019 76108
L83980 76422
" />
<path d="M84351 76422
L84297 76394
L84272 76365
L84251 76308
L84272 76137
L84308 76080
L84340 76051
L84401 76022
L84487 76022
L84540 76051
L84565 76080
L84587 76137
L84565 76308
L84530 76365
L84497 76394
L84437 76422
L84351 76422
" />
<path d="M84801 76022
L84894 76422
L85087 76022
" />
<path d="M85762 75880
L85794 75851
L85855 75822
L85997 75822
L86051 75851
L86076 75880
L86097 75937
L86090 75994
L86051 76080
L85665 76422
L86037 76422
" />
<path d="M86483 75822
L86540 75822
L86594 75851
L86619 75880
L86640 75937
L86655 76051
L86637 76194
L86594 76308
L86558 76365
L86526 76394
L86465 76422
L86408 76422
L86355 76394
L86330 76365
L86308 76308
L86294 76194
L86312 76051
L86355 75937
L86390 75880
L86422 75851
L86483 75822
" />
<path d="M87180 76422
L86837 76422
" />
<path d="M87008 76422
L87083 75822
L87015 75908
L86951 75965
L86890 75994
" />
<path d="M87744 76022
L87694 76422
" />
<path d="M87630 75794
L87433 76222
L87805 76222
" />
<path d="M70972 77622
L70972 77022
" />
<path d="M71315 77622
L71058 77280
" />
<path d="M71315 77022
L70972 77365
" />
<path d="M71572 77622
L71572 77222
" />
<path d="M71572 77022
L71544 77051
L71572 77080
L71601 77051
L71572 77022
L71572 77080
" />
<path d="M72201 77565
L72172 77594
L72087 77622
L72030 77622
L71944 77594
L71887 77537
L71858 77480
L71830 77365
L71830 77280
L71858 77165
L71887 77108
L71944 77051
L72030 77022
L72087 77022
L72172 77051
L72201 77080
" />
<path d="M72715 77622
L72715 77308
L72687 77251
L72630 77222
L72515 77222
L72458 77251
" />
<path d="M72715 77594
L72658 77622
L72515 77622
L72458 77594
L72430 77537
L72430 77480
L72458 77422
L72515 77394
L72658 77394
L72715 77365
" />
<path d="M73258 77622
L73258 77022
" />
<path d="M73258 77594
L73201 77622
L73087 77622
L73030 77594
L73001 77565
L72972 77508
L72972 77337
L73001 77280
L73030 77251
L73087 77222
L73201 77222
L73258 77251
" />
<path d="M74001 77308
L74201 77308
" />
<path d="M74287 77622
L74001 77622
L74001 77022
L74287 77022
" />
<path d="M74544 77565
L74572 77594
L74544 77622
L74515 77594
L74544 77565
L74544 77622
" />
<path d="M74829 77622
L74829 77022
L74972 77022
L75058 77051
L75115 77108
L75144 77165
L75172 77280
L75172 77365
L75144 77480
L75115 77537
L75058 77594
L74972 77622
L74829 77622
" />
<path d="M75429 77565
L75458 77594
L75429 77622
L75401 77594
L75429 77565
L75429 77622
" />
<path d="M75687 77451
L75972 77451
" />
<path d="M75629 77622
L75829 77022
L76029 77622
" />
<path d="M76229 77565
L76258 77594
L76229 77622
L76201 77594
L76229 77565
L76229 77622
" />
<path d="M104522 76422
L104358 76137
" />
<path d="M104180 76422
L104255 75822
L104483 75822
L104537 75851
L104562 75880
L104583 75937
L104572 76022
L104537 76080
L104505 76108
L104444 76137
L104215 76137
" />
<path d="M105012 76394
L104951 76422
L104837 76422
L104783 76394
L104762 76337
L104790 76108
L104826 76051
L104887 76022
L105001 76022
L105055 76051
L105076 76108
L105069 76165
L104776 76222
" />
<path d="M105287 76022
L105380 76422
L105572 76022
" />
<path d="M105758 76365
L105783 76394
L105751 76422
L105726 76394
L105758 76365
L105751 76422
" />
<path d="M105797 76051
L105822 76080
L105790 76108
L105765 76080
L105797 76051
L105790 76108
" />
<path d="M70944 76394
L71030 76422
L71172 76422
L71230 76394
L71258 76365
L71287 76308
L71287 76251
L71258 76194
L71230 76165
L71172 76137
L71058 76108
L71001 76080
L70972 76051
L70944 75994
L70944 75937
L70972 75880
L71001 75851
L71058 75822
L71201 75822
L71287 75851
" />
<path d="M71544 76422
L71544 76022
" />
<path d="M71544 75822
L71515 75851
L71544 75880
L71572 75851
L71544 75822
L71544 75880
" />
<path d="M71772 76022
L72087 76022
L71772 76422
L72087 76422
" />
<path d="M72544 76394
L72487 76422
L72372 76422
L72315 76394
L72287 76337
L72287 76108
L72315 76051
L72372 76022
L72487 76022
L72544 76051
L72572 76108
L72572 76165
L72287 76222
" />
<path d="M72830 76365
L72858 76394
L72830 76422
L72801 76394
L72830 76365
L72830 76422
" />
<path d="M72830 76051
L72858 76080
L72830 76108
L72801 76080
L72830 76051
L72830 76108
" />
<path d="M73544 76251
L73830 76251
" />
<path d="M73487 76422
L73687 75822
L73887 76422
" />
<path d="M74344 76022
L74344 76422
" />
<path d="M74201 75794
L74058 76222
L74430 76222
" />
<path d="M104172 77622
L104172 77022
" />
<path d="M104715 77622
L104715 77022
" />
<path d="M104715 77594
L104658 77622
L104544 77622
L104487 77594
L104458 77565
L104430 77508
L104430 77337
L104458 77280
L104487 77251
L104544 77222
L104658 77222
L104715 77251
" />
<path d="M105001 77565
L105030 77594
L105001 77622
L104972 77594
L105001 77565
L105001 77622
" />
<path d="M105001 77251
L105030 77280
L105001 77308
L104972 77280
L105001 77251
L105001 77308
" />
<path d="M106058 77622
L105715 77622
" />
<path d="M105887 77622
L105887 77022
L105829 77108
L105772 77165
L105715 77194
" />
<path d="M106744 76994
L106230 77765
" />
<path d="M107258 77622
L106915 77622
" />
<path d="M107087 77622
L107087 77022
L107029 77108
L106972 77165
L106915 77194
" />
<path d="M70969 74622
L71312 74622
" />
<path d="M71065 75222
L71140 74622
" />
<path d="M71437 75222
L71487 74822
" />
<path d="M71512 74622
L71480 74651
L71505 74680
L71537 74651
L71512 74622
L71505 74680
" />
<path d="M71687 74822
L71915 74822
" />
<path d="M71797 74622
L71733 75137
L71755 75194
L71808 75222
L71865 75222
" />
<path d="M72151 75222
L72097 75194
L72076 75137
L72140 74622
" />
<path d="M72612 75194
L72551 75222
L72437 75222
L72383 75194
L72362 75137
L72390 74908
L72426 74851
L72487 74822
L72601 74822
L72655 74851
L72676 74908
L72669 74965
L72376 75022
" />
<path d="M72901 75165
L72926 75194
L72894 75222
L72869 75194
L72901 75165
L72894 75222
" />
<path d="M72940 74851
L72965 74880
L72933 74908
L72908 74880
L72940 74851
L72933 74908
" />
<path d="M71172 72508
L70972 72508
" />
<path d="M70972 72822
L70972 72222
L71258 72222
" />
<path d="M71487 72822
L71487 72422
" />
<path d="M71487 72222
L71458 72251
L71487 72280
L71515 72251
L71487 72222
L71487 72280
" />
<path d="M71858 72822
L71801 72794
L71772 72737
L71772 72222
" />
<path d="M72315 72794
L72258 72822
L72144 72822
L72087 72794
L72058 72737
L72058 72508
L72087 72451
L72144 72422
L72258 72422
L72315 72451
L72344 72508
L72344 72565
L72058 72622
" />
<path d="M72601 72765
L72630 72794
L72601 72822
L72572 72794
L72601 72765
L72601 72822
" />
<path d="M72601 72451
L72630 72480
L72601 72508
L72572 72480
L72601 72451
L72601 72508
" />
<path d="M73287 72422
L73401 72822
L73515 72537
L73630 72822
L73744 72422
" />
<path d="M74058 72822
L74001 72794
L73972 72765
L73944 72708
L73944 72537
L73972 72480
L74001 72451
L74058 72422
L74144 72422
L74201 72451
L74230 72480
L74258 72537
L74258 72708
L74230 72765
L74201 72794
L74144 72822
L74058 72822
" />
<path d="M74515 72822
L74515 72422
" />
<path d="M74515 72537
L74544 72480
L74572 72451
L74630 72422
L74687 72422
" />
<path d="M75144 72822
L75144 72222
" />
<path d="M75144 72794
L75087 72822
L74972 72822
L74915 72794
L74887 72765
L74858 72708
L74858 72537
L74887 72480
L74915 72451
L74972 72422
L75087 72422
L75144 72451
" />
<path d="M75687 72794
L75630 72822
L75515 72822
L75458 72794
L75430 72765
L75401 72708
L75401 72537
L75430 72480
L75458 72451
L75515 72422
L75630 72422
L75687 72451
" />
<path d="M76030 72822
L75972 72794
L75944 72737
L75944 72222
" />
<path d="M76515 72794
L76458 72822
L76344 72822
L76287 72794
L76258 72765
L76230 72708
L76230 72537
L76258 72480
L76287 72451
L76344 72422
L76458 72422
L76515 72451
" />
<path d="M76858 72822
L76801 72794
L76772 72765
L76744 72708
L76744 72537
L76772 72480
L76801 72451
L76858 72422
L76944 72422
L77001 72451
L77030 72480
L77058 72537
L77058 72708
L77030 72765
L77001 72794
L76944 72822
L76858 72822
" />
<path d="M77572 72794
L77515 72822
L77401 72822
L77344 72794
L77315 72765
L77287 72708
L77287 72537
L77315 72480
L77344 72451
L77401 72422
L77515 72422
L77572 72451
" />
<path d="M77830 72822
L77830 72222
" />
<path d="M77887 72594
L78058 72822
" />
<path d="M78058 72422
L77830 72651
" />
<path d="M78230 72222
L78430 72822
L78630 72222
" />
<path d="M78944 72222
L79001 72222
L79058 72251
L79087 72280
L79115 72337
L79144 72451
L79144 72594
L79115 72708
L79087 72765
L79058 72794
L79001 72822
L78944 72822
L78887 72794
L78858 72765
L78830 72708
L78801 72594
L78801 72451
L78830 72337
L78858 72280
L78887 72251
L78944 72222
" />
<path d="M79372 72280
L79401 72251
L79458 72222
L79601 72222
L79658 72251
L79687 72280
L79715 72337
L79715 72394
L79687 72480
L79344 72822
L79715 72822
" />
<path d="M79972 72765
L80001 72794
L79972 72822
L79944 72794
L79972 72765
L79972 72822
" />
<path d="M80258 72822
L80258 72222
" />
<path d="M80258 72451
L80315 72422
L80430 72422
L80487 72451
L80515 72480
L80544 72537
L80544 72708
L80515 72765
L80487 72794
L80430 72822
L80315 72822
L80258 72794
" />
<path d="M80801 72822
L80801 72422
" />
<path d="M80801 72537
L80830 72480
L80858 72451
L80915 72422
L80972 72422
" />
<path d="M81430 72822
L81430 72222
" />
<path d="M81430 72794
L81372 72822
L81258 72822
L81201 72794
L81172 72765
L81144 72708
L81144 72537
L81172 72480
L81201 72451
L81258 72422
L81372 72422
L81430 72451
" />
<path d="M70944 73994
L71030 74022
L71172 74022
L71230 73994
L71258 73965
L71287 73908
L71287 73851
L71258 73794
L71230 73765
L71172 73737
L71058 73708
L71001 73680
L70972 73651
L70944 73594
L70944 73537
L70972 73480
L71001 73451
L71058 73422
L71201 73422
L71287 73451
" />
<path d="M71544 74022
L71544 73422
" />
<path d="M71801 74022
L71801 73708
L71772 73651
L71715 73622
L71630 73622
L71572 73651
L71544 73680
" />
<path d="M72315 73994
L72258 74022
L72144 74022
L72087 73994
L72058 73937
L72058 73708
L72087 73651
L72144 73622
L72258 73622
L72315 73651
L72344 73708
L72344 73765
L72058 73822
" />
<path d="M72830 73994
L72772 74022
L72658 74022
L72601 73994
L72572 73937
L72572 73708
L72601 73651
L72658 73622
L72772 73622
L72830 73651
L72858 73708
L72858 73765
L72572 73822
" />
<path d="M73030 73622
L73258 73622
" />
<path d="M73115 73422
L73115 73937
L73144 73994
L73201 74022
L73258 74022
" />
<path d="M73458 73965
L73487 73994
L73458 74022
L73430 73994
L73458 73965
L73458 74022
" />
<path d="M73458 73651
L73487 73680
L73458 73708
L73430 73680
L73458 73651
L73458 73708
" />
<path d="M70230 71980
L70230 77980
" />
<path d="M70230 71980
L112230 71980
" />
<path d="M70230 71980
L112230 71980
" />
<path d="M70230 74380
L112230 74380
" />
<path d="M103430 75580
L103430 77980
" />
<path d="M70230 76780
L112230 76780
" />
<path d="M70230 75580
L112230 75580
" />
<path d="M76830 75580
L76830 76780
" />
</g>
<g style="fill:#FFFF00; fill-opacity:0.0; 
stroke:#FFFF00; stroke-width:150; stroke-opacity:1; 
stroke-linecap:round; stroke-linejoin:round;">
<path d="M0 19685
L0 0
" />
<path d="M39370 19685
L0 19685
" />
<path d="M39370 0
L39370 19685
" />
<path d="M0 0
L39370 0
" />
</g>
<g style="fill:#A000A0; fill-opacity:0.0; 
stroke:#A000A0; stroke-width:80; stroke-opacity:1; 
stroke-linecap:round; stroke-linejoin:round;">
<path d="M20080 13972
L20176 13972
L20223 13998
L20247 14025
L20295 14103
L20319 14208
L20319 14417
L20295 14470
L20271 14496
L20223 14522
L20128 14522
L20080 14496
L20057 14470
L20033 14417
L20033 14286
L20057 14234
L20080 14208
L20128 14182
L20223 14182
L20271 14208
L20295 14234
L20319 14286
" />
<path d="M19747 14208
L19795 14182
L19819 14155
L19842 14103
L19842 14077
L19819 14025
L19795 13998
L19747 13972
L19652 13972
L19604 13998
L19580 14025
L19557 14077
L19557 14103
L19580 14155
L19604 14182
L19652 14208
L19747 14208
L19795 14234
L19819 14260
L19842 14313
L19842 14417
L19819 14470
L19795 14496
L19747 14522
L19652 14522
L19604 14496
L19580 14470
L19557 14417
L19557 14313
L19580 14260
L19604 14234
L19652 14208
" />
<path d="M19247 13972
L19200 13972
L19152 13998
L19128 14025
L19104 14077
L19080 14182
L19080 14313
L19104 14417
L19128 14470
L19152 14496
L19200 14522
L19247 14522
L19295 14496
L19319 14470
L19342 14417
L19366 14313
L19366 14182
L19342 14077
L19319 14025
L19295 13998
L19247 13972
" />
<path d="M19383 5472
L19550 5210
" />
<path d="M19669 5472
L19669 4922
L19478 4922
L19430 4948
L19407 4975
L19383 5027
L19383 5105
L19407 5158
L19430 5184
L19478 5210
L19669 5210
" />
<path d="M19192 4975
L19169 4948
L19121 4922
L19002 4922
L18954 4948
L18930 4975
L18907 5027
L18907 5079
L18930 5158
L19216 5472
L18907 5472
" />
<path d="M20866 14223
L20885 14242
L20942 14261
L20980 14261
L21038 14242
L21076 14204
L21095 14166
L21114 14090
L21114 14033
L21095 13957
L21076 13919
L21038 13880
L20980 13861
L20942 13861
L20885 13880
L20866 13900
" />
<path d="M20485 14261
L20714 14261
" />
<path d="M20599 14261
L20599 13861
L20638 13919
L20676 13957
L20714 13976
" />
</g>
<g style="fill:#A000A0; fill-opacity:0.0; 
stroke:#A000A0; stroke-width:120; stroke-opacity:1; 
stroke-linecap:round; stroke-linejoin:round;">
<path d="M12707 3314
L12707 3800
L12678 3857
L12650 3886
L12592 3914
L12478 3914
L12421 3886
L12392 3857
L12364 3800
L12364 3314
" />
<path d="M11821 3314
L11935 3314
L11992 3343
L12021 3372
L12078 3457
L12107 3572
L12107 3800
L12078 3857
L12050 3886
L11992 3914
L11878 3914
L11821 3886
L11792 3857
L11764 3800
L11764 3657
L11792 3600
L11821 3572
L11878 3543
L11992 3543
L12050 3572
L12078 3600
L12107 3657
" />
<path d="M13664 13166
L13664 12566
" />
<path d="M13664 12852
L13321 12852
" />
<path d="M13321 13166
L13321 12566
" />
<path d="M12692 13109
L12721 13138
L12807 13166
L12864 13166
L12950 13138
L13007 13081
L13035 13024
L13064 12909
L13064 12824
L13035 12709
L13007 12652
L12950 12595
L12864 12566
L12807 12566
L12721 12595
L12692 12624
" />
<path d="M12435 12938
L11978 12938
" />
<path d="M11578 12566
L11521 12566
L11464 12595
L11435 12624
L11407 12681
L11378 12795
L11378 12938
L11407 13052
L11435 13109
L11464 13138
L11521 13166
L11578 13166
L11635 13138
L11664 13109
L11692 13052
L11721 12938
L11721 12795
L11692 12681
L11664 12624
L11635 12595
L11578 12566
" />
<path d="M10835 12566
L11121 12566
L11150 12852
L11121 12824
L11064 12795
L10921 12795
L10864 12824
L10835 12852
L10807 12909
L10807 13052
L10835 13109
L10864 13138
L10921 13166
L11064 13166
L11121 13138
L11150 13109
" />
<path d="M5857 3314
L5857 3800
L5828 3857
L5800 3886
L5742 3914
L5628 3914
L5571 3886
L5542 3857
L5514 3800
L5514 3314
" />
<path d="M5285 3314
L4885 3314
L5142 3914
" />
<path d="M6814 13166
L6814 12566
" />
<path d="M6814 12852
L6471 12852
" />
<path d="M6471 13166
L6471 12566
" />
<path d="M5842 13109
L5871 13138
L5957 13166
L6014 13166
L6100 13138
L6157 13081
L6185 13024
L6214 12909
L6214 12824
L6185 12709
L6157 12652
L6100 12595
L6014 12566
L5957 12566
L5871 12595
L5842 12624
" />
<path d="M5585 12938
L5128 12938
" />
<path d="M4728 12566
L4671 12566
L4614 12595
L4585 12624
L4557 12681
L4528 12795
L4528 12938
L4557 13052
L4585 13109
L4614 13138
L4671 13166
L4728 13166
L4785 13138
L4814 13109
L4842 13052
L4871 12938
L4871 12795
L4842 12681
L4814 12624
L4785 12595
L4728 12566
" />
<path d="M3985 12566
L4271 12566
L4300 12852
L4271 12824
L4214 12795
L4071 12795
L4014 12824
L3985 12852
L3957 12909
L3957 13052
L3985 13109
L4014 13138
L4071 13166
L4214 13166
L4271 13138
L4300 13109
" />
<path d="M19942 10118
L19342 10118
" />
<path d="M19942 10747
L19657 10547
" />
<path d="M19942 10404
L19342 10404
L19342 10632
L19371 10689
L19400 10718
L19457 10747
L19542 10747
L19600 10718
L19628 10689
L19657 10632
L19657 10404
" />
<path d="M27614 2307
L27014 2307
" />
<path d="M27614 2650
L27272 2392
" />
<path d="M27014 2650
L27357 2307
" />
<path d="M27614 3221
L27614 2878
" />
<path d="M27614 3050
L27014 3050
L27100 2992
L27157 2935
L27186 2878
" />
</g>
<g style="fill:#A000A0; fill-opacity:0.0; 
stroke:#A000A0; stroke-width:80; stroke-opacity:1; 
stroke-linecap:round; stroke-linejoin:round;">
<path d="M21200 14250
L21000 14250
" />
<path d="M18200 14250
L18400 14250
" />
<path d="M18400 14250
L18400 13850
" />
<path d="M18400 13850
L21000 13850
" />
<path d="M21000 13850
L21000 14650
" />
<path d="M21000 14650
L18400 14650
" />
<path d="M18400 14650
L18400 14250
" />
<path d="M21000 14050
L20800 13850
" />
</g>
<g style="fill:#A000A0; fill-opacity:0.0; 
stroke:#A000A0; stroke-width:150; stroke-opacity:1; 
stroke-linecap:round; stroke-linejoin:round;">
<path d="M19200 6250
L20200 6250
" />
<circle cx="19200" cy="6250" r="559.017" /> 
</g>
<g style="fill:#A000A0; fill-opacity:0.0; 
stroke:#A000A0; stroke-width:120; stroke-opacity:1; 
stroke-linecap:round; stroke-linejoin:round;">
<path d="M19720 13700
L21700 13700
" />
<path d="M21700 13700
L21700 12700
" />
<path d="M21700 12700
L19700 12700
" />
<path d="M19700 12700
L19700 13700
" />
<path d="M19700 13450
L19950 13700
" />
</g>
<g style="fill:#A000A0; fill-opacity:0.0; 
stroke:#A000A0; stroke-width:150; stroke-opacity:1; 
stroke-linecap:round; stroke-linejoin:round;">
<path d="M15203 2688
L9297 2688
" />
<path d="M9297 2688
L9297 13712
" />
<path d="M9297 13712
L15203 13712
" />
<path d="M15203 13712
L15203 2688
" />
<path d="M8353 2688
L2447 2688
" />
<path d="M2447 2688
L2447 13712
" />
<path d="M2447 13712
L8353 13712
" />
<path d="M8353 13712
L8353 2688
" />
<path d="M19700 8056
L19700 8843
" />
<path d="M20093 8450
L19306 8450
" />
<path d="M18715 8450
L18715 11993
" />
<path d="M20684 8450
L20684 11993
" />
<path d="M20684.3 8450 A984.252 984.252 0.0 0 0 19700 7465.75 " />
<path d="M19700 7465.75 A984.252 984.252 0.0 0 0 18715.7 8450 " />
<path d="M21668 11993
L21668 7072
" />
<path d="M21668 7072
L17731 7072
" />
<path d="M17731 7072
L17731 11993
" />
<path d="M17731 11993
L21668 11993
" />
<circle cx="984.252" cy="984.252" r="984.252" /> 
<circle cx="984.252" cy="18700.8" r="984.252" /> 
<circle cx="38385.8" cy="984.252" r="984.252" /> 
<circle cx="38385.8" cy="18700.8" r="984.252" /> 
<circle cx="19694.9" cy="2750" r="1693.37" /> 
<path d="M28750 -5
L16938 -5
" />
<path d="M16938 5505
L28750 5505
" />
<path d="M16938 1568
L16938 -5
" />
<path d="M16938 3931
L16938 5505
" />
<path d="M16939 1568.9 A1181.1 1181.1 0.0 0 0 15757.9 2750 " />
<path d="M15757.9 2750 A1181.1 1181.1 0.0 0 0 16939 3931.1 " />
<path d="M28750 -5
L28750 5505
" />
</g>
<g style="fill:#808000; fill-opacity:0.0; 
stroke:#808000; stroke-width:39.3701; stroke-opacity:1; 
stroke-linecap:round; stroke-linejoin:round;">
</g>
<g style="fill:#808000; fill-opacity:1.0; 
stroke:#808000; stroke-width:39.3701; stroke-opacity:1; 
stroke-linecap:round; stroke-linejoin:round;">
<circle cx="21200" cy="14250" r="255.315" /> 
<circle cx="18200" cy="14250" r="255.315" /> 
<circle cx="19200" cy="6250" r="255.315" /> 
<circle cx="20200" cy="6250" r="255.315" /> 
<circle cx="20200" cy="13200" r="255.315" /> 
<circle cx="21200" cy="13200" r="255.315" /> 
<circle cx="21200" cy="12493.3" r="275.815" /> 
<circle cx="20200" cy="12493.3" r="275.815" /> 
<circle cx="18200" cy="12493.3" r="275.815" /> 
<circle cx="984.252" cy="984.252" r="572.835" /> 
<circle cx="984.252" cy="18700.8" r="572.835" /> 
<circle cx="38385.8" cy="984.252" r="572.835" /> 
<circle cx="38385.8" cy="18700.8" r="572.835" /> 
<circle cx="16939" cy="2750" r="787.402" /> 
<circle cx="24750" cy="2750" r="275.815" /> 
<circle cx="24750" cy="1750" r="275.815" /> 
<circle cx="24750" cy="3750" r="275.815" /> 
</g> 
</svg>
