G04 (created by PCBNEW-RS274X (2012-apr-16-27)-stable) date So 26 Okt 2014 19:58:05 CET*
G01*
G70*
G90*
%MOIN*%
G04 Gerber Fmt 3.4, Leading zero omitted, Abs format*
%FSLAX34Y34*%
G04 APERTURE LIST*
%ADD10C,0.006000*%
%ADD11C,0.015000*%
%ADD12C,0.005000*%
%ADD13C,0.012000*%
%ADD14C,0.010000*%
%ADD15C,0.008000*%
G04 APERTURE END LIST*
G54D10*
G54D11*
X-00800Y-33700D02*
X-01100Y-33700D01*
X-01100Y-33700D02*
X-01100Y-30300D01*
X-01100Y-30300D02*
X-00800Y-30300D01*
X00400Y-33700D02*
X00400Y-30300D01*
X04200Y-33700D02*
X04200Y-30300D01*
X-00800Y-30300D02*
X04200Y-30300D01*
X-00800Y-33700D02*
X04200Y-33700D01*
G54D12*
X08375Y-19625D02*
X08355Y-19819D01*
X08299Y-20006D01*
X08207Y-20178D01*
X08084Y-20329D01*
X07934Y-20454D01*
X07762Y-20546D01*
X07576Y-20604D01*
X07381Y-20624D01*
X07188Y-20607D01*
X07001Y-20552D01*
X06828Y-20461D01*
X06676Y-20339D01*
X06550Y-20189D01*
X06456Y-20018D01*
X06397Y-19832D01*
X06376Y-19638D01*
X06392Y-19445D01*
X06446Y-19257D01*
X06535Y-19084D01*
X06656Y-18931D01*
X06805Y-18804D01*
X06975Y-18709D01*
X07161Y-18649D01*
X07355Y-18626D01*
X07548Y-18641D01*
X07736Y-18693D01*
X07910Y-18781D01*
X08064Y-18901D01*
X08192Y-19049D01*
X08288Y-19219D01*
X08350Y-19404D01*
X08374Y-19598D01*
X08375Y-19625D01*
X08875Y-18125D02*
X05875Y-18125D01*
X05875Y-18125D02*
X05875Y-21125D01*
X05875Y-21125D02*
X08875Y-21125D01*
X08875Y-18125D02*
X08875Y-21125D01*
X08375Y-25625D02*
X08355Y-25819D01*
X08299Y-26006D01*
X08207Y-26178D01*
X08084Y-26329D01*
X07934Y-26454D01*
X07762Y-26546D01*
X07576Y-26604D01*
X07381Y-26624D01*
X07188Y-26607D01*
X07001Y-26552D01*
X06828Y-26461D01*
X06676Y-26339D01*
X06550Y-26189D01*
X06456Y-26018D01*
X06397Y-25832D01*
X06376Y-25638D01*
X06392Y-25445D01*
X06446Y-25257D01*
X06535Y-25084D01*
X06656Y-24931D01*
X06805Y-24804D01*
X06975Y-24709D01*
X07161Y-24649D01*
X07355Y-24626D01*
X07548Y-24641D01*
X07736Y-24693D01*
X07910Y-24781D01*
X08064Y-24901D01*
X08192Y-25049D01*
X08288Y-25219D01*
X08350Y-25404D01*
X08374Y-25598D01*
X08375Y-25625D01*
X08875Y-24125D02*
X05875Y-24125D01*
X05875Y-24125D02*
X05875Y-27125D01*
X05875Y-27125D02*
X08875Y-27125D01*
X08875Y-24125D02*
X08875Y-27125D01*
X08375Y-22625D02*
X08355Y-22819D01*
X08299Y-23006D01*
X08207Y-23178D01*
X08084Y-23329D01*
X07934Y-23454D01*
X07762Y-23546D01*
X07576Y-23604D01*
X07381Y-23624D01*
X07188Y-23607D01*
X07001Y-23552D01*
X06828Y-23461D01*
X06676Y-23339D01*
X06550Y-23189D01*
X06456Y-23018D01*
X06397Y-22832D01*
X06376Y-22638D01*
X06392Y-22445D01*
X06446Y-22257D01*
X06535Y-22084D01*
X06656Y-21931D01*
X06805Y-21804D01*
X06975Y-21709D01*
X07161Y-21649D01*
X07355Y-21626D01*
X07548Y-21641D01*
X07736Y-21693D01*
X07910Y-21781D01*
X08064Y-21901D01*
X08192Y-22049D01*
X08288Y-22219D01*
X08350Y-22404D01*
X08374Y-22598D01*
X08375Y-22625D01*
X08875Y-21125D02*
X05875Y-21125D01*
X05875Y-21125D02*
X05875Y-24125D01*
X05875Y-24125D02*
X08875Y-24125D01*
X08875Y-21125D02*
X08875Y-24125D01*
G54D11*
X05375Y-28375D02*
X06375Y-28375D01*
X05934Y-28375D02*
X05923Y-28483D01*
X05891Y-28588D01*
X05840Y-28684D01*
X05771Y-28768D01*
X05687Y-28838D01*
X05591Y-28890D01*
X05487Y-28922D01*
X05378Y-28933D01*
X05271Y-28924D01*
X05166Y-28893D01*
X05069Y-28842D01*
X04984Y-28774D01*
X04914Y-28690D01*
X04862Y-28595D01*
X04829Y-28491D01*
X04817Y-28382D01*
X04826Y-28275D01*
X04856Y-28170D01*
X04906Y-28073D01*
X04973Y-27987D01*
X05056Y-27916D01*
X05152Y-27863D01*
X05255Y-27830D01*
X05364Y-27817D01*
X05472Y-27825D01*
X05577Y-27854D01*
X05674Y-27904D01*
X05760Y-27971D01*
X05831Y-28053D01*
X05885Y-28148D01*
X05920Y-28252D01*
X05933Y-28360D01*
X05934Y-28375D01*
G54D13*
X17250Y-00500D02*
X17250Y-04500D01*
X17250Y-04500D02*
X19250Y-04500D01*
X19250Y-04500D02*
X19250Y-00500D01*
X19250Y-00500D02*
X17250Y-00500D01*
G54D14*
X17250Y-05500D02*
X17250Y-09500D01*
X18250Y-05500D02*
X18250Y-09500D01*
X18250Y-09500D02*
X17250Y-09500D01*
X17250Y-05500D02*
X18250Y-05500D01*
X17250Y-10500D02*
X17250Y-14500D01*
X18250Y-10500D02*
X18250Y-14500D01*
X18250Y-14500D02*
X17250Y-14500D01*
X17250Y-10500D02*
X18250Y-10500D01*
G54D10*
X02250Y-20750D02*
X01250Y-20750D01*
X01250Y-20750D02*
X01250Y-23750D01*
X01250Y-23750D02*
X02250Y-23750D01*
X02250Y-23750D02*
X02250Y-20750D01*
X01250Y-21750D02*
X02250Y-21750D01*
X01250Y-19750D02*
X02250Y-19750D01*
X02250Y-19750D02*
X02250Y-16750D01*
X02250Y-16750D02*
X01250Y-16750D01*
X01250Y-16750D02*
X01250Y-19750D01*
X02250Y-18750D02*
X01250Y-18750D01*
X07000Y-28000D02*
X07000Y-29000D01*
X07000Y-29000D02*
X09000Y-29000D01*
X09000Y-29000D02*
X09000Y-28000D01*
X09000Y-28000D02*
X07000Y-28000D01*
G54D11*
X17250Y-16250D02*
X18250Y-16250D01*
X18250Y-16250D02*
X18250Y-24250D01*
X18250Y-24250D02*
X17250Y-24250D01*
X17250Y-24250D02*
X17250Y-16250D01*
G54D13*
X03250Y-26750D02*
X01750Y-28250D01*
X01750Y-28250D02*
X01250Y-28250D01*
X01250Y-28250D02*
X00750Y-27750D01*
X00750Y-27750D02*
X00750Y-26750D01*
X00750Y-26750D02*
X01750Y-25750D01*
X01750Y-25750D02*
X02750Y-25750D01*
X02750Y-25750D02*
X03250Y-26250D01*
X03250Y-26250D02*
X03250Y-26750D01*
G54D10*
X08250Y00000D02*
X07250Y00000D01*
X07250Y-01000D02*
X08250Y-01000D01*
X07250Y00000D02*
X07250Y-01000D01*
X08250Y-01000D02*
X08250Y00000D01*
X16500Y00000D02*
X15500Y00000D01*
X15500Y-01000D02*
X16500Y-01000D01*
X15500Y00000D02*
X15500Y-01000D01*
X16500Y-01000D02*
X16500Y00000D01*
G54D11*
X00500Y-14000D02*
X01500Y-14000D01*
X00500Y-11000D02*
X00500Y-14000D01*
X00500Y-11000D02*
X01500Y-11000D01*
X01500Y-16000D02*
X14500Y-16000D01*
X01500Y-09000D02*
X14500Y-09000D01*
X01500Y-16000D02*
X01500Y-09000D01*
X14500Y-09000D02*
X14500Y-16000D01*
G54D13*
X16750Y-23250D02*
X15750Y-23250D01*
X15750Y-18250D02*
X16750Y-18250D01*
X16750Y-23250D02*
X16750Y-18250D01*
X15750Y-18250D02*
X15750Y-23250D01*
G54D14*
X02405Y-33962D02*
X02405Y-34286D01*
X02386Y-34324D01*
X02367Y-34343D01*
X02329Y-34362D01*
X02252Y-34362D01*
X02214Y-34343D01*
X02195Y-34324D01*
X02176Y-34286D01*
X02176Y-33962D01*
X01776Y-34362D02*
X02005Y-34362D01*
X01891Y-34362D02*
X01891Y-33962D01*
X01929Y-34019D01*
X01967Y-34057D01*
X02005Y-34076D01*
X02000Y-29962D02*
X02000Y-29562D01*
X02000Y-29752D02*
X01771Y-29752D01*
X01771Y-29962D02*
X01771Y-29562D01*
X01505Y-29562D02*
X01428Y-29562D01*
X01390Y-29581D01*
X01352Y-29619D01*
X01333Y-29695D01*
X01333Y-29829D01*
X01352Y-29905D01*
X01390Y-29943D01*
X01428Y-29962D01*
X01505Y-29962D01*
X01543Y-29943D01*
X01581Y-29905D01*
X01600Y-29829D01*
X01600Y-29695D01*
X01581Y-29619D01*
X01543Y-29581D01*
X01505Y-29562D01*
X01162Y-29962D02*
X01162Y-29562D01*
X01162Y-29752D02*
X00933Y-29752D01*
X00933Y-29962D02*
X00933Y-29562D01*
X00552Y-29962D02*
X00743Y-29962D01*
X00743Y-29562D01*
X00438Y-29943D02*
X00381Y-29962D01*
X00285Y-29962D01*
X00247Y-29943D01*
X00228Y-29924D01*
X00209Y-29886D01*
X00209Y-29848D01*
X00228Y-29810D01*
X00247Y-29790D01*
X00285Y-29771D01*
X00362Y-29752D01*
X00400Y-29733D01*
X00419Y-29714D01*
X00438Y-29676D01*
X00438Y-29638D01*
X00419Y-29600D01*
X00400Y-29581D01*
X00362Y-29562D01*
X00266Y-29562D01*
X00209Y-29581D01*
X00095Y-29562D02*
X-00134Y-29562D01*
X-00019Y-29962D02*
X-00019Y-29562D01*
X-00267Y-29752D02*
X-00401Y-29752D01*
X-00458Y-29962D02*
X-00267Y-29962D01*
X-00267Y-29562D01*
X-00458Y-29562D01*
X-00858Y-29924D02*
X-00839Y-29943D01*
X-00782Y-29962D01*
X-00744Y-29962D01*
X-00686Y-29943D01*
X-00648Y-29905D01*
X-00629Y-29867D01*
X-00610Y-29790D01*
X-00610Y-29733D01*
X-00629Y-29657D01*
X-00648Y-29619D01*
X-00686Y-29581D01*
X-00744Y-29562D01*
X-00782Y-29562D01*
X-00839Y-29581D01*
X-00858Y-29600D01*
X-01029Y-29962D02*
X-01029Y-29562D01*
X-01258Y-29962D02*
X-01086Y-29733D01*
X-01258Y-29562D02*
X-01029Y-29790D01*
X-01429Y-29752D02*
X-01563Y-29752D01*
X-01620Y-29962D02*
X-01429Y-29962D01*
X-01429Y-29562D01*
X-01620Y-29562D01*
X-02020Y-29962D02*
X-01886Y-29771D01*
X-01791Y-29962D02*
X-01791Y-29562D01*
X-01944Y-29562D01*
X-01982Y-29581D01*
X-02001Y-29600D01*
X-02020Y-29638D01*
X-02020Y-29695D01*
X-02001Y-29733D01*
X-01982Y-29752D01*
X-01944Y-29771D01*
X-01791Y-29771D01*
G54D15*
X07908Y-19468D02*
X07851Y-19487D01*
X07755Y-19487D01*
X07717Y-19468D01*
X07698Y-19449D01*
X07679Y-19411D01*
X07679Y-19373D01*
X07698Y-19335D01*
X07717Y-19315D01*
X07755Y-19296D01*
X07832Y-19277D01*
X07870Y-19258D01*
X07889Y-19239D01*
X07908Y-19201D01*
X07908Y-19163D01*
X07889Y-19125D01*
X07870Y-19106D01*
X07832Y-19087D01*
X07736Y-19087D01*
X07679Y-19106D01*
X07546Y-19087D02*
X07451Y-19487D01*
X07374Y-19201D01*
X07298Y-19487D01*
X07203Y-19087D01*
X07089Y-19087D02*
X06841Y-19087D01*
X06975Y-19239D01*
X06917Y-19239D01*
X06879Y-19258D01*
X06860Y-19277D01*
X06841Y-19315D01*
X06841Y-19411D01*
X06860Y-19449D01*
X06879Y-19468D01*
X06917Y-19487D01*
X07032Y-19487D01*
X07070Y-19468D01*
X07089Y-19449D01*
X07860Y-20187D02*
X07860Y-19787D01*
X07860Y-20168D02*
X07898Y-20187D01*
X07975Y-20187D01*
X08013Y-20168D01*
X08032Y-20149D01*
X08051Y-20111D01*
X08051Y-19996D01*
X08032Y-19958D01*
X08013Y-19939D01*
X07975Y-19920D01*
X07898Y-19920D01*
X07860Y-19939D01*
X07613Y-20187D02*
X07651Y-20168D01*
X07670Y-20149D01*
X07689Y-20111D01*
X07689Y-19996D01*
X07670Y-19958D01*
X07651Y-19939D01*
X07613Y-19920D01*
X07555Y-19920D01*
X07517Y-19939D01*
X07498Y-19958D01*
X07479Y-19996D01*
X07479Y-20111D01*
X07498Y-20149D01*
X07517Y-20168D01*
X07555Y-20187D01*
X07613Y-20187D01*
X07346Y-19920D02*
X07270Y-20187D01*
X07193Y-19996D01*
X07117Y-20187D01*
X07041Y-19920D01*
X06889Y-19920D02*
X06889Y-20187D01*
X06889Y-19958D02*
X06870Y-19939D01*
X06832Y-19920D01*
X06774Y-19920D01*
X06736Y-19939D01*
X06717Y-19977D01*
X06717Y-20187D01*
X07908Y-25468D02*
X07851Y-25487D01*
X07755Y-25487D01*
X07717Y-25468D01*
X07698Y-25449D01*
X07679Y-25411D01*
X07679Y-25373D01*
X07698Y-25335D01*
X07717Y-25315D01*
X07755Y-25296D01*
X07832Y-25277D01*
X07870Y-25258D01*
X07889Y-25239D01*
X07908Y-25201D01*
X07908Y-25163D01*
X07889Y-25125D01*
X07870Y-25106D01*
X07832Y-25087D01*
X07736Y-25087D01*
X07679Y-25106D01*
X07546Y-25087D02*
X07451Y-25487D01*
X07374Y-25201D01*
X07298Y-25487D01*
X07203Y-25087D01*
X07070Y-25125D02*
X07051Y-25106D01*
X07013Y-25087D01*
X06917Y-25087D01*
X06879Y-25106D01*
X06860Y-25125D01*
X06841Y-25163D01*
X06841Y-25201D01*
X06860Y-25258D01*
X07089Y-25487D01*
X06841Y-25487D01*
X07566Y-26187D02*
X07604Y-26168D01*
X07623Y-26149D01*
X07642Y-26111D01*
X07642Y-25996D01*
X07623Y-25958D01*
X07604Y-25939D01*
X07566Y-25920D01*
X07508Y-25920D01*
X07470Y-25939D01*
X07451Y-25958D01*
X07432Y-25996D01*
X07432Y-26111D01*
X07451Y-26149D01*
X07470Y-26168D01*
X07508Y-26187D01*
X07566Y-26187D01*
X07261Y-26187D02*
X07261Y-25787D01*
X07223Y-26035D02*
X07108Y-26187D01*
X07108Y-25920D02*
X07261Y-26073D01*
X07908Y-22468D02*
X07851Y-22487D01*
X07755Y-22487D01*
X07717Y-22468D01*
X07698Y-22449D01*
X07679Y-22411D01*
X07679Y-22373D01*
X07698Y-22335D01*
X07717Y-22315D01*
X07755Y-22296D01*
X07832Y-22277D01*
X07870Y-22258D01*
X07889Y-22239D01*
X07908Y-22201D01*
X07908Y-22163D01*
X07889Y-22125D01*
X07870Y-22106D01*
X07832Y-22087D01*
X07736Y-22087D01*
X07679Y-22106D01*
X07546Y-22087D02*
X07451Y-22487D01*
X07374Y-22201D01*
X07298Y-22487D01*
X07203Y-22087D01*
X06841Y-22487D02*
X07070Y-22487D01*
X06956Y-22487D02*
X06956Y-22087D01*
X06994Y-22144D01*
X07032Y-22182D01*
X07070Y-22201D01*
X07470Y-22920D02*
X07470Y-23187D01*
X07642Y-22920D02*
X07642Y-23130D01*
X07623Y-23168D01*
X07585Y-23187D01*
X07527Y-23187D01*
X07489Y-23168D01*
X07470Y-23149D01*
X07280Y-22920D02*
X07280Y-23320D01*
X07280Y-22939D02*
X07242Y-22920D01*
X07165Y-22920D01*
X07127Y-22939D01*
X07108Y-22958D01*
X07089Y-22996D01*
X07089Y-23111D01*
X07108Y-23149D01*
X07127Y-23168D01*
X07165Y-23187D01*
X07242Y-23187D01*
X07280Y-23168D01*
X05558Y-27598D02*
X05725Y-27336D01*
X05844Y-27598D02*
X05844Y-27048D01*
X05653Y-27048D01*
X05606Y-27074D01*
X05582Y-27100D01*
X05558Y-27152D01*
X05558Y-27231D01*
X05582Y-27283D01*
X05606Y-27310D01*
X05653Y-27336D01*
X05844Y-27336D01*
X05368Y-27100D02*
X05344Y-27074D01*
X05296Y-27048D01*
X05177Y-27048D01*
X05130Y-27074D01*
X05106Y-27100D01*
X05082Y-27152D01*
X05082Y-27205D01*
X05106Y-27283D01*
X05392Y-27598D01*
X05082Y-27598D01*
X16512Y-02195D02*
X16836Y-02195D01*
X16874Y-02214D01*
X16893Y-02233D01*
X16912Y-02271D01*
X16912Y-02348D01*
X16893Y-02386D01*
X16874Y-02405D01*
X16836Y-02424D01*
X16512Y-02424D01*
X16683Y-02671D02*
X16664Y-02633D01*
X16645Y-02614D01*
X16607Y-02595D01*
X16588Y-02595D01*
X16550Y-02614D01*
X16531Y-02633D01*
X16512Y-02671D01*
X16512Y-02748D01*
X16531Y-02786D01*
X16550Y-02805D01*
X16588Y-02824D01*
X16607Y-02824D01*
X16645Y-02805D01*
X16664Y-02786D01*
X16683Y-02748D01*
X16683Y-02671D01*
X16702Y-02633D01*
X16721Y-02614D01*
X16760Y-02595D01*
X16836Y-02595D01*
X16874Y-02614D01*
X16893Y-02633D01*
X16912Y-02671D01*
X16912Y-02748D01*
X16893Y-02786D01*
X16874Y-02805D01*
X16836Y-02824D01*
X16760Y-02824D01*
X16721Y-02805D01*
X16702Y-02786D01*
X16683Y-02748D01*
X18512Y-07005D02*
X18836Y-07005D01*
X18874Y-07024D01*
X18893Y-07043D01*
X18912Y-07081D01*
X18912Y-07158D01*
X18893Y-07196D01*
X18874Y-07215D01*
X18836Y-07234D01*
X18512Y-07234D01*
X18912Y-07634D02*
X18912Y-07405D01*
X18912Y-07519D02*
X18512Y-07519D01*
X18569Y-07481D01*
X18607Y-07443D01*
X18626Y-07405D01*
X18912Y-08015D02*
X18912Y-07786D01*
X18912Y-07900D02*
X18512Y-07900D01*
X18569Y-07862D01*
X18607Y-07824D01*
X18626Y-07786D01*
X18512Y-12005D02*
X18836Y-12005D01*
X18874Y-12024D01*
X18893Y-12043D01*
X18912Y-12081D01*
X18912Y-12158D01*
X18893Y-12196D01*
X18874Y-12215D01*
X18836Y-12234D01*
X18512Y-12234D01*
X18912Y-12634D02*
X18912Y-12405D01*
X18912Y-12519D02*
X18512Y-12519D01*
X18569Y-12481D01*
X18607Y-12443D01*
X18626Y-12405D01*
X18512Y-12881D02*
X18512Y-12920D01*
X18531Y-12958D01*
X18550Y-12977D01*
X18588Y-12996D01*
X18664Y-13015D01*
X18760Y-13015D01*
X18836Y-12996D01*
X18874Y-12977D01*
X18893Y-12958D01*
X18912Y-12920D01*
X18912Y-12881D01*
X18893Y-12843D01*
X18874Y-12824D01*
X18836Y-12805D01*
X18760Y-12786D01*
X18664Y-12786D01*
X18588Y-12805D01*
X18550Y-12824D01*
X18531Y-12843D01*
X18512Y-12881D01*
G54D10*
X01062Y-22055D02*
X00662Y-22055D01*
X01062Y-22284D02*
X00833Y-22112D01*
X00662Y-22284D02*
X00890Y-22055D01*
X01062Y-22665D02*
X01062Y-22436D01*
X01062Y-22550D02*
X00662Y-22550D01*
X00719Y-22512D01*
X00757Y-22474D01*
X00776Y-22436D01*
X02762Y-17855D02*
X02362Y-17855D01*
X02762Y-18084D02*
X02533Y-17912D01*
X02362Y-18084D02*
X02590Y-17855D01*
X02400Y-18236D02*
X02381Y-18255D01*
X02362Y-18293D01*
X02362Y-18389D01*
X02381Y-18427D01*
X02400Y-18446D01*
X02438Y-18465D01*
X02476Y-18465D01*
X02533Y-18446D01*
X02762Y-18217D01*
X02762Y-18465D01*
X08222Y-29371D02*
X08222Y-29071D01*
X08107Y-29071D01*
X08079Y-29086D01*
X08064Y-29100D01*
X08050Y-29129D01*
X08050Y-29171D01*
X08064Y-29200D01*
X08079Y-29214D01*
X08107Y-29229D01*
X08222Y-29229D01*
X07764Y-29371D02*
X07936Y-29371D01*
X07850Y-29371D02*
X07850Y-29071D01*
X07879Y-29114D01*
X07907Y-29143D01*
X07936Y-29157D01*
G54D13*
X16393Y-19793D02*
X16879Y-19793D01*
X16936Y-19821D01*
X16964Y-19850D01*
X16993Y-19907D01*
X16993Y-20021D01*
X16964Y-20079D01*
X16936Y-20107D01*
X16879Y-20136D01*
X16393Y-20136D01*
X16993Y-20450D02*
X16993Y-20565D01*
X16964Y-20622D01*
X16936Y-20650D01*
X16850Y-20708D01*
X16736Y-20736D01*
X16507Y-20736D01*
X16450Y-20708D01*
X16421Y-20679D01*
X16393Y-20622D01*
X16393Y-20508D01*
X16421Y-20450D01*
X16450Y-20422D01*
X16507Y-20393D01*
X16650Y-20393D01*
X16707Y-20422D01*
X16736Y-20450D01*
X16764Y-20508D01*
X16764Y-20622D01*
X16736Y-20679D01*
X16707Y-20708D01*
X16650Y-20736D01*
X18993Y-19265D02*
X18993Y-18922D01*
X18993Y-19094D02*
X18393Y-19094D01*
X18479Y-19037D01*
X18536Y-18979D01*
X18564Y-18922D01*
X18393Y-19636D02*
X18393Y-19693D01*
X18421Y-19750D01*
X18450Y-19779D01*
X18507Y-19808D01*
X18621Y-19836D01*
X18764Y-19836D01*
X18879Y-19808D01*
X18936Y-19779D01*
X18964Y-19750D01*
X18993Y-19693D01*
X18993Y-19636D01*
X18964Y-19579D01*
X18936Y-19550D01*
X18879Y-19522D01*
X18764Y-19493D01*
X18621Y-19493D01*
X18507Y-19522D01*
X18450Y-19550D01*
X18421Y-19579D01*
X18393Y-19636D01*
X18993Y-20093D02*
X18393Y-20093D01*
X18393Y-20236D01*
X18421Y-20321D01*
X18479Y-20379D01*
X18536Y-20407D01*
X18650Y-20436D01*
X18736Y-20436D01*
X18850Y-20407D01*
X18907Y-20379D01*
X18964Y-20321D01*
X18993Y-20236D01*
X18993Y-20093D01*
X18393Y-20807D02*
X18393Y-20921D01*
X18421Y-20979D01*
X18479Y-21036D01*
X18593Y-21064D01*
X18793Y-21064D01*
X18907Y-21036D01*
X18964Y-20979D01*
X18993Y-20921D01*
X18993Y-20807D01*
X18964Y-20750D01*
X18907Y-20693D01*
X18793Y-20664D01*
X18593Y-20664D01*
X18479Y-20693D01*
X18421Y-20750D01*
X18393Y-20807D01*
X18679Y-21522D02*
X18679Y-21322D01*
X18993Y-21322D02*
X18393Y-21322D01*
X18393Y-21608D01*
G54D15*
X03912Y-26455D02*
X03512Y-26455D01*
X03912Y-26684D02*
X03683Y-26512D01*
X03512Y-26684D02*
X03740Y-26455D01*
X03512Y-26817D02*
X03512Y-27065D01*
X03664Y-26931D01*
X03664Y-26989D01*
X03683Y-27027D01*
X03702Y-27046D01*
X03740Y-27065D01*
X03836Y-27065D01*
X03874Y-27046D01*
X03893Y-27027D01*
X03912Y-26989D01*
X03912Y-26874D01*
X03893Y-26836D01*
X03874Y-26817D01*
X00374Y-25903D02*
X00393Y-25884D01*
X00412Y-25827D01*
X00412Y-25789D01*
X00393Y-25731D01*
X00355Y-25693D01*
X00317Y-25674D01*
X00240Y-25655D01*
X00183Y-25655D01*
X00107Y-25674D01*
X00069Y-25693D01*
X00031Y-25731D01*
X00012Y-25789D01*
X00012Y-25827D01*
X00031Y-25884D01*
X00050Y-25903D01*
X00012Y-26150D02*
X00012Y-26227D01*
X00031Y-26265D01*
X00069Y-26303D01*
X00145Y-26322D01*
X00279Y-26322D01*
X00355Y-26303D01*
X00393Y-26265D01*
X00412Y-26227D01*
X00412Y-26150D01*
X00393Y-26112D01*
X00355Y-26074D01*
X00279Y-26055D01*
X00145Y-26055D01*
X00069Y-26074D01*
X00031Y-26112D01*
X00012Y-26150D01*
X00412Y-26493D02*
X00012Y-26493D01*
X00412Y-26722D01*
X00012Y-26722D01*
X00412Y-26912D02*
X00012Y-26912D01*
X00412Y-27141D01*
X00012Y-27141D01*
X00450Y-27236D02*
X00450Y-27541D01*
X00012Y-27598D02*
X00012Y-27846D01*
X00164Y-27712D01*
X00164Y-27770D01*
X00183Y-27808D01*
X00202Y-27827D01*
X00240Y-27846D01*
X00336Y-27846D01*
X00374Y-27827D01*
X00393Y-27808D01*
X00412Y-27770D01*
X00412Y-27655D01*
X00393Y-27617D01*
X00374Y-27598D01*
G54D10*
X07972Y-01371D02*
X07972Y-01071D01*
X07857Y-01071D01*
X07829Y-01086D01*
X07814Y-01100D01*
X07800Y-01129D01*
X07800Y-01171D01*
X07814Y-01200D01*
X07829Y-01214D01*
X07857Y-01229D01*
X07972Y-01229D01*
X07686Y-01100D02*
X07672Y-01086D01*
X07643Y-01071D01*
X07572Y-01071D01*
X07543Y-01086D01*
X07529Y-01100D01*
X07514Y-01129D01*
X07514Y-01157D01*
X07529Y-01200D01*
X07700Y-01371D01*
X07514Y-01371D01*
X16222Y-01371D02*
X16222Y-01071D01*
X16107Y-01071D01*
X16079Y-01086D01*
X16064Y-01100D01*
X16050Y-01129D01*
X16050Y-01171D01*
X16064Y-01200D01*
X16079Y-01214D01*
X16107Y-01229D01*
X16222Y-01229D01*
X15950Y-01071D02*
X15764Y-01071D01*
X15864Y-01186D01*
X15822Y-01186D01*
X15793Y-01200D01*
X15779Y-01214D01*
X15764Y-01243D01*
X15764Y-01314D01*
X15779Y-01343D01*
X15793Y-01357D01*
X15822Y-01371D01*
X15907Y-01371D01*
X15936Y-01357D01*
X15950Y-01343D01*
G54D13*
X08957Y-10643D02*
X08957Y-11129D01*
X08929Y-11186D01*
X08900Y-11214D01*
X08843Y-11243D01*
X08729Y-11243D01*
X08671Y-11214D01*
X08643Y-11186D01*
X08614Y-11129D01*
X08614Y-10643D01*
X08385Y-10643D02*
X08014Y-10643D01*
X08214Y-10871D01*
X08128Y-10871D01*
X08071Y-10900D01*
X08042Y-10929D01*
X08014Y-10986D01*
X08014Y-11129D01*
X08042Y-11186D01*
X08071Y-11214D01*
X08128Y-11243D01*
X08300Y-11243D01*
X08357Y-11214D01*
X08385Y-11186D01*
X12644Y-13571D02*
X12358Y-13571D01*
X12701Y-13743D02*
X12501Y-13143D01*
X12301Y-13743D01*
X11758Y-13743D02*
X11958Y-13457D01*
X12101Y-13743D02*
X12101Y-13143D01*
X11873Y-13143D01*
X11815Y-13171D01*
X11787Y-13200D01*
X11758Y-13257D01*
X11758Y-13343D01*
X11787Y-13400D01*
X11815Y-13429D01*
X11873Y-13457D01*
X12101Y-13457D01*
X11501Y-13743D02*
X11501Y-13143D01*
X11358Y-13143D01*
X11273Y-13171D01*
X11215Y-13229D01*
X11187Y-13286D01*
X11158Y-13400D01*
X11158Y-13486D01*
X11187Y-13600D01*
X11215Y-13657D01*
X11273Y-13714D01*
X11358Y-13743D01*
X11501Y-13743D01*
X10901Y-13143D02*
X10901Y-13629D01*
X10873Y-13686D01*
X10844Y-13714D01*
X10787Y-13743D01*
X10673Y-13743D01*
X10615Y-13714D01*
X10587Y-13686D01*
X10558Y-13629D01*
X10558Y-13143D01*
X10272Y-13743D02*
X10272Y-13143D01*
X09986Y-13743D02*
X09986Y-13143D01*
X09643Y-13743D01*
X09643Y-13143D01*
X09243Y-13143D02*
X09129Y-13143D01*
X09071Y-13171D01*
X09014Y-13229D01*
X08986Y-13343D01*
X08986Y-13543D01*
X09014Y-13657D01*
X09071Y-13714D01*
X09129Y-13743D01*
X09243Y-13743D01*
X09300Y-13714D01*
X09357Y-13657D01*
X09386Y-13543D01*
X09386Y-13343D01*
X09357Y-13229D01*
X09300Y-13171D01*
X09243Y-13143D01*
X08871Y-13800D02*
X08414Y-13800D01*
X08271Y-13743D02*
X08271Y-13143D01*
X08071Y-13571D01*
X07871Y-13143D01*
X07871Y-13743D01*
X07585Y-13743D02*
X07585Y-13143D01*
X07299Y-13743D02*
X07299Y-13143D01*
X06956Y-13743D01*
X06956Y-13143D01*
X06670Y-13743D02*
X06670Y-13143D01*
X06527Y-13800D02*
X06070Y-13800D01*
X05927Y-13743D02*
X05927Y-13143D01*
X05699Y-13143D01*
X05641Y-13171D01*
X05613Y-13200D01*
X05584Y-13257D01*
X05584Y-13343D01*
X05613Y-13400D01*
X05641Y-13429D01*
X05699Y-13457D01*
X05927Y-13457D01*
X04984Y-13743D02*
X05184Y-13457D01*
X05327Y-13743D02*
X05327Y-13143D01*
X05099Y-13143D01*
X05041Y-13171D01*
X05013Y-13200D01*
X04984Y-13257D01*
X04984Y-13343D01*
X05013Y-13400D01*
X05041Y-13429D01*
X05099Y-13457D01*
X05327Y-13457D01*
X04613Y-13143D02*
X04499Y-13143D01*
X04441Y-13171D01*
X04384Y-13229D01*
X04356Y-13343D01*
X04356Y-13543D01*
X04384Y-13657D01*
X04441Y-13714D01*
X04499Y-13743D01*
X04613Y-13743D01*
X04670Y-13714D01*
X04727Y-13657D01*
X04756Y-13543D01*
X04756Y-13343D01*
X04727Y-13229D01*
X04670Y-13171D01*
X04613Y-13143D01*
G54D15*
X17012Y-20445D02*
X17336Y-20445D01*
X17374Y-20464D01*
X17393Y-20483D01*
X17412Y-20521D01*
X17412Y-20598D01*
X17393Y-20636D01*
X17374Y-20655D01*
X17336Y-20674D01*
X17012Y-20674D01*
X17050Y-20845D02*
X17031Y-20864D01*
X17012Y-20902D01*
X17012Y-20998D01*
X17031Y-21036D01*
X17050Y-21055D01*
X17088Y-21074D01*
X17126Y-21074D01*
X17183Y-21055D01*
X17412Y-20826D01*
X17412Y-21074D01*
M02*
