G04 (created by PCBNEW-RS274X (2012-apr-16-27)-stable) date So 26 Okt 2014 19:58:05 CET*
G01*
G70*
G90*
%MOIN*%
G04 Gerber Fmt 3.4, Leading zero omitted, Abs format*
%FSLAX34Y34*%
G04 APERTURE LIST*
%ADD10C,0.006000*%
%ADD11C,0.149900*%
%ADD12R,0.149900X0.149900*%
%ADD13C,0.075000*%
%ADD14R,0.065000X0.045000*%
%ADD15R,0.045000X0.065000*%
%ADD16R,0.080000X0.080000*%
%ADD17C,0.080000*%
%ADD18R,0.051400X0.051400*%
%ADD19R,0.079100X0.059400*%
%ADD20R,0.075000X0.075000*%
%ADD21R,0.130200X0.079100*%
%ADD22R,0.079100X0.047600*%
%ADD23C,0.063300*%
%ADD24C,0.083000*%
%ADD25C,0.079100*%
%ADD26R,0.079100X0.079100*%
G04 APERTURE END LIST*
G54D10*
G54D11*
X02000Y-32000D03*
G54D12*
X04400Y-32000D03*
G54D11*
X02900Y-30000D03*
G54D13*
X05875Y-18625D03*
X05875Y-20625D03*
X08875Y-18625D03*
X08875Y-20625D03*
X05875Y-24625D03*
X05875Y-26625D03*
X08875Y-24625D03*
X08875Y-26625D03*
X05875Y-21625D03*
X05875Y-23625D03*
X08875Y-21625D03*
X08875Y-23625D03*
G54D14*
X02750Y-17800D03*
X02750Y-17200D03*
X02750Y-18450D03*
X02750Y-19050D03*
G54D15*
X15050Y-33250D03*
X14450Y-33250D03*
X15300Y-30500D03*
X14700Y-30500D03*
X15175Y-36625D03*
X14575Y-36625D03*
G54D14*
X15875Y-37175D03*
X15875Y-36575D03*
X15875Y-31175D03*
X15875Y-30575D03*
X15875Y-33925D03*
X15875Y-33325D03*
G54D15*
X07450Y-03750D03*
X08050Y-03750D03*
X07450Y-02250D03*
X08050Y-02250D03*
X07450Y-01500D03*
X08050Y-01500D03*
X15700Y-03750D03*
X16300Y-03750D03*
X15700Y-02250D03*
X16300Y-02250D03*
G54D14*
X05125Y-20675D03*
X05125Y-20075D03*
X05125Y-26675D03*
X05125Y-26075D03*
X05125Y-23675D03*
X05125Y-23075D03*
G54D15*
X04200Y-18750D03*
X04800Y-18750D03*
X15700Y-01500D03*
X16300Y-01500D03*
G54D13*
X05375Y-28375D03*
X06375Y-28375D03*
G54D16*
X18750Y-01000D03*
G54D17*
X17750Y-01000D03*
X18750Y-02000D03*
X17750Y-02000D03*
X18750Y-03000D03*
X17750Y-03000D03*
X18750Y-04000D03*
X17750Y-04000D03*
G54D16*
X17750Y-09000D03*
G54D17*
X17750Y-08000D03*
X17750Y-07000D03*
X17750Y-06000D03*
G54D16*
X17750Y-14000D03*
G54D17*
X17750Y-13000D03*
X17750Y-12000D03*
X17750Y-11000D03*
G54D16*
X01750Y-21250D03*
G54D17*
X01750Y-22250D03*
X01750Y-23250D03*
G54D16*
X01750Y-19250D03*
G54D17*
X01750Y-18250D03*
X01750Y-17250D03*
G54D16*
X07500Y-28500D03*
G54D17*
X08500Y-28500D03*
G54D18*
X16205Y-03000D03*
X16795Y-03000D03*
X16205Y-04500D03*
X16795Y-04500D03*
X07955Y-03000D03*
X08545Y-03000D03*
X07955Y-04500D03*
X08545Y-04500D03*
G54D17*
X17750Y-16750D03*
X17750Y-17750D03*
X17750Y-18750D03*
X17750Y-19750D03*
X17750Y-20750D03*
X17750Y-21750D03*
X17750Y-22750D03*
X17750Y-23750D03*
G54D19*
X09047Y-07921D03*
X09047Y-07331D03*
X09047Y-01426D03*
X09047Y-00835D03*
X14952Y-00835D03*
X14952Y-02607D03*
X14952Y-02016D03*
X00797Y-07921D03*
X00797Y-07331D03*
X00797Y-01426D03*
X00797Y-00835D03*
X06702Y-00835D03*
X06702Y-02607D03*
X06702Y-02016D03*
G54D20*
X01750Y-27750D03*
G54D13*
X01750Y-26750D03*
X02750Y-26750D03*
G54D14*
X15875Y-35325D03*
X15875Y-35925D03*
G54D16*
X07750Y-00500D03*
X16000Y-00500D03*
G54D21*
X17609Y-27698D03*
X17609Y-37580D03*
X26074Y-37580D03*
X26074Y-26989D03*
G54D22*
X16901Y-37029D03*
X16901Y-36556D03*
G54D19*
X16901Y-36044D03*
X16901Y-35375D03*
X16901Y-34420D03*
X16901Y-33436D03*
X16901Y-32452D03*
X16901Y-31468D03*
X16901Y-30483D03*
X16901Y-29499D03*
X16901Y-28515D03*
G54D23*
X18003Y-36733D03*
G54D24*
X18003Y-28466D03*
G54D25*
X03000Y-09500D03*
X04000Y-09500D03*
X05000Y-09500D03*
X06000Y-09500D03*
X07000Y-09500D03*
X08000Y-09500D03*
X09000Y-09500D03*
X10000Y-09500D03*
X11000Y-09500D03*
X12000Y-09500D03*
X13000Y-09500D03*
X14000Y-09500D03*
X14000Y-15500D03*
X13000Y-15500D03*
X12000Y-15500D03*
X11000Y-15500D03*
X10000Y-15500D03*
X09000Y-15500D03*
X08000Y-15500D03*
X07000Y-15500D03*
X06000Y-15500D03*
X05000Y-15500D03*
X04000Y-15500D03*
X03000Y-15500D03*
G54D16*
X16250Y-22750D03*
G54D17*
X16250Y-21750D03*
X16250Y-20750D03*
X16250Y-19750D03*
X16250Y-18750D03*
G54D26*
X01596Y-35161D03*
X01596Y-36500D03*
X01596Y-37839D03*
X04904Y-37839D03*
X04904Y-36500D03*
X04982Y-35161D03*
G54D19*
X02305Y-35870D03*
X02305Y-36500D03*
X02305Y-37130D03*
X04195Y-37130D03*
X04195Y-36500D03*
X04195Y-35870D03*
G54D26*
X05846Y-35161D03*
X05846Y-36500D03*
X05846Y-37839D03*
X09154Y-37839D03*
X09154Y-36500D03*
X09232Y-35161D03*
G54D19*
X06555Y-35870D03*
X06555Y-36500D03*
X06555Y-37130D03*
X08445Y-37130D03*
X08445Y-36500D03*
X08445Y-35870D03*
G54D26*
X10096Y-35161D03*
X10096Y-36500D03*
X10096Y-37839D03*
X13404Y-37839D03*
X13404Y-36500D03*
X13482Y-35161D03*
G54D19*
X10805Y-35870D03*
X10805Y-36500D03*
X10805Y-37130D03*
X12695Y-37130D03*
X12695Y-36500D03*
X12695Y-35870D03*
M02*
