G04 (created by PCBNEW-RS274X (2012-apr-16-27)-stable) date So 26 Okt 2014 19:58:05 CET*
G01*
G70*
G90*
%MOIN*%
G04 Gerber Fmt 3.4, Leading zero omitted, Abs format*
%FSLAX34Y34*%
G04 APERTURE LIST*
%ADD10C,0.006000*%
%ADD11C,0.149900*%
%ADD12R,0.149900X0.149900*%
%ADD13C,0.075000*%
%ADD14R,0.080000X0.080000*%
%ADD15C,0.080000*%
%ADD16R,0.075000X0.075000*%
%ADD17C,0.063300*%
%ADD18C,0.083000*%
%ADD19C,0.079100*%
G04 APERTURE END LIST*
G54D10*
G54D11*
X02000Y-32000D03*
G54D12*
X04400Y-32000D03*
G54D11*
X02900Y-30000D03*
G54D13*
X05875Y-18625D03*
X05875Y-20625D03*
X08875Y-18625D03*
X08875Y-20625D03*
X05875Y-24625D03*
X05875Y-26625D03*
X08875Y-24625D03*
X08875Y-26625D03*
X05875Y-21625D03*
X05875Y-23625D03*
X08875Y-21625D03*
X08875Y-23625D03*
X05375Y-28375D03*
X06375Y-28375D03*
G54D14*
X18750Y-01000D03*
G54D15*
X17750Y-01000D03*
X18750Y-02000D03*
X17750Y-02000D03*
X18750Y-03000D03*
X17750Y-03000D03*
X18750Y-04000D03*
X17750Y-04000D03*
G54D14*
X17750Y-09000D03*
G54D15*
X17750Y-08000D03*
X17750Y-07000D03*
X17750Y-06000D03*
G54D14*
X17750Y-14000D03*
G54D15*
X17750Y-13000D03*
X17750Y-12000D03*
X17750Y-11000D03*
G54D14*
X01750Y-21250D03*
G54D15*
X01750Y-22250D03*
X01750Y-23250D03*
G54D14*
X01750Y-19250D03*
G54D15*
X01750Y-18250D03*
X01750Y-17250D03*
G54D14*
X07500Y-28500D03*
G54D15*
X08500Y-28500D03*
X17750Y-16750D03*
X17750Y-17750D03*
X17750Y-18750D03*
X17750Y-19750D03*
X17750Y-20750D03*
X17750Y-21750D03*
X17750Y-22750D03*
X17750Y-23750D03*
G54D16*
X01750Y-27750D03*
G54D13*
X01750Y-26750D03*
X02750Y-26750D03*
G54D14*
X07750Y-00500D03*
X16000Y-00500D03*
G54D17*
X18003Y-36733D03*
G54D18*
X18003Y-28466D03*
G54D19*
X03000Y-09500D03*
X04000Y-09500D03*
X05000Y-09500D03*
X06000Y-09500D03*
X07000Y-09500D03*
X08000Y-09500D03*
X09000Y-09500D03*
X10000Y-09500D03*
X11000Y-09500D03*
X12000Y-09500D03*
X13000Y-09500D03*
X14000Y-09500D03*
X14000Y-15500D03*
X13000Y-15500D03*
X12000Y-15500D03*
X11000Y-15500D03*
X10000Y-15500D03*
X09000Y-15500D03*
X08000Y-15500D03*
X07000Y-15500D03*
X06000Y-15500D03*
X05000Y-15500D03*
X04000Y-15500D03*
X03000Y-15500D03*
G54D14*
X16250Y-22750D03*
G54D15*
X16250Y-21750D03*
X16250Y-20750D03*
X16250Y-19750D03*
X16250Y-18750D03*
M02*
