M48
;DRILL file {Pcbnew (2012-apr-16-27)-stable} date Mo 27 Okt 2014 01:10:13 CET
;FORMAT={-:-/ absolute / metric / decimal}
FMAT,2
METRIC,TZ
T1C0.800
T2C0.813
T3C1.016
T4C1.100
T5C1.600
%
G90
G05
M71
T1
X7.620Y-24.130
X7.620Y-39.370
X10.160Y-24.130
X10.160Y-39.370
X12.700Y-24.130
X12.700Y-39.370
X15.240Y-24.130
X15.240Y-39.370
X17.780Y-24.130
X17.780Y-39.370
X20.320Y-24.130
X20.320Y-39.370
X22.860Y-24.130
X22.860Y-39.370
X25.400Y-24.130
X25.400Y-39.370
X27.940Y-24.130
X27.940Y-39.370
X30.480Y-24.130
X30.480Y-39.370
X33.020Y-24.130
X33.020Y-39.370
X35.560Y-24.130
X35.560Y-39.370
T2
X4.445Y-67.945
X4.445Y-70.485
X6.985Y-67.945
X13.653Y-72.073
X14.923Y-47.308
X14.923Y-52.388
X14.923Y-54.928
X14.923Y-60.008
X14.923Y-62.548
X14.923Y-67.627
X16.193Y-72.073
X22.543Y-47.308
X22.543Y-52.388
X22.543Y-54.928
X22.543Y-60.008
X22.543Y-62.548
X22.543Y-67.627
X45.085Y-42.545
X45.085Y-45.085
X45.085Y-47.625
X45.085Y-50.165
X45.085Y-52.705
X45.085Y-55.245
X45.085Y-57.785
X45.085Y-60.325
T3
X4.445Y-43.815
X4.445Y-46.355
X4.445Y-48.895
X4.445Y-53.975
X4.445Y-56.515
X4.445Y-59.055
X19.050Y-72.390
X19.685Y-1.270
X21.590Y-72.390
X40.640Y-1.270
X41.275Y-47.625
X41.275Y-50.165
X41.275Y-52.705
X41.275Y-55.245
X41.275Y-57.785
X45.085Y-2.540
X45.085Y-5.080
X45.085Y-7.620
X45.085Y-10.160
X45.085Y-15.240
X45.085Y-17.780
X45.085Y-20.320
X45.085Y-22.860
X45.085Y-27.940
X45.085Y-30.480
X45.085Y-33.020
X45.085Y-35.560
X47.625Y-2.540
X47.625Y-5.080
X47.625Y-7.620
X47.625Y-10.160
T4
X45.728Y-93.302
T5
X45.728Y-72.304
T3
X5.080Y-80.518G85X5.080Y-82.042
G05
X6.604Y-76.200G85X8.128Y-76.200
G05
X11.176Y-80.518G85X11.176Y-82.042
G05
T0
M30
