G04 (created by PCBNEW-RS274X (2012-apr-16-27)-stable) date So 26 Okt 2014 19:58:05 CET*
G01*
G70*
G90*
%MOIN*%
G04 Gerber Fmt 3.4, Leading zero omitted, Abs format*
%FSLAX34Y34*%
G04 APERTURE LIST*
%ADD10C,0.006000*%
%ADD11C,0.005000*%
%ADD12C,0.002600*%
%ADD13C,0.004000*%
%ADD14C,0.015000*%
%ADD15C,0.004500*%
%ADD16C,0.012000*%
G04 APERTURE END LIST*
G54D10*
G54D11*
X02500Y-17950D02*
X02500Y-17050D01*
X02500Y-17050D02*
X03000Y-17050D01*
X03000Y-17050D02*
X03000Y-17950D01*
X03000Y-17950D02*
X02500Y-17950D01*
X03000Y-18300D02*
X03000Y-19200D01*
X03000Y-19200D02*
X02500Y-19200D01*
X02500Y-19200D02*
X02500Y-18300D01*
X02500Y-18300D02*
X03000Y-18300D01*
X15200Y-33500D02*
X14300Y-33500D01*
X14300Y-33500D02*
X14300Y-33000D01*
X14300Y-33000D02*
X15200Y-33000D01*
X15200Y-33000D02*
X15200Y-33500D01*
X15450Y-30750D02*
X14550Y-30750D01*
X14550Y-30750D02*
X14550Y-30250D01*
X14550Y-30250D02*
X15450Y-30250D01*
X15450Y-30250D02*
X15450Y-30750D01*
X15325Y-36875D02*
X14425Y-36875D01*
X14425Y-36875D02*
X14425Y-36375D01*
X14425Y-36375D02*
X15325Y-36375D01*
X15325Y-36375D02*
X15325Y-36875D01*
X15625Y-37325D02*
X15625Y-36425D01*
X15625Y-36425D02*
X16125Y-36425D01*
X16125Y-36425D02*
X16125Y-37325D01*
X16125Y-37325D02*
X15625Y-37325D01*
X15625Y-31325D02*
X15625Y-30425D01*
X15625Y-30425D02*
X16125Y-30425D01*
X16125Y-30425D02*
X16125Y-31325D01*
X16125Y-31325D02*
X15625Y-31325D01*
X15625Y-34075D02*
X15625Y-33175D01*
X15625Y-33175D02*
X16125Y-33175D01*
X16125Y-33175D02*
X16125Y-34075D01*
X16125Y-34075D02*
X15625Y-34075D01*
X07300Y-03500D02*
X08200Y-03500D01*
X08200Y-03500D02*
X08200Y-04000D01*
X08200Y-04000D02*
X07300Y-04000D01*
X07300Y-04000D02*
X07300Y-03500D01*
X07300Y-02000D02*
X08200Y-02000D01*
X08200Y-02000D02*
X08200Y-02500D01*
X08200Y-02500D02*
X07300Y-02500D01*
X07300Y-02500D02*
X07300Y-02000D01*
X07300Y-01250D02*
X08200Y-01250D01*
X08200Y-01250D02*
X08200Y-01750D01*
X08200Y-01750D02*
X07300Y-01750D01*
X07300Y-01750D02*
X07300Y-01250D01*
X15550Y-03500D02*
X16450Y-03500D01*
X16450Y-03500D02*
X16450Y-04000D01*
X16450Y-04000D02*
X15550Y-04000D01*
X15550Y-04000D02*
X15550Y-03500D01*
X15550Y-02000D02*
X16450Y-02000D01*
X16450Y-02000D02*
X16450Y-02500D01*
X16450Y-02500D02*
X15550Y-02500D01*
X15550Y-02500D02*
X15550Y-02000D01*
X04875Y-20825D02*
X04875Y-19925D01*
X04875Y-19925D02*
X05375Y-19925D01*
X05375Y-19925D02*
X05375Y-20825D01*
X05375Y-20825D02*
X04875Y-20825D01*
X04875Y-26825D02*
X04875Y-25925D01*
X04875Y-25925D02*
X05375Y-25925D01*
X05375Y-25925D02*
X05375Y-26825D01*
X05375Y-26825D02*
X04875Y-26825D01*
X04875Y-23825D02*
X04875Y-22925D01*
X04875Y-22925D02*
X05375Y-22925D01*
X05375Y-22925D02*
X05375Y-23825D01*
X05375Y-23825D02*
X04875Y-23825D01*
X04050Y-18500D02*
X04950Y-18500D01*
X04950Y-18500D02*
X04950Y-19000D01*
X04950Y-19000D02*
X04050Y-19000D01*
X04050Y-19000D02*
X04050Y-18500D01*
X15550Y-01250D02*
X16450Y-01250D01*
X16450Y-01250D02*
X16450Y-01750D01*
X16450Y-01750D02*
X15550Y-01750D01*
X15550Y-01750D02*
X15550Y-01250D01*
G54D12*
X16677Y-02823D02*
X16677Y-03177D01*
X16677Y-03177D02*
X16834Y-03177D01*
X16834Y-02823D02*
X16834Y-03177D01*
X16677Y-02823D02*
X16834Y-02823D01*
X16166Y-02823D02*
X16166Y-03177D01*
X16166Y-03177D02*
X16323Y-03177D01*
X16323Y-02823D02*
X16323Y-03177D01*
X16166Y-02823D02*
X16323Y-02823D01*
X16500Y-02823D02*
X16500Y-02882D01*
X16500Y-02882D02*
X16618Y-02882D01*
X16618Y-02823D02*
X16618Y-02882D01*
X16500Y-02823D02*
X16618Y-02823D01*
X16500Y-03118D02*
X16500Y-03177D01*
X16500Y-03177D02*
X16618Y-03177D01*
X16618Y-03118D02*
X16618Y-03177D01*
X16500Y-03118D02*
X16618Y-03118D01*
X16500Y-02941D02*
X16500Y-03059D01*
X16500Y-03059D02*
X16618Y-03059D01*
X16618Y-02941D02*
X16618Y-03059D01*
X16500Y-02941D02*
X16618Y-02941D01*
G54D13*
X16677Y-02843D02*
X16323Y-02843D01*
X16677Y-03157D02*
X16323Y-03157D01*
G54D12*
X16677Y-04323D02*
X16677Y-04677D01*
X16677Y-04677D02*
X16834Y-04677D01*
X16834Y-04323D02*
X16834Y-04677D01*
X16677Y-04323D02*
X16834Y-04323D01*
X16166Y-04323D02*
X16166Y-04677D01*
X16166Y-04677D02*
X16323Y-04677D01*
X16323Y-04323D02*
X16323Y-04677D01*
X16166Y-04323D02*
X16323Y-04323D01*
X16500Y-04323D02*
X16500Y-04382D01*
X16500Y-04382D02*
X16618Y-04382D01*
X16618Y-04323D02*
X16618Y-04382D01*
X16500Y-04323D02*
X16618Y-04323D01*
X16500Y-04618D02*
X16500Y-04677D01*
X16500Y-04677D02*
X16618Y-04677D01*
X16618Y-04618D02*
X16618Y-04677D01*
X16500Y-04618D02*
X16618Y-04618D01*
X16500Y-04441D02*
X16500Y-04559D01*
X16500Y-04559D02*
X16618Y-04559D01*
X16618Y-04441D02*
X16618Y-04559D01*
X16500Y-04441D02*
X16618Y-04441D01*
G54D13*
X16677Y-04343D02*
X16323Y-04343D01*
X16677Y-04657D02*
X16323Y-04657D01*
G54D12*
X08427Y-02823D02*
X08427Y-03177D01*
X08427Y-03177D02*
X08584Y-03177D01*
X08584Y-02823D02*
X08584Y-03177D01*
X08427Y-02823D02*
X08584Y-02823D01*
X07916Y-02823D02*
X07916Y-03177D01*
X07916Y-03177D02*
X08073Y-03177D01*
X08073Y-02823D02*
X08073Y-03177D01*
X07916Y-02823D02*
X08073Y-02823D01*
X08250Y-02823D02*
X08250Y-02882D01*
X08250Y-02882D02*
X08368Y-02882D01*
X08368Y-02823D02*
X08368Y-02882D01*
X08250Y-02823D02*
X08368Y-02823D01*
X08250Y-03118D02*
X08250Y-03177D01*
X08250Y-03177D02*
X08368Y-03177D01*
X08368Y-03118D02*
X08368Y-03177D01*
X08250Y-03118D02*
X08368Y-03118D01*
X08250Y-02941D02*
X08250Y-03059D01*
X08250Y-03059D02*
X08368Y-03059D01*
X08368Y-02941D02*
X08368Y-03059D01*
X08250Y-02941D02*
X08368Y-02941D01*
G54D13*
X08427Y-02843D02*
X08073Y-02843D01*
X08427Y-03157D02*
X08073Y-03157D01*
G54D12*
X08427Y-04323D02*
X08427Y-04677D01*
X08427Y-04677D02*
X08584Y-04677D01*
X08584Y-04323D02*
X08584Y-04677D01*
X08427Y-04323D02*
X08584Y-04323D01*
X07916Y-04323D02*
X07916Y-04677D01*
X07916Y-04677D02*
X08073Y-04677D01*
X08073Y-04323D02*
X08073Y-04677D01*
X07916Y-04323D02*
X08073Y-04323D01*
X08250Y-04323D02*
X08250Y-04382D01*
X08250Y-04382D02*
X08368Y-04382D01*
X08368Y-04323D02*
X08368Y-04382D01*
X08250Y-04323D02*
X08368Y-04323D01*
X08250Y-04618D02*
X08250Y-04677D01*
X08250Y-04677D02*
X08368Y-04677D01*
X08368Y-04618D02*
X08368Y-04677D01*
X08250Y-04618D02*
X08368Y-04618D01*
X08250Y-04441D02*
X08250Y-04559D01*
X08250Y-04559D02*
X08368Y-04559D01*
X08368Y-04441D02*
X08368Y-04559D01*
X08250Y-04441D02*
X08368Y-04441D01*
G54D13*
X08427Y-04343D02*
X08073Y-04343D01*
X08427Y-04657D02*
X08073Y-04657D01*
G54D14*
X09047Y02512D02*
X14953Y02512D01*
X14953Y02512D02*
X14953Y-08512D01*
X14953Y-08512D02*
X09047Y-08512D01*
X09047Y-08512D02*
X09047Y02512D01*
X00797Y02512D02*
X06703Y02512D01*
X06703Y02512D02*
X06703Y-08512D01*
X06703Y-08512D02*
X00797Y-08512D01*
X00797Y-08512D02*
X00797Y02512D01*
G54D11*
X16125Y-35175D02*
X16125Y-36075D01*
X16125Y-36075D02*
X15625Y-36075D01*
X15625Y-36075D02*
X15625Y-35175D01*
X15625Y-35175D02*
X16125Y-35175D01*
G54D14*
X27019Y-37875D02*
X27019Y-26694D01*
X27019Y-26694D02*
X17176Y-26694D01*
X17176Y-26694D02*
X17176Y-37875D01*
X17176Y-37875D02*
X27019Y-37875D01*
X04628Y-34138D02*
X04628Y-38862D01*
X01872Y-34138D02*
X01872Y-38862D01*
X01872Y-34138D02*
X04628Y-34138D01*
X04628Y-38862D02*
X01872Y-38862D01*
X08878Y-34138D02*
X08878Y-38862D01*
X06122Y-34138D02*
X06122Y-38862D01*
X06122Y-34138D02*
X08878Y-34138D01*
X08878Y-38862D02*
X06122Y-38862D01*
X13128Y-34138D02*
X13128Y-38862D01*
X10372Y-34138D02*
X10372Y-38862D01*
X10372Y-34138D02*
X13128Y-34138D01*
X13128Y-38862D02*
X10372Y-38862D01*
G54D15*
X02812Y-17529D02*
X02821Y-17538D01*
X02831Y-17564D01*
X02831Y-17581D01*
X02821Y-17606D01*
X02802Y-17624D01*
X02783Y-17632D01*
X02745Y-17641D01*
X02717Y-17641D01*
X02679Y-17632D01*
X02660Y-17624D01*
X02640Y-17606D01*
X02631Y-17581D01*
X02631Y-17564D01*
X02640Y-17538D01*
X02650Y-17529D01*
X02831Y-17358D02*
X02831Y-17461D01*
X02831Y-17409D02*
X02631Y-17409D01*
X02660Y-17426D01*
X02679Y-17444D01*
X02688Y-17461D01*
X02831Y-18865D02*
X02736Y-18925D01*
X02831Y-18968D02*
X02631Y-18968D01*
X02631Y-18900D01*
X02640Y-18882D01*
X02650Y-18874D01*
X02669Y-18865D01*
X02698Y-18865D01*
X02717Y-18874D01*
X02726Y-18882D01*
X02736Y-18900D01*
X02736Y-18968D01*
X02831Y-18694D02*
X02831Y-18797D01*
X02831Y-18745D02*
X02631Y-18745D01*
X02660Y-18762D01*
X02679Y-18780D01*
X02688Y-18797D01*
X02717Y-18591D02*
X02707Y-18609D01*
X02698Y-18617D01*
X02679Y-18626D01*
X02669Y-18626D01*
X02650Y-18617D01*
X02640Y-18609D01*
X02631Y-18591D01*
X02631Y-18557D01*
X02640Y-18540D01*
X02650Y-18531D01*
X02669Y-18523D01*
X02679Y-18523D01*
X02698Y-18531D01*
X02707Y-18540D01*
X02717Y-18557D01*
X02717Y-18591D01*
X02726Y-18609D01*
X02736Y-18617D01*
X02755Y-18626D01*
X02793Y-18626D01*
X02812Y-18617D01*
X02821Y-18609D01*
X02831Y-18591D01*
X02831Y-18557D01*
X02821Y-18540D01*
X02812Y-18531D01*
X02793Y-18523D01*
X02755Y-18523D01*
X02736Y-18531D01*
X02726Y-18540D01*
X02717Y-18557D01*
X14635Y-33331D02*
X14575Y-33236D01*
X14532Y-33331D02*
X14532Y-33131D01*
X14600Y-33131D01*
X14618Y-33140D01*
X14626Y-33150D01*
X14635Y-33169D01*
X14635Y-33198D01*
X14626Y-33217D01*
X14618Y-33226D01*
X14600Y-33236D01*
X14532Y-33236D01*
X14806Y-33331D02*
X14703Y-33331D01*
X14755Y-33331D02*
X14755Y-33131D01*
X14738Y-33160D01*
X14720Y-33179D01*
X14703Y-33188D01*
X14866Y-33131D02*
X14986Y-33131D01*
X14909Y-33331D01*
X14885Y-30581D02*
X14825Y-30486D01*
X14782Y-30581D02*
X14782Y-30381D01*
X14850Y-30381D01*
X14868Y-30390D01*
X14876Y-30400D01*
X14885Y-30419D01*
X14885Y-30448D01*
X14876Y-30467D01*
X14868Y-30476D01*
X14850Y-30486D01*
X14782Y-30486D01*
X15056Y-30581D02*
X14953Y-30581D01*
X15005Y-30581D02*
X15005Y-30381D01*
X14988Y-30410D01*
X14970Y-30429D01*
X14953Y-30438D01*
X15210Y-30381D02*
X15176Y-30381D01*
X15159Y-30390D01*
X15150Y-30400D01*
X15133Y-30429D01*
X15124Y-30467D01*
X15124Y-30543D01*
X15133Y-30562D01*
X15141Y-30571D01*
X15159Y-30581D01*
X15193Y-30581D01*
X15210Y-30571D01*
X15219Y-30562D01*
X15227Y-30543D01*
X15227Y-30495D01*
X15219Y-30476D01*
X15210Y-30467D01*
X15193Y-30457D01*
X15159Y-30457D01*
X15141Y-30467D01*
X15133Y-30476D01*
X15124Y-30495D01*
X14760Y-36706D02*
X14700Y-36611D01*
X14657Y-36706D02*
X14657Y-36506D01*
X14725Y-36506D01*
X14743Y-36515D01*
X14751Y-36525D01*
X14760Y-36544D01*
X14760Y-36573D01*
X14751Y-36592D01*
X14743Y-36601D01*
X14725Y-36611D01*
X14657Y-36611D01*
X14931Y-36706D02*
X14828Y-36706D01*
X14880Y-36706D02*
X14880Y-36506D01*
X14863Y-36535D01*
X14845Y-36554D01*
X14828Y-36563D01*
X15094Y-36506D02*
X15008Y-36506D01*
X14999Y-36601D01*
X15008Y-36592D01*
X15025Y-36582D01*
X15068Y-36582D01*
X15085Y-36592D01*
X15094Y-36601D01*
X15102Y-36620D01*
X15102Y-36668D01*
X15094Y-36687D01*
X15085Y-36696D01*
X15068Y-36706D01*
X15025Y-36706D01*
X15008Y-36696D01*
X14999Y-36687D01*
X15956Y-36990D02*
X15861Y-37050D01*
X15956Y-37093D02*
X15756Y-37093D01*
X15756Y-37025D01*
X15765Y-37007D01*
X15775Y-36999D01*
X15794Y-36990D01*
X15823Y-36990D01*
X15842Y-36999D01*
X15851Y-37007D01*
X15861Y-37025D01*
X15861Y-37093D01*
X15956Y-36819D02*
X15956Y-36922D01*
X15956Y-36870D02*
X15756Y-36870D01*
X15785Y-36887D01*
X15804Y-36905D01*
X15813Y-36922D01*
X15823Y-36665D02*
X15956Y-36665D01*
X15746Y-36708D02*
X15889Y-36751D01*
X15889Y-36639D01*
X15956Y-30990D02*
X15861Y-31050D01*
X15956Y-31093D02*
X15756Y-31093D01*
X15756Y-31025D01*
X15765Y-31007D01*
X15775Y-30999D01*
X15794Y-30990D01*
X15823Y-30990D01*
X15842Y-30999D01*
X15851Y-31007D01*
X15861Y-31025D01*
X15861Y-31093D01*
X15956Y-30819D02*
X15956Y-30922D01*
X15956Y-30870D02*
X15756Y-30870D01*
X15785Y-30887D01*
X15804Y-30905D01*
X15813Y-30922D01*
X15756Y-30759D02*
X15756Y-30648D01*
X15832Y-30708D01*
X15832Y-30682D01*
X15842Y-30665D01*
X15851Y-30656D01*
X15870Y-30648D01*
X15918Y-30648D01*
X15937Y-30656D01*
X15946Y-30665D01*
X15956Y-30682D01*
X15956Y-30734D01*
X15946Y-30751D01*
X15937Y-30759D01*
X15956Y-33740D02*
X15861Y-33800D01*
X15956Y-33843D02*
X15756Y-33843D01*
X15756Y-33775D01*
X15765Y-33757D01*
X15775Y-33749D01*
X15794Y-33740D01*
X15823Y-33740D01*
X15842Y-33749D01*
X15851Y-33757D01*
X15861Y-33775D01*
X15861Y-33843D01*
X15956Y-33569D02*
X15956Y-33672D01*
X15956Y-33620D02*
X15756Y-33620D01*
X15785Y-33637D01*
X15804Y-33655D01*
X15813Y-33672D01*
X15775Y-33501D02*
X15765Y-33492D01*
X15756Y-33475D01*
X15756Y-33432D01*
X15765Y-33415D01*
X15775Y-33406D01*
X15794Y-33398D01*
X15813Y-33398D01*
X15842Y-33406D01*
X15956Y-33509D01*
X15956Y-33398D01*
X07635Y-03831D02*
X07575Y-03736D01*
X07532Y-03831D02*
X07532Y-03631D01*
X07600Y-03631D01*
X07618Y-03640D01*
X07626Y-03650D01*
X07635Y-03669D01*
X07635Y-03698D01*
X07626Y-03717D01*
X07618Y-03726D01*
X07600Y-03736D01*
X07532Y-03736D01*
X07806Y-03831D02*
X07703Y-03831D01*
X07755Y-03831D02*
X07755Y-03631D01*
X07738Y-03660D01*
X07720Y-03679D01*
X07703Y-03688D01*
X07977Y-03831D02*
X07874Y-03831D01*
X07926Y-03831D02*
X07926Y-03631D01*
X07909Y-03660D01*
X07891Y-03679D01*
X07874Y-03688D01*
X07635Y-02331D02*
X07575Y-02236D01*
X07532Y-02331D02*
X07532Y-02131D01*
X07600Y-02131D01*
X07618Y-02140D01*
X07626Y-02150D01*
X07635Y-02169D01*
X07635Y-02198D01*
X07626Y-02217D01*
X07618Y-02226D01*
X07600Y-02236D01*
X07532Y-02236D01*
X07806Y-02331D02*
X07703Y-02331D01*
X07755Y-02331D02*
X07755Y-02131D01*
X07738Y-02160D01*
X07720Y-02179D01*
X07703Y-02188D01*
X07917Y-02131D02*
X07934Y-02131D01*
X07951Y-02140D01*
X07960Y-02150D01*
X07969Y-02169D01*
X07977Y-02207D01*
X07977Y-02255D01*
X07969Y-02293D01*
X07960Y-02312D01*
X07951Y-02321D01*
X07934Y-02331D01*
X07917Y-02331D01*
X07900Y-02321D01*
X07891Y-02312D01*
X07883Y-02293D01*
X07874Y-02255D01*
X07874Y-02207D01*
X07883Y-02169D01*
X07891Y-02150D01*
X07900Y-02140D01*
X07917Y-02131D01*
X07721Y-01581D02*
X07661Y-01486D01*
X07618Y-01581D02*
X07618Y-01381D01*
X07686Y-01381D01*
X07704Y-01390D01*
X07712Y-01400D01*
X07721Y-01419D01*
X07721Y-01448D01*
X07712Y-01467D01*
X07704Y-01476D01*
X07686Y-01486D01*
X07618Y-01486D01*
X07806Y-01581D02*
X07841Y-01581D01*
X07858Y-01571D01*
X07866Y-01562D01*
X07884Y-01533D01*
X07892Y-01495D01*
X07892Y-01419D01*
X07884Y-01400D01*
X07875Y-01390D01*
X07858Y-01381D01*
X07824Y-01381D01*
X07806Y-01390D01*
X07798Y-01400D01*
X07789Y-01419D01*
X07789Y-01467D01*
X07798Y-01486D01*
X07806Y-01495D01*
X07824Y-01505D01*
X07858Y-01505D01*
X07875Y-01495D01*
X07884Y-01486D01*
X07892Y-01467D01*
X15971Y-03831D02*
X15911Y-03736D01*
X15868Y-03831D02*
X15868Y-03631D01*
X15936Y-03631D01*
X15954Y-03640D01*
X15962Y-03650D01*
X15971Y-03669D01*
X15971Y-03698D01*
X15962Y-03717D01*
X15954Y-03726D01*
X15936Y-03736D01*
X15868Y-03736D01*
X16074Y-03717D02*
X16056Y-03707D01*
X16048Y-03698D01*
X16039Y-03679D01*
X16039Y-03669D01*
X16048Y-03650D01*
X16056Y-03640D01*
X16074Y-03631D01*
X16108Y-03631D01*
X16125Y-03640D01*
X16134Y-03650D01*
X16142Y-03669D01*
X16142Y-03679D01*
X16134Y-03698D01*
X16125Y-03707D01*
X16108Y-03717D01*
X16074Y-03717D01*
X16056Y-03726D01*
X16048Y-03736D01*
X16039Y-03755D01*
X16039Y-03793D01*
X16048Y-03812D01*
X16056Y-03821D01*
X16074Y-03831D01*
X16108Y-03831D01*
X16125Y-03821D01*
X16134Y-03812D01*
X16142Y-03793D01*
X16142Y-03755D01*
X16134Y-03736D01*
X16125Y-03726D01*
X16108Y-03717D01*
X15971Y-02331D02*
X15911Y-02236D01*
X15868Y-02331D02*
X15868Y-02131D01*
X15936Y-02131D01*
X15954Y-02140D01*
X15962Y-02150D01*
X15971Y-02169D01*
X15971Y-02198D01*
X15962Y-02217D01*
X15954Y-02226D01*
X15936Y-02236D01*
X15868Y-02236D01*
X16031Y-02131D02*
X16151Y-02131D01*
X16074Y-02331D01*
X05206Y-20404D02*
X05111Y-20464D01*
X05206Y-20507D02*
X05006Y-20507D01*
X05006Y-20439D01*
X05015Y-20421D01*
X05025Y-20413D01*
X05044Y-20404D01*
X05073Y-20404D01*
X05092Y-20413D01*
X05101Y-20421D01*
X05111Y-20439D01*
X05111Y-20507D01*
X05006Y-20241D02*
X05006Y-20327D01*
X05101Y-20336D01*
X05092Y-20327D01*
X05082Y-20310D01*
X05082Y-20267D01*
X05092Y-20250D01*
X05101Y-20241D01*
X05120Y-20233D01*
X05168Y-20233D01*
X05187Y-20241D01*
X05196Y-20250D01*
X05206Y-20267D01*
X05206Y-20310D01*
X05196Y-20327D01*
X05187Y-20336D01*
X05206Y-26404D02*
X05111Y-26464D01*
X05206Y-26507D02*
X05006Y-26507D01*
X05006Y-26439D01*
X05015Y-26421D01*
X05025Y-26413D01*
X05044Y-26404D01*
X05073Y-26404D01*
X05092Y-26413D01*
X05101Y-26421D01*
X05111Y-26439D01*
X05111Y-26507D01*
X05073Y-26250D02*
X05206Y-26250D01*
X04996Y-26293D02*
X05139Y-26336D01*
X05139Y-26224D01*
X05206Y-23404D02*
X05111Y-23464D01*
X05206Y-23507D02*
X05006Y-23507D01*
X05006Y-23439D01*
X05015Y-23421D01*
X05025Y-23413D01*
X05044Y-23404D01*
X05073Y-23404D01*
X05092Y-23413D01*
X05101Y-23421D01*
X05111Y-23439D01*
X05111Y-23507D01*
X05006Y-23344D02*
X05006Y-23233D01*
X05082Y-23293D01*
X05082Y-23267D01*
X05092Y-23250D01*
X05101Y-23241D01*
X05120Y-23233D01*
X05168Y-23233D01*
X05187Y-23241D01*
X05196Y-23250D01*
X05206Y-23267D01*
X05206Y-23319D01*
X05196Y-23336D01*
X05187Y-23344D01*
X04471Y-18831D02*
X04411Y-18736D01*
X04368Y-18831D02*
X04368Y-18631D01*
X04436Y-18631D01*
X04454Y-18640D01*
X04462Y-18650D01*
X04471Y-18669D01*
X04471Y-18698D01*
X04462Y-18717D01*
X04454Y-18726D01*
X04436Y-18736D01*
X04368Y-18736D01*
X04642Y-18831D02*
X04539Y-18831D01*
X04591Y-18831D02*
X04591Y-18631D01*
X04574Y-18660D01*
X04556Y-18679D01*
X04539Y-18688D01*
X15971Y-01581D02*
X15911Y-01486D01*
X15868Y-01581D02*
X15868Y-01381D01*
X15936Y-01381D01*
X15954Y-01390D01*
X15962Y-01400D01*
X15971Y-01419D01*
X15971Y-01448D01*
X15962Y-01467D01*
X15954Y-01476D01*
X15936Y-01486D01*
X15868Y-01486D01*
X16125Y-01381D02*
X16091Y-01381D01*
X16074Y-01390D01*
X16065Y-01400D01*
X16048Y-01429D01*
X16039Y-01467D01*
X16039Y-01543D01*
X16048Y-01562D01*
X16056Y-01571D01*
X16074Y-01581D01*
X16108Y-01581D01*
X16125Y-01571D01*
X16134Y-01562D01*
X16142Y-01543D01*
X16142Y-01495D01*
X16134Y-01476D01*
X16125Y-01467D01*
X16108Y-01457D01*
X16074Y-01457D01*
X16056Y-01467D01*
X16048Y-01476D01*
X16039Y-01495D01*
G54D11*
X16353Y-02681D02*
X16353Y-02481D01*
X16400Y-02481D01*
X16429Y-02490D01*
X16448Y-02510D01*
X16457Y-02529D01*
X16467Y-02567D01*
X16467Y-02595D01*
X16457Y-02633D01*
X16448Y-02652D01*
X16429Y-02671D01*
X16400Y-02681D01*
X16353Y-02681D01*
X16657Y-02681D02*
X16543Y-02681D01*
X16600Y-02681D02*
X16600Y-02481D01*
X16581Y-02510D01*
X16562Y-02529D01*
X16543Y-02538D01*
X16372Y-03481D02*
X16277Y-03481D01*
X16277Y-03281D01*
X16439Y-03376D02*
X16505Y-03376D01*
X16534Y-03481D02*
X16439Y-03481D01*
X16439Y-03281D01*
X16534Y-03281D01*
X16620Y-03481D02*
X16620Y-03281D01*
X16667Y-03281D01*
X16696Y-03290D01*
X16715Y-03310D01*
X16724Y-03329D01*
X16734Y-03367D01*
X16734Y-03395D01*
X16724Y-03433D01*
X16715Y-03452D01*
X16696Y-03471D01*
X16667Y-03481D01*
X16620Y-03481D01*
X16353Y-04181D02*
X16353Y-03981D01*
X16400Y-03981D01*
X16429Y-03990D01*
X16448Y-04010D01*
X16457Y-04029D01*
X16467Y-04067D01*
X16467Y-04095D01*
X16457Y-04133D01*
X16448Y-04152D01*
X16429Y-04171D01*
X16400Y-04181D01*
X16353Y-04181D01*
X16543Y-04000D02*
X16553Y-03990D01*
X16572Y-03981D01*
X16619Y-03981D01*
X16638Y-03990D01*
X16648Y-04000D01*
X16657Y-04019D01*
X16657Y-04038D01*
X16648Y-04067D01*
X16534Y-04181D01*
X16657Y-04181D01*
X16372Y-04981D02*
X16277Y-04981D01*
X16277Y-04781D01*
X16439Y-04876D02*
X16505Y-04876D01*
X16534Y-04981D02*
X16439Y-04981D01*
X16439Y-04781D01*
X16534Y-04781D01*
X16620Y-04981D02*
X16620Y-04781D01*
X16667Y-04781D01*
X16696Y-04790D01*
X16715Y-04810D01*
X16724Y-04829D01*
X16734Y-04867D01*
X16734Y-04895D01*
X16724Y-04933D01*
X16715Y-04952D01*
X16696Y-04971D01*
X16667Y-04981D01*
X16620Y-04981D01*
X08103Y-02681D02*
X08103Y-02481D01*
X08150Y-02481D01*
X08179Y-02490D01*
X08198Y-02510D01*
X08207Y-02529D01*
X08217Y-02567D01*
X08217Y-02595D01*
X08207Y-02633D01*
X08198Y-02652D01*
X08179Y-02671D01*
X08150Y-02681D01*
X08103Y-02681D01*
X08284Y-02481D02*
X08407Y-02481D01*
X08341Y-02557D01*
X08369Y-02557D01*
X08388Y-02567D01*
X08398Y-02576D01*
X08407Y-02595D01*
X08407Y-02643D01*
X08398Y-02662D01*
X08388Y-02671D01*
X08369Y-02681D01*
X08312Y-02681D01*
X08293Y-02671D01*
X08284Y-02662D01*
X08122Y-03481D02*
X08027Y-03481D01*
X08027Y-03281D01*
X08189Y-03376D02*
X08255Y-03376D01*
X08284Y-03481D02*
X08189Y-03481D01*
X08189Y-03281D01*
X08284Y-03281D01*
X08370Y-03481D02*
X08370Y-03281D01*
X08417Y-03281D01*
X08446Y-03290D01*
X08465Y-03310D01*
X08474Y-03329D01*
X08484Y-03367D01*
X08484Y-03395D01*
X08474Y-03433D01*
X08465Y-03452D01*
X08446Y-03471D01*
X08417Y-03481D01*
X08370Y-03481D01*
X08103Y-04181D02*
X08103Y-03981D01*
X08150Y-03981D01*
X08179Y-03990D01*
X08198Y-04010D01*
X08207Y-04029D01*
X08217Y-04067D01*
X08217Y-04095D01*
X08207Y-04133D01*
X08198Y-04152D01*
X08179Y-04171D01*
X08150Y-04181D01*
X08103Y-04181D01*
X08388Y-04048D02*
X08388Y-04181D01*
X08341Y-03971D02*
X08293Y-04114D01*
X08417Y-04114D01*
X08122Y-04981D02*
X08027Y-04981D01*
X08027Y-04781D01*
X08189Y-04876D02*
X08255Y-04876D01*
X08284Y-04981D02*
X08189Y-04981D01*
X08189Y-04781D01*
X08284Y-04781D01*
X08370Y-04981D02*
X08370Y-04781D01*
X08417Y-04781D01*
X08446Y-04790D01*
X08465Y-04810D01*
X08474Y-04829D01*
X08484Y-04867D01*
X08484Y-04895D01*
X08474Y-04933D01*
X08465Y-04952D01*
X08446Y-04971D01*
X08417Y-04981D01*
X08370Y-04981D01*
G54D16*
X11543Y01885D02*
X11543Y01399D01*
X11571Y01342D01*
X11600Y01314D01*
X11657Y01285D01*
X11771Y01285D01*
X11829Y01314D01*
X11857Y01342D01*
X11886Y01399D01*
X11886Y01885D01*
X12429Y01885D02*
X12315Y01885D01*
X12258Y01857D01*
X12229Y01828D01*
X12172Y01742D01*
X12143Y01628D01*
X12143Y01399D01*
X12172Y01342D01*
X12200Y01314D01*
X12258Y01285D01*
X12372Y01285D01*
X12429Y01314D01*
X12458Y01342D01*
X12486Y01399D01*
X12486Y01542D01*
X12458Y01599D01*
X12429Y01628D01*
X12372Y01657D01*
X12258Y01657D01*
X12200Y01628D01*
X12172Y01599D01*
X12143Y01542D01*
X10586Y-07967D02*
X10586Y-07367D01*
X10586Y-07653D02*
X10929Y-07653D01*
X10929Y-07967D02*
X10929Y-07367D01*
X11558Y-07910D02*
X11529Y-07938D01*
X11443Y-07967D01*
X11386Y-07967D01*
X11301Y-07938D01*
X11243Y-07881D01*
X11215Y-07824D01*
X11186Y-07710D01*
X11186Y-07624D01*
X11215Y-07510D01*
X11243Y-07453D01*
X11301Y-07395D01*
X11386Y-07367D01*
X11443Y-07367D01*
X11529Y-07395D01*
X11558Y-07424D01*
X11815Y-07738D02*
X12272Y-07738D01*
X12672Y-07367D02*
X12729Y-07367D01*
X12786Y-07395D01*
X12815Y-07424D01*
X12844Y-07481D01*
X12872Y-07595D01*
X12872Y-07738D01*
X12844Y-07853D01*
X12815Y-07910D01*
X12786Y-07938D01*
X12729Y-07967D01*
X12672Y-07967D01*
X12615Y-07938D01*
X12586Y-07910D01*
X12558Y-07853D01*
X12529Y-07738D01*
X12529Y-07595D01*
X12558Y-07481D01*
X12586Y-07424D01*
X12615Y-07395D01*
X12672Y-07367D01*
X13415Y-07367D02*
X13129Y-07367D01*
X13100Y-07653D01*
X13129Y-07624D01*
X13186Y-07595D01*
X13329Y-07595D01*
X13386Y-07624D01*
X13415Y-07653D01*
X13443Y-07710D01*
X13443Y-07853D01*
X13415Y-07910D01*
X13386Y-07938D01*
X13329Y-07967D01*
X13186Y-07967D01*
X13129Y-07938D01*
X13100Y-07910D01*
X03293Y01885D02*
X03293Y01399D01*
X03321Y01342D01*
X03350Y01314D01*
X03407Y01285D01*
X03521Y01285D01*
X03579Y01314D01*
X03607Y01342D01*
X03636Y01399D01*
X03636Y01885D01*
X03865Y01885D02*
X04265Y01885D01*
X04008Y01285D01*
X02336Y-07967D02*
X02336Y-07367D01*
X02336Y-07653D02*
X02679Y-07653D01*
X02679Y-07967D02*
X02679Y-07367D01*
X03308Y-07910D02*
X03279Y-07938D01*
X03193Y-07967D01*
X03136Y-07967D01*
X03051Y-07938D01*
X02993Y-07881D01*
X02965Y-07824D01*
X02936Y-07710D01*
X02936Y-07624D01*
X02965Y-07510D01*
X02993Y-07453D01*
X03051Y-07395D01*
X03136Y-07367D01*
X03193Y-07367D01*
X03279Y-07395D01*
X03308Y-07424D01*
X03565Y-07738D02*
X04022Y-07738D01*
X04422Y-07367D02*
X04479Y-07367D01*
X04536Y-07395D01*
X04565Y-07424D01*
X04594Y-07481D01*
X04622Y-07595D01*
X04622Y-07738D01*
X04594Y-07853D01*
X04565Y-07910D01*
X04536Y-07938D01*
X04479Y-07967D01*
X04422Y-07967D01*
X04365Y-07938D01*
X04336Y-07910D01*
X04308Y-07853D01*
X04279Y-07738D01*
X04279Y-07595D01*
X04308Y-07481D01*
X04336Y-07424D01*
X04365Y-07395D01*
X04422Y-07367D01*
X05165Y-07367D02*
X04879Y-07367D01*
X04850Y-07653D01*
X04879Y-07624D01*
X04936Y-07595D01*
X05079Y-07595D01*
X05136Y-07624D01*
X05165Y-07653D01*
X05193Y-07710D01*
X05193Y-07853D01*
X05165Y-07910D01*
X05136Y-07938D01*
X05079Y-07967D01*
X04936Y-07967D01*
X04879Y-07938D01*
X04850Y-07910D01*
G54D15*
X15956Y-35740D02*
X15861Y-35800D01*
X15956Y-35843D02*
X15756Y-35843D01*
X15756Y-35775D01*
X15765Y-35757D01*
X15775Y-35749D01*
X15794Y-35740D01*
X15823Y-35740D01*
X15842Y-35749D01*
X15851Y-35757D01*
X15861Y-35775D01*
X15861Y-35843D01*
X15956Y-35569D02*
X15956Y-35672D01*
X15956Y-35620D02*
X15756Y-35620D01*
X15785Y-35637D01*
X15804Y-35655D01*
X15813Y-35672D01*
X15956Y-35484D02*
X15956Y-35449D01*
X15946Y-35432D01*
X15937Y-35424D01*
X15908Y-35406D01*
X15870Y-35398D01*
X15794Y-35398D01*
X15775Y-35406D01*
X15765Y-35415D01*
X15756Y-35432D01*
X15756Y-35466D01*
X15765Y-35484D01*
X15775Y-35492D01*
X15794Y-35501D01*
X15842Y-35501D01*
X15861Y-35492D01*
X15870Y-35484D01*
X15880Y-35466D01*
X15880Y-35432D01*
X15870Y-35415D01*
X15861Y-35406D01*
X15842Y-35398D01*
G54D16*
X21780Y-38617D02*
X22266Y-38617D01*
X22323Y-38589D01*
X22351Y-38560D01*
X22380Y-38503D01*
X22380Y-38389D01*
X22351Y-38331D01*
X22323Y-38303D01*
X22266Y-38274D01*
X21780Y-38274D01*
X22380Y-37674D02*
X22380Y-38017D01*
X22380Y-37845D02*
X21780Y-37845D01*
X21866Y-37902D01*
X21923Y-37960D01*
X21951Y-38017D01*
X21980Y-37160D02*
X22380Y-37160D01*
X21751Y-37303D02*
X22180Y-37446D01*
X22180Y-37074D01*
X26839Y-39875D02*
X26868Y-39789D01*
X26868Y-39646D01*
X26839Y-39589D01*
X26811Y-39560D01*
X26754Y-39532D01*
X26696Y-39532D01*
X26639Y-39560D01*
X26611Y-39589D01*
X26582Y-39646D01*
X26554Y-39760D01*
X26525Y-39818D01*
X26496Y-39846D01*
X26439Y-39875D01*
X26382Y-39875D01*
X26325Y-39846D01*
X26296Y-39818D01*
X26268Y-39760D01*
X26268Y-39618D01*
X26296Y-39532D01*
X26868Y-39275D02*
X26268Y-39275D01*
X26268Y-39132D01*
X26296Y-39047D01*
X26354Y-38989D01*
X26411Y-38961D01*
X26525Y-38932D01*
X26611Y-38932D01*
X26725Y-38961D01*
X26782Y-38989D01*
X26839Y-39047D01*
X26868Y-39132D01*
X26868Y-39275D01*
X26639Y-38675D02*
X26639Y-38218D01*
X26811Y-37589D02*
X26839Y-37618D01*
X26868Y-37704D01*
X26868Y-37761D01*
X26839Y-37846D01*
X26782Y-37904D01*
X26725Y-37932D01*
X26611Y-37961D01*
X26525Y-37961D01*
X26411Y-37932D01*
X26354Y-37904D01*
X26296Y-37846D01*
X26268Y-37761D01*
X26268Y-37704D01*
X26296Y-37618D01*
X26325Y-37589D01*
X26696Y-37361D02*
X26696Y-37075D01*
X26868Y-37418D02*
X26268Y-37218D01*
X26868Y-37018D01*
X26868Y-36475D02*
X26582Y-36675D01*
X26868Y-36818D02*
X26268Y-36818D01*
X26268Y-36590D01*
X26296Y-36532D01*
X26325Y-36504D01*
X26382Y-36475D01*
X26468Y-36475D01*
X26525Y-36504D01*
X26554Y-36532D01*
X26582Y-36590D01*
X26582Y-36818D01*
X26868Y-36218D02*
X26268Y-36218D01*
X26268Y-36075D01*
X26296Y-35990D01*
X26354Y-35932D01*
X26411Y-35904D01*
X26525Y-35875D01*
X26611Y-35875D01*
X26725Y-35904D01*
X26782Y-35932D01*
X26839Y-35990D01*
X26868Y-36075D01*
X26868Y-36218D01*
X02793Y-33584D02*
X02793Y-34070D01*
X02821Y-34127D01*
X02850Y-34155D01*
X02907Y-34184D01*
X03021Y-34184D01*
X03079Y-34155D01*
X03107Y-34127D01*
X03136Y-34070D01*
X03136Y-33584D01*
X03679Y-33784D02*
X03679Y-34184D01*
X03536Y-33555D02*
X03393Y-33984D01*
X03765Y-33984D01*
X01566Y-38899D02*
X01709Y-39499D01*
X01823Y-39070D01*
X01937Y-39499D01*
X02080Y-38899D01*
X02280Y-39470D02*
X02366Y-39499D01*
X02509Y-39499D01*
X02566Y-39470D01*
X02595Y-39442D01*
X02623Y-39385D01*
X02623Y-39327D01*
X02595Y-39270D01*
X02566Y-39242D01*
X02509Y-39213D01*
X02395Y-39185D01*
X02337Y-39156D01*
X02309Y-39127D01*
X02280Y-39070D01*
X02280Y-39013D01*
X02309Y-38956D01*
X02337Y-38927D01*
X02395Y-38899D01*
X02537Y-38899D01*
X02623Y-38927D01*
X02851Y-38956D02*
X02880Y-38927D01*
X02937Y-38899D01*
X03080Y-38899D01*
X03137Y-38927D01*
X03166Y-38956D01*
X03194Y-39013D01*
X03194Y-39070D01*
X03166Y-39156D01*
X02823Y-39499D01*
X03194Y-39499D01*
X03537Y-39156D02*
X03479Y-39127D01*
X03451Y-39099D01*
X03422Y-39042D01*
X03422Y-39013D01*
X03451Y-38956D01*
X03479Y-38927D01*
X03537Y-38899D01*
X03651Y-38899D01*
X03708Y-38927D01*
X03737Y-38956D01*
X03765Y-39013D01*
X03765Y-39042D01*
X03737Y-39099D01*
X03708Y-39127D01*
X03651Y-39156D01*
X03537Y-39156D01*
X03479Y-39185D01*
X03451Y-39213D01*
X03422Y-39270D01*
X03422Y-39385D01*
X03451Y-39442D01*
X03479Y-39470D01*
X03537Y-39499D01*
X03651Y-39499D01*
X03708Y-39470D01*
X03737Y-39442D01*
X03765Y-39385D01*
X03765Y-39270D01*
X03737Y-39213D01*
X03708Y-39185D01*
X03651Y-39156D01*
X04336Y-39499D02*
X03993Y-39499D01*
X04165Y-39499D02*
X04165Y-38899D01*
X04108Y-38985D01*
X04050Y-39042D01*
X03993Y-39070D01*
X04907Y-39499D02*
X04564Y-39499D01*
X04736Y-39499D02*
X04736Y-38899D01*
X04679Y-38985D01*
X04621Y-39042D01*
X04564Y-39070D01*
X06758Y-33584D02*
X06758Y-34070D01*
X06786Y-34127D01*
X06815Y-34155D01*
X06872Y-34184D01*
X06986Y-34184D01*
X07044Y-34155D01*
X07072Y-34127D01*
X07101Y-34070D01*
X07101Y-33584D01*
X07701Y-34184D02*
X07358Y-34184D01*
X07530Y-34184D02*
X07530Y-33584D01*
X07473Y-33670D01*
X07415Y-33727D01*
X07358Y-33755D01*
X07929Y-33641D02*
X07958Y-33612D01*
X08015Y-33584D01*
X08158Y-33584D01*
X08215Y-33612D01*
X08244Y-33641D01*
X08272Y-33698D01*
X08272Y-33755D01*
X08244Y-33841D01*
X07901Y-34184D01*
X08272Y-34184D01*
X05816Y-38899D02*
X05959Y-39499D01*
X06073Y-39070D01*
X06187Y-39499D01*
X06330Y-38899D01*
X06530Y-39470D02*
X06616Y-39499D01*
X06759Y-39499D01*
X06816Y-39470D01*
X06845Y-39442D01*
X06873Y-39385D01*
X06873Y-39327D01*
X06845Y-39270D01*
X06816Y-39242D01*
X06759Y-39213D01*
X06645Y-39185D01*
X06587Y-39156D01*
X06559Y-39127D01*
X06530Y-39070D01*
X06530Y-39013D01*
X06559Y-38956D01*
X06587Y-38927D01*
X06645Y-38899D01*
X06787Y-38899D01*
X06873Y-38927D01*
X07101Y-38956D02*
X07130Y-38927D01*
X07187Y-38899D01*
X07330Y-38899D01*
X07387Y-38927D01*
X07416Y-38956D01*
X07444Y-39013D01*
X07444Y-39070D01*
X07416Y-39156D01*
X07073Y-39499D01*
X07444Y-39499D01*
X07787Y-39156D02*
X07729Y-39127D01*
X07701Y-39099D01*
X07672Y-39042D01*
X07672Y-39013D01*
X07701Y-38956D01*
X07729Y-38927D01*
X07787Y-38899D01*
X07901Y-38899D01*
X07958Y-38927D01*
X07987Y-38956D01*
X08015Y-39013D01*
X08015Y-39042D01*
X07987Y-39099D01*
X07958Y-39127D01*
X07901Y-39156D01*
X07787Y-39156D01*
X07729Y-39185D01*
X07701Y-39213D01*
X07672Y-39270D01*
X07672Y-39385D01*
X07701Y-39442D01*
X07729Y-39470D01*
X07787Y-39499D01*
X07901Y-39499D01*
X07958Y-39470D01*
X07987Y-39442D01*
X08015Y-39385D01*
X08015Y-39270D01*
X07987Y-39213D01*
X07958Y-39185D01*
X07901Y-39156D01*
X08586Y-39499D02*
X08243Y-39499D01*
X08415Y-39499D02*
X08415Y-38899D01*
X08358Y-38985D01*
X08300Y-39042D01*
X08243Y-39070D01*
X09157Y-39499D02*
X08814Y-39499D01*
X08986Y-39499D02*
X08986Y-38899D01*
X08929Y-38985D01*
X08871Y-39042D01*
X08814Y-39070D01*
X11008Y-33584D02*
X11008Y-34070D01*
X11036Y-34127D01*
X11065Y-34155D01*
X11122Y-34184D01*
X11236Y-34184D01*
X11294Y-34155D01*
X11322Y-34127D01*
X11351Y-34070D01*
X11351Y-33584D01*
X11951Y-34184D02*
X11608Y-34184D01*
X11780Y-34184D02*
X11780Y-33584D01*
X11723Y-33670D01*
X11665Y-33727D01*
X11608Y-33755D01*
X12151Y-33584D02*
X12522Y-33584D01*
X12322Y-33812D01*
X12408Y-33812D01*
X12465Y-33841D01*
X12494Y-33870D01*
X12522Y-33927D01*
X12522Y-34070D01*
X12494Y-34127D01*
X12465Y-34155D01*
X12408Y-34184D01*
X12236Y-34184D01*
X12179Y-34155D01*
X12151Y-34127D01*
X10066Y-38899D02*
X10209Y-39499D01*
X10323Y-39070D01*
X10437Y-39499D01*
X10580Y-38899D01*
X10780Y-39470D02*
X10866Y-39499D01*
X11009Y-39499D01*
X11066Y-39470D01*
X11095Y-39442D01*
X11123Y-39385D01*
X11123Y-39327D01*
X11095Y-39270D01*
X11066Y-39242D01*
X11009Y-39213D01*
X10895Y-39185D01*
X10837Y-39156D01*
X10809Y-39127D01*
X10780Y-39070D01*
X10780Y-39013D01*
X10809Y-38956D01*
X10837Y-38927D01*
X10895Y-38899D01*
X11037Y-38899D01*
X11123Y-38927D01*
X11351Y-38956D02*
X11380Y-38927D01*
X11437Y-38899D01*
X11580Y-38899D01*
X11637Y-38927D01*
X11666Y-38956D01*
X11694Y-39013D01*
X11694Y-39070D01*
X11666Y-39156D01*
X11323Y-39499D01*
X11694Y-39499D01*
X12037Y-39156D02*
X11979Y-39127D01*
X11951Y-39099D01*
X11922Y-39042D01*
X11922Y-39013D01*
X11951Y-38956D01*
X11979Y-38927D01*
X12037Y-38899D01*
X12151Y-38899D01*
X12208Y-38927D01*
X12237Y-38956D01*
X12265Y-39013D01*
X12265Y-39042D01*
X12237Y-39099D01*
X12208Y-39127D01*
X12151Y-39156D01*
X12037Y-39156D01*
X11979Y-39185D01*
X11951Y-39213D01*
X11922Y-39270D01*
X11922Y-39385D01*
X11951Y-39442D01*
X11979Y-39470D01*
X12037Y-39499D01*
X12151Y-39499D01*
X12208Y-39470D01*
X12237Y-39442D01*
X12265Y-39385D01*
X12265Y-39270D01*
X12237Y-39213D01*
X12208Y-39185D01*
X12151Y-39156D01*
X12836Y-39499D02*
X12493Y-39499D01*
X12665Y-39499D02*
X12665Y-38899D01*
X12608Y-38985D01*
X12550Y-39042D01*
X12493Y-39070D01*
X13407Y-39499D02*
X13064Y-39499D01*
X13236Y-39499D02*
X13236Y-38899D01*
X13179Y-38985D01*
X13121Y-39042D01*
X13064Y-39070D01*
M02*
