G04 (created by PCBNEW-RS274X (2012-apr-16-27)-stable) date So 26 Okt 2014 19:58:05 CET*
G01*
G70*
G90*
%MOIN*%
G04 Gerber Fmt 3.4, Leading zero omitted, Abs format*
%FSLAX34Y34*%
G04 APERTURE LIST*
%ADD10C,0.006000*%
%ADD11C,0.129900*%
%ADD12R,0.129900X0.129900*%
%ADD13C,0.055000*%
%ADD14R,0.045000X0.025000*%
%ADD15R,0.025000X0.045000*%
%ADD16R,0.060000X0.060000*%
%ADD17C,0.060000*%
%ADD18R,0.031400X0.031400*%
%ADD19R,0.059100X0.039400*%
%ADD20R,0.055000X0.055000*%
%ADD21R,0.110200X0.059100*%
%ADD22R,0.059100X0.027600*%
%ADD23C,0.043300*%
%ADD24C,0.063000*%
%ADD25C,0.059100*%
%ADD26R,0.059100X0.059100*%
%ADD27C,0.008000*%
%ADD28C,0.007900*%
G04 APERTURE END LIST*
G54D10*
G54D11*
X02000Y-32000D03*
G54D12*
X04400Y-32000D03*
G54D11*
X02900Y-30000D03*
G54D13*
X05875Y-18625D03*
X05875Y-20625D03*
X08875Y-18625D03*
X08875Y-20625D03*
X05875Y-24625D03*
X05875Y-26625D03*
X08875Y-24625D03*
X08875Y-26625D03*
X05875Y-21625D03*
X05875Y-23625D03*
X08875Y-21625D03*
X08875Y-23625D03*
G54D14*
X02750Y-17800D03*
X02750Y-17200D03*
X02750Y-18450D03*
X02750Y-19050D03*
G54D15*
X15050Y-33250D03*
X14450Y-33250D03*
X15300Y-30500D03*
X14700Y-30500D03*
X15175Y-36625D03*
X14575Y-36625D03*
G54D14*
X15875Y-37175D03*
X15875Y-36575D03*
X15875Y-31175D03*
X15875Y-30575D03*
X15875Y-33925D03*
X15875Y-33325D03*
G54D15*
X07450Y-03750D03*
X08050Y-03750D03*
X07450Y-02250D03*
X08050Y-02250D03*
X07450Y-01500D03*
X08050Y-01500D03*
X15700Y-03750D03*
X16300Y-03750D03*
X15700Y-02250D03*
X16300Y-02250D03*
G54D14*
X05125Y-20675D03*
X05125Y-20075D03*
X05125Y-26675D03*
X05125Y-26075D03*
X05125Y-23675D03*
X05125Y-23075D03*
G54D15*
X04200Y-18750D03*
X04800Y-18750D03*
X15700Y-01500D03*
X16300Y-01500D03*
G54D13*
X05375Y-28375D03*
X06375Y-28375D03*
G54D16*
X18750Y-01000D03*
G54D17*
X17750Y-01000D03*
X18750Y-02000D03*
X17750Y-02000D03*
X18750Y-03000D03*
X17750Y-03000D03*
X18750Y-04000D03*
X17750Y-04000D03*
G54D16*
X17750Y-09000D03*
G54D17*
X17750Y-08000D03*
X17750Y-07000D03*
X17750Y-06000D03*
G54D16*
X17750Y-14000D03*
G54D17*
X17750Y-13000D03*
X17750Y-12000D03*
X17750Y-11000D03*
G54D16*
X01750Y-21250D03*
G54D17*
X01750Y-22250D03*
X01750Y-23250D03*
G54D16*
X01750Y-19250D03*
G54D17*
X01750Y-18250D03*
X01750Y-17250D03*
G54D16*
X07500Y-28500D03*
G54D17*
X08500Y-28500D03*
G54D18*
X16205Y-03000D03*
X16795Y-03000D03*
X16205Y-04500D03*
X16795Y-04500D03*
X07955Y-03000D03*
X08545Y-03000D03*
X07955Y-04500D03*
X08545Y-04500D03*
G54D17*
X17750Y-16750D03*
X17750Y-17750D03*
X17750Y-18750D03*
X17750Y-19750D03*
X17750Y-20750D03*
X17750Y-21750D03*
X17750Y-22750D03*
X17750Y-23750D03*
G54D19*
X09047Y-07921D03*
X09047Y-07331D03*
X09047Y-01426D03*
X09047Y-00835D03*
X14952Y-00835D03*
X14952Y-02607D03*
X14952Y-02016D03*
X00797Y-07921D03*
X00797Y-07331D03*
X00797Y-01426D03*
X00797Y-00835D03*
X06702Y-00835D03*
X06702Y-02607D03*
X06702Y-02016D03*
G54D20*
X01750Y-27750D03*
G54D13*
X01750Y-26750D03*
X02750Y-26750D03*
G54D14*
X15875Y-35325D03*
X15875Y-35925D03*
G54D16*
X07750Y-00500D03*
X16000Y-00500D03*
G54D21*
X17609Y-27698D03*
X17609Y-37580D03*
X26074Y-37580D03*
X26074Y-26989D03*
G54D22*
X16901Y-37029D03*
X16901Y-36556D03*
G54D19*
X16901Y-36044D03*
X16901Y-35375D03*
X16901Y-34420D03*
X16901Y-33436D03*
X16901Y-32452D03*
X16901Y-31468D03*
X16901Y-30483D03*
X16901Y-29499D03*
X16901Y-28515D03*
G54D23*
X18003Y-36733D03*
G54D24*
X18003Y-28466D03*
G54D25*
X03000Y-09500D03*
X04000Y-09500D03*
X05000Y-09500D03*
X06000Y-09500D03*
X07000Y-09500D03*
X08000Y-09500D03*
X09000Y-09500D03*
X10000Y-09500D03*
X11000Y-09500D03*
X12000Y-09500D03*
X13000Y-09500D03*
X14000Y-09500D03*
X14000Y-15500D03*
X13000Y-15500D03*
X12000Y-15500D03*
X11000Y-15500D03*
X10000Y-15500D03*
X09000Y-15500D03*
X08000Y-15500D03*
X07000Y-15500D03*
X06000Y-15500D03*
X05000Y-15500D03*
X04000Y-15500D03*
X03000Y-15500D03*
G54D16*
X16250Y-22750D03*
G54D17*
X16250Y-21750D03*
X16250Y-20750D03*
X16250Y-19750D03*
X16250Y-18750D03*
G54D26*
X01596Y-35161D03*
X01596Y-36500D03*
X01596Y-37839D03*
X04904Y-37839D03*
X04904Y-36500D03*
X04982Y-35161D03*
G54D19*
X02305Y-35870D03*
X02305Y-36500D03*
X02305Y-37130D03*
X04195Y-37130D03*
X04195Y-36500D03*
X04195Y-35870D03*
G54D26*
X05846Y-35161D03*
X05846Y-36500D03*
X05846Y-37839D03*
X09154Y-37839D03*
X09154Y-36500D03*
X09232Y-35161D03*
G54D19*
X06555Y-35870D03*
X06555Y-36500D03*
X06555Y-37130D03*
X08445Y-37130D03*
X08445Y-36500D03*
X08445Y-35870D03*
G54D26*
X10096Y-35161D03*
X10096Y-36500D03*
X10096Y-37839D03*
X13404Y-37839D03*
X13404Y-36500D03*
X13482Y-35161D03*
G54D19*
X10805Y-35870D03*
X10805Y-36500D03*
X10805Y-37130D03*
X12695Y-37130D03*
X12695Y-36500D03*
X12695Y-35870D03*
G54D27*
X01000Y-27750D02*
X00250Y-27000D01*
X05000Y-04000D02*
X05000Y-06750D01*
X00716Y-07250D02*
X00797Y-07331D01*
X00500Y-07250D02*
X00716Y-07250D01*
X01750Y-27750D02*
X01000Y-27750D01*
X19000Y-31000D02*
X19000Y-11500D01*
X17548Y-32452D02*
X19000Y-31000D01*
X00250Y-06750D02*
X00250Y-00500D01*
X05581Y-07331D02*
X09047Y-07331D01*
X00797Y-07331D02*
X00797Y-07297D01*
X01250Y-00250D02*
X05000Y-04000D01*
X00250Y-00500D02*
X00500Y-00250D01*
X05000Y-06750D02*
X05581Y-07331D01*
X00797Y-07297D02*
X00250Y-06750D01*
X00500Y-00250D02*
X01250Y-00250D01*
X17452Y-32452D02*
X19000Y-34000D01*
X19000Y-11500D02*
X18500Y-11000D01*
X19000Y-38250D02*
X19000Y-34000D01*
X18500Y-38750D02*
X19000Y-38250D01*
X16901Y-32452D02*
X17452Y-32452D01*
X18500Y-11000D02*
X17750Y-11000D01*
X16901Y-32452D02*
X17548Y-32452D01*
X00250Y-27000D02*
X00250Y-07500D01*
X00500Y-38000D02*
X01250Y-38750D01*
X00500Y-28250D02*
X00500Y-38000D01*
X01250Y-38750D02*
X18500Y-38750D01*
X01000Y-27750D02*
X00500Y-28250D01*
X00250Y-07500D02*
X00500Y-07250D01*
X05875Y-18625D02*
X04925Y-18625D01*
X04500Y-25250D02*
X04500Y-27500D01*
X05875Y-18625D02*
X05875Y-18125D01*
X05125Y-24625D02*
X05875Y-24625D01*
X04925Y-18625D02*
X04800Y-18750D01*
X05125Y-24625D02*
X04500Y-25250D01*
X10000Y-16750D02*
X10000Y-15500D01*
X05875Y-24625D02*
X08875Y-24625D01*
X04500Y-21000D02*
X05125Y-21625D01*
X05125Y-21625D02*
X05875Y-21625D01*
X04500Y-24000D02*
X05125Y-24625D01*
X05875Y-18625D02*
X05875Y-19125D01*
X04500Y-27500D02*
X05375Y-28375D01*
X06000Y-18000D02*
X08750Y-18000D01*
X05000Y-19500D02*
X04500Y-20000D01*
X04500Y-20000D02*
X04500Y-21000D01*
X05875Y-18125D02*
X06000Y-18000D01*
X05875Y-24625D02*
X05125Y-24625D01*
X05875Y-21625D02*
X04625Y-21625D01*
X05875Y-19125D02*
X05500Y-19500D01*
X04500Y-21750D02*
X04500Y-24000D01*
X05875Y-18625D02*
X08875Y-18625D01*
X05500Y-19500D02*
X05000Y-19500D01*
X05875Y-21625D02*
X08875Y-21625D01*
X08750Y-18000D02*
X10000Y-16750D01*
X04625Y-21625D02*
X04500Y-21750D01*
X17750Y-13000D02*
X15500Y-13000D01*
X14000Y-11500D02*
X14000Y-09500D01*
X15500Y-13000D02*
X14000Y-11500D01*
X17750Y-08000D02*
X13500Y-08000D01*
X13500Y-08000D02*
X13000Y-08500D01*
X13000Y-08500D02*
X13000Y-09500D01*
X07500Y-16750D02*
X08000Y-16250D01*
X02182Y-16750D02*
X07500Y-16750D01*
X01750Y-17182D02*
X02182Y-16750D01*
X08000Y-16250D02*
X08000Y-15500D01*
X01750Y-17250D02*
X01750Y-17182D01*
X15925Y-35375D02*
X15875Y-35325D01*
X15875Y-35125D02*
X15875Y-35325D01*
X16901Y-35375D02*
X15925Y-35375D01*
X14750Y-34000D02*
X14750Y-31500D01*
X12000Y-15500D02*
X12000Y-28750D01*
X14750Y-31500D02*
X12000Y-28750D01*
X14750Y-34000D02*
X15875Y-35125D01*
X14700Y-30500D02*
X14700Y-21450D01*
X13000Y-15500D02*
X13000Y-19750D01*
X14700Y-21450D02*
X13000Y-19750D01*
X04000Y-09500D02*
X04000Y-03500D01*
X00797Y-00835D02*
X01335Y-00835D01*
X01335Y-00835D02*
X04000Y-03500D01*
X09047Y-00835D02*
X09585Y-00835D01*
X10000Y-09000D02*
X10000Y-01250D01*
X09585Y-00835D02*
X10000Y-01250D01*
X10000Y-09500D02*
X10000Y-09000D01*
X10000Y-09000D02*
X10000Y-09000D01*
X18250Y-01500D02*
X18250Y-04500D01*
X18250Y-04500D02*
X17250Y-05500D01*
X17250Y-05500D02*
X13500Y-05500D01*
X18750Y-01000D02*
X18250Y-01500D01*
X12000Y-07000D02*
X12000Y-09500D01*
X13500Y-05500D02*
X12000Y-07000D01*
X14450Y-33250D02*
X14450Y-31700D01*
X14450Y-31700D02*
X11000Y-28250D01*
X11000Y-15500D02*
X11000Y-28250D01*
X15500Y-14750D02*
X15500Y-19500D01*
X08000Y-10750D02*
X08000Y-09500D01*
X17750Y-19750D02*
X16250Y-19750D01*
X12250Y-11500D02*
X08750Y-11500D01*
X08750Y-11500D02*
X08000Y-10750D01*
X15750Y-19750D02*
X16250Y-19750D01*
X15500Y-19500D02*
X15750Y-19750D01*
X15500Y-14750D02*
X12250Y-11500D01*
X15750Y-20750D02*
X16250Y-20750D01*
X08500Y-11750D02*
X12000Y-11750D01*
X07000Y-09500D02*
X07000Y-10250D01*
X15250Y-20250D02*
X15750Y-20750D01*
X12000Y-11750D02*
X15250Y-15000D01*
X15250Y-15000D02*
X15250Y-20250D01*
X17750Y-20750D02*
X16250Y-20750D01*
X07000Y-10250D02*
X08500Y-11750D01*
X15000Y-21250D02*
X15000Y-32250D01*
X15000Y-32250D02*
X15750Y-33000D01*
X18750Y-38000D02*
X18250Y-38500D01*
X16000Y-38500D02*
X14575Y-37075D01*
X15750Y-33000D02*
X17500Y-33000D01*
X17500Y-33000D02*
X18750Y-34250D01*
X14000Y-15500D02*
X14000Y-20250D01*
X18750Y-34250D02*
X18750Y-38000D01*
X14575Y-37075D02*
X14575Y-36625D01*
X18250Y-38500D02*
X16000Y-38500D01*
X14000Y-20250D02*
X15000Y-21250D01*
X01750Y-21250D02*
X02500Y-21250D01*
X08500Y-17750D02*
X05000Y-17750D01*
X04500Y-18250D02*
X04500Y-19250D01*
X09000Y-15500D02*
X09000Y-17250D01*
X09000Y-17250D02*
X08500Y-17750D01*
X05000Y-17750D02*
X04500Y-18250D01*
X02500Y-21250D02*
X04500Y-19250D01*
X00797Y-01426D02*
X01426Y-01426D01*
X01426Y-01426D02*
X03000Y-03000D01*
X03000Y-09500D02*
X03000Y-03000D01*
X09676Y-01426D02*
X09750Y-01500D01*
X09750Y-01500D02*
X09750Y-08500D01*
X09000Y-09250D02*
X09000Y-09500D01*
X09047Y-01426D02*
X09676Y-01426D01*
X09750Y-08500D02*
X09000Y-09250D01*
X17750Y-04500D02*
X17000Y-05250D01*
X13250Y-05250D02*
X11000Y-07500D01*
X17000Y-05250D02*
X13250Y-05250D01*
X17750Y-04000D02*
X17750Y-04500D01*
X11000Y-07500D02*
X11000Y-09500D01*
X02000Y-21750D02*
X01250Y-21750D01*
X02500Y-21750D02*
X03250Y-22500D01*
X01596Y-34925D02*
X01596Y-35161D01*
X06000Y-33250D02*
X06000Y-31000D01*
X01250Y-21750D02*
X01250Y-21750D01*
X01250Y-21750D02*
X02500Y-21750D01*
X05250Y-34000D02*
X06000Y-33250D01*
X03250Y-28250D02*
X03250Y-22500D01*
X06000Y-31000D02*
X03250Y-28250D01*
X01500Y-34250D02*
X01500Y-34829D01*
X07000Y-15750D02*
X06500Y-16250D01*
X01750Y-34000D02*
X05250Y-34000D01*
X01500Y-16250D02*
X01000Y-16750D01*
X01000Y-21500D02*
X01250Y-21750D01*
X01500Y-34829D02*
X01596Y-34925D01*
X01000Y-16750D02*
X01000Y-21500D01*
X06500Y-16250D02*
X01500Y-16250D01*
X01596Y-35161D02*
X02305Y-35870D01*
X01750Y-34000D02*
X01500Y-34250D01*
X07000Y-15500D02*
X07000Y-15750D01*
X01250Y-21750D02*
X02000Y-21750D01*
X08050Y-02250D02*
X08050Y-02905D01*
X08050Y-02905D02*
X07955Y-03000D01*
X08050Y-03750D02*
X08050Y-04405D01*
X08050Y-04405D02*
X07955Y-04500D01*
X16300Y-03750D02*
X16300Y-04405D01*
X16300Y-04405D02*
X16205Y-04500D01*
X16300Y-02905D02*
X16205Y-03000D01*
X16300Y-02250D02*
X16300Y-02905D01*
X15500Y-03750D02*
X15700Y-03750D01*
X14952Y-03202D02*
X15500Y-03750D01*
X14952Y-02607D02*
X14952Y-03202D01*
X07216Y-02016D02*
X07450Y-02250D01*
X06702Y-02016D02*
X07216Y-02016D01*
X05875Y-20625D02*
X05175Y-20625D01*
X05875Y-20625D02*
X08875Y-20625D01*
X05175Y-20625D02*
X05125Y-20675D01*
X07375Y-28375D02*
X07500Y-28500D01*
X06375Y-28375D02*
X07375Y-28375D01*
X04195Y-35870D02*
X04273Y-35870D01*
X05846Y-35161D02*
X06555Y-35870D01*
X04273Y-35870D02*
X04982Y-35161D01*
X04982Y-34925D02*
X05846Y-34925D01*
X04982Y-34925D02*
X04982Y-35083D01*
X05925Y-34925D02*
X06055Y-35055D01*
X04982Y-35083D02*
X04195Y-35870D01*
X06055Y-35055D02*
X06555Y-35870D01*
X05846Y-34925D02*
X05925Y-34925D01*
X05875Y-26625D02*
X05175Y-26625D01*
X05875Y-26625D02*
X08875Y-26625D01*
X05175Y-26625D02*
X05125Y-26675D01*
X05875Y-23625D02*
X08875Y-23625D01*
X05175Y-23625D02*
X05125Y-23675D01*
X05875Y-23625D02*
X05175Y-23625D01*
X06702Y-03452D02*
X07000Y-03750D01*
X06702Y-02607D02*
X06702Y-03452D01*
X07000Y-03750D02*
X07450Y-03750D01*
X15466Y-02016D02*
X15700Y-02250D01*
X14952Y-02016D02*
X15466Y-02016D01*
X15665Y-00835D02*
X16000Y-00500D01*
X15665Y-00835D02*
X16000Y-00500D01*
X15700Y-01500D02*
X15700Y-00800D01*
X15700Y-00800D02*
X16000Y-00500D01*
X14952Y-00835D02*
X15665Y-00835D01*
X06702Y-00835D02*
X07415Y-00835D01*
X07450Y-01500D02*
X07450Y-00800D01*
X07415Y-00835D02*
X07750Y-00500D01*
X07450Y-00800D02*
X07750Y-00500D01*
X02750Y-17800D02*
X02750Y-18450D01*
X02550Y-18250D02*
X02750Y-18450D01*
X01750Y-18250D02*
X02550Y-18250D01*
X15825Y-36625D02*
X15875Y-36575D01*
X16456Y-36044D02*
X15925Y-36575D01*
X16901Y-36044D02*
X16456Y-36044D01*
X15175Y-36625D02*
X15825Y-36625D01*
X15925Y-36575D02*
X15875Y-36575D01*
X15986Y-33436D02*
X15875Y-33325D01*
X15800Y-33250D02*
X15875Y-33325D01*
X15050Y-33250D02*
X15800Y-33250D01*
X16901Y-33436D02*
X15986Y-33436D01*
X09925Y-34925D02*
X10305Y-35305D01*
X09232Y-34925D02*
X09232Y-35083D01*
X09232Y-35161D02*
X10096Y-35161D01*
X10096Y-35161D02*
X10805Y-35870D01*
X09232Y-35083D02*
X08445Y-35870D01*
X10305Y-35305D02*
X10805Y-35870D01*
X10096Y-34925D02*
X09925Y-34925D01*
X09232Y-34925D02*
X10096Y-34925D01*
X15300Y-30500D02*
X15800Y-30500D01*
X15875Y-30575D02*
X16809Y-30575D01*
X15800Y-30500D02*
X15875Y-30575D01*
X16809Y-30575D02*
X16901Y-30483D01*
X04195Y-36500D02*
X04904Y-36500D01*
X01750Y-22250D02*
X01250Y-22250D01*
X00750Y-21750D02*
X00750Y-16500D01*
X02500Y-22250D02*
X02750Y-22500D01*
X10805Y-36500D02*
X12695Y-36500D01*
X12695Y-36500D02*
X13404Y-36500D01*
X07500Y-14250D02*
X06750Y-14250D01*
X08445Y-36500D02*
X09154Y-36500D01*
X02750Y-19050D02*
X03900Y-19050D01*
X01500Y-20000D02*
X02500Y-20000D01*
X01750Y-22250D02*
X02500Y-22250D01*
X01250Y-22250D02*
X00750Y-21750D01*
X06000Y-16000D02*
X06000Y-15500D01*
X10096Y-36500D02*
X10805Y-36500D01*
X02305Y-36500D02*
X04195Y-36500D01*
X07500Y-16000D02*
X07500Y-14250D01*
X08500Y-14250D02*
X07500Y-14250D01*
X02750Y-22500D02*
X02750Y-26750D01*
X02750Y-19750D02*
X02500Y-20000D01*
X01250Y-17000D02*
X01250Y-19750D01*
X01250Y-17000D02*
X01750Y-16500D01*
X01250Y-19750D02*
X01500Y-20000D01*
X05750Y-33000D02*
X05000Y-33750D01*
X01250Y-36500D02*
X01596Y-36500D01*
X05846Y-36500D02*
X06555Y-36500D01*
X06555Y-36500D02*
X08445Y-36500D01*
X03900Y-19050D02*
X04200Y-18750D01*
X02750Y-19050D02*
X02750Y-19750D01*
X05750Y-31250D02*
X05750Y-33000D01*
X01750Y-16500D02*
X07000Y-16500D01*
X15500Y-21000D02*
X16250Y-21750D01*
X07000Y-16500D02*
X07500Y-16000D01*
X01250Y-33750D02*
X01000Y-34000D01*
X15000Y-20500D02*
X15500Y-21000D01*
X15000Y-15250D02*
X15000Y-20500D01*
X18750Y-08500D02*
X18250Y-09000D01*
X01000Y-34000D02*
X01000Y-36250D01*
X06000Y-16000D02*
X06000Y-16000D01*
X04500Y-30000D02*
X05750Y-31250D01*
X02750Y-26750D02*
X02750Y-29850D01*
X01000Y-36250D02*
X01250Y-36500D01*
X01596Y-36500D02*
X02305Y-36500D01*
X06000Y-15000D02*
X06000Y-15500D01*
X00750Y-16500D02*
X01250Y-16000D01*
X18500Y-20750D02*
X18500Y-17250D01*
X17000Y-21750D02*
X17500Y-21250D01*
X18500Y-16750D02*
X18750Y-16500D01*
X17750Y-16750D02*
X18000Y-16750D01*
X18000Y-16750D02*
X18500Y-17250D01*
X18750Y-16500D02*
X18750Y-11750D01*
X17500Y-21250D02*
X18000Y-21250D01*
X18000Y-21250D02*
X18500Y-20750D01*
X18750Y-04000D02*
X18750Y-08500D01*
X04904Y-36500D02*
X05846Y-36500D01*
X14000Y-14250D02*
X08500Y-14250D01*
X15000Y-15250D02*
X14000Y-14250D01*
X02900Y-30000D02*
X04500Y-30000D01*
X16250Y-21750D02*
X17000Y-21750D01*
X18250Y-09000D02*
X17750Y-09000D01*
X01250Y-16000D02*
X06000Y-16000D01*
X09154Y-36500D02*
X10096Y-36500D01*
X06750Y-14250D02*
X06000Y-15000D01*
X06000Y-15500D02*
X06000Y-15000D01*
X17750Y-16750D02*
X18500Y-16750D01*
X18500Y-11500D02*
X18750Y-11750D01*
X17750Y-09000D02*
X17250Y-09000D01*
X17000Y-09250D02*
X17000Y-11250D01*
X17000Y-11250D02*
X17250Y-11500D01*
X17250Y-09000D02*
X17000Y-09250D01*
X17250Y-11500D02*
X18500Y-11500D01*
X05000Y-33750D02*
X01250Y-33750D01*
X02750Y-29850D02*
X02900Y-30000D01*
G54D10*
G36*
X19453Y-39138D02*
X00232Y-39138D01*
X00232Y-27260D01*
X00721Y-27750D01*
X00361Y-28111D01*
X00318Y-28174D01*
X00303Y-28250D01*
X00303Y-38000D01*
X00318Y-38076D01*
X00361Y-38139D01*
X01110Y-38889D01*
X01111Y-38889D01*
X01153Y-38917D01*
X01174Y-38931D01*
X01175Y-38932D01*
X01250Y-38947D01*
X18500Y-38947D01*
X18575Y-38932D01*
X18576Y-38932D01*
X18639Y-38889D01*
X19139Y-38389D01*
X19182Y-38326D01*
X19182Y-38325D01*
X19197Y-38250D01*
X19197Y-34000D01*
X19184Y-33936D01*
X19182Y-33925D01*
X19182Y-33924D01*
X19139Y-33861D01*
X17778Y-32500D01*
X19139Y-31140D01*
X19139Y-31139D01*
X19167Y-31097D01*
X19181Y-31076D01*
X19182Y-31075D01*
X19196Y-31000D01*
X19197Y-31000D01*
X19197Y-11500D01*
X19182Y-11425D01*
X19182Y-11424D01*
X19139Y-11361D01*
X18639Y-10861D01*
X18576Y-10818D01*
X18500Y-10803D01*
X18162Y-10803D01*
X18137Y-10742D01*
X18009Y-10614D01*
X17841Y-10544D01*
X17660Y-10544D01*
X17492Y-10613D01*
X17364Y-10741D01*
X17294Y-10909D01*
X17294Y-11090D01*
X17363Y-11258D01*
X17408Y-11303D01*
X17331Y-11303D01*
X17197Y-11168D01*
X17197Y-09331D01*
X17293Y-09235D01*
X17293Y-09331D01*
X17317Y-09389D01*
X17361Y-09433D01*
X17419Y-09457D01*
X17481Y-09457D01*
X18081Y-09457D01*
X18139Y-09433D01*
X18183Y-09389D01*
X18207Y-09331D01*
X18207Y-09269D01*
X18207Y-09197D01*
X18250Y-09197D01*
X18325Y-09182D01*
X18326Y-09182D01*
X18389Y-09139D01*
X18889Y-08639D01*
X18932Y-08576D01*
X18932Y-08575D01*
X18947Y-08500D01*
X18947Y-04412D01*
X19008Y-04387D01*
X19136Y-04259D01*
X19206Y-04091D01*
X19206Y-03910D01*
X19137Y-03742D01*
X19009Y-03614D01*
X18841Y-03544D01*
X18660Y-03544D01*
X18492Y-03613D01*
X18447Y-03658D01*
X18447Y-03342D01*
X18491Y-03386D01*
X18659Y-03456D01*
X18840Y-03456D01*
X19008Y-03387D01*
X19136Y-03259D01*
X19206Y-03091D01*
X19206Y-02910D01*
X19137Y-02742D01*
X19009Y-02614D01*
X18841Y-02544D01*
X18660Y-02544D01*
X18492Y-02613D01*
X18447Y-02658D01*
X18447Y-02342D01*
X18491Y-02386D01*
X18659Y-02456D01*
X18840Y-02456D01*
X19008Y-02387D01*
X19136Y-02259D01*
X19206Y-02091D01*
X19206Y-01910D01*
X19137Y-01742D01*
X19009Y-01614D01*
X18841Y-01544D01*
X18660Y-01544D01*
X18492Y-01613D01*
X18447Y-01658D01*
X18447Y-01581D01*
X18571Y-01457D01*
X19081Y-01457D01*
X19139Y-01433D01*
X19183Y-01389D01*
X19207Y-01331D01*
X19207Y-01269D01*
X19207Y-00669D01*
X19183Y-00611D01*
X19139Y-00567D01*
X19081Y-00543D01*
X19019Y-00543D01*
X18419Y-00543D01*
X18361Y-00567D01*
X18317Y-00611D01*
X18293Y-00669D01*
X18293Y-00731D01*
X18293Y-01179D01*
X18224Y-01247D01*
X18285Y-01066D01*
X18269Y-00857D01*
X18218Y-00734D01*
X18129Y-00706D01*
X18044Y-00791D01*
X18044Y-00621D01*
X18016Y-00532D01*
X17816Y-00465D01*
X17607Y-00481D01*
X17484Y-00532D01*
X17456Y-00621D01*
X17750Y-00915D01*
X18044Y-00621D01*
X18044Y-00791D01*
X17863Y-00972D01*
X17835Y-01000D01*
X17750Y-01085D01*
X17722Y-01113D01*
X17665Y-01170D01*
X17665Y-01000D01*
X17371Y-00706D01*
X17282Y-00734D01*
X17215Y-00934D01*
X17231Y-01143D01*
X17282Y-01266D01*
X17371Y-01294D01*
X17665Y-01000D01*
X17665Y-01170D01*
X17456Y-01379D01*
X17484Y-01468D01*
X17684Y-01535D01*
X17893Y-01519D01*
X18016Y-01468D01*
X18030Y-01421D01*
X18044Y-01435D01*
X18062Y-01453D01*
X18053Y-01500D01*
X18053Y-01658D01*
X18044Y-01649D01*
X18009Y-01614D01*
X17841Y-01544D01*
X17660Y-01544D01*
X17492Y-01613D01*
X17364Y-01741D01*
X17294Y-01909D01*
X17294Y-02090D01*
X17363Y-02258D01*
X17491Y-02386D01*
X17659Y-02456D01*
X17840Y-02456D01*
X18008Y-02387D01*
X18053Y-02342D01*
X18053Y-02658D01*
X18009Y-02614D01*
X17841Y-02544D01*
X17660Y-02544D01*
X17492Y-02613D01*
X17364Y-02741D01*
X17294Y-02909D01*
X17294Y-03090D01*
X17363Y-03258D01*
X17491Y-03386D01*
X17659Y-03456D01*
X17840Y-03456D01*
X18008Y-03387D01*
X18053Y-03342D01*
X18053Y-03658D01*
X18009Y-03614D01*
X17841Y-03544D01*
X17660Y-03544D01*
X17492Y-03613D01*
X17364Y-03741D01*
X17294Y-03909D01*
X17294Y-04090D01*
X17363Y-04258D01*
X17491Y-04386D01*
X17553Y-04411D01*
X17553Y-04418D01*
X17190Y-04781D01*
X17190Y-04705D01*
X17190Y-04618D01*
X17190Y-04382D01*
X17190Y-04295D01*
X17190Y-03205D01*
X17190Y-03118D01*
X17190Y-02882D01*
X17190Y-02795D01*
X17154Y-02708D01*
X17087Y-02641D01*
X16999Y-02605D01*
X16914Y-02604D01*
X16855Y-02663D01*
X16855Y-02940D01*
X17132Y-02940D01*
X17190Y-02882D01*
X17190Y-03118D01*
X17132Y-03060D01*
X16855Y-03060D01*
X16855Y-03337D01*
X16914Y-03396D01*
X16999Y-03395D01*
X17087Y-03359D01*
X17154Y-03292D01*
X17190Y-03205D01*
X17190Y-04295D01*
X17154Y-04208D01*
X17087Y-04141D01*
X16999Y-04105D01*
X16914Y-04104D01*
X16855Y-04163D01*
X16855Y-04440D01*
X17132Y-04440D01*
X17190Y-04382D01*
X17190Y-04618D01*
X17132Y-04560D01*
X16855Y-04560D01*
X16855Y-04837D01*
X16914Y-04896D01*
X16999Y-04895D01*
X17087Y-04859D01*
X17154Y-04792D01*
X17190Y-04705D01*
X17190Y-04781D01*
X16918Y-05053D01*
X16735Y-05053D01*
X16735Y-04837D01*
X16735Y-04600D01*
X16735Y-04560D01*
X16735Y-04440D01*
X16735Y-04400D01*
X16735Y-04163D01*
X16676Y-04104D01*
X16591Y-04105D01*
X16503Y-04141D01*
X16497Y-04147D01*
X16497Y-04115D01*
X16514Y-04108D01*
X16558Y-04064D01*
X16582Y-04006D01*
X16582Y-03944D01*
X16582Y-03494D01*
X16558Y-03436D01*
X16514Y-03392D01*
X16456Y-03368D01*
X16394Y-03368D01*
X16144Y-03368D01*
X16086Y-03392D01*
X16042Y-03436D01*
X16018Y-03494D01*
X16018Y-03556D01*
X16018Y-04006D01*
X16042Y-04064D01*
X16086Y-04108D01*
X16103Y-04115D01*
X16103Y-04186D01*
X16017Y-04186D01*
X15959Y-04210D01*
X15915Y-04254D01*
X15891Y-04312D01*
X15891Y-04374D01*
X15891Y-04688D01*
X15915Y-04746D01*
X15959Y-04790D01*
X16017Y-04814D01*
X16079Y-04814D01*
X16393Y-04814D01*
X16438Y-04794D01*
X16503Y-04859D01*
X16591Y-04895D01*
X16676Y-04896D01*
X16735Y-04837D01*
X16735Y-05053D01*
X13250Y-05053D01*
X13175Y-05068D01*
X13153Y-05082D01*
X13110Y-05111D01*
X10861Y-07361D01*
X10818Y-07424D01*
X10803Y-07500D01*
X10803Y-09093D01*
X10745Y-09117D01*
X10618Y-09244D01*
X10549Y-09410D01*
X10549Y-09589D01*
X10617Y-09755D01*
X10744Y-09882D01*
X10910Y-09951D01*
X11089Y-09951D01*
X11255Y-09883D01*
X11382Y-09756D01*
X11451Y-09590D01*
X11451Y-09411D01*
X11383Y-09245D01*
X11256Y-09118D01*
X11197Y-09093D01*
X11197Y-07581D01*
X11809Y-06969D01*
X11803Y-07000D01*
X11803Y-09093D01*
X11745Y-09117D01*
X11618Y-09244D01*
X11549Y-09410D01*
X11549Y-09589D01*
X11617Y-09755D01*
X11744Y-09882D01*
X11910Y-09951D01*
X12089Y-09951D01*
X12255Y-09883D01*
X12382Y-09756D01*
X12451Y-09590D01*
X12451Y-09411D01*
X12383Y-09245D01*
X12256Y-09118D01*
X12197Y-09093D01*
X12197Y-07081D01*
X13581Y-05697D01*
X17250Y-05697D01*
X17296Y-05687D01*
X17328Y-05719D01*
X17282Y-05734D01*
X17215Y-05934D01*
X17231Y-06143D01*
X17282Y-06266D01*
X17371Y-06294D01*
X17637Y-06028D01*
X17665Y-06000D01*
X17750Y-05915D01*
X17778Y-05887D01*
X18044Y-05621D01*
X18016Y-05532D01*
X17816Y-05465D01*
X17607Y-05481D01*
X17504Y-05523D01*
X18389Y-04639D01*
X18432Y-04576D01*
X18432Y-04575D01*
X18434Y-04563D01*
X18446Y-04500D01*
X18447Y-04500D01*
X18447Y-04342D01*
X18491Y-04386D01*
X18553Y-04411D01*
X18553Y-08419D01*
X18285Y-08687D01*
X18285Y-06066D01*
X18269Y-05857D01*
X18218Y-05734D01*
X18129Y-05706D01*
X17835Y-06000D01*
X18129Y-06294D01*
X18218Y-06266D01*
X18285Y-06066D01*
X18285Y-08687D01*
X18207Y-08765D01*
X18207Y-08669D01*
X18206Y-08666D01*
X18206Y-08091D01*
X18206Y-07910D01*
X18206Y-07091D01*
X18206Y-06910D01*
X18137Y-06742D01*
X18044Y-06649D01*
X18044Y-06379D01*
X17750Y-06085D01*
X17665Y-06170D01*
X17456Y-06379D01*
X17484Y-06468D01*
X17684Y-06535D01*
X17893Y-06519D01*
X18016Y-06468D01*
X18044Y-06379D01*
X18044Y-06649D01*
X18009Y-06614D01*
X17841Y-06544D01*
X17660Y-06544D01*
X17492Y-06613D01*
X17364Y-06741D01*
X17294Y-06909D01*
X17294Y-07090D01*
X17363Y-07258D01*
X17491Y-07386D01*
X17659Y-07456D01*
X17840Y-07456D01*
X18008Y-07387D01*
X18136Y-07259D01*
X18206Y-07091D01*
X18206Y-07910D01*
X18137Y-07742D01*
X18009Y-07614D01*
X17841Y-07544D01*
X17660Y-07544D01*
X17492Y-07613D01*
X17364Y-07741D01*
X17338Y-07803D01*
X13500Y-07803D01*
X13424Y-07818D01*
X13361Y-07861D01*
X12861Y-08361D01*
X12818Y-08424D01*
X12803Y-08500D01*
X12803Y-09093D01*
X12745Y-09117D01*
X12618Y-09244D01*
X12549Y-09410D01*
X12549Y-09589D01*
X12617Y-09755D01*
X12744Y-09882D01*
X12910Y-09951D01*
X13089Y-09951D01*
X13255Y-09883D01*
X13382Y-09756D01*
X13451Y-09590D01*
X13451Y-09411D01*
X13383Y-09245D01*
X13256Y-09118D01*
X13197Y-09093D01*
X13197Y-08581D01*
X13581Y-08197D01*
X17337Y-08197D01*
X17363Y-08258D01*
X17491Y-08386D01*
X17659Y-08456D01*
X17840Y-08456D01*
X18008Y-08387D01*
X18136Y-08259D01*
X18206Y-08091D01*
X18206Y-08666D01*
X18183Y-08611D01*
X18139Y-08567D01*
X18081Y-08543D01*
X18019Y-08543D01*
X17419Y-08543D01*
X17361Y-08567D01*
X17317Y-08611D01*
X17293Y-08669D01*
X17293Y-08731D01*
X17293Y-08803D01*
X17250Y-08803D01*
X17175Y-08818D01*
X17153Y-08832D01*
X17110Y-08861D01*
X16861Y-09111D01*
X16818Y-09174D01*
X16803Y-09250D01*
X16803Y-11250D01*
X16818Y-11326D01*
X16861Y-11389D01*
X17110Y-11639D01*
X17111Y-11639D01*
X17153Y-11667D01*
X17174Y-11681D01*
X17175Y-11682D01*
X17250Y-11697D01*
X17306Y-11697D01*
X17328Y-11719D01*
X17282Y-11734D01*
X17215Y-11934D01*
X17231Y-12143D01*
X17282Y-12266D01*
X17371Y-12294D01*
X17637Y-12028D01*
X17665Y-12000D01*
X17750Y-11915D01*
X17835Y-12000D01*
X17863Y-12028D01*
X18129Y-12294D01*
X18218Y-12266D01*
X18285Y-12066D01*
X18269Y-11857D01*
X18218Y-11734D01*
X18171Y-11719D01*
X18194Y-11697D01*
X18418Y-11697D01*
X18553Y-11831D01*
X18553Y-16418D01*
X18418Y-16553D01*
X18285Y-16553D01*
X18207Y-16553D01*
X18207Y-14331D01*
X18207Y-14269D01*
X18207Y-13669D01*
X18206Y-13666D01*
X18206Y-13091D01*
X18206Y-12910D01*
X18137Y-12742D01*
X18044Y-12649D01*
X18044Y-12379D01*
X17750Y-12085D01*
X17665Y-12170D01*
X17456Y-12379D01*
X17484Y-12468D01*
X17684Y-12535D01*
X17893Y-12519D01*
X18016Y-12468D01*
X18044Y-12379D01*
X18044Y-12649D01*
X18009Y-12614D01*
X17841Y-12544D01*
X17660Y-12544D01*
X17492Y-12613D01*
X17364Y-12741D01*
X17338Y-12803D01*
X15581Y-12803D01*
X14197Y-11418D01*
X14197Y-09906D01*
X14255Y-09883D01*
X14382Y-09756D01*
X14451Y-09590D01*
X14451Y-09411D01*
X14383Y-09245D01*
X14256Y-09118D01*
X14090Y-09049D01*
X13911Y-09049D01*
X13745Y-09117D01*
X13618Y-09244D01*
X13549Y-09410D01*
X13549Y-09589D01*
X13617Y-09755D01*
X13744Y-09882D01*
X13803Y-09906D01*
X13803Y-11500D01*
X13818Y-11576D01*
X13861Y-11639D01*
X15360Y-13139D01*
X15361Y-13139D01*
X15403Y-13167D01*
X15424Y-13181D01*
X15425Y-13182D01*
X15500Y-13197D01*
X17337Y-13197D01*
X17363Y-13258D01*
X17491Y-13386D01*
X17659Y-13456D01*
X17840Y-13456D01*
X18008Y-13387D01*
X18136Y-13259D01*
X18206Y-13091D01*
X18206Y-13666D01*
X18183Y-13611D01*
X18139Y-13567D01*
X18081Y-13543D01*
X18019Y-13543D01*
X17419Y-13543D01*
X17361Y-13567D01*
X17317Y-13611D01*
X17293Y-13669D01*
X17293Y-13731D01*
X17293Y-14331D01*
X17317Y-14389D01*
X17361Y-14433D01*
X17419Y-14457D01*
X17481Y-14457D01*
X18081Y-14457D01*
X18139Y-14433D01*
X18183Y-14389D01*
X18207Y-14331D01*
X18207Y-16553D01*
X18162Y-16553D01*
X18137Y-16492D01*
X18009Y-16364D01*
X17841Y-16294D01*
X17660Y-16294D01*
X17492Y-16363D01*
X17364Y-16491D01*
X17294Y-16659D01*
X17294Y-16840D01*
X17363Y-17008D01*
X17491Y-17136D01*
X17659Y-17206D01*
X17840Y-17206D01*
X18008Y-17137D01*
X18058Y-17086D01*
X18303Y-17331D01*
X18303Y-20669D01*
X18285Y-20687D01*
X18285Y-18816D01*
X18269Y-18607D01*
X18218Y-18484D01*
X18206Y-18480D01*
X18206Y-17841D01*
X18206Y-17660D01*
X18137Y-17492D01*
X18009Y-17364D01*
X17841Y-17294D01*
X17660Y-17294D01*
X17492Y-17363D01*
X17364Y-17491D01*
X17294Y-17659D01*
X17294Y-17840D01*
X17363Y-18008D01*
X17491Y-18136D01*
X17659Y-18206D01*
X17840Y-18206D01*
X18008Y-18137D01*
X18136Y-18009D01*
X18206Y-17841D01*
X18206Y-18480D01*
X18129Y-18456D01*
X18044Y-18541D01*
X18044Y-18371D01*
X18016Y-18282D01*
X17816Y-18215D01*
X17607Y-18231D01*
X17484Y-18282D01*
X17456Y-18371D01*
X17750Y-18665D01*
X18044Y-18371D01*
X18044Y-18541D01*
X17835Y-18750D01*
X18129Y-19044D01*
X18218Y-19016D01*
X18285Y-18816D01*
X18285Y-20687D01*
X18206Y-20766D01*
X18206Y-20660D01*
X18137Y-20492D01*
X18009Y-20364D01*
X17841Y-20294D01*
X17660Y-20294D01*
X17492Y-20363D01*
X17364Y-20491D01*
X17338Y-20553D01*
X16662Y-20553D01*
X16637Y-20492D01*
X16509Y-20364D01*
X16341Y-20294D01*
X16160Y-20294D01*
X15992Y-20363D01*
X15864Y-20491D01*
X15838Y-20553D01*
X15831Y-20553D01*
X15447Y-20169D01*
X15447Y-19725D01*
X15610Y-19889D01*
X15611Y-19889D01*
X15653Y-19917D01*
X15674Y-19931D01*
X15675Y-19932D01*
X15750Y-19947D01*
X15837Y-19947D01*
X15863Y-20008D01*
X15991Y-20136D01*
X16159Y-20206D01*
X16340Y-20206D01*
X16508Y-20137D01*
X16636Y-20009D01*
X16661Y-19947D01*
X17337Y-19947D01*
X17363Y-20008D01*
X17491Y-20136D01*
X17659Y-20206D01*
X17840Y-20206D01*
X18008Y-20137D01*
X18136Y-20009D01*
X18206Y-19841D01*
X18206Y-19660D01*
X18137Y-19492D01*
X18044Y-19399D01*
X18044Y-19129D01*
X17750Y-18835D01*
X17665Y-18920D01*
X17665Y-18750D01*
X17371Y-18456D01*
X17282Y-18484D01*
X17215Y-18684D01*
X17231Y-18893D01*
X17282Y-19016D01*
X17371Y-19044D01*
X17665Y-18750D01*
X17665Y-18920D01*
X17456Y-19129D01*
X17484Y-19218D01*
X17684Y-19285D01*
X17893Y-19269D01*
X18016Y-19218D01*
X18044Y-19129D01*
X18044Y-19399D01*
X18009Y-19364D01*
X17841Y-19294D01*
X17660Y-19294D01*
X17492Y-19363D01*
X17364Y-19491D01*
X17338Y-19553D01*
X16706Y-19553D01*
X16706Y-18841D01*
X16706Y-18660D01*
X16637Y-18492D01*
X16509Y-18364D01*
X16341Y-18294D01*
X16160Y-18294D01*
X15992Y-18363D01*
X15864Y-18491D01*
X15794Y-18659D01*
X15794Y-18840D01*
X15863Y-19008D01*
X15991Y-19136D01*
X16159Y-19206D01*
X16340Y-19206D01*
X16508Y-19137D01*
X16636Y-19009D01*
X16706Y-18841D01*
X16706Y-19553D01*
X16662Y-19553D01*
X16637Y-19492D01*
X16509Y-19364D01*
X16341Y-19294D01*
X16160Y-19294D01*
X15992Y-19363D01*
X15864Y-19491D01*
X15838Y-19553D01*
X15831Y-19553D01*
X15697Y-19418D01*
X15697Y-14750D01*
X15684Y-14686D01*
X15682Y-14675D01*
X15682Y-14674D01*
X15639Y-14611D01*
X12389Y-11361D01*
X12326Y-11318D01*
X12250Y-11303D01*
X08831Y-11303D01*
X08197Y-10668D01*
X08197Y-09906D01*
X08255Y-09883D01*
X08382Y-09756D01*
X08451Y-09590D01*
X08451Y-09411D01*
X08383Y-09245D01*
X08256Y-09118D01*
X08090Y-09049D01*
X07911Y-09049D01*
X07745Y-09117D01*
X07618Y-09244D01*
X07549Y-09410D01*
X07549Y-09589D01*
X07617Y-09755D01*
X07744Y-09882D01*
X07803Y-09906D01*
X07803Y-10750D01*
X07809Y-10780D01*
X07197Y-10168D01*
X07197Y-09906D01*
X07255Y-09883D01*
X07382Y-09756D01*
X07451Y-09590D01*
X07451Y-09411D01*
X07383Y-09245D01*
X07256Y-09118D01*
X07090Y-09049D01*
X06911Y-09049D01*
X06745Y-09117D01*
X06618Y-09244D01*
X06549Y-09410D01*
X06549Y-09589D01*
X06617Y-09755D01*
X06744Y-09882D01*
X06803Y-09906D01*
X06803Y-10250D01*
X06818Y-10326D01*
X06861Y-10389D01*
X08360Y-11889D01*
X08361Y-11889D01*
X08403Y-11917D01*
X08424Y-11931D01*
X08425Y-11932D01*
X08500Y-11947D01*
X11919Y-11947D01*
X14031Y-14059D01*
X14000Y-14053D01*
X08500Y-14053D01*
X07500Y-14053D01*
X06750Y-14053D01*
X06675Y-14068D01*
X06653Y-14082D01*
X06610Y-14111D01*
X06530Y-14191D01*
X06530Y-09566D01*
X06514Y-09358D01*
X06464Y-09237D01*
X06375Y-09209D01*
X06291Y-09293D01*
X06291Y-09125D01*
X06263Y-09036D01*
X06066Y-08970D01*
X05858Y-08986D01*
X05737Y-09036D01*
X05709Y-09125D01*
X06000Y-09415D01*
X06291Y-09125D01*
X06291Y-09293D01*
X06085Y-09500D01*
X06375Y-09791D01*
X06464Y-09763D01*
X06530Y-09566D01*
X06530Y-14191D01*
X06291Y-14430D01*
X06291Y-09875D01*
X06000Y-09585D01*
X05915Y-09669D01*
X05915Y-09500D01*
X05625Y-09209D01*
X05536Y-09237D01*
X05503Y-09333D01*
X05464Y-09237D01*
X05375Y-09209D01*
X05291Y-09293D01*
X05291Y-09125D01*
X05263Y-09036D01*
X05066Y-08970D01*
X04858Y-08986D01*
X04737Y-09036D01*
X04709Y-09125D01*
X05000Y-09415D01*
X05291Y-09125D01*
X05291Y-09293D01*
X05085Y-09500D01*
X05375Y-09791D01*
X05464Y-09763D01*
X05496Y-09666D01*
X05536Y-09763D01*
X05625Y-09791D01*
X05915Y-09500D01*
X05915Y-09669D01*
X05709Y-09875D01*
X05737Y-09964D01*
X05934Y-10030D01*
X06142Y-10014D01*
X06263Y-09964D01*
X06291Y-09875D01*
X06291Y-14430D01*
X05861Y-14861D01*
X05818Y-14924D01*
X05803Y-15000D01*
X05803Y-15093D01*
X05745Y-15117D01*
X05618Y-15244D01*
X05549Y-15410D01*
X05549Y-15589D01*
X05617Y-15755D01*
X05665Y-15803D01*
X05335Y-15803D01*
X05382Y-15756D01*
X05451Y-15590D01*
X05451Y-15411D01*
X05383Y-15245D01*
X05291Y-15153D01*
X05291Y-09875D01*
X05000Y-09585D01*
X04915Y-09669D01*
X04915Y-09500D01*
X04625Y-09209D01*
X04536Y-09237D01*
X04470Y-09434D01*
X04486Y-09642D01*
X04536Y-09763D01*
X04625Y-09791D01*
X04915Y-09500D01*
X04915Y-09669D01*
X04709Y-09875D01*
X04737Y-09964D01*
X04934Y-10030D01*
X05142Y-10014D01*
X05263Y-09964D01*
X05291Y-09875D01*
X05291Y-15153D01*
X05256Y-15118D01*
X05090Y-15049D01*
X04911Y-15049D01*
X04745Y-15117D01*
X04618Y-15244D01*
X04549Y-15410D01*
X04549Y-15589D01*
X04617Y-15755D01*
X04665Y-15803D01*
X04530Y-15803D01*
X04444Y-15803D01*
X04419Y-15777D01*
X04464Y-15763D01*
X04530Y-15566D01*
X04514Y-15358D01*
X04464Y-15237D01*
X04375Y-15209D01*
X04291Y-15293D01*
X04291Y-15125D01*
X04263Y-15036D01*
X04066Y-14970D01*
X03858Y-14986D01*
X03737Y-15036D01*
X03709Y-15125D01*
X04000Y-15415D01*
X04291Y-15125D01*
X04291Y-15293D01*
X04085Y-15500D01*
X04000Y-15585D01*
X03915Y-15500D01*
X03887Y-15472D01*
X03625Y-15209D01*
X03536Y-15237D01*
X03470Y-15434D01*
X03486Y-15642D01*
X03536Y-15763D01*
X03580Y-15777D01*
X03555Y-15803D01*
X03335Y-15803D01*
X03382Y-15756D01*
X03451Y-15590D01*
X03451Y-15411D01*
X03383Y-15245D01*
X03256Y-15118D01*
X03090Y-15049D01*
X02911Y-15049D01*
X02745Y-15117D01*
X02618Y-15244D01*
X02549Y-15410D01*
X02549Y-15589D01*
X02617Y-15755D01*
X02665Y-15803D01*
X01331Y-15803D01*
X01331Y-08040D01*
X01272Y-07981D01*
X00857Y-07981D01*
X00857Y-08298D01*
X00916Y-08357D01*
X01139Y-08356D01*
X01227Y-08320D01*
X01294Y-08253D01*
X01330Y-08166D01*
X01330Y-08071D01*
X01331Y-08040D01*
X01331Y-15803D01*
X01250Y-15803D01*
X01174Y-15818D01*
X01111Y-15861D01*
X00611Y-16361D01*
X00568Y-16424D01*
X00553Y-16500D01*
X00553Y-21750D01*
X00568Y-21826D01*
X00611Y-21889D01*
X01111Y-22389D01*
X01174Y-22432D01*
X01175Y-22432D01*
X01250Y-22447D01*
X01337Y-22447D01*
X01363Y-22508D01*
X01491Y-22636D01*
X01659Y-22706D01*
X01840Y-22706D01*
X02008Y-22637D01*
X02136Y-22509D01*
X02161Y-22447D01*
X02418Y-22447D01*
X02553Y-22581D01*
X02553Y-26363D01*
X02506Y-26383D01*
X02384Y-26505D01*
X02318Y-26663D01*
X02318Y-26835D01*
X02383Y-26994D01*
X02505Y-27116D01*
X02553Y-27136D01*
X02553Y-29272D01*
X02445Y-29317D01*
X02285Y-29476D01*
X02285Y-23316D01*
X02269Y-23107D01*
X02218Y-22984D01*
X02129Y-22956D01*
X02044Y-23041D01*
X02044Y-22871D01*
X02016Y-22782D01*
X01816Y-22715D01*
X01607Y-22731D01*
X01484Y-22782D01*
X01456Y-22871D01*
X01750Y-23165D01*
X02044Y-22871D01*
X02044Y-23041D01*
X01835Y-23250D01*
X02129Y-23544D01*
X02218Y-23516D01*
X02285Y-23316D01*
X02285Y-29476D01*
X02259Y-29502D01*
X02259Y-26811D01*
X02244Y-26611D01*
X02198Y-26499D01*
X02111Y-26474D01*
X02044Y-26541D01*
X02044Y-23629D01*
X01750Y-23335D01*
X01665Y-23420D01*
X01665Y-23250D01*
X01371Y-22956D01*
X01282Y-22984D01*
X01215Y-23184D01*
X01231Y-23393D01*
X01282Y-23516D01*
X01371Y-23544D01*
X01665Y-23250D01*
X01665Y-23420D01*
X01456Y-23629D01*
X01484Y-23718D01*
X01684Y-23785D01*
X01893Y-23769D01*
X02016Y-23718D01*
X02044Y-23629D01*
X02044Y-26541D01*
X02026Y-26559D01*
X02026Y-26389D01*
X02001Y-26302D01*
X01811Y-26241D01*
X01611Y-26256D01*
X01499Y-26302D01*
X01474Y-26389D01*
X01750Y-26665D01*
X02026Y-26389D01*
X02026Y-26559D01*
X01835Y-26750D01*
X02111Y-27026D01*
X02198Y-27001D01*
X02259Y-26811D01*
X02259Y-29502D01*
X02218Y-29543D01*
X02095Y-29839D01*
X02095Y-30159D01*
X02217Y-30455D01*
X02443Y-30682D01*
X02739Y-30805D01*
X03059Y-30805D01*
X03355Y-30683D01*
X03582Y-30457D01*
X03690Y-30197D01*
X04418Y-30197D01*
X05553Y-31331D01*
X05553Y-32918D01*
X05288Y-33183D01*
X05288Y-32119D01*
X05288Y-31881D01*
X05287Y-31398D01*
X05287Y-31303D01*
X05251Y-31216D01*
X05184Y-31149D01*
X05096Y-31113D01*
X04519Y-31112D01*
X04460Y-31171D01*
X04460Y-31940D01*
X05229Y-31940D01*
X05288Y-31881D01*
X05288Y-32119D01*
X05229Y-32060D01*
X04460Y-32060D01*
X04460Y-32829D01*
X04519Y-32888D01*
X05096Y-32887D01*
X05184Y-32851D01*
X05251Y-32784D01*
X05287Y-32697D01*
X05287Y-32602D01*
X05288Y-32119D01*
X05288Y-33183D01*
X04918Y-33553D01*
X04340Y-33553D01*
X04340Y-32829D01*
X04340Y-32060D01*
X04340Y-31940D01*
X04340Y-31171D01*
X04281Y-31112D01*
X03704Y-31113D01*
X03616Y-31149D01*
X03549Y-31216D01*
X03513Y-31303D01*
X03513Y-31398D01*
X03512Y-31881D01*
X03571Y-31940D01*
X04340Y-31940D01*
X04340Y-32060D01*
X03571Y-32060D01*
X03512Y-32119D01*
X03513Y-32602D01*
X03513Y-32697D01*
X03549Y-32784D01*
X03616Y-32851D01*
X03704Y-32887D01*
X04281Y-32888D01*
X04340Y-32829D01*
X04340Y-33553D01*
X02805Y-33553D01*
X02805Y-32161D01*
X02805Y-31841D01*
X02683Y-31545D01*
X02457Y-31318D01*
X02161Y-31195D01*
X01841Y-31195D01*
X01545Y-31317D01*
X01318Y-31543D01*
X01195Y-31839D01*
X01195Y-32159D01*
X01317Y-32455D01*
X01543Y-32682D01*
X01839Y-32805D01*
X02159Y-32805D01*
X02455Y-32683D01*
X02682Y-32457D01*
X02805Y-32161D01*
X02805Y-33553D01*
X01250Y-33553D01*
X01175Y-33568D01*
X01153Y-33582D01*
X01110Y-33611D01*
X00861Y-33861D01*
X00818Y-33924D01*
X00803Y-34000D01*
X00803Y-36250D01*
X00818Y-36326D01*
X00861Y-36389D01*
X01110Y-36639D01*
X01111Y-36639D01*
X01144Y-36661D01*
X01144Y-36826D01*
X01168Y-36884D01*
X01212Y-36928D01*
X01270Y-36952D01*
X01332Y-36952D01*
X01772Y-36952D01*
X01772Y-36980D01*
X01771Y-37011D01*
X01830Y-37070D01*
X02205Y-37070D01*
X02245Y-37070D01*
X02365Y-37070D01*
X02405Y-37070D01*
X02780Y-37070D01*
X02839Y-37011D01*
X02838Y-36980D01*
X02838Y-36885D01*
X02802Y-36798D01*
X02749Y-36745D01*
X02757Y-36728D01*
X02757Y-36697D01*
X03743Y-36697D01*
X03743Y-36728D01*
X03750Y-36745D01*
X03698Y-36798D01*
X03662Y-36885D01*
X03662Y-36980D01*
X03661Y-37011D01*
X03720Y-37070D01*
X04095Y-37070D01*
X04135Y-37070D01*
X04255Y-37070D01*
X04295Y-37070D01*
X04670Y-37070D01*
X04729Y-37011D01*
X04728Y-36980D01*
X04728Y-36952D01*
X05230Y-36952D01*
X05288Y-36928D01*
X05332Y-36884D01*
X05356Y-36826D01*
X05356Y-36764D01*
X05356Y-36697D01*
X05394Y-36697D01*
X05394Y-36826D01*
X05418Y-36884D01*
X05462Y-36928D01*
X05520Y-36952D01*
X05582Y-36952D01*
X06022Y-36952D01*
X06022Y-36980D01*
X06021Y-37011D01*
X06080Y-37070D01*
X06455Y-37070D01*
X06495Y-37070D01*
X06615Y-37070D01*
X06655Y-37070D01*
X07030Y-37070D01*
X07089Y-37011D01*
X07088Y-36980D01*
X07088Y-36885D01*
X07052Y-36798D01*
X06999Y-36745D01*
X07007Y-36728D01*
X07007Y-36697D01*
X07993Y-36697D01*
X07993Y-36728D01*
X08000Y-36745D01*
X07948Y-36798D01*
X07912Y-36885D01*
X07912Y-36980D01*
X07911Y-37011D01*
X07970Y-37070D01*
X08345Y-37070D01*
X08385Y-37070D01*
X08505Y-37070D01*
X08545Y-37070D01*
X08920Y-37070D01*
X08979Y-37011D01*
X08978Y-36980D01*
X08978Y-36952D01*
X09480Y-36952D01*
X09538Y-36928D01*
X09582Y-36884D01*
X09606Y-36826D01*
X09606Y-36764D01*
X09606Y-36697D01*
X09644Y-36697D01*
X09644Y-36826D01*
X09668Y-36884D01*
X09712Y-36928D01*
X09770Y-36952D01*
X09832Y-36952D01*
X10272Y-36952D01*
X10272Y-36980D01*
X10271Y-37011D01*
X10330Y-37070D01*
X10705Y-37070D01*
X10745Y-37070D01*
X10865Y-37070D01*
X10905Y-37070D01*
X11280Y-37070D01*
X11339Y-37011D01*
X11338Y-36980D01*
X11338Y-36885D01*
X11302Y-36798D01*
X11249Y-36745D01*
X11257Y-36728D01*
X11257Y-36697D01*
X12243Y-36697D01*
X12243Y-36728D01*
X12250Y-36745D01*
X12198Y-36798D01*
X12162Y-36885D01*
X12162Y-36980D01*
X12161Y-37011D01*
X12220Y-37070D01*
X12595Y-37070D01*
X12635Y-37070D01*
X12755Y-37070D01*
X12795Y-37070D01*
X13170Y-37070D01*
X13229Y-37011D01*
X13228Y-36980D01*
X13228Y-36952D01*
X13730Y-36952D01*
X13788Y-36928D01*
X13832Y-36884D01*
X13856Y-36826D01*
X13856Y-36764D01*
X13856Y-36174D01*
X13832Y-36116D01*
X13788Y-36072D01*
X13730Y-36048D01*
X13668Y-36048D01*
X13147Y-36048D01*
X13147Y-36036D01*
X13147Y-35642D01*
X13130Y-35602D01*
X13156Y-35613D01*
X13218Y-35613D01*
X13808Y-35613D01*
X13866Y-35589D01*
X13910Y-35545D01*
X13934Y-35487D01*
X13934Y-35425D01*
X13934Y-34835D01*
X13910Y-34777D01*
X13866Y-34733D01*
X13808Y-34709D01*
X13746Y-34709D01*
X13156Y-34709D01*
X13098Y-34733D01*
X13054Y-34777D01*
X13030Y-34835D01*
X13030Y-34897D01*
X13030Y-35487D01*
X13046Y-35526D01*
X13021Y-35516D01*
X12959Y-35516D01*
X12369Y-35516D01*
X12311Y-35540D01*
X12267Y-35584D01*
X12243Y-35642D01*
X12243Y-35704D01*
X12243Y-36098D01*
X12267Y-36156D01*
X12296Y-36185D01*
X12267Y-36214D01*
X12243Y-36272D01*
X12243Y-36303D01*
X11257Y-36303D01*
X11257Y-36272D01*
X11233Y-36214D01*
X11204Y-36185D01*
X11233Y-36156D01*
X11257Y-36098D01*
X11257Y-36036D01*
X11257Y-35642D01*
X11233Y-35584D01*
X11189Y-35540D01*
X11131Y-35516D01*
X11069Y-35516D01*
X10755Y-35516D01*
X10548Y-35281D01*
X10548Y-34835D01*
X10524Y-34777D01*
X10480Y-34733D01*
X10422Y-34709D01*
X10360Y-34709D01*
X09770Y-34709D01*
X09724Y-34728D01*
X09603Y-34728D01*
X09558Y-34709D01*
X09496Y-34709D01*
X09035Y-34709D01*
X09035Y-28566D01*
X09019Y-28357D01*
X08968Y-28234D01*
X08879Y-28206D01*
X08794Y-28291D01*
X08794Y-28121D01*
X08766Y-28032D01*
X08566Y-27965D01*
X08357Y-27981D01*
X08234Y-28032D01*
X08206Y-28121D01*
X08500Y-28415D01*
X08794Y-28121D01*
X08794Y-28291D01*
X08585Y-28500D01*
X08879Y-28794D01*
X08968Y-28766D01*
X09035Y-28566D01*
X09035Y-34709D01*
X08906Y-34709D01*
X08848Y-34733D01*
X08804Y-34777D01*
X08794Y-34801D01*
X08794Y-28879D01*
X08500Y-28585D01*
X08415Y-28670D01*
X08415Y-28500D01*
X08121Y-28206D01*
X08032Y-28234D01*
X07965Y-28434D01*
X07981Y-28643D01*
X08032Y-28766D01*
X08121Y-28794D01*
X08415Y-28500D01*
X08415Y-28670D01*
X08206Y-28879D01*
X08234Y-28968D01*
X08434Y-29035D01*
X08643Y-29019D01*
X08766Y-28968D01*
X08794Y-28879D01*
X08794Y-34801D01*
X08780Y-34835D01*
X08780Y-34897D01*
X08780Y-35256D01*
X08520Y-35516D01*
X08119Y-35516D01*
X08061Y-35540D01*
X08017Y-35584D01*
X07993Y-35642D01*
X07993Y-35704D01*
X07993Y-36098D01*
X08017Y-36156D01*
X08046Y-36185D01*
X08017Y-36214D01*
X07993Y-36272D01*
X07993Y-36303D01*
X07957Y-36303D01*
X07957Y-28831D01*
X07957Y-28769D01*
X07957Y-28169D01*
X07933Y-28111D01*
X07889Y-28067D01*
X07831Y-28043D01*
X07769Y-28043D01*
X07169Y-28043D01*
X07111Y-28067D01*
X07067Y-28111D01*
X07043Y-28169D01*
X07043Y-28178D01*
X06761Y-28178D01*
X06742Y-28131D01*
X06620Y-28009D01*
X06462Y-27943D01*
X06290Y-27943D01*
X06131Y-28008D01*
X06009Y-28130D01*
X05943Y-28288D01*
X05943Y-28460D01*
X06008Y-28619D01*
X06130Y-28741D01*
X06288Y-28807D01*
X06460Y-28807D01*
X06619Y-28742D01*
X06741Y-28620D01*
X06761Y-28572D01*
X07043Y-28572D01*
X07043Y-28831D01*
X07067Y-28889D01*
X07111Y-28933D01*
X07169Y-28957D01*
X07231Y-28957D01*
X07831Y-28957D01*
X07889Y-28933D01*
X07933Y-28889D01*
X07957Y-28831D01*
X07957Y-36303D01*
X07007Y-36303D01*
X07007Y-36272D01*
X06983Y-36214D01*
X06954Y-36185D01*
X06983Y-36156D01*
X07007Y-36098D01*
X07007Y-36036D01*
X07007Y-35642D01*
X06983Y-35584D01*
X06939Y-35540D01*
X06881Y-35516D01*
X06819Y-35516D01*
X06568Y-35516D01*
X06298Y-35074D01*
X06298Y-34835D01*
X06274Y-34777D01*
X06230Y-34733D01*
X06172Y-34709D01*
X06110Y-34709D01*
X05520Y-34709D01*
X05474Y-34728D01*
X05353Y-34728D01*
X05308Y-34709D01*
X05246Y-34709D01*
X04656Y-34709D01*
X04598Y-34733D01*
X04554Y-34777D01*
X04530Y-34835D01*
X04530Y-34897D01*
X04530Y-35256D01*
X04270Y-35516D01*
X03869Y-35516D01*
X03811Y-35540D01*
X03767Y-35584D01*
X03743Y-35642D01*
X03743Y-35704D01*
X03743Y-36098D01*
X03767Y-36156D01*
X03796Y-36185D01*
X03767Y-36214D01*
X03743Y-36272D01*
X03743Y-36303D01*
X02757Y-36303D01*
X02757Y-36272D01*
X02733Y-36214D01*
X02704Y-36185D01*
X02733Y-36156D01*
X02757Y-36098D01*
X02757Y-36036D01*
X02757Y-35642D01*
X02733Y-35584D01*
X02689Y-35540D01*
X02631Y-35516D01*
X02569Y-35516D01*
X02229Y-35516D01*
X02048Y-35334D01*
X02048Y-34835D01*
X02024Y-34777D01*
X01980Y-34733D01*
X01922Y-34709D01*
X01860Y-34709D01*
X01697Y-34709D01*
X01697Y-34331D01*
X01831Y-34197D01*
X05250Y-34197D01*
X05325Y-34182D01*
X05326Y-34182D01*
X05389Y-34139D01*
X06139Y-33390D01*
X06139Y-33389D01*
X06167Y-33347D01*
X06181Y-33326D01*
X06182Y-33325D01*
X06196Y-33250D01*
X06197Y-33250D01*
X06197Y-31000D01*
X06182Y-30925D01*
X06182Y-30924D01*
X06139Y-30861D01*
X03447Y-28169D01*
X03447Y-22500D01*
X03432Y-22425D01*
X03431Y-22424D01*
X03417Y-22403D01*
X03389Y-22361D01*
X03389Y-22360D01*
X02639Y-21611D01*
X02576Y-21568D01*
X02500Y-21553D01*
X02207Y-21553D01*
X02207Y-21519D01*
X02207Y-21447D01*
X02500Y-21447D01*
X02575Y-21432D01*
X02576Y-21432D01*
X02639Y-21389D01*
X04639Y-19390D01*
X04639Y-19389D01*
X04667Y-19347D01*
X04681Y-19326D01*
X04682Y-19325D01*
X04696Y-19250D01*
X04697Y-19250D01*
X04697Y-19132D01*
X04706Y-19132D01*
X04956Y-19132D01*
X05014Y-19108D01*
X05058Y-19064D01*
X05082Y-19006D01*
X05082Y-18944D01*
X05082Y-18822D01*
X05488Y-18822D01*
X05508Y-18869D01*
X05630Y-18991D01*
X05678Y-19011D01*
X05678Y-19043D01*
X05418Y-19303D01*
X05000Y-19303D01*
X04924Y-19318D01*
X04861Y-19361D01*
X04361Y-19861D01*
X04318Y-19924D01*
X04303Y-20000D01*
X04303Y-21000D01*
X04318Y-21076D01*
X04361Y-21139D01*
X04649Y-21428D01*
X04625Y-21428D01*
X04550Y-21443D01*
X04528Y-21457D01*
X04485Y-21486D01*
X04361Y-21611D01*
X04318Y-21674D01*
X04303Y-21750D01*
X04303Y-24000D01*
X04318Y-24076D01*
X04361Y-24139D01*
X04846Y-24625D01*
X04361Y-25111D01*
X04318Y-25174D01*
X04303Y-25250D01*
X04303Y-27500D01*
X04318Y-27576D01*
X04361Y-27639D01*
X04962Y-28241D01*
X04943Y-28288D01*
X04943Y-28460D01*
X05008Y-28619D01*
X05130Y-28741D01*
X05288Y-28807D01*
X05460Y-28807D01*
X05619Y-28742D01*
X05741Y-28620D01*
X05807Y-28462D01*
X05807Y-28290D01*
X05742Y-28131D01*
X05620Y-28009D01*
X05462Y-27943D01*
X05290Y-27943D01*
X05241Y-27962D01*
X04697Y-27418D01*
X04697Y-26332D01*
X04698Y-26335D01*
X04765Y-26402D01*
X04808Y-26419D01*
X04767Y-26461D01*
X04743Y-26519D01*
X04743Y-26581D01*
X04743Y-26831D01*
X04767Y-26889D01*
X04811Y-26933D01*
X04869Y-26957D01*
X04931Y-26957D01*
X05381Y-26957D01*
X05439Y-26933D01*
X05483Y-26889D01*
X05499Y-26848D01*
X05508Y-26869D01*
X05630Y-26991D01*
X05788Y-27057D01*
X05960Y-27057D01*
X06119Y-26992D01*
X06241Y-26870D01*
X06261Y-26822D01*
X08488Y-26822D01*
X08508Y-26869D01*
X08630Y-26991D01*
X08788Y-27057D01*
X08960Y-27057D01*
X09119Y-26992D01*
X09241Y-26870D01*
X09307Y-26712D01*
X09307Y-26540D01*
X09242Y-26381D01*
X09120Y-26259D01*
X08962Y-26193D01*
X08790Y-26193D01*
X08631Y-26258D01*
X08509Y-26380D01*
X08488Y-26428D01*
X06261Y-26428D01*
X06242Y-26381D01*
X06120Y-26259D01*
X05962Y-26193D01*
X05790Y-26193D01*
X05631Y-26258D01*
X05509Y-26380D01*
X05488Y-26428D01*
X05450Y-26428D01*
X05441Y-26419D01*
X05485Y-26402D01*
X05552Y-26335D01*
X05588Y-26247D01*
X05589Y-26194D01*
X05589Y-25956D01*
X05588Y-25903D01*
X05552Y-25815D01*
X05485Y-25748D01*
X05398Y-25712D01*
X05303Y-25712D01*
X05244Y-25711D01*
X05185Y-25770D01*
X05185Y-26015D01*
X05530Y-26015D01*
X05589Y-25956D01*
X05589Y-26194D01*
X05530Y-26135D01*
X05225Y-26135D01*
X05185Y-26135D01*
X05065Y-26135D01*
X05065Y-26015D01*
X05065Y-25975D01*
X05065Y-25770D01*
X05006Y-25711D01*
X04947Y-25712D01*
X04852Y-25712D01*
X04765Y-25748D01*
X04698Y-25815D01*
X04697Y-25817D01*
X04697Y-25331D01*
X05206Y-24822D01*
X05488Y-24822D01*
X05508Y-24869D01*
X05630Y-24991D01*
X05788Y-25057D01*
X05960Y-25057D01*
X06119Y-24992D01*
X06241Y-24870D01*
X06261Y-24822D01*
X08488Y-24822D01*
X08508Y-24869D01*
X08630Y-24991D01*
X08788Y-25057D01*
X08960Y-25057D01*
X09119Y-24992D01*
X09241Y-24870D01*
X09307Y-24712D01*
X09307Y-24540D01*
X09242Y-24381D01*
X09120Y-24259D01*
X08962Y-24193D01*
X08790Y-24193D01*
X08631Y-24258D01*
X08509Y-24380D01*
X08488Y-24428D01*
X06261Y-24428D01*
X06242Y-24381D01*
X06120Y-24259D01*
X05962Y-24193D01*
X05790Y-24193D01*
X05631Y-24258D01*
X05509Y-24380D01*
X05488Y-24428D01*
X05206Y-24428D01*
X04697Y-23918D01*
X04697Y-23332D01*
X04698Y-23335D01*
X04765Y-23402D01*
X04808Y-23419D01*
X04767Y-23461D01*
X04743Y-23519D01*
X04743Y-23581D01*
X04743Y-23831D01*
X04767Y-23889D01*
X04811Y-23933D01*
X04869Y-23957D01*
X04931Y-23957D01*
X05381Y-23957D01*
X05439Y-23933D01*
X05483Y-23889D01*
X05499Y-23848D01*
X05508Y-23869D01*
X05630Y-23991D01*
X05788Y-24057D01*
X05960Y-24057D01*
X06119Y-23992D01*
X06241Y-23870D01*
X06261Y-23822D01*
X08488Y-23822D01*
X08508Y-23869D01*
X08630Y-23991D01*
X08788Y-24057D01*
X08960Y-24057D01*
X09119Y-23992D01*
X09241Y-23870D01*
X09307Y-23712D01*
X09307Y-23540D01*
X09242Y-23381D01*
X09120Y-23259D01*
X08962Y-23193D01*
X08790Y-23193D01*
X08631Y-23258D01*
X08509Y-23380D01*
X08488Y-23428D01*
X06261Y-23428D01*
X06242Y-23381D01*
X06120Y-23259D01*
X05962Y-23193D01*
X05790Y-23193D01*
X05631Y-23258D01*
X05509Y-23380D01*
X05488Y-23428D01*
X05450Y-23428D01*
X05441Y-23419D01*
X05485Y-23402D01*
X05552Y-23335D01*
X05588Y-23247D01*
X05589Y-23194D01*
X05589Y-22956D01*
X05588Y-22903D01*
X05552Y-22815D01*
X05485Y-22748D01*
X05398Y-22712D01*
X05303Y-22712D01*
X05244Y-22711D01*
X05185Y-22770D01*
X05185Y-23015D01*
X05530Y-23015D01*
X05589Y-22956D01*
X05589Y-23194D01*
X05530Y-23135D01*
X05225Y-23135D01*
X05185Y-23135D01*
X05065Y-23135D01*
X05065Y-23015D01*
X05065Y-22975D01*
X05065Y-22770D01*
X05006Y-22711D01*
X04947Y-22712D01*
X04852Y-22712D01*
X04765Y-22748D01*
X04698Y-22815D01*
X04697Y-22817D01*
X04697Y-21831D01*
X04706Y-21822D01*
X05125Y-21822D01*
X05488Y-21822D01*
X05508Y-21869D01*
X05630Y-21991D01*
X05788Y-22057D01*
X05960Y-22057D01*
X06119Y-21992D01*
X06241Y-21870D01*
X06261Y-21822D01*
X08488Y-21822D01*
X08508Y-21869D01*
X08630Y-21991D01*
X08788Y-22057D01*
X08960Y-22057D01*
X09119Y-21992D01*
X09241Y-21870D01*
X09307Y-21712D01*
X09307Y-21540D01*
X09242Y-21381D01*
X09120Y-21259D01*
X08962Y-21193D01*
X08790Y-21193D01*
X08631Y-21258D01*
X08509Y-21380D01*
X08488Y-21428D01*
X06261Y-21428D01*
X06242Y-21381D01*
X06120Y-21259D01*
X05962Y-21193D01*
X05790Y-21193D01*
X05631Y-21258D01*
X05509Y-21380D01*
X05488Y-21428D01*
X05206Y-21428D01*
X04697Y-20918D01*
X04697Y-20332D01*
X04698Y-20335D01*
X04765Y-20402D01*
X04808Y-20419D01*
X04767Y-20461D01*
X04743Y-20519D01*
X04743Y-20581D01*
X04743Y-20831D01*
X04767Y-20889D01*
X04811Y-20933D01*
X04869Y-20957D01*
X04931Y-20957D01*
X05381Y-20957D01*
X05439Y-20933D01*
X05483Y-20889D01*
X05499Y-20848D01*
X05508Y-20869D01*
X05630Y-20991D01*
X05788Y-21057D01*
X05960Y-21057D01*
X06119Y-20992D01*
X06241Y-20870D01*
X06261Y-20822D01*
X08488Y-20822D01*
X08508Y-20869D01*
X08630Y-20991D01*
X08788Y-21057D01*
X08960Y-21057D01*
X09119Y-20992D01*
X09241Y-20870D01*
X09307Y-20712D01*
X09307Y-20540D01*
X09242Y-20381D01*
X09120Y-20259D01*
X08962Y-20193D01*
X08790Y-20193D01*
X08631Y-20258D01*
X08509Y-20380D01*
X08488Y-20428D01*
X06261Y-20428D01*
X06242Y-20381D01*
X06120Y-20259D01*
X05962Y-20193D01*
X05790Y-20193D01*
X05631Y-20258D01*
X05509Y-20380D01*
X05488Y-20428D01*
X05450Y-20428D01*
X05441Y-20419D01*
X05485Y-20402D01*
X05552Y-20335D01*
X05588Y-20247D01*
X05589Y-20194D01*
X05589Y-19956D01*
X05588Y-19903D01*
X05552Y-19815D01*
X05485Y-19748D01*
X05398Y-19712D01*
X05303Y-19712D01*
X05244Y-19711D01*
X05185Y-19770D01*
X05185Y-20015D01*
X05530Y-20015D01*
X05589Y-19956D01*
X05589Y-20194D01*
X05530Y-20135D01*
X05225Y-20135D01*
X05185Y-20135D01*
X05065Y-20135D01*
X05065Y-20015D01*
X05065Y-19975D01*
X05065Y-19770D01*
X05036Y-19741D01*
X05081Y-19697D01*
X05500Y-19697D01*
X05575Y-19682D01*
X05576Y-19682D01*
X05639Y-19639D01*
X06014Y-19265D01*
X06014Y-19264D01*
X06042Y-19222D01*
X06056Y-19201D01*
X06057Y-19200D01*
X06071Y-19125D01*
X06072Y-19125D01*
X06072Y-19011D01*
X06119Y-18992D01*
X06241Y-18870D01*
X06261Y-18822D01*
X08488Y-18822D01*
X08508Y-18869D01*
X08630Y-18991D01*
X08788Y-19057D01*
X08960Y-19057D01*
X09119Y-18992D01*
X09241Y-18870D01*
X09307Y-18712D01*
X09307Y-18540D01*
X09242Y-18381D01*
X09120Y-18259D01*
X08962Y-18193D01*
X08790Y-18193D01*
X08631Y-18258D01*
X08509Y-18380D01*
X08488Y-18428D01*
X06261Y-18428D01*
X06242Y-18381D01*
X06120Y-18259D01*
X06072Y-18238D01*
X06072Y-18206D01*
X06081Y-18197D01*
X08750Y-18197D01*
X08825Y-18182D01*
X08826Y-18182D01*
X08889Y-18139D01*
X10139Y-16890D01*
X10139Y-16889D01*
X10167Y-16847D01*
X10181Y-16826D01*
X10182Y-16825D01*
X10196Y-16751D01*
X10197Y-16750D01*
X10197Y-15906D01*
X10255Y-15883D01*
X10382Y-15756D01*
X10451Y-15590D01*
X10451Y-15411D01*
X10383Y-15245D01*
X10256Y-15118D01*
X10090Y-15049D01*
X09911Y-15049D01*
X09745Y-15117D01*
X09618Y-15244D01*
X09549Y-15410D01*
X09549Y-15589D01*
X09617Y-15755D01*
X09744Y-15882D01*
X09803Y-15906D01*
X09803Y-16668D01*
X09190Y-17280D01*
X09197Y-17250D01*
X09197Y-15906D01*
X09255Y-15883D01*
X09382Y-15756D01*
X09451Y-15590D01*
X09451Y-15411D01*
X09383Y-15245D01*
X09256Y-15118D01*
X09090Y-15049D01*
X08911Y-15049D01*
X08745Y-15117D01*
X08618Y-15244D01*
X08549Y-15410D01*
X08549Y-15589D01*
X08617Y-15755D01*
X08744Y-15882D01*
X08803Y-15906D01*
X08803Y-17169D01*
X08419Y-17553D01*
X05000Y-17553D01*
X04924Y-17568D01*
X04861Y-17611D01*
X04361Y-18111D01*
X04318Y-18174D01*
X04303Y-18250D01*
X04303Y-18368D01*
X04294Y-18368D01*
X04044Y-18368D01*
X03986Y-18392D01*
X03942Y-18436D01*
X03918Y-18494D01*
X03918Y-18556D01*
X03918Y-18754D01*
X03819Y-18853D01*
X03115Y-18853D01*
X03108Y-18836D01*
X03064Y-18792D01*
X03006Y-18768D01*
X02944Y-18768D01*
X02494Y-18768D01*
X02436Y-18792D01*
X02392Y-18836D01*
X02368Y-18894D01*
X02368Y-18956D01*
X02368Y-19206D01*
X02392Y-19264D01*
X02436Y-19308D01*
X02494Y-19332D01*
X02553Y-19332D01*
X02553Y-19668D01*
X02418Y-19803D01*
X02289Y-19803D01*
X02289Y-19369D01*
X02289Y-19131D01*
X02288Y-18903D01*
X02252Y-18815D01*
X02185Y-18748D01*
X02098Y-18712D01*
X02003Y-18712D01*
X01869Y-18711D01*
X01810Y-18770D01*
X01810Y-19190D01*
X02230Y-19190D01*
X02289Y-19131D01*
X02289Y-19369D01*
X02230Y-19310D01*
X01810Y-19310D01*
X01810Y-19730D01*
X01869Y-19789D01*
X02003Y-19788D01*
X02098Y-19788D01*
X02185Y-19752D01*
X02252Y-19685D01*
X02288Y-19597D01*
X02289Y-19369D01*
X02289Y-19803D01*
X01581Y-19803D01*
X01567Y-19788D01*
X01631Y-19789D01*
X01690Y-19730D01*
X01690Y-19350D01*
X01690Y-19310D01*
X01690Y-19190D01*
X01690Y-19150D01*
X01690Y-18770D01*
X01631Y-18711D01*
X01497Y-18712D01*
X01447Y-18712D01*
X01447Y-18592D01*
X01491Y-18636D01*
X01659Y-18706D01*
X01840Y-18706D01*
X02008Y-18637D01*
X02136Y-18509D01*
X02161Y-18447D01*
X02368Y-18447D01*
X02368Y-18606D01*
X02392Y-18664D01*
X02436Y-18708D01*
X02494Y-18732D01*
X02556Y-18732D01*
X03006Y-18732D01*
X03064Y-18708D01*
X03108Y-18664D01*
X03132Y-18606D01*
X03132Y-18544D01*
X03132Y-18294D01*
X03108Y-18236D01*
X03064Y-18192D01*
X03006Y-18168D01*
X02947Y-18168D01*
X02947Y-18082D01*
X03006Y-18082D01*
X03064Y-18058D01*
X03108Y-18014D01*
X03132Y-17956D01*
X03132Y-17894D01*
X03132Y-17644D01*
X03108Y-17586D01*
X03066Y-17544D01*
X03110Y-17527D01*
X03177Y-17460D01*
X03213Y-17372D01*
X03214Y-17319D01*
X03155Y-17260D01*
X02850Y-17260D01*
X02810Y-17260D01*
X02690Y-17260D01*
X02650Y-17260D01*
X02345Y-17260D01*
X02286Y-17319D01*
X02287Y-17372D01*
X02323Y-17460D01*
X02390Y-17527D01*
X02433Y-17544D01*
X02392Y-17586D01*
X02368Y-17644D01*
X02368Y-17706D01*
X02368Y-17956D01*
X02392Y-18014D01*
X02431Y-18053D01*
X02162Y-18053D01*
X02137Y-17992D01*
X02009Y-17864D01*
X01841Y-17794D01*
X01660Y-17794D01*
X01492Y-17863D01*
X01447Y-17908D01*
X01447Y-17592D01*
X01491Y-17636D01*
X01659Y-17706D01*
X01840Y-17706D01*
X02008Y-17637D01*
X02136Y-17509D01*
X02206Y-17341D01*
X02206Y-17160D01*
X02160Y-17049D01*
X02263Y-16947D01*
X02320Y-16947D01*
X02287Y-17028D01*
X02286Y-17081D01*
X02345Y-17140D01*
X02650Y-17140D01*
X02690Y-17140D01*
X02810Y-17140D01*
X02850Y-17140D01*
X03155Y-17140D01*
X03214Y-17081D01*
X03213Y-17028D01*
X03179Y-16947D01*
X07500Y-16947D01*
X07575Y-16932D01*
X07576Y-16932D01*
X07639Y-16889D01*
X08139Y-16389D01*
X08182Y-16326D01*
X08182Y-16325D01*
X08197Y-16250D01*
X08197Y-15906D01*
X08255Y-15883D01*
X08382Y-15756D01*
X08451Y-15590D01*
X08451Y-15411D01*
X08383Y-15245D01*
X08256Y-15118D01*
X08090Y-15049D01*
X07911Y-15049D01*
X07745Y-15117D01*
X07697Y-15165D01*
X07697Y-14447D01*
X08500Y-14447D01*
X13919Y-14447D01*
X14803Y-15331D01*
X14803Y-20500D01*
X14818Y-20576D01*
X14861Y-20639D01*
X15361Y-21139D01*
X15819Y-21598D01*
X15794Y-21659D01*
X15794Y-21840D01*
X15863Y-22008D01*
X15991Y-22136D01*
X16159Y-22206D01*
X16340Y-22206D01*
X16508Y-22137D01*
X16636Y-22009D01*
X16661Y-21947D01*
X17000Y-21947D01*
X17075Y-21932D01*
X17076Y-21932D01*
X17139Y-21889D01*
X17294Y-21734D01*
X17294Y-21840D01*
X17363Y-22008D01*
X17491Y-22136D01*
X17659Y-22206D01*
X17840Y-22206D01*
X18008Y-22137D01*
X18136Y-22009D01*
X18206Y-21841D01*
X18206Y-21660D01*
X18137Y-21492D01*
X18076Y-21431D01*
X18139Y-21389D01*
X18639Y-20889D01*
X18682Y-20826D01*
X18682Y-20825D01*
X18697Y-20750D01*
X18697Y-17250D01*
X18682Y-17175D01*
X18682Y-17174D01*
X18639Y-17111D01*
X18475Y-16947D01*
X18500Y-16947D01*
X18575Y-16932D01*
X18576Y-16932D01*
X18639Y-16889D01*
X18803Y-16725D01*
X18803Y-30918D01*
X18475Y-31246D01*
X18475Y-28561D01*
X18475Y-28373D01*
X18403Y-28199D01*
X18347Y-28142D01*
X18362Y-28128D01*
X18398Y-28040D01*
X18399Y-27817D01*
X18399Y-27579D01*
X18398Y-27356D01*
X18362Y-27268D01*
X18295Y-27201D01*
X18208Y-27165D01*
X18206Y-27165D01*
X18206Y-23841D01*
X18206Y-23660D01*
X18206Y-22841D01*
X18206Y-22660D01*
X18137Y-22492D01*
X18009Y-22364D01*
X17841Y-22294D01*
X17660Y-22294D01*
X17492Y-22363D01*
X17364Y-22491D01*
X17294Y-22659D01*
X17294Y-22840D01*
X17363Y-23008D01*
X17491Y-23136D01*
X17659Y-23206D01*
X17840Y-23206D01*
X18008Y-23137D01*
X18136Y-23009D01*
X18206Y-22841D01*
X18206Y-23660D01*
X18137Y-23492D01*
X18009Y-23364D01*
X17841Y-23294D01*
X17660Y-23294D01*
X17492Y-23363D01*
X17364Y-23491D01*
X17294Y-23659D01*
X17294Y-23840D01*
X17363Y-24008D01*
X17491Y-24136D01*
X17659Y-24206D01*
X17840Y-24206D01*
X18008Y-24137D01*
X18136Y-24009D01*
X18206Y-23841D01*
X18206Y-27165D01*
X18113Y-27165D01*
X17728Y-27164D01*
X17669Y-27223D01*
X17669Y-27638D01*
X18340Y-27638D01*
X18399Y-27579D01*
X18399Y-27817D01*
X18340Y-27758D01*
X17709Y-27758D01*
X17669Y-27758D01*
X17549Y-27758D01*
X17549Y-27638D01*
X17549Y-27223D01*
X17490Y-27164D01*
X17105Y-27165D01*
X17010Y-27165D01*
X16923Y-27201D01*
X16856Y-27268D01*
X16820Y-27356D01*
X16819Y-27579D01*
X16878Y-27638D01*
X17549Y-27638D01*
X17549Y-27758D01*
X17509Y-27758D01*
X16878Y-27758D01*
X16819Y-27817D01*
X16820Y-28040D01*
X16856Y-28128D01*
X16889Y-28161D01*
X16789Y-28161D01*
X16789Y-22869D01*
X16789Y-22631D01*
X16788Y-22403D01*
X16752Y-22315D01*
X16685Y-22248D01*
X16598Y-22212D01*
X16503Y-22212D01*
X16369Y-22211D01*
X16310Y-22270D01*
X16310Y-22690D01*
X16730Y-22690D01*
X16789Y-22631D01*
X16789Y-22869D01*
X16730Y-22810D01*
X16310Y-22810D01*
X16310Y-23230D01*
X16369Y-23289D01*
X16503Y-23288D01*
X16598Y-23288D01*
X16685Y-23252D01*
X16752Y-23185D01*
X16788Y-23097D01*
X16789Y-22869D01*
X16789Y-28161D01*
X16575Y-28161D01*
X16517Y-28185D01*
X16473Y-28229D01*
X16449Y-28287D01*
X16449Y-28349D01*
X16449Y-28743D01*
X16473Y-28801D01*
X16517Y-28845D01*
X16575Y-28869D01*
X16637Y-28869D01*
X17227Y-28869D01*
X17285Y-28845D01*
X17329Y-28801D01*
X17353Y-28743D01*
X17353Y-28681D01*
X17353Y-28287D01*
X17330Y-28231D01*
X17490Y-28232D01*
X17509Y-28213D01*
X17509Y-28232D01*
X17549Y-28232D01*
X17588Y-28232D01*
X17549Y-28327D01*
X17531Y-28371D01*
X17531Y-28559D01*
X17603Y-28733D01*
X17735Y-28866D01*
X17908Y-28938D01*
X18096Y-28938D01*
X18270Y-28866D01*
X18403Y-28734D01*
X18475Y-28561D01*
X18475Y-31246D01*
X17466Y-32255D01*
X17452Y-32255D01*
X17435Y-32255D01*
X17435Y-31587D01*
X17435Y-31349D01*
X17434Y-31224D01*
X17398Y-31136D01*
X17331Y-31069D01*
X17244Y-31033D01*
X17149Y-31033D01*
X17020Y-31032D01*
X16961Y-31091D01*
X16961Y-31408D01*
X17376Y-31408D01*
X17435Y-31349D01*
X17435Y-31587D01*
X17376Y-31528D01*
X16961Y-31528D01*
X16961Y-31845D01*
X17020Y-31904D01*
X17149Y-31903D01*
X17244Y-31903D01*
X17331Y-31867D01*
X17398Y-31800D01*
X17434Y-31712D01*
X17435Y-31587D01*
X17435Y-32255D01*
X17353Y-32255D01*
X17353Y-32224D01*
X17329Y-32166D01*
X17285Y-32122D01*
X17227Y-32098D01*
X17165Y-32098D01*
X16841Y-32098D01*
X16841Y-31845D01*
X16841Y-31528D01*
X16841Y-31408D01*
X16841Y-31091D01*
X16782Y-31032D01*
X16653Y-31033D01*
X16558Y-31033D01*
X16471Y-31069D01*
X16404Y-31136D01*
X16368Y-31224D01*
X16367Y-31349D01*
X16426Y-31408D01*
X16841Y-31408D01*
X16841Y-31528D01*
X16426Y-31528D01*
X16367Y-31587D01*
X16368Y-31712D01*
X16404Y-31800D01*
X16471Y-31867D01*
X16558Y-31903D01*
X16653Y-31903D01*
X16782Y-31904D01*
X16841Y-31845D01*
X16841Y-32098D01*
X16575Y-32098D01*
X16517Y-32122D01*
X16473Y-32166D01*
X16449Y-32224D01*
X16449Y-32286D01*
X16449Y-32680D01*
X16473Y-32738D01*
X16517Y-32782D01*
X16567Y-32803D01*
X16339Y-32803D01*
X16339Y-31294D01*
X16280Y-31235D01*
X15935Y-31235D01*
X15935Y-31480D01*
X15994Y-31539D01*
X16053Y-31538D01*
X16148Y-31538D01*
X16235Y-31502D01*
X16302Y-31435D01*
X16338Y-31347D01*
X16339Y-31294D01*
X16339Y-32803D01*
X15831Y-32803D01*
X15815Y-32786D01*
X15815Y-31480D01*
X15815Y-31235D01*
X15470Y-31235D01*
X15411Y-31294D01*
X15412Y-31347D01*
X15448Y-31435D01*
X15515Y-31502D01*
X15602Y-31538D01*
X15697Y-31538D01*
X15756Y-31539D01*
X15815Y-31480D01*
X15815Y-32786D01*
X15197Y-32168D01*
X15197Y-30882D01*
X15206Y-30882D01*
X15456Y-30882D01*
X15498Y-30864D01*
X15448Y-30915D01*
X15412Y-31003D01*
X15411Y-31056D01*
X15470Y-31115D01*
X15775Y-31115D01*
X15815Y-31115D01*
X15935Y-31115D01*
X15975Y-31115D01*
X16280Y-31115D01*
X16339Y-31056D01*
X16338Y-31003D01*
X16302Y-30915D01*
X16235Y-30848D01*
X16191Y-30830D01*
X16233Y-30789D01*
X16240Y-30772D01*
X16476Y-30772D01*
X16517Y-30813D01*
X16575Y-30837D01*
X16637Y-30837D01*
X17227Y-30837D01*
X17285Y-30813D01*
X17329Y-30769D01*
X17353Y-30711D01*
X17353Y-30649D01*
X17353Y-30255D01*
X17353Y-29727D01*
X17353Y-29665D01*
X17353Y-29271D01*
X17329Y-29213D01*
X17285Y-29169D01*
X17227Y-29145D01*
X17165Y-29145D01*
X16575Y-29145D01*
X16517Y-29169D01*
X16473Y-29213D01*
X16449Y-29271D01*
X16449Y-29333D01*
X16449Y-29727D01*
X16473Y-29785D01*
X16517Y-29829D01*
X16575Y-29853D01*
X16637Y-29853D01*
X17227Y-29853D01*
X17285Y-29829D01*
X17329Y-29785D01*
X17353Y-29727D01*
X17353Y-30255D01*
X17329Y-30197D01*
X17285Y-30153D01*
X17227Y-30129D01*
X17165Y-30129D01*
X16575Y-30129D01*
X16517Y-30153D01*
X16473Y-30197D01*
X16449Y-30255D01*
X16449Y-30317D01*
X16449Y-30378D01*
X16240Y-30378D01*
X16233Y-30361D01*
X16190Y-30318D01*
X16190Y-23230D01*
X16190Y-22810D01*
X16190Y-22690D01*
X16190Y-22270D01*
X16131Y-22211D01*
X15997Y-22212D01*
X15902Y-22212D01*
X15815Y-22248D01*
X15748Y-22315D01*
X15712Y-22403D01*
X15711Y-22631D01*
X15770Y-22690D01*
X16190Y-22690D01*
X16190Y-22810D01*
X15770Y-22810D01*
X15711Y-22869D01*
X15712Y-23097D01*
X15748Y-23185D01*
X15815Y-23252D01*
X15902Y-23288D01*
X15997Y-23288D01*
X16131Y-23289D01*
X16190Y-23230D01*
X16190Y-30318D01*
X16189Y-30317D01*
X16131Y-30293D01*
X16069Y-30293D01*
X15619Y-30293D01*
X15594Y-30303D01*
X15582Y-30303D01*
X15582Y-30244D01*
X15558Y-30186D01*
X15514Y-30142D01*
X15456Y-30118D01*
X15394Y-30118D01*
X15197Y-30118D01*
X15197Y-21250D01*
X15184Y-21186D01*
X15182Y-21175D01*
X15182Y-21174D01*
X15139Y-21111D01*
X14197Y-20169D01*
X14197Y-15906D01*
X14255Y-15883D01*
X14382Y-15756D01*
X14451Y-15590D01*
X14451Y-15411D01*
X14383Y-15245D01*
X14256Y-15118D01*
X14090Y-15049D01*
X13911Y-15049D01*
X13745Y-15117D01*
X13618Y-15244D01*
X13549Y-15410D01*
X13549Y-15589D01*
X13617Y-15755D01*
X13744Y-15882D01*
X13803Y-15906D01*
X13803Y-20250D01*
X13809Y-20281D01*
X13197Y-19669D01*
X13197Y-15906D01*
X13255Y-15883D01*
X13382Y-15756D01*
X13451Y-15590D01*
X13451Y-15411D01*
X13383Y-15245D01*
X13256Y-15118D01*
X13090Y-15049D01*
X12911Y-15049D01*
X12745Y-15117D01*
X12618Y-15244D01*
X12549Y-15410D01*
X12549Y-15589D01*
X12617Y-15755D01*
X12744Y-15882D01*
X12803Y-15906D01*
X12803Y-19750D01*
X12818Y-19826D01*
X12861Y-19889D01*
X14503Y-21531D01*
X14503Y-30134D01*
X14486Y-30142D01*
X14442Y-30186D01*
X14418Y-30244D01*
X14418Y-30306D01*
X14418Y-30756D01*
X14442Y-30814D01*
X14486Y-30858D01*
X14544Y-30882D01*
X14606Y-30882D01*
X14803Y-30882D01*
X14803Y-31275D01*
X12197Y-28669D01*
X12197Y-15906D01*
X12255Y-15883D01*
X12382Y-15756D01*
X12451Y-15590D01*
X12451Y-15411D01*
X12383Y-15245D01*
X12256Y-15118D01*
X12090Y-15049D01*
X11911Y-15049D01*
X11745Y-15117D01*
X11618Y-15244D01*
X11549Y-15410D01*
X11549Y-15589D01*
X11617Y-15755D01*
X11744Y-15882D01*
X11803Y-15906D01*
X11803Y-28750D01*
X11809Y-28781D01*
X11197Y-28169D01*
X11197Y-15906D01*
X11255Y-15883D01*
X11382Y-15756D01*
X11451Y-15590D01*
X11451Y-15411D01*
X11383Y-15245D01*
X11256Y-15118D01*
X11090Y-15049D01*
X10911Y-15049D01*
X10745Y-15117D01*
X10618Y-15244D01*
X10549Y-15410D01*
X10549Y-15589D01*
X10617Y-15755D01*
X10744Y-15882D01*
X10803Y-15906D01*
X10803Y-28250D01*
X10818Y-28326D01*
X10861Y-28389D01*
X14253Y-31781D01*
X14253Y-32884D01*
X14236Y-32892D01*
X14192Y-32936D01*
X14168Y-32994D01*
X14168Y-33056D01*
X14168Y-33506D01*
X14192Y-33564D01*
X14236Y-33608D01*
X14294Y-33632D01*
X14356Y-33632D01*
X14553Y-33632D01*
X14553Y-34000D01*
X14568Y-34076D01*
X14611Y-34139D01*
X15549Y-35078D01*
X15517Y-35111D01*
X15493Y-35169D01*
X15493Y-35231D01*
X15493Y-35481D01*
X15517Y-35539D01*
X15558Y-35580D01*
X15515Y-35598D01*
X15448Y-35665D01*
X15412Y-35753D01*
X15411Y-35806D01*
X15470Y-35865D01*
X15775Y-35865D01*
X15815Y-35865D01*
X15935Y-35865D01*
X15935Y-35985D01*
X15935Y-36025D01*
X15935Y-36230D01*
X15963Y-36258D01*
X15928Y-36293D01*
X15815Y-36293D01*
X15815Y-36230D01*
X15815Y-35985D01*
X15470Y-35985D01*
X15411Y-36044D01*
X15412Y-36097D01*
X15448Y-36185D01*
X15515Y-36252D01*
X15602Y-36288D01*
X15697Y-36288D01*
X15756Y-36289D01*
X15815Y-36230D01*
X15815Y-36293D01*
X15619Y-36293D01*
X15561Y-36317D01*
X15517Y-36361D01*
X15493Y-36419D01*
X15493Y-36428D01*
X15457Y-36428D01*
X15457Y-36369D01*
X15433Y-36311D01*
X15389Y-36267D01*
X15331Y-36243D01*
X15269Y-36243D01*
X15019Y-36243D01*
X14961Y-36267D01*
X14917Y-36311D01*
X14893Y-36369D01*
X14893Y-36431D01*
X14893Y-36881D01*
X14917Y-36939D01*
X14961Y-36983D01*
X15019Y-37007D01*
X15081Y-37007D01*
X15331Y-37007D01*
X15389Y-36983D01*
X15433Y-36939D01*
X15457Y-36881D01*
X15457Y-36822D01*
X15550Y-36822D01*
X15558Y-36830D01*
X15515Y-36848D01*
X15448Y-36915D01*
X15412Y-37003D01*
X15411Y-37056D01*
X15470Y-37115D01*
X15775Y-37115D01*
X15815Y-37115D01*
X15935Y-37115D01*
X15975Y-37115D01*
X16280Y-37115D01*
X16339Y-37056D01*
X16338Y-37003D01*
X16302Y-36915D01*
X16235Y-36848D01*
X16191Y-36830D01*
X16233Y-36789D01*
X16257Y-36731D01*
X16257Y-36669D01*
X16257Y-36521D01*
X16465Y-36312D01*
X16472Y-36329D01*
X16449Y-36387D01*
X16449Y-36449D01*
X16449Y-36725D01*
X16473Y-36783D01*
X16482Y-36792D01*
X16473Y-36802D01*
X16449Y-36860D01*
X16449Y-36922D01*
X16449Y-37198D01*
X16473Y-37256D01*
X16517Y-37300D01*
X16575Y-37324D01*
X16637Y-37324D01*
X16819Y-37324D01*
X16819Y-37461D01*
X16878Y-37520D01*
X17549Y-37520D01*
X17549Y-37105D01*
X17490Y-37046D01*
X17435Y-37046D01*
X17435Y-34539D01*
X17435Y-34301D01*
X17434Y-34176D01*
X17398Y-34088D01*
X17331Y-34021D01*
X17244Y-33985D01*
X17149Y-33985D01*
X17020Y-33984D01*
X16961Y-34043D01*
X16961Y-34360D01*
X17376Y-34360D01*
X17435Y-34301D01*
X17435Y-34539D01*
X17376Y-34480D01*
X16961Y-34480D01*
X16961Y-34797D01*
X17020Y-34856D01*
X17149Y-34855D01*
X17244Y-34855D01*
X17331Y-34819D01*
X17398Y-34752D01*
X17434Y-34664D01*
X17435Y-34539D01*
X17435Y-37046D01*
X17353Y-37046D01*
X17353Y-36860D01*
X17329Y-36802D01*
X17319Y-36792D01*
X17329Y-36783D01*
X17353Y-36725D01*
X17353Y-36663D01*
X17353Y-36387D01*
X17329Y-36330D01*
X17329Y-36329D01*
X17353Y-36272D01*
X17353Y-36210D01*
X17353Y-35816D01*
X17329Y-35758D01*
X17285Y-35714D01*
X17274Y-35709D01*
X17285Y-35705D01*
X17329Y-35661D01*
X17353Y-35603D01*
X17353Y-35541D01*
X17353Y-35147D01*
X17329Y-35089D01*
X17285Y-35045D01*
X17227Y-35021D01*
X17165Y-35021D01*
X16841Y-35021D01*
X16841Y-34797D01*
X16841Y-34480D01*
X16841Y-34360D01*
X16841Y-34043D01*
X16782Y-33984D01*
X16653Y-33985D01*
X16558Y-33985D01*
X16471Y-34021D01*
X16404Y-34088D01*
X16368Y-34176D01*
X16367Y-34301D01*
X16426Y-34360D01*
X16841Y-34360D01*
X16841Y-34480D01*
X16426Y-34480D01*
X16367Y-34539D01*
X16368Y-34664D01*
X16404Y-34752D01*
X16471Y-34819D01*
X16558Y-34855D01*
X16653Y-34855D01*
X16782Y-34856D01*
X16841Y-34797D01*
X16841Y-35021D01*
X16575Y-35021D01*
X16517Y-35045D01*
X16473Y-35089D01*
X16449Y-35147D01*
X16449Y-35178D01*
X16339Y-35178D01*
X16339Y-34044D01*
X16280Y-33985D01*
X15935Y-33985D01*
X15935Y-34230D01*
X15994Y-34289D01*
X16053Y-34288D01*
X16148Y-34288D01*
X16235Y-34252D01*
X16302Y-34185D01*
X16338Y-34097D01*
X16339Y-34044D01*
X16339Y-35178D01*
X16257Y-35178D01*
X16257Y-35169D01*
X16233Y-35111D01*
X16189Y-35067D01*
X16131Y-35043D01*
X16069Y-35043D01*
X16052Y-35043D01*
X16042Y-35028D01*
X16014Y-34986D01*
X16014Y-34985D01*
X15815Y-34786D01*
X15815Y-34230D01*
X15815Y-33985D01*
X15470Y-33985D01*
X15411Y-34044D01*
X15412Y-34097D01*
X15448Y-34185D01*
X15515Y-34252D01*
X15602Y-34288D01*
X15697Y-34288D01*
X15756Y-34289D01*
X15815Y-34230D01*
X15815Y-34786D01*
X14947Y-33918D01*
X14947Y-33632D01*
X14956Y-33632D01*
X15206Y-33632D01*
X15264Y-33608D01*
X15308Y-33564D01*
X15332Y-33506D01*
X15332Y-33447D01*
X15493Y-33447D01*
X15493Y-33481D01*
X15517Y-33539D01*
X15558Y-33580D01*
X15515Y-33598D01*
X15448Y-33665D01*
X15412Y-33753D01*
X15411Y-33806D01*
X15470Y-33865D01*
X15775Y-33865D01*
X15815Y-33865D01*
X15935Y-33865D01*
X15975Y-33865D01*
X16280Y-33865D01*
X16339Y-33806D01*
X16338Y-33753D01*
X16302Y-33665D01*
X16270Y-33633D01*
X16449Y-33633D01*
X16449Y-33664D01*
X16473Y-33722D01*
X16517Y-33766D01*
X16575Y-33790D01*
X16637Y-33790D01*
X17227Y-33790D01*
X17285Y-33766D01*
X17329Y-33722D01*
X17353Y-33664D01*
X17353Y-33602D01*
X17353Y-33208D01*
X17348Y-33197D01*
X17418Y-33197D01*
X18553Y-34331D01*
X18553Y-37919D01*
X18399Y-38073D01*
X18399Y-37699D01*
X18399Y-37461D01*
X18398Y-37238D01*
X18362Y-37150D01*
X18295Y-37083D01*
X18214Y-37049D01*
X18319Y-36944D01*
X18376Y-36807D01*
X18376Y-36659D01*
X18319Y-36522D01*
X18214Y-36417D01*
X18077Y-36360D01*
X17929Y-36360D01*
X17792Y-36417D01*
X17687Y-36522D01*
X17630Y-36659D01*
X17630Y-36807D01*
X17687Y-36944D01*
X17789Y-37046D01*
X17728Y-37046D01*
X17669Y-37105D01*
X17669Y-37520D01*
X18340Y-37520D01*
X18399Y-37461D01*
X18399Y-37699D01*
X18340Y-37640D01*
X17669Y-37640D01*
X17669Y-38055D01*
X17728Y-38114D01*
X18113Y-38113D01*
X18208Y-38113D01*
X18295Y-38077D01*
X18362Y-38010D01*
X18398Y-37922D01*
X18399Y-37699D01*
X18399Y-38073D01*
X18169Y-38303D01*
X17549Y-38303D01*
X17549Y-38055D01*
X17549Y-37640D01*
X16878Y-37640D01*
X16819Y-37699D01*
X16820Y-37922D01*
X16856Y-38010D01*
X16923Y-38077D01*
X17010Y-38113D01*
X17105Y-38113D01*
X17490Y-38114D01*
X17549Y-38055D01*
X17549Y-38303D01*
X16339Y-38303D01*
X16339Y-37294D01*
X16280Y-37235D01*
X15935Y-37235D01*
X15935Y-37480D01*
X15994Y-37539D01*
X16053Y-37538D01*
X16148Y-37538D01*
X16235Y-37502D01*
X16302Y-37435D01*
X16338Y-37347D01*
X16339Y-37294D01*
X16339Y-38303D01*
X16081Y-38303D01*
X15815Y-38037D01*
X15815Y-37480D01*
X15815Y-37235D01*
X15470Y-37235D01*
X15411Y-37294D01*
X15412Y-37347D01*
X15448Y-37435D01*
X15515Y-37502D01*
X15602Y-37538D01*
X15697Y-37538D01*
X15756Y-37539D01*
X15815Y-37480D01*
X15815Y-38037D01*
X14772Y-36994D01*
X14772Y-36990D01*
X14789Y-36983D01*
X14833Y-36939D01*
X14857Y-36881D01*
X14857Y-36819D01*
X14857Y-36369D01*
X14833Y-36311D01*
X14789Y-36267D01*
X14731Y-36243D01*
X14669Y-36243D01*
X14419Y-36243D01*
X14361Y-36267D01*
X14317Y-36311D01*
X14293Y-36369D01*
X14293Y-36431D01*
X14293Y-36881D01*
X14317Y-36939D01*
X14361Y-36983D01*
X14378Y-36990D01*
X14378Y-37075D01*
X14393Y-37151D01*
X14436Y-37214D01*
X15775Y-38553D01*
X13938Y-38553D01*
X13938Y-37958D01*
X13938Y-37720D01*
X13937Y-37591D01*
X13937Y-37496D01*
X13901Y-37409D01*
X13834Y-37342D01*
X13746Y-37306D01*
X13523Y-37305D01*
X13464Y-37364D01*
X13464Y-37779D01*
X13879Y-37779D01*
X13938Y-37720D01*
X13938Y-37958D01*
X13879Y-37899D01*
X13464Y-37899D01*
X13464Y-38314D01*
X13523Y-38373D01*
X13746Y-38372D01*
X13834Y-38336D01*
X13901Y-38269D01*
X13937Y-38182D01*
X13937Y-38087D01*
X13938Y-37958D01*
X13938Y-38553D01*
X13344Y-38553D01*
X13344Y-38314D01*
X13344Y-37899D01*
X13344Y-37779D01*
X13344Y-37364D01*
X13285Y-37305D01*
X13228Y-37305D01*
X13228Y-37280D01*
X13229Y-37249D01*
X13170Y-37190D01*
X12755Y-37190D01*
X12755Y-37507D01*
X12814Y-37566D01*
X12871Y-37565D01*
X12871Y-37591D01*
X12870Y-37720D01*
X12929Y-37779D01*
X13344Y-37779D01*
X13344Y-37899D01*
X12929Y-37899D01*
X12870Y-37958D01*
X12871Y-38087D01*
X12871Y-38182D01*
X12907Y-38269D01*
X12974Y-38336D01*
X13062Y-38372D01*
X13285Y-38373D01*
X13344Y-38314D01*
X13344Y-38553D01*
X12635Y-38553D01*
X12635Y-37507D01*
X12635Y-37190D01*
X12220Y-37190D01*
X12161Y-37249D01*
X12162Y-37280D01*
X12162Y-37375D01*
X12198Y-37462D01*
X12265Y-37529D01*
X12353Y-37565D01*
X12576Y-37566D01*
X12635Y-37507D01*
X12635Y-38553D01*
X11339Y-38553D01*
X11339Y-37249D01*
X11280Y-37190D01*
X10865Y-37190D01*
X10865Y-37507D01*
X10924Y-37566D01*
X11147Y-37565D01*
X11235Y-37529D01*
X11302Y-37462D01*
X11338Y-37375D01*
X11338Y-37280D01*
X11339Y-37249D01*
X11339Y-38553D01*
X10745Y-38553D01*
X10745Y-37507D01*
X10745Y-37190D01*
X10330Y-37190D01*
X10271Y-37249D01*
X10272Y-37280D01*
X10272Y-37305D01*
X10215Y-37305D01*
X10156Y-37364D01*
X10156Y-37779D01*
X10571Y-37779D01*
X10630Y-37720D01*
X10629Y-37591D01*
X10629Y-37565D01*
X10686Y-37566D01*
X10745Y-37507D01*
X10745Y-38553D01*
X10630Y-38553D01*
X10630Y-37958D01*
X10571Y-37899D01*
X10156Y-37899D01*
X10156Y-38314D01*
X10215Y-38373D01*
X10438Y-38372D01*
X10526Y-38336D01*
X10593Y-38269D01*
X10629Y-38182D01*
X10629Y-38087D01*
X10630Y-37958D01*
X10630Y-38553D01*
X10036Y-38553D01*
X10036Y-38314D01*
X10036Y-37899D01*
X10036Y-37779D01*
X10036Y-37364D01*
X09977Y-37305D01*
X09754Y-37306D01*
X09666Y-37342D01*
X09625Y-37383D01*
X09584Y-37342D01*
X09496Y-37306D01*
X09273Y-37305D01*
X09214Y-37364D01*
X09214Y-37779D01*
X09621Y-37779D01*
X09629Y-37779D01*
X10036Y-37779D01*
X10036Y-37899D01*
X09629Y-37899D01*
X09621Y-37899D01*
X09214Y-37899D01*
X09214Y-38314D01*
X09273Y-38373D01*
X09496Y-38372D01*
X09584Y-38336D01*
X09625Y-38295D01*
X09666Y-38336D01*
X09754Y-38372D01*
X09977Y-38373D01*
X10036Y-38314D01*
X10036Y-38553D01*
X09094Y-38553D01*
X09094Y-38314D01*
X09094Y-37899D01*
X09094Y-37779D01*
X09094Y-37364D01*
X09035Y-37305D01*
X08978Y-37305D01*
X08978Y-37280D01*
X08979Y-37249D01*
X08920Y-37190D01*
X08505Y-37190D01*
X08505Y-37507D01*
X08564Y-37566D01*
X08621Y-37565D01*
X08621Y-37591D01*
X08620Y-37720D01*
X08679Y-37779D01*
X09094Y-37779D01*
X09094Y-37899D01*
X08679Y-37899D01*
X08620Y-37958D01*
X08621Y-38087D01*
X08621Y-38182D01*
X08657Y-38269D01*
X08724Y-38336D01*
X08812Y-38372D01*
X09035Y-38373D01*
X09094Y-38314D01*
X09094Y-38553D01*
X08385Y-38553D01*
X08385Y-37507D01*
X08385Y-37190D01*
X07970Y-37190D01*
X07911Y-37249D01*
X07912Y-37280D01*
X07912Y-37375D01*
X07948Y-37462D01*
X08015Y-37529D01*
X08103Y-37565D01*
X08326Y-37566D01*
X08385Y-37507D01*
X08385Y-38553D01*
X07089Y-38553D01*
X07089Y-37249D01*
X07030Y-37190D01*
X06615Y-37190D01*
X06615Y-37507D01*
X06674Y-37566D01*
X06897Y-37565D01*
X06985Y-37529D01*
X07052Y-37462D01*
X07088Y-37375D01*
X07088Y-37280D01*
X07089Y-37249D01*
X07089Y-38553D01*
X06495Y-38553D01*
X06495Y-37507D01*
X06495Y-37190D01*
X06080Y-37190D01*
X06021Y-37249D01*
X06022Y-37280D01*
X06022Y-37305D01*
X05965Y-37305D01*
X05906Y-37364D01*
X05906Y-37779D01*
X06321Y-37779D01*
X06380Y-37720D01*
X06379Y-37591D01*
X06379Y-37565D01*
X06436Y-37566D01*
X06495Y-37507D01*
X06495Y-38553D01*
X06380Y-38553D01*
X06380Y-37958D01*
X06321Y-37899D01*
X05906Y-37899D01*
X05906Y-38314D01*
X05965Y-38373D01*
X06188Y-38372D01*
X06276Y-38336D01*
X06343Y-38269D01*
X06379Y-38182D01*
X06379Y-38087D01*
X06380Y-37958D01*
X06380Y-38553D01*
X05786Y-38553D01*
X05786Y-38314D01*
X05786Y-37899D01*
X05786Y-37779D01*
X05786Y-37364D01*
X05727Y-37305D01*
X05504Y-37306D01*
X05416Y-37342D01*
X05375Y-37383D01*
X05334Y-37342D01*
X05246Y-37306D01*
X05023Y-37305D01*
X04964Y-37364D01*
X04964Y-37779D01*
X05371Y-37779D01*
X05379Y-37779D01*
X05786Y-37779D01*
X05786Y-37899D01*
X05379Y-37899D01*
X05371Y-37899D01*
X04964Y-37899D01*
X04964Y-38314D01*
X05023Y-38373D01*
X05246Y-38372D01*
X05334Y-38336D01*
X05375Y-38295D01*
X05416Y-38336D01*
X05504Y-38372D01*
X05727Y-38373D01*
X05786Y-38314D01*
X05786Y-38553D01*
X04844Y-38553D01*
X04844Y-38314D01*
X04844Y-37899D01*
X04844Y-37779D01*
X04844Y-37364D01*
X04785Y-37305D01*
X04728Y-37305D01*
X04728Y-37280D01*
X04729Y-37249D01*
X04670Y-37190D01*
X04255Y-37190D01*
X04255Y-37507D01*
X04314Y-37566D01*
X04371Y-37565D01*
X04371Y-37591D01*
X04370Y-37720D01*
X04429Y-37779D01*
X04844Y-37779D01*
X04844Y-37899D01*
X04429Y-37899D01*
X04370Y-37958D01*
X04371Y-38087D01*
X04371Y-38182D01*
X04407Y-38269D01*
X04474Y-38336D01*
X04562Y-38372D01*
X04785Y-38373D01*
X04844Y-38314D01*
X04844Y-38553D01*
X04135Y-38553D01*
X04135Y-37507D01*
X04135Y-37190D01*
X03720Y-37190D01*
X03661Y-37249D01*
X03662Y-37280D01*
X03662Y-37375D01*
X03698Y-37462D01*
X03765Y-37529D01*
X03853Y-37565D01*
X04076Y-37566D01*
X04135Y-37507D01*
X04135Y-38553D01*
X02839Y-38553D01*
X02839Y-37249D01*
X02780Y-37190D01*
X02365Y-37190D01*
X02365Y-37507D01*
X02424Y-37566D01*
X02647Y-37565D01*
X02735Y-37529D01*
X02802Y-37462D01*
X02838Y-37375D01*
X02838Y-37280D01*
X02839Y-37249D01*
X02839Y-38553D01*
X02245Y-38553D01*
X02245Y-37507D01*
X02245Y-37190D01*
X01830Y-37190D01*
X01771Y-37249D01*
X01772Y-37280D01*
X01772Y-37305D01*
X01715Y-37305D01*
X01656Y-37364D01*
X01656Y-37779D01*
X02071Y-37779D01*
X02130Y-37720D01*
X02129Y-37591D01*
X02129Y-37565D01*
X02186Y-37566D01*
X02245Y-37507D01*
X02245Y-38553D01*
X02130Y-38553D01*
X02130Y-37958D01*
X02071Y-37899D01*
X01656Y-37899D01*
X01656Y-38314D01*
X01715Y-38373D01*
X01938Y-38372D01*
X02026Y-38336D01*
X02093Y-38269D01*
X02129Y-38182D01*
X02129Y-38087D01*
X02130Y-37958D01*
X02130Y-38553D01*
X01536Y-38553D01*
X01536Y-38314D01*
X01536Y-37899D01*
X01536Y-37779D01*
X01536Y-37364D01*
X01477Y-37305D01*
X01254Y-37306D01*
X01166Y-37342D01*
X01099Y-37409D01*
X01063Y-37496D01*
X01063Y-37591D01*
X01062Y-37720D01*
X01121Y-37779D01*
X01536Y-37779D01*
X01536Y-37899D01*
X01121Y-37899D01*
X01062Y-37958D01*
X01063Y-38087D01*
X01063Y-38182D01*
X01099Y-38269D01*
X01166Y-38336D01*
X01254Y-38372D01*
X01477Y-38373D01*
X01536Y-38314D01*
X01536Y-38553D01*
X01331Y-38553D01*
X00697Y-37918D01*
X00697Y-28331D01*
X01081Y-27947D01*
X01318Y-27947D01*
X01318Y-28056D01*
X01342Y-28114D01*
X01386Y-28158D01*
X01444Y-28182D01*
X01506Y-28182D01*
X02056Y-28182D01*
X02114Y-28158D01*
X02158Y-28114D01*
X02182Y-28056D01*
X02182Y-27994D01*
X02182Y-27444D01*
X02158Y-27386D01*
X02114Y-27342D01*
X02056Y-27318D01*
X02026Y-27318D01*
X02026Y-27111D01*
X01750Y-26835D01*
X01665Y-26920D01*
X01665Y-26750D01*
X01389Y-26474D01*
X01302Y-26499D01*
X01241Y-26689D01*
X01256Y-26889D01*
X01302Y-27001D01*
X01389Y-27026D01*
X01665Y-26750D01*
X01665Y-26920D01*
X01474Y-27111D01*
X01499Y-27198D01*
X01689Y-27259D01*
X01889Y-27244D01*
X02001Y-27198D01*
X02026Y-27111D01*
X02026Y-27318D01*
X01994Y-27318D01*
X01444Y-27318D01*
X01386Y-27342D01*
X01342Y-27386D01*
X01318Y-27444D01*
X01318Y-27506D01*
X01318Y-27553D01*
X01081Y-27553D01*
X00447Y-26918D01*
X00447Y-08352D01*
X00455Y-08356D01*
X00678Y-08357D01*
X00737Y-08298D01*
X00737Y-08021D01*
X00737Y-07981D01*
X00737Y-07861D01*
X00857Y-07861D01*
X00897Y-07861D01*
X01272Y-07861D01*
X01331Y-07802D01*
X01330Y-07771D01*
X01330Y-07676D01*
X01294Y-07589D01*
X01249Y-07544D01*
X01249Y-07497D01*
X01249Y-07103D01*
X01225Y-07045D01*
X01181Y-07001D01*
X01123Y-06977D01*
X01061Y-06977D01*
X00755Y-06977D01*
X00447Y-06668D01*
X00447Y-01770D01*
X00471Y-01780D01*
X00533Y-01780D01*
X01123Y-01780D01*
X01181Y-01756D01*
X01225Y-01712D01*
X01249Y-01654D01*
X01249Y-01623D01*
X01344Y-01623D01*
X02803Y-03081D01*
X02803Y-09093D01*
X02745Y-09117D01*
X02618Y-09244D01*
X02549Y-09410D01*
X02549Y-09589D01*
X02617Y-09755D01*
X02744Y-09882D01*
X02910Y-09951D01*
X03089Y-09951D01*
X03255Y-09883D01*
X03382Y-09756D01*
X03451Y-09590D01*
X03451Y-09411D01*
X03383Y-09245D01*
X03256Y-09118D01*
X03197Y-09093D01*
X03197Y-03000D01*
X03196Y-02999D01*
X03190Y-02969D01*
X03803Y-03581D01*
X03803Y-09093D01*
X03745Y-09117D01*
X03618Y-09244D01*
X03549Y-09410D01*
X03549Y-09589D01*
X03617Y-09755D01*
X03744Y-09882D01*
X03910Y-09951D01*
X04089Y-09951D01*
X04255Y-09883D01*
X04382Y-09756D01*
X04451Y-09590D01*
X04451Y-09411D01*
X04383Y-09245D01*
X04256Y-09118D01*
X04197Y-09093D01*
X04197Y-03500D01*
X04196Y-03499D01*
X04190Y-03469D01*
X04803Y-04081D01*
X04803Y-06750D01*
X04818Y-06826D01*
X04861Y-06889D01*
X05441Y-07470D01*
X05442Y-07470D01*
X05484Y-07498D01*
X05505Y-07512D01*
X05506Y-07513D01*
X05581Y-07528D01*
X08595Y-07528D01*
X08595Y-07544D01*
X08550Y-07589D01*
X08514Y-07676D01*
X08514Y-07771D01*
X08513Y-07802D01*
X08572Y-07861D01*
X08947Y-07861D01*
X08987Y-07861D01*
X09107Y-07861D01*
X09107Y-07981D01*
X09107Y-08021D01*
X09107Y-08298D01*
X09166Y-08357D01*
X09389Y-08356D01*
X09477Y-08320D01*
X09544Y-08253D01*
X09553Y-08231D01*
X09553Y-08418D01*
X08987Y-08984D01*
X08987Y-08298D01*
X08987Y-07981D01*
X08572Y-07981D01*
X08513Y-08040D01*
X08514Y-08071D01*
X08514Y-08166D01*
X08550Y-08253D01*
X08617Y-08320D01*
X08705Y-08356D01*
X08928Y-08357D01*
X08987Y-08298D01*
X08987Y-08984D01*
X08922Y-09049D01*
X08911Y-09049D01*
X08745Y-09117D01*
X08618Y-09244D01*
X08549Y-09410D01*
X08549Y-09589D01*
X08617Y-09755D01*
X08744Y-09882D01*
X08910Y-09951D01*
X09089Y-09951D01*
X09255Y-09883D01*
X09382Y-09756D01*
X09451Y-09590D01*
X09451Y-09411D01*
X09383Y-09245D01*
X09333Y-09195D01*
X09803Y-08725D01*
X09803Y-09000D01*
X09803Y-09093D01*
X09745Y-09117D01*
X09618Y-09244D01*
X09549Y-09410D01*
X09549Y-09589D01*
X09617Y-09755D01*
X09744Y-09882D01*
X09910Y-09951D01*
X10089Y-09951D01*
X10255Y-09883D01*
X10382Y-09756D01*
X10451Y-09590D01*
X10451Y-09411D01*
X10383Y-09245D01*
X10256Y-09118D01*
X10197Y-09093D01*
X10197Y-09000D01*
X10197Y-01250D01*
X10196Y-01249D01*
X10182Y-01175D01*
X10181Y-01174D01*
X10167Y-01153D01*
X10139Y-01111D01*
X10139Y-01110D01*
X09724Y-00696D01*
X09661Y-00653D01*
X09585Y-00638D01*
X09499Y-00638D01*
X09499Y-00607D01*
X09475Y-00549D01*
X09431Y-00505D01*
X09373Y-00481D01*
X09311Y-00481D01*
X08721Y-00481D01*
X08663Y-00505D01*
X08619Y-00549D01*
X08595Y-00607D01*
X08595Y-00669D01*
X08595Y-01063D01*
X08619Y-01121D01*
X08628Y-01130D01*
X08619Y-01140D01*
X08595Y-01198D01*
X08595Y-01260D01*
X08595Y-01654D01*
X08619Y-01712D01*
X08663Y-01756D01*
X08721Y-01780D01*
X08783Y-01780D01*
X09373Y-01780D01*
X09431Y-01756D01*
X09475Y-01712D01*
X09499Y-01654D01*
X09499Y-01623D01*
X09553Y-01623D01*
X09553Y-07610D01*
X09544Y-07589D01*
X09499Y-07544D01*
X09499Y-07497D01*
X09499Y-07103D01*
X09475Y-07045D01*
X09431Y-07001D01*
X09373Y-06977D01*
X09311Y-06977D01*
X08940Y-06977D01*
X08940Y-04705D01*
X08940Y-04618D01*
X08940Y-04382D01*
X08940Y-04295D01*
X08940Y-03205D01*
X08940Y-03118D01*
X08940Y-02882D01*
X08940Y-02795D01*
X08904Y-02708D01*
X08837Y-02641D01*
X08749Y-02605D01*
X08664Y-02604D01*
X08605Y-02663D01*
X08605Y-02940D01*
X08882Y-02940D01*
X08940Y-02882D01*
X08940Y-03118D01*
X08882Y-03060D01*
X08605Y-03060D01*
X08605Y-03337D01*
X08664Y-03396D01*
X08749Y-03395D01*
X08837Y-03359D01*
X08904Y-03292D01*
X08940Y-03205D01*
X08940Y-04295D01*
X08904Y-04208D01*
X08837Y-04141D01*
X08749Y-04105D01*
X08664Y-04104D01*
X08605Y-04163D01*
X08605Y-04440D01*
X08882Y-04440D01*
X08940Y-04382D01*
X08940Y-04618D01*
X08882Y-04560D01*
X08605Y-04560D01*
X08605Y-04837D01*
X08664Y-04896D01*
X08749Y-04895D01*
X08837Y-04859D01*
X08904Y-04792D01*
X08940Y-04705D01*
X08940Y-06977D01*
X08721Y-06977D01*
X08663Y-07001D01*
X08619Y-07045D01*
X08595Y-07103D01*
X08595Y-07134D01*
X08485Y-07134D01*
X08485Y-04837D01*
X08485Y-04600D01*
X08485Y-04560D01*
X08485Y-04440D01*
X08485Y-04400D01*
X08485Y-04163D01*
X08426Y-04104D01*
X08341Y-04105D01*
X08253Y-04141D01*
X08247Y-04147D01*
X08247Y-04115D01*
X08264Y-04108D01*
X08308Y-04064D01*
X08332Y-04006D01*
X08332Y-03944D01*
X08332Y-03494D01*
X08308Y-03436D01*
X08264Y-03392D01*
X08206Y-03368D01*
X08144Y-03368D01*
X07894Y-03368D01*
X07836Y-03392D01*
X07792Y-03436D01*
X07768Y-03494D01*
X07768Y-03556D01*
X07768Y-04006D01*
X07792Y-04064D01*
X07836Y-04108D01*
X07853Y-04115D01*
X07853Y-04186D01*
X07767Y-04186D01*
X07709Y-04210D01*
X07665Y-04254D01*
X07641Y-04312D01*
X07641Y-04374D01*
X07641Y-04688D01*
X07665Y-04746D01*
X07709Y-04790D01*
X07767Y-04814D01*
X07829Y-04814D01*
X08143Y-04814D01*
X08188Y-04794D01*
X08253Y-04859D01*
X08341Y-04895D01*
X08426Y-04896D01*
X08485Y-04837D01*
X08485Y-07134D01*
X05662Y-07134D01*
X05197Y-06668D01*
X05197Y-04000D01*
X05184Y-03936D01*
X05182Y-03925D01*
X05182Y-03924D01*
X05139Y-03861D01*
X05139Y-03860D01*
X01510Y-00232D01*
X07293Y-00232D01*
X07293Y-00638D01*
X07154Y-00638D01*
X07154Y-00607D01*
X07130Y-00549D01*
X07086Y-00505D01*
X07028Y-00481D01*
X06966Y-00481D01*
X06376Y-00481D01*
X06318Y-00505D01*
X06274Y-00549D01*
X06250Y-00607D01*
X06250Y-00669D01*
X06250Y-01063D01*
X06274Y-01121D01*
X06318Y-01165D01*
X06376Y-01189D01*
X06438Y-01189D01*
X07028Y-01189D01*
X07086Y-01165D01*
X07130Y-01121D01*
X07154Y-01063D01*
X07154Y-01032D01*
X07253Y-01032D01*
X07253Y-01134D01*
X07236Y-01142D01*
X07192Y-01186D01*
X07168Y-01244D01*
X07168Y-01306D01*
X07168Y-01756D01*
X07192Y-01814D01*
X07197Y-01819D01*
X07154Y-01819D01*
X07154Y-01788D01*
X07130Y-01730D01*
X07086Y-01686D01*
X07028Y-01662D01*
X06966Y-01662D01*
X06376Y-01662D01*
X06318Y-01686D01*
X06274Y-01730D01*
X06250Y-01788D01*
X06250Y-01850D01*
X06250Y-02244D01*
X06274Y-02302D01*
X06283Y-02311D01*
X06274Y-02321D01*
X06250Y-02379D01*
X06250Y-02441D01*
X06250Y-02835D01*
X06274Y-02893D01*
X06318Y-02937D01*
X06376Y-02961D01*
X06438Y-02961D01*
X06505Y-02961D01*
X06505Y-03452D01*
X06520Y-03528D01*
X06563Y-03591D01*
X06860Y-03889D01*
X06861Y-03889D01*
X06903Y-03917D01*
X06924Y-03931D01*
X06925Y-03932D01*
X07000Y-03947D01*
X07168Y-03947D01*
X07168Y-04006D01*
X07192Y-04064D01*
X07236Y-04108D01*
X07294Y-04132D01*
X07356Y-04132D01*
X07606Y-04132D01*
X07664Y-04108D01*
X07708Y-04064D01*
X07732Y-04006D01*
X07732Y-03944D01*
X07732Y-03494D01*
X07708Y-03436D01*
X07664Y-03392D01*
X07606Y-03368D01*
X07544Y-03368D01*
X07294Y-03368D01*
X07236Y-03392D01*
X07192Y-03436D01*
X07168Y-03494D01*
X07168Y-03553D01*
X07081Y-03553D01*
X06899Y-03370D01*
X06899Y-02961D01*
X07028Y-02961D01*
X07086Y-02937D01*
X07130Y-02893D01*
X07154Y-02835D01*
X07154Y-02773D01*
X07154Y-02379D01*
X07130Y-02321D01*
X07120Y-02311D01*
X07130Y-02302D01*
X07154Y-02244D01*
X07154Y-02232D01*
X07168Y-02246D01*
X07168Y-02506D01*
X07192Y-02564D01*
X07236Y-02608D01*
X07294Y-02632D01*
X07356Y-02632D01*
X07606Y-02632D01*
X07664Y-02608D01*
X07708Y-02564D01*
X07732Y-02506D01*
X07732Y-02444D01*
X07732Y-01994D01*
X07708Y-01936D01*
X07664Y-01892D01*
X07622Y-01875D01*
X07664Y-01858D01*
X07705Y-01816D01*
X07723Y-01860D01*
X07790Y-01927D01*
X07797Y-01930D01*
X07792Y-01936D01*
X07768Y-01994D01*
X07768Y-02056D01*
X07768Y-02506D01*
X07792Y-02564D01*
X07836Y-02608D01*
X07853Y-02615D01*
X07853Y-02686D01*
X07767Y-02686D01*
X07709Y-02710D01*
X07665Y-02754D01*
X07641Y-02812D01*
X07641Y-02874D01*
X07641Y-03188D01*
X07665Y-03246D01*
X07709Y-03290D01*
X07767Y-03314D01*
X07829Y-03314D01*
X08143Y-03314D01*
X08188Y-03294D01*
X08253Y-03359D01*
X08341Y-03395D01*
X08426Y-03396D01*
X08485Y-03337D01*
X08485Y-03100D01*
X08485Y-03060D01*
X08485Y-02940D01*
X08485Y-02900D01*
X08485Y-02663D01*
X08426Y-02604D01*
X08341Y-02605D01*
X08253Y-02641D01*
X08247Y-02647D01*
X08247Y-02615D01*
X08264Y-02608D01*
X08308Y-02564D01*
X08332Y-02506D01*
X08332Y-02444D01*
X08332Y-01994D01*
X08308Y-01936D01*
X08302Y-01930D01*
X08310Y-01927D01*
X08377Y-01860D01*
X08413Y-01773D01*
X08413Y-01678D01*
X08414Y-01619D01*
X08414Y-01381D01*
X08413Y-01322D01*
X08413Y-01227D01*
X08377Y-01140D01*
X08310Y-01073D01*
X08222Y-01037D01*
X08169Y-01036D01*
X08110Y-01095D01*
X08110Y-01440D01*
X08355Y-01440D01*
X08414Y-01381D01*
X08414Y-01619D01*
X08355Y-01560D01*
X08150Y-01560D01*
X08110Y-01560D01*
X07990Y-01560D01*
X07990Y-01440D01*
X07990Y-01400D01*
X07990Y-01095D01*
X07931Y-01036D01*
X07878Y-01037D01*
X07790Y-01073D01*
X07723Y-01140D01*
X07705Y-01183D01*
X07664Y-01142D01*
X07647Y-01134D01*
X07647Y-00957D01*
X08081Y-00957D01*
X08139Y-00933D01*
X08183Y-00889D01*
X08207Y-00831D01*
X08207Y-00769D01*
X08207Y-00232D01*
X15543Y-00232D01*
X15543Y-00638D01*
X15404Y-00638D01*
X15404Y-00607D01*
X15380Y-00549D01*
X15336Y-00505D01*
X15278Y-00481D01*
X15216Y-00481D01*
X14626Y-00481D01*
X14568Y-00505D01*
X14524Y-00549D01*
X14500Y-00607D01*
X14500Y-00669D01*
X14500Y-01063D01*
X14524Y-01121D01*
X14568Y-01165D01*
X14626Y-01189D01*
X14688Y-01189D01*
X15278Y-01189D01*
X15336Y-01165D01*
X15380Y-01121D01*
X15404Y-01063D01*
X15404Y-01032D01*
X15503Y-01032D01*
X15503Y-01134D01*
X15486Y-01142D01*
X15442Y-01186D01*
X15418Y-01244D01*
X15418Y-01306D01*
X15418Y-01756D01*
X15442Y-01814D01*
X15447Y-01819D01*
X15404Y-01819D01*
X15404Y-01788D01*
X15380Y-01730D01*
X15336Y-01686D01*
X15278Y-01662D01*
X15216Y-01662D01*
X14626Y-01662D01*
X14568Y-01686D01*
X14524Y-01730D01*
X14500Y-01788D01*
X14500Y-01850D01*
X14500Y-02244D01*
X14524Y-02302D01*
X14533Y-02311D01*
X14524Y-02321D01*
X14500Y-02379D01*
X14500Y-02441D01*
X14500Y-02835D01*
X14524Y-02893D01*
X14568Y-02937D01*
X14626Y-02961D01*
X14688Y-02961D01*
X14755Y-02961D01*
X14755Y-03202D01*
X14770Y-03278D01*
X14813Y-03341D01*
X15360Y-03889D01*
X15361Y-03889D01*
X15403Y-03917D01*
X15418Y-03927D01*
X15418Y-04006D01*
X15442Y-04064D01*
X15486Y-04108D01*
X15544Y-04132D01*
X15606Y-04132D01*
X15856Y-04132D01*
X15914Y-04108D01*
X15958Y-04064D01*
X15982Y-04006D01*
X15982Y-03944D01*
X15982Y-03494D01*
X15958Y-03436D01*
X15914Y-03392D01*
X15856Y-03368D01*
X15794Y-03368D01*
X15544Y-03368D01*
X15486Y-03392D01*
X15453Y-03424D01*
X15149Y-03120D01*
X15149Y-02961D01*
X15278Y-02961D01*
X15336Y-02937D01*
X15380Y-02893D01*
X15404Y-02835D01*
X15404Y-02773D01*
X15404Y-02379D01*
X15380Y-02321D01*
X15370Y-02311D01*
X15380Y-02302D01*
X15404Y-02244D01*
X15404Y-02232D01*
X15418Y-02246D01*
X15418Y-02506D01*
X15442Y-02564D01*
X15486Y-02608D01*
X15544Y-02632D01*
X15606Y-02632D01*
X15856Y-02632D01*
X15914Y-02608D01*
X15958Y-02564D01*
X15982Y-02506D01*
X15982Y-02444D01*
X15982Y-01994D01*
X15958Y-01936D01*
X15914Y-01892D01*
X15872Y-01875D01*
X15914Y-01858D01*
X15955Y-01816D01*
X15973Y-01860D01*
X16040Y-01927D01*
X16047Y-01930D01*
X16042Y-01936D01*
X16018Y-01994D01*
X16018Y-02056D01*
X16018Y-02506D01*
X16042Y-02564D01*
X16086Y-02608D01*
X16103Y-02615D01*
X16103Y-02686D01*
X16017Y-02686D01*
X15959Y-02710D01*
X15915Y-02754D01*
X15891Y-02812D01*
X15891Y-02874D01*
X15891Y-03188D01*
X15915Y-03246D01*
X15959Y-03290D01*
X16017Y-03314D01*
X16079Y-03314D01*
X16393Y-03314D01*
X16438Y-03294D01*
X16503Y-03359D01*
X16591Y-03395D01*
X16676Y-03396D01*
X16735Y-03337D01*
X16735Y-03100D01*
X16735Y-03060D01*
X16735Y-02940D01*
X16735Y-02900D01*
X16735Y-02663D01*
X16676Y-02604D01*
X16591Y-02605D01*
X16503Y-02641D01*
X16497Y-02647D01*
X16497Y-02615D01*
X16514Y-02608D01*
X16558Y-02564D01*
X16582Y-02506D01*
X16582Y-02444D01*
X16582Y-01994D01*
X16558Y-01936D01*
X16552Y-01930D01*
X16560Y-01927D01*
X16627Y-01860D01*
X16663Y-01773D01*
X16663Y-01678D01*
X16664Y-01619D01*
X16664Y-01381D01*
X16663Y-01322D01*
X16663Y-01227D01*
X16627Y-01140D01*
X16560Y-01073D01*
X16472Y-01037D01*
X16419Y-01036D01*
X16360Y-01095D01*
X16360Y-01440D01*
X16605Y-01440D01*
X16664Y-01381D01*
X16664Y-01619D01*
X16605Y-01560D01*
X16400Y-01560D01*
X16360Y-01560D01*
X16240Y-01560D01*
X16240Y-01440D01*
X16240Y-01400D01*
X16240Y-01095D01*
X16181Y-01036D01*
X16128Y-01037D01*
X16040Y-01073D01*
X15973Y-01140D01*
X15955Y-01183D01*
X15914Y-01142D01*
X15897Y-01134D01*
X15897Y-00957D01*
X16331Y-00957D01*
X16389Y-00933D01*
X16433Y-00889D01*
X16457Y-00831D01*
X16457Y-00769D01*
X16457Y-00232D01*
X19453Y-00232D01*
X19453Y-39138D01*
X19453Y-39138D01*
G37*
G54D28*
X19453Y-39138D02*
X00232Y-39138D01*
X00232Y-27260D01*
X00721Y-27750D01*
X00361Y-28111D01*
X00318Y-28174D01*
X00303Y-28250D01*
X00303Y-38000D01*
X00318Y-38076D01*
X00361Y-38139D01*
X01110Y-38889D01*
X01111Y-38889D01*
X01153Y-38917D01*
X01174Y-38931D01*
X01175Y-38932D01*
X01250Y-38947D01*
X18500Y-38947D01*
X18575Y-38932D01*
X18576Y-38932D01*
X18639Y-38889D01*
X19139Y-38389D01*
X19182Y-38326D01*
X19182Y-38325D01*
X19197Y-38250D01*
X19197Y-34000D01*
X19184Y-33936D01*
X19182Y-33925D01*
X19182Y-33924D01*
X19139Y-33861D01*
X17778Y-32500D01*
X19139Y-31140D01*
X19139Y-31139D01*
X19167Y-31097D01*
X19181Y-31076D01*
X19182Y-31075D01*
X19196Y-31000D01*
X19197Y-31000D01*
X19197Y-11500D01*
X19182Y-11425D01*
X19182Y-11424D01*
X19139Y-11361D01*
X18639Y-10861D01*
X18576Y-10818D01*
X18500Y-10803D01*
X18162Y-10803D01*
X18137Y-10742D01*
X18009Y-10614D01*
X17841Y-10544D01*
X17660Y-10544D01*
X17492Y-10613D01*
X17364Y-10741D01*
X17294Y-10909D01*
X17294Y-11090D01*
X17363Y-11258D01*
X17408Y-11303D01*
X17331Y-11303D01*
X17197Y-11168D01*
X17197Y-09331D01*
X17293Y-09235D01*
X17293Y-09331D01*
X17317Y-09389D01*
X17361Y-09433D01*
X17419Y-09457D01*
X17481Y-09457D01*
X18081Y-09457D01*
X18139Y-09433D01*
X18183Y-09389D01*
X18207Y-09331D01*
X18207Y-09269D01*
X18207Y-09197D01*
X18250Y-09197D01*
X18325Y-09182D01*
X18326Y-09182D01*
X18389Y-09139D01*
X18889Y-08639D01*
X18932Y-08576D01*
X18932Y-08575D01*
X18947Y-08500D01*
X18947Y-04412D01*
X19008Y-04387D01*
X19136Y-04259D01*
X19206Y-04091D01*
X19206Y-03910D01*
X19137Y-03742D01*
X19009Y-03614D01*
X18841Y-03544D01*
X18660Y-03544D01*
X18492Y-03613D01*
X18447Y-03658D01*
X18447Y-03342D01*
X18491Y-03386D01*
X18659Y-03456D01*
X18840Y-03456D01*
X19008Y-03387D01*
X19136Y-03259D01*
X19206Y-03091D01*
X19206Y-02910D01*
X19137Y-02742D01*
X19009Y-02614D01*
X18841Y-02544D01*
X18660Y-02544D01*
X18492Y-02613D01*
X18447Y-02658D01*
X18447Y-02342D01*
X18491Y-02386D01*
X18659Y-02456D01*
X18840Y-02456D01*
X19008Y-02387D01*
X19136Y-02259D01*
X19206Y-02091D01*
X19206Y-01910D01*
X19137Y-01742D01*
X19009Y-01614D01*
X18841Y-01544D01*
X18660Y-01544D01*
X18492Y-01613D01*
X18447Y-01658D01*
X18447Y-01581D01*
X18571Y-01457D01*
X19081Y-01457D01*
X19139Y-01433D01*
X19183Y-01389D01*
X19207Y-01331D01*
X19207Y-01269D01*
X19207Y-00669D01*
X19183Y-00611D01*
X19139Y-00567D01*
X19081Y-00543D01*
X19019Y-00543D01*
X18419Y-00543D01*
X18361Y-00567D01*
X18317Y-00611D01*
X18293Y-00669D01*
X18293Y-00731D01*
X18293Y-01179D01*
X18224Y-01247D01*
X18285Y-01066D01*
X18269Y-00857D01*
X18218Y-00734D01*
X18129Y-00706D01*
X18044Y-00791D01*
X18044Y-00621D01*
X18016Y-00532D01*
X17816Y-00465D01*
X17607Y-00481D01*
X17484Y-00532D01*
X17456Y-00621D01*
X17750Y-00915D01*
X18044Y-00621D01*
X18044Y-00791D01*
X17863Y-00972D01*
X17835Y-01000D01*
X17750Y-01085D01*
X17722Y-01113D01*
X17665Y-01170D01*
X17665Y-01000D01*
X17371Y-00706D01*
X17282Y-00734D01*
X17215Y-00934D01*
X17231Y-01143D01*
X17282Y-01266D01*
X17371Y-01294D01*
X17665Y-01000D01*
X17665Y-01170D01*
X17456Y-01379D01*
X17484Y-01468D01*
X17684Y-01535D01*
X17893Y-01519D01*
X18016Y-01468D01*
X18030Y-01421D01*
X18044Y-01435D01*
X18062Y-01453D01*
X18053Y-01500D01*
X18053Y-01658D01*
X18044Y-01649D01*
X18009Y-01614D01*
X17841Y-01544D01*
X17660Y-01544D01*
X17492Y-01613D01*
X17364Y-01741D01*
X17294Y-01909D01*
X17294Y-02090D01*
X17363Y-02258D01*
X17491Y-02386D01*
X17659Y-02456D01*
X17840Y-02456D01*
X18008Y-02387D01*
X18053Y-02342D01*
X18053Y-02658D01*
X18009Y-02614D01*
X17841Y-02544D01*
X17660Y-02544D01*
X17492Y-02613D01*
X17364Y-02741D01*
X17294Y-02909D01*
X17294Y-03090D01*
X17363Y-03258D01*
X17491Y-03386D01*
X17659Y-03456D01*
X17840Y-03456D01*
X18008Y-03387D01*
X18053Y-03342D01*
X18053Y-03658D01*
X18009Y-03614D01*
X17841Y-03544D01*
X17660Y-03544D01*
X17492Y-03613D01*
X17364Y-03741D01*
X17294Y-03909D01*
X17294Y-04090D01*
X17363Y-04258D01*
X17491Y-04386D01*
X17553Y-04411D01*
X17553Y-04418D01*
X17190Y-04781D01*
X17190Y-04705D01*
X17190Y-04618D01*
X17190Y-04382D01*
X17190Y-04295D01*
X17190Y-03205D01*
X17190Y-03118D01*
X17190Y-02882D01*
X17190Y-02795D01*
X17154Y-02708D01*
X17087Y-02641D01*
X16999Y-02605D01*
X16914Y-02604D01*
X16855Y-02663D01*
X16855Y-02940D01*
X17132Y-02940D01*
X17190Y-02882D01*
X17190Y-03118D01*
X17132Y-03060D01*
X16855Y-03060D01*
X16855Y-03337D01*
X16914Y-03396D01*
X16999Y-03395D01*
X17087Y-03359D01*
X17154Y-03292D01*
X17190Y-03205D01*
X17190Y-04295D01*
X17154Y-04208D01*
X17087Y-04141D01*
X16999Y-04105D01*
X16914Y-04104D01*
X16855Y-04163D01*
X16855Y-04440D01*
X17132Y-04440D01*
X17190Y-04382D01*
X17190Y-04618D01*
X17132Y-04560D01*
X16855Y-04560D01*
X16855Y-04837D01*
X16914Y-04896D01*
X16999Y-04895D01*
X17087Y-04859D01*
X17154Y-04792D01*
X17190Y-04705D01*
X17190Y-04781D01*
X16918Y-05053D01*
X16735Y-05053D01*
X16735Y-04837D01*
X16735Y-04600D01*
X16735Y-04560D01*
X16735Y-04440D01*
X16735Y-04400D01*
X16735Y-04163D01*
X16676Y-04104D01*
X16591Y-04105D01*
X16503Y-04141D01*
X16497Y-04147D01*
X16497Y-04115D01*
X16514Y-04108D01*
X16558Y-04064D01*
X16582Y-04006D01*
X16582Y-03944D01*
X16582Y-03494D01*
X16558Y-03436D01*
X16514Y-03392D01*
X16456Y-03368D01*
X16394Y-03368D01*
X16144Y-03368D01*
X16086Y-03392D01*
X16042Y-03436D01*
X16018Y-03494D01*
X16018Y-03556D01*
X16018Y-04006D01*
X16042Y-04064D01*
X16086Y-04108D01*
X16103Y-04115D01*
X16103Y-04186D01*
X16017Y-04186D01*
X15959Y-04210D01*
X15915Y-04254D01*
X15891Y-04312D01*
X15891Y-04374D01*
X15891Y-04688D01*
X15915Y-04746D01*
X15959Y-04790D01*
X16017Y-04814D01*
X16079Y-04814D01*
X16393Y-04814D01*
X16438Y-04794D01*
X16503Y-04859D01*
X16591Y-04895D01*
X16676Y-04896D01*
X16735Y-04837D01*
X16735Y-05053D01*
X13250Y-05053D01*
X13175Y-05068D01*
X13153Y-05082D01*
X13110Y-05111D01*
X10861Y-07361D01*
X10818Y-07424D01*
X10803Y-07500D01*
X10803Y-09093D01*
X10745Y-09117D01*
X10618Y-09244D01*
X10549Y-09410D01*
X10549Y-09589D01*
X10617Y-09755D01*
X10744Y-09882D01*
X10910Y-09951D01*
X11089Y-09951D01*
X11255Y-09883D01*
X11382Y-09756D01*
X11451Y-09590D01*
X11451Y-09411D01*
X11383Y-09245D01*
X11256Y-09118D01*
X11197Y-09093D01*
X11197Y-07581D01*
X11809Y-06969D01*
X11803Y-07000D01*
X11803Y-09093D01*
X11745Y-09117D01*
X11618Y-09244D01*
X11549Y-09410D01*
X11549Y-09589D01*
X11617Y-09755D01*
X11744Y-09882D01*
X11910Y-09951D01*
X12089Y-09951D01*
X12255Y-09883D01*
X12382Y-09756D01*
X12451Y-09590D01*
X12451Y-09411D01*
X12383Y-09245D01*
X12256Y-09118D01*
X12197Y-09093D01*
X12197Y-07081D01*
X13581Y-05697D01*
X17250Y-05697D01*
X17296Y-05687D01*
X17328Y-05719D01*
X17282Y-05734D01*
X17215Y-05934D01*
X17231Y-06143D01*
X17282Y-06266D01*
X17371Y-06294D01*
X17637Y-06028D01*
X17665Y-06000D01*
X17750Y-05915D01*
X17778Y-05887D01*
X18044Y-05621D01*
X18016Y-05532D01*
X17816Y-05465D01*
X17607Y-05481D01*
X17504Y-05523D01*
X18389Y-04639D01*
X18432Y-04576D01*
X18432Y-04575D01*
X18434Y-04563D01*
X18446Y-04500D01*
X18447Y-04500D01*
X18447Y-04342D01*
X18491Y-04386D01*
X18553Y-04411D01*
X18553Y-08419D01*
X18285Y-08687D01*
X18285Y-06066D01*
X18269Y-05857D01*
X18218Y-05734D01*
X18129Y-05706D01*
X17835Y-06000D01*
X18129Y-06294D01*
X18218Y-06266D01*
X18285Y-06066D01*
X18285Y-08687D01*
X18207Y-08765D01*
X18207Y-08669D01*
X18206Y-08666D01*
X18206Y-08091D01*
X18206Y-07910D01*
X18206Y-07091D01*
X18206Y-06910D01*
X18137Y-06742D01*
X18044Y-06649D01*
X18044Y-06379D01*
X17750Y-06085D01*
X17665Y-06170D01*
X17456Y-06379D01*
X17484Y-06468D01*
X17684Y-06535D01*
X17893Y-06519D01*
X18016Y-06468D01*
X18044Y-06379D01*
X18044Y-06649D01*
X18009Y-06614D01*
X17841Y-06544D01*
X17660Y-06544D01*
X17492Y-06613D01*
X17364Y-06741D01*
X17294Y-06909D01*
X17294Y-07090D01*
X17363Y-07258D01*
X17491Y-07386D01*
X17659Y-07456D01*
X17840Y-07456D01*
X18008Y-07387D01*
X18136Y-07259D01*
X18206Y-07091D01*
X18206Y-07910D01*
X18137Y-07742D01*
X18009Y-07614D01*
X17841Y-07544D01*
X17660Y-07544D01*
X17492Y-07613D01*
X17364Y-07741D01*
X17338Y-07803D01*
X13500Y-07803D01*
X13424Y-07818D01*
X13361Y-07861D01*
X12861Y-08361D01*
X12818Y-08424D01*
X12803Y-08500D01*
X12803Y-09093D01*
X12745Y-09117D01*
X12618Y-09244D01*
X12549Y-09410D01*
X12549Y-09589D01*
X12617Y-09755D01*
X12744Y-09882D01*
X12910Y-09951D01*
X13089Y-09951D01*
X13255Y-09883D01*
X13382Y-09756D01*
X13451Y-09590D01*
X13451Y-09411D01*
X13383Y-09245D01*
X13256Y-09118D01*
X13197Y-09093D01*
X13197Y-08581D01*
X13581Y-08197D01*
X17337Y-08197D01*
X17363Y-08258D01*
X17491Y-08386D01*
X17659Y-08456D01*
X17840Y-08456D01*
X18008Y-08387D01*
X18136Y-08259D01*
X18206Y-08091D01*
X18206Y-08666D01*
X18183Y-08611D01*
X18139Y-08567D01*
X18081Y-08543D01*
X18019Y-08543D01*
X17419Y-08543D01*
X17361Y-08567D01*
X17317Y-08611D01*
X17293Y-08669D01*
X17293Y-08731D01*
X17293Y-08803D01*
X17250Y-08803D01*
X17175Y-08818D01*
X17153Y-08832D01*
X17110Y-08861D01*
X16861Y-09111D01*
X16818Y-09174D01*
X16803Y-09250D01*
X16803Y-11250D01*
X16818Y-11326D01*
X16861Y-11389D01*
X17110Y-11639D01*
X17111Y-11639D01*
X17153Y-11667D01*
X17174Y-11681D01*
X17175Y-11682D01*
X17250Y-11697D01*
X17306Y-11697D01*
X17328Y-11719D01*
X17282Y-11734D01*
X17215Y-11934D01*
X17231Y-12143D01*
X17282Y-12266D01*
X17371Y-12294D01*
X17637Y-12028D01*
X17665Y-12000D01*
X17750Y-11915D01*
X17835Y-12000D01*
X17863Y-12028D01*
X18129Y-12294D01*
X18218Y-12266D01*
X18285Y-12066D01*
X18269Y-11857D01*
X18218Y-11734D01*
X18171Y-11719D01*
X18194Y-11697D01*
X18418Y-11697D01*
X18553Y-11831D01*
X18553Y-16418D01*
X18418Y-16553D01*
X18285Y-16553D01*
X18207Y-16553D01*
X18207Y-14331D01*
X18207Y-14269D01*
X18207Y-13669D01*
X18206Y-13666D01*
X18206Y-13091D01*
X18206Y-12910D01*
X18137Y-12742D01*
X18044Y-12649D01*
X18044Y-12379D01*
X17750Y-12085D01*
X17665Y-12170D01*
X17456Y-12379D01*
X17484Y-12468D01*
X17684Y-12535D01*
X17893Y-12519D01*
X18016Y-12468D01*
X18044Y-12379D01*
X18044Y-12649D01*
X18009Y-12614D01*
X17841Y-12544D01*
X17660Y-12544D01*
X17492Y-12613D01*
X17364Y-12741D01*
X17338Y-12803D01*
X15581Y-12803D01*
X14197Y-11418D01*
X14197Y-09906D01*
X14255Y-09883D01*
X14382Y-09756D01*
X14451Y-09590D01*
X14451Y-09411D01*
X14383Y-09245D01*
X14256Y-09118D01*
X14090Y-09049D01*
X13911Y-09049D01*
X13745Y-09117D01*
X13618Y-09244D01*
X13549Y-09410D01*
X13549Y-09589D01*
X13617Y-09755D01*
X13744Y-09882D01*
X13803Y-09906D01*
X13803Y-11500D01*
X13818Y-11576D01*
X13861Y-11639D01*
X15360Y-13139D01*
X15361Y-13139D01*
X15403Y-13167D01*
X15424Y-13181D01*
X15425Y-13182D01*
X15500Y-13197D01*
X17337Y-13197D01*
X17363Y-13258D01*
X17491Y-13386D01*
X17659Y-13456D01*
X17840Y-13456D01*
X18008Y-13387D01*
X18136Y-13259D01*
X18206Y-13091D01*
X18206Y-13666D01*
X18183Y-13611D01*
X18139Y-13567D01*
X18081Y-13543D01*
X18019Y-13543D01*
X17419Y-13543D01*
X17361Y-13567D01*
X17317Y-13611D01*
X17293Y-13669D01*
X17293Y-13731D01*
X17293Y-14331D01*
X17317Y-14389D01*
X17361Y-14433D01*
X17419Y-14457D01*
X17481Y-14457D01*
X18081Y-14457D01*
X18139Y-14433D01*
X18183Y-14389D01*
X18207Y-14331D01*
X18207Y-16553D01*
X18162Y-16553D01*
X18137Y-16492D01*
X18009Y-16364D01*
X17841Y-16294D01*
X17660Y-16294D01*
X17492Y-16363D01*
X17364Y-16491D01*
X17294Y-16659D01*
X17294Y-16840D01*
X17363Y-17008D01*
X17491Y-17136D01*
X17659Y-17206D01*
X17840Y-17206D01*
X18008Y-17137D01*
X18058Y-17086D01*
X18303Y-17331D01*
X18303Y-20669D01*
X18285Y-20687D01*
X18285Y-18816D01*
X18269Y-18607D01*
X18218Y-18484D01*
X18206Y-18480D01*
X18206Y-17841D01*
X18206Y-17660D01*
X18137Y-17492D01*
X18009Y-17364D01*
X17841Y-17294D01*
X17660Y-17294D01*
X17492Y-17363D01*
X17364Y-17491D01*
X17294Y-17659D01*
X17294Y-17840D01*
X17363Y-18008D01*
X17491Y-18136D01*
X17659Y-18206D01*
X17840Y-18206D01*
X18008Y-18137D01*
X18136Y-18009D01*
X18206Y-17841D01*
X18206Y-18480D01*
X18129Y-18456D01*
X18044Y-18541D01*
X18044Y-18371D01*
X18016Y-18282D01*
X17816Y-18215D01*
X17607Y-18231D01*
X17484Y-18282D01*
X17456Y-18371D01*
X17750Y-18665D01*
X18044Y-18371D01*
X18044Y-18541D01*
X17835Y-18750D01*
X18129Y-19044D01*
X18218Y-19016D01*
X18285Y-18816D01*
X18285Y-20687D01*
X18206Y-20766D01*
X18206Y-20660D01*
X18137Y-20492D01*
X18009Y-20364D01*
X17841Y-20294D01*
X17660Y-20294D01*
X17492Y-20363D01*
X17364Y-20491D01*
X17338Y-20553D01*
X16662Y-20553D01*
X16637Y-20492D01*
X16509Y-20364D01*
X16341Y-20294D01*
X16160Y-20294D01*
X15992Y-20363D01*
X15864Y-20491D01*
X15838Y-20553D01*
X15831Y-20553D01*
X15447Y-20169D01*
X15447Y-19725D01*
X15610Y-19889D01*
X15611Y-19889D01*
X15653Y-19917D01*
X15674Y-19931D01*
X15675Y-19932D01*
X15750Y-19947D01*
X15837Y-19947D01*
X15863Y-20008D01*
X15991Y-20136D01*
X16159Y-20206D01*
X16340Y-20206D01*
X16508Y-20137D01*
X16636Y-20009D01*
X16661Y-19947D01*
X17337Y-19947D01*
X17363Y-20008D01*
X17491Y-20136D01*
X17659Y-20206D01*
X17840Y-20206D01*
X18008Y-20137D01*
X18136Y-20009D01*
X18206Y-19841D01*
X18206Y-19660D01*
X18137Y-19492D01*
X18044Y-19399D01*
X18044Y-19129D01*
X17750Y-18835D01*
X17665Y-18920D01*
X17665Y-18750D01*
X17371Y-18456D01*
X17282Y-18484D01*
X17215Y-18684D01*
X17231Y-18893D01*
X17282Y-19016D01*
X17371Y-19044D01*
X17665Y-18750D01*
X17665Y-18920D01*
X17456Y-19129D01*
X17484Y-19218D01*
X17684Y-19285D01*
X17893Y-19269D01*
X18016Y-19218D01*
X18044Y-19129D01*
X18044Y-19399D01*
X18009Y-19364D01*
X17841Y-19294D01*
X17660Y-19294D01*
X17492Y-19363D01*
X17364Y-19491D01*
X17338Y-19553D01*
X16706Y-19553D01*
X16706Y-18841D01*
X16706Y-18660D01*
X16637Y-18492D01*
X16509Y-18364D01*
X16341Y-18294D01*
X16160Y-18294D01*
X15992Y-18363D01*
X15864Y-18491D01*
X15794Y-18659D01*
X15794Y-18840D01*
X15863Y-19008D01*
X15991Y-19136D01*
X16159Y-19206D01*
X16340Y-19206D01*
X16508Y-19137D01*
X16636Y-19009D01*
X16706Y-18841D01*
X16706Y-19553D01*
X16662Y-19553D01*
X16637Y-19492D01*
X16509Y-19364D01*
X16341Y-19294D01*
X16160Y-19294D01*
X15992Y-19363D01*
X15864Y-19491D01*
X15838Y-19553D01*
X15831Y-19553D01*
X15697Y-19418D01*
X15697Y-14750D01*
X15684Y-14686D01*
X15682Y-14675D01*
X15682Y-14674D01*
X15639Y-14611D01*
X12389Y-11361D01*
X12326Y-11318D01*
X12250Y-11303D01*
X08831Y-11303D01*
X08197Y-10668D01*
X08197Y-09906D01*
X08255Y-09883D01*
X08382Y-09756D01*
X08451Y-09590D01*
X08451Y-09411D01*
X08383Y-09245D01*
X08256Y-09118D01*
X08090Y-09049D01*
X07911Y-09049D01*
X07745Y-09117D01*
X07618Y-09244D01*
X07549Y-09410D01*
X07549Y-09589D01*
X07617Y-09755D01*
X07744Y-09882D01*
X07803Y-09906D01*
X07803Y-10750D01*
X07809Y-10780D01*
X07197Y-10168D01*
X07197Y-09906D01*
X07255Y-09883D01*
X07382Y-09756D01*
X07451Y-09590D01*
X07451Y-09411D01*
X07383Y-09245D01*
X07256Y-09118D01*
X07090Y-09049D01*
X06911Y-09049D01*
X06745Y-09117D01*
X06618Y-09244D01*
X06549Y-09410D01*
X06549Y-09589D01*
X06617Y-09755D01*
X06744Y-09882D01*
X06803Y-09906D01*
X06803Y-10250D01*
X06818Y-10326D01*
X06861Y-10389D01*
X08360Y-11889D01*
X08361Y-11889D01*
X08403Y-11917D01*
X08424Y-11931D01*
X08425Y-11932D01*
X08500Y-11947D01*
X11919Y-11947D01*
X14031Y-14059D01*
X14000Y-14053D01*
X08500Y-14053D01*
X07500Y-14053D01*
X06750Y-14053D01*
X06675Y-14068D01*
X06653Y-14082D01*
X06610Y-14111D01*
X06530Y-14191D01*
X06530Y-09566D01*
X06514Y-09358D01*
X06464Y-09237D01*
X06375Y-09209D01*
X06291Y-09293D01*
X06291Y-09125D01*
X06263Y-09036D01*
X06066Y-08970D01*
X05858Y-08986D01*
X05737Y-09036D01*
X05709Y-09125D01*
X06000Y-09415D01*
X06291Y-09125D01*
X06291Y-09293D01*
X06085Y-09500D01*
X06375Y-09791D01*
X06464Y-09763D01*
X06530Y-09566D01*
X06530Y-14191D01*
X06291Y-14430D01*
X06291Y-09875D01*
X06000Y-09585D01*
X05915Y-09669D01*
X05915Y-09500D01*
X05625Y-09209D01*
X05536Y-09237D01*
X05503Y-09333D01*
X05464Y-09237D01*
X05375Y-09209D01*
X05291Y-09293D01*
X05291Y-09125D01*
X05263Y-09036D01*
X05066Y-08970D01*
X04858Y-08986D01*
X04737Y-09036D01*
X04709Y-09125D01*
X05000Y-09415D01*
X05291Y-09125D01*
X05291Y-09293D01*
X05085Y-09500D01*
X05375Y-09791D01*
X05464Y-09763D01*
X05496Y-09666D01*
X05536Y-09763D01*
X05625Y-09791D01*
X05915Y-09500D01*
X05915Y-09669D01*
X05709Y-09875D01*
X05737Y-09964D01*
X05934Y-10030D01*
X06142Y-10014D01*
X06263Y-09964D01*
X06291Y-09875D01*
X06291Y-14430D01*
X05861Y-14861D01*
X05818Y-14924D01*
X05803Y-15000D01*
X05803Y-15093D01*
X05745Y-15117D01*
X05618Y-15244D01*
X05549Y-15410D01*
X05549Y-15589D01*
X05617Y-15755D01*
X05665Y-15803D01*
X05335Y-15803D01*
X05382Y-15756D01*
X05451Y-15590D01*
X05451Y-15411D01*
X05383Y-15245D01*
X05291Y-15153D01*
X05291Y-09875D01*
X05000Y-09585D01*
X04915Y-09669D01*
X04915Y-09500D01*
X04625Y-09209D01*
X04536Y-09237D01*
X04470Y-09434D01*
X04486Y-09642D01*
X04536Y-09763D01*
X04625Y-09791D01*
X04915Y-09500D01*
X04915Y-09669D01*
X04709Y-09875D01*
X04737Y-09964D01*
X04934Y-10030D01*
X05142Y-10014D01*
X05263Y-09964D01*
X05291Y-09875D01*
X05291Y-15153D01*
X05256Y-15118D01*
X05090Y-15049D01*
X04911Y-15049D01*
X04745Y-15117D01*
X04618Y-15244D01*
X04549Y-15410D01*
X04549Y-15589D01*
X04617Y-15755D01*
X04665Y-15803D01*
X04530Y-15803D01*
X04444Y-15803D01*
X04419Y-15777D01*
X04464Y-15763D01*
X04530Y-15566D01*
X04514Y-15358D01*
X04464Y-15237D01*
X04375Y-15209D01*
X04291Y-15293D01*
X04291Y-15125D01*
X04263Y-15036D01*
X04066Y-14970D01*
X03858Y-14986D01*
X03737Y-15036D01*
X03709Y-15125D01*
X04000Y-15415D01*
X04291Y-15125D01*
X04291Y-15293D01*
X04085Y-15500D01*
X04000Y-15585D01*
X03915Y-15500D01*
X03887Y-15472D01*
X03625Y-15209D01*
X03536Y-15237D01*
X03470Y-15434D01*
X03486Y-15642D01*
X03536Y-15763D01*
X03580Y-15777D01*
X03555Y-15803D01*
X03335Y-15803D01*
X03382Y-15756D01*
X03451Y-15590D01*
X03451Y-15411D01*
X03383Y-15245D01*
X03256Y-15118D01*
X03090Y-15049D01*
X02911Y-15049D01*
X02745Y-15117D01*
X02618Y-15244D01*
X02549Y-15410D01*
X02549Y-15589D01*
X02617Y-15755D01*
X02665Y-15803D01*
X01331Y-15803D01*
X01331Y-08040D01*
X01272Y-07981D01*
X00857Y-07981D01*
X00857Y-08298D01*
X00916Y-08357D01*
X01139Y-08356D01*
X01227Y-08320D01*
X01294Y-08253D01*
X01330Y-08166D01*
X01330Y-08071D01*
X01331Y-08040D01*
X01331Y-15803D01*
X01250Y-15803D01*
X01174Y-15818D01*
X01111Y-15861D01*
X00611Y-16361D01*
X00568Y-16424D01*
X00553Y-16500D01*
X00553Y-21750D01*
X00568Y-21826D01*
X00611Y-21889D01*
X01111Y-22389D01*
X01174Y-22432D01*
X01175Y-22432D01*
X01250Y-22447D01*
X01337Y-22447D01*
X01363Y-22508D01*
X01491Y-22636D01*
X01659Y-22706D01*
X01840Y-22706D01*
X02008Y-22637D01*
X02136Y-22509D01*
X02161Y-22447D01*
X02418Y-22447D01*
X02553Y-22581D01*
X02553Y-26363D01*
X02506Y-26383D01*
X02384Y-26505D01*
X02318Y-26663D01*
X02318Y-26835D01*
X02383Y-26994D01*
X02505Y-27116D01*
X02553Y-27136D01*
X02553Y-29272D01*
X02445Y-29317D01*
X02285Y-29476D01*
X02285Y-23316D01*
X02269Y-23107D01*
X02218Y-22984D01*
X02129Y-22956D01*
X02044Y-23041D01*
X02044Y-22871D01*
X02016Y-22782D01*
X01816Y-22715D01*
X01607Y-22731D01*
X01484Y-22782D01*
X01456Y-22871D01*
X01750Y-23165D01*
X02044Y-22871D01*
X02044Y-23041D01*
X01835Y-23250D01*
X02129Y-23544D01*
X02218Y-23516D01*
X02285Y-23316D01*
X02285Y-29476D01*
X02259Y-29502D01*
X02259Y-26811D01*
X02244Y-26611D01*
X02198Y-26499D01*
X02111Y-26474D01*
X02044Y-26541D01*
X02044Y-23629D01*
X01750Y-23335D01*
X01665Y-23420D01*
X01665Y-23250D01*
X01371Y-22956D01*
X01282Y-22984D01*
X01215Y-23184D01*
X01231Y-23393D01*
X01282Y-23516D01*
X01371Y-23544D01*
X01665Y-23250D01*
X01665Y-23420D01*
X01456Y-23629D01*
X01484Y-23718D01*
X01684Y-23785D01*
X01893Y-23769D01*
X02016Y-23718D01*
X02044Y-23629D01*
X02044Y-26541D01*
X02026Y-26559D01*
X02026Y-26389D01*
X02001Y-26302D01*
X01811Y-26241D01*
X01611Y-26256D01*
X01499Y-26302D01*
X01474Y-26389D01*
X01750Y-26665D01*
X02026Y-26389D01*
X02026Y-26559D01*
X01835Y-26750D01*
X02111Y-27026D01*
X02198Y-27001D01*
X02259Y-26811D01*
X02259Y-29502D01*
X02218Y-29543D01*
X02095Y-29839D01*
X02095Y-30159D01*
X02217Y-30455D01*
X02443Y-30682D01*
X02739Y-30805D01*
X03059Y-30805D01*
X03355Y-30683D01*
X03582Y-30457D01*
X03690Y-30197D01*
X04418Y-30197D01*
X05553Y-31331D01*
X05553Y-32918D01*
X05288Y-33183D01*
X05288Y-32119D01*
X05288Y-31881D01*
X05287Y-31398D01*
X05287Y-31303D01*
X05251Y-31216D01*
X05184Y-31149D01*
X05096Y-31113D01*
X04519Y-31112D01*
X04460Y-31171D01*
X04460Y-31940D01*
X05229Y-31940D01*
X05288Y-31881D01*
X05288Y-32119D01*
X05229Y-32060D01*
X04460Y-32060D01*
X04460Y-32829D01*
X04519Y-32888D01*
X05096Y-32887D01*
X05184Y-32851D01*
X05251Y-32784D01*
X05287Y-32697D01*
X05287Y-32602D01*
X05288Y-32119D01*
X05288Y-33183D01*
X04918Y-33553D01*
X04340Y-33553D01*
X04340Y-32829D01*
X04340Y-32060D01*
X04340Y-31940D01*
X04340Y-31171D01*
X04281Y-31112D01*
X03704Y-31113D01*
X03616Y-31149D01*
X03549Y-31216D01*
X03513Y-31303D01*
X03513Y-31398D01*
X03512Y-31881D01*
X03571Y-31940D01*
X04340Y-31940D01*
X04340Y-32060D01*
X03571Y-32060D01*
X03512Y-32119D01*
X03513Y-32602D01*
X03513Y-32697D01*
X03549Y-32784D01*
X03616Y-32851D01*
X03704Y-32887D01*
X04281Y-32888D01*
X04340Y-32829D01*
X04340Y-33553D01*
X02805Y-33553D01*
X02805Y-32161D01*
X02805Y-31841D01*
X02683Y-31545D01*
X02457Y-31318D01*
X02161Y-31195D01*
X01841Y-31195D01*
X01545Y-31317D01*
X01318Y-31543D01*
X01195Y-31839D01*
X01195Y-32159D01*
X01317Y-32455D01*
X01543Y-32682D01*
X01839Y-32805D01*
X02159Y-32805D01*
X02455Y-32683D01*
X02682Y-32457D01*
X02805Y-32161D01*
X02805Y-33553D01*
X01250Y-33553D01*
X01175Y-33568D01*
X01153Y-33582D01*
X01110Y-33611D01*
X00861Y-33861D01*
X00818Y-33924D01*
X00803Y-34000D01*
X00803Y-36250D01*
X00818Y-36326D01*
X00861Y-36389D01*
X01110Y-36639D01*
X01111Y-36639D01*
X01144Y-36661D01*
X01144Y-36826D01*
X01168Y-36884D01*
X01212Y-36928D01*
X01270Y-36952D01*
X01332Y-36952D01*
X01772Y-36952D01*
X01772Y-36980D01*
X01771Y-37011D01*
X01830Y-37070D01*
X02205Y-37070D01*
X02245Y-37070D01*
X02365Y-37070D01*
X02405Y-37070D01*
X02780Y-37070D01*
X02839Y-37011D01*
X02838Y-36980D01*
X02838Y-36885D01*
X02802Y-36798D01*
X02749Y-36745D01*
X02757Y-36728D01*
X02757Y-36697D01*
X03743Y-36697D01*
X03743Y-36728D01*
X03750Y-36745D01*
X03698Y-36798D01*
X03662Y-36885D01*
X03662Y-36980D01*
X03661Y-37011D01*
X03720Y-37070D01*
X04095Y-37070D01*
X04135Y-37070D01*
X04255Y-37070D01*
X04295Y-37070D01*
X04670Y-37070D01*
X04729Y-37011D01*
X04728Y-36980D01*
X04728Y-36952D01*
X05230Y-36952D01*
X05288Y-36928D01*
X05332Y-36884D01*
X05356Y-36826D01*
X05356Y-36764D01*
X05356Y-36697D01*
X05394Y-36697D01*
X05394Y-36826D01*
X05418Y-36884D01*
X05462Y-36928D01*
X05520Y-36952D01*
X05582Y-36952D01*
X06022Y-36952D01*
X06022Y-36980D01*
X06021Y-37011D01*
X06080Y-37070D01*
X06455Y-37070D01*
X06495Y-37070D01*
X06615Y-37070D01*
X06655Y-37070D01*
X07030Y-37070D01*
X07089Y-37011D01*
X07088Y-36980D01*
X07088Y-36885D01*
X07052Y-36798D01*
X06999Y-36745D01*
X07007Y-36728D01*
X07007Y-36697D01*
X07993Y-36697D01*
X07993Y-36728D01*
X08000Y-36745D01*
X07948Y-36798D01*
X07912Y-36885D01*
X07912Y-36980D01*
X07911Y-37011D01*
X07970Y-37070D01*
X08345Y-37070D01*
X08385Y-37070D01*
X08505Y-37070D01*
X08545Y-37070D01*
X08920Y-37070D01*
X08979Y-37011D01*
X08978Y-36980D01*
X08978Y-36952D01*
X09480Y-36952D01*
X09538Y-36928D01*
X09582Y-36884D01*
X09606Y-36826D01*
X09606Y-36764D01*
X09606Y-36697D01*
X09644Y-36697D01*
X09644Y-36826D01*
X09668Y-36884D01*
X09712Y-36928D01*
X09770Y-36952D01*
X09832Y-36952D01*
X10272Y-36952D01*
X10272Y-36980D01*
X10271Y-37011D01*
X10330Y-37070D01*
X10705Y-37070D01*
X10745Y-37070D01*
X10865Y-37070D01*
X10905Y-37070D01*
X11280Y-37070D01*
X11339Y-37011D01*
X11338Y-36980D01*
X11338Y-36885D01*
X11302Y-36798D01*
X11249Y-36745D01*
X11257Y-36728D01*
X11257Y-36697D01*
X12243Y-36697D01*
X12243Y-36728D01*
X12250Y-36745D01*
X12198Y-36798D01*
X12162Y-36885D01*
X12162Y-36980D01*
X12161Y-37011D01*
X12220Y-37070D01*
X12595Y-37070D01*
X12635Y-37070D01*
X12755Y-37070D01*
X12795Y-37070D01*
X13170Y-37070D01*
X13229Y-37011D01*
X13228Y-36980D01*
X13228Y-36952D01*
X13730Y-36952D01*
X13788Y-36928D01*
X13832Y-36884D01*
X13856Y-36826D01*
X13856Y-36764D01*
X13856Y-36174D01*
X13832Y-36116D01*
X13788Y-36072D01*
X13730Y-36048D01*
X13668Y-36048D01*
X13147Y-36048D01*
X13147Y-36036D01*
X13147Y-35642D01*
X13130Y-35602D01*
X13156Y-35613D01*
X13218Y-35613D01*
X13808Y-35613D01*
X13866Y-35589D01*
X13910Y-35545D01*
X13934Y-35487D01*
X13934Y-35425D01*
X13934Y-34835D01*
X13910Y-34777D01*
X13866Y-34733D01*
X13808Y-34709D01*
X13746Y-34709D01*
X13156Y-34709D01*
X13098Y-34733D01*
X13054Y-34777D01*
X13030Y-34835D01*
X13030Y-34897D01*
X13030Y-35487D01*
X13046Y-35526D01*
X13021Y-35516D01*
X12959Y-35516D01*
X12369Y-35516D01*
X12311Y-35540D01*
X12267Y-35584D01*
X12243Y-35642D01*
X12243Y-35704D01*
X12243Y-36098D01*
X12267Y-36156D01*
X12296Y-36185D01*
X12267Y-36214D01*
X12243Y-36272D01*
X12243Y-36303D01*
X11257Y-36303D01*
X11257Y-36272D01*
X11233Y-36214D01*
X11204Y-36185D01*
X11233Y-36156D01*
X11257Y-36098D01*
X11257Y-36036D01*
X11257Y-35642D01*
X11233Y-35584D01*
X11189Y-35540D01*
X11131Y-35516D01*
X11069Y-35516D01*
X10755Y-35516D01*
X10548Y-35281D01*
X10548Y-34835D01*
X10524Y-34777D01*
X10480Y-34733D01*
X10422Y-34709D01*
X10360Y-34709D01*
X09770Y-34709D01*
X09724Y-34728D01*
X09603Y-34728D01*
X09558Y-34709D01*
X09496Y-34709D01*
X09035Y-34709D01*
X09035Y-28566D01*
X09019Y-28357D01*
X08968Y-28234D01*
X08879Y-28206D01*
X08794Y-28291D01*
X08794Y-28121D01*
X08766Y-28032D01*
X08566Y-27965D01*
X08357Y-27981D01*
X08234Y-28032D01*
X08206Y-28121D01*
X08500Y-28415D01*
X08794Y-28121D01*
X08794Y-28291D01*
X08585Y-28500D01*
X08879Y-28794D01*
X08968Y-28766D01*
X09035Y-28566D01*
X09035Y-34709D01*
X08906Y-34709D01*
X08848Y-34733D01*
X08804Y-34777D01*
X08794Y-34801D01*
X08794Y-28879D01*
X08500Y-28585D01*
X08415Y-28670D01*
X08415Y-28500D01*
X08121Y-28206D01*
X08032Y-28234D01*
X07965Y-28434D01*
X07981Y-28643D01*
X08032Y-28766D01*
X08121Y-28794D01*
X08415Y-28500D01*
X08415Y-28670D01*
X08206Y-28879D01*
X08234Y-28968D01*
X08434Y-29035D01*
X08643Y-29019D01*
X08766Y-28968D01*
X08794Y-28879D01*
X08794Y-34801D01*
X08780Y-34835D01*
X08780Y-34897D01*
X08780Y-35256D01*
X08520Y-35516D01*
X08119Y-35516D01*
X08061Y-35540D01*
X08017Y-35584D01*
X07993Y-35642D01*
X07993Y-35704D01*
X07993Y-36098D01*
X08017Y-36156D01*
X08046Y-36185D01*
X08017Y-36214D01*
X07993Y-36272D01*
X07993Y-36303D01*
X07957Y-36303D01*
X07957Y-28831D01*
X07957Y-28769D01*
X07957Y-28169D01*
X07933Y-28111D01*
X07889Y-28067D01*
X07831Y-28043D01*
X07769Y-28043D01*
X07169Y-28043D01*
X07111Y-28067D01*
X07067Y-28111D01*
X07043Y-28169D01*
X07043Y-28178D01*
X06761Y-28178D01*
X06742Y-28131D01*
X06620Y-28009D01*
X06462Y-27943D01*
X06290Y-27943D01*
X06131Y-28008D01*
X06009Y-28130D01*
X05943Y-28288D01*
X05943Y-28460D01*
X06008Y-28619D01*
X06130Y-28741D01*
X06288Y-28807D01*
X06460Y-28807D01*
X06619Y-28742D01*
X06741Y-28620D01*
X06761Y-28572D01*
X07043Y-28572D01*
X07043Y-28831D01*
X07067Y-28889D01*
X07111Y-28933D01*
X07169Y-28957D01*
X07231Y-28957D01*
X07831Y-28957D01*
X07889Y-28933D01*
X07933Y-28889D01*
X07957Y-28831D01*
X07957Y-36303D01*
X07007Y-36303D01*
X07007Y-36272D01*
X06983Y-36214D01*
X06954Y-36185D01*
X06983Y-36156D01*
X07007Y-36098D01*
X07007Y-36036D01*
X07007Y-35642D01*
X06983Y-35584D01*
X06939Y-35540D01*
X06881Y-35516D01*
X06819Y-35516D01*
X06568Y-35516D01*
X06298Y-35074D01*
X06298Y-34835D01*
X06274Y-34777D01*
X06230Y-34733D01*
X06172Y-34709D01*
X06110Y-34709D01*
X05520Y-34709D01*
X05474Y-34728D01*
X05353Y-34728D01*
X05308Y-34709D01*
X05246Y-34709D01*
X04656Y-34709D01*
X04598Y-34733D01*
X04554Y-34777D01*
X04530Y-34835D01*
X04530Y-34897D01*
X04530Y-35256D01*
X04270Y-35516D01*
X03869Y-35516D01*
X03811Y-35540D01*
X03767Y-35584D01*
X03743Y-35642D01*
X03743Y-35704D01*
X03743Y-36098D01*
X03767Y-36156D01*
X03796Y-36185D01*
X03767Y-36214D01*
X03743Y-36272D01*
X03743Y-36303D01*
X02757Y-36303D01*
X02757Y-36272D01*
X02733Y-36214D01*
X02704Y-36185D01*
X02733Y-36156D01*
X02757Y-36098D01*
X02757Y-36036D01*
X02757Y-35642D01*
X02733Y-35584D01*
X02689Y-35540D01*
X02631Y-35516D01*
X02569Y-35516D01*
X02229Y-35516D01*
X02048Y-35334D01*
X02048Y-34835D01*
X02024Y-34777D01*
X01980Y-34733D01*
X01922Y-34709D01*
X01860Y-34709D01*
X01697Y-34709D01*
X01697Y-34331D01*
X01831Y-34197D01*
X05250Y-34197D01*
X05325Y-34182D01*
X05326Y-34182D01*
X05389Y-34139D01*
X06139Y-33390D01*
X06139Y-33389D01*
X06167Y-33347D01*
X06181Y-33326D01*
X06182Y-33325D01*
X06196Y-33250D01*
X06197Y-33250D01*
X06197Y-31000D01*
X06182Y-30925D01*
X06182Y-30924D01*
X06139Y-30861D01*
X03447Y-28169D01*
X03447Y-22500D01*
X03432Y-22425D01*
X03431Y-22424D01*
X03417Y-22403D01*
X03389Y-22361D01*
X03389Y-22360D01*
X02639Y-21611D01*
X02576Y-21568D01*
X02500Y-21553D01*
X02207Y-21553D01*
X02207Y-21519D01*
X02207Y-21447D01*
X02500Y-21447D01*
X02575Y-21432D01*
X02576Y-21432D01*
X02639Y-21389D01*
X04639Y-19390D01*
X04639Y-19389D01*
X04667Y-19347D01*
X04681Y-19326D01*
X04682Y-19325D01*
X04696Y-19250D01*
X04697Y-19250D01*
X04697Y-19132D01*
X04706Y-19132D01*
X04956Y-19132D01*
X05014Y-19108D01*
X05058Y-19064D01*
X05082Y-19006D01*
X05082Y-18944D01*
X05082Y-18822D01*
X05488Y-18822D01*
X05508Y-18869D01*
X05630Y-18991D01*
X05678Y-19011D01*
X05678Y-19043D01*
X05418Y-19303D01*
X05000Y-19303D01*
X04924Y-19318D01*
X04861Y-19361D01*
X04361Y-19861D01*
X04318Y-19924D01*
X04303Y-20000D01*
X04303Y-21000D01*
X04318Y-21076D01*
X04361Y-21139D01*
X04649Y-21428D01*
X04625Y-21428D01*
X04550Y-21443D01*
X04528Y-21457D01*
X04485Y-21486D01*
X04361Y-21611D01*
X04318Y-21674D01*
X04303Y-21750D01*
X04303Y-24000D01*
X04318Y-24076D01*
X04361Y-24139D01*
X04846Y-24625D01*
X04361Y-25111D01*
X04318Y-25174D01*
X04303Y-25250D01*
X04303Y-27500D01*
X04318Y-27576D01*
X04361Y-27639D01*
X04962Y-28241D01*
X04943Y-28288D01*
X04943Y-28460D01*
X05008Y-28619D01*
X05130Y-28741D01*
X05288Y-28807D01*
X05460Y-28807D01*
X05619Y-28742D01*
X05741Y-28620D01*
X05807Y-28462D01*
X05807Y-28290D01*
X05742Y-28131D01*
X05620Y-28009D01*
X05462Y-27943D01*
X05290Y-27943D01*
X05241Y-27962D01*
X04697Y-27418D01*
X04697Y-26332D01*
X04698Y-26335D01*
X04765Y-26402D01*
X04808Y-26419D01*
X04767Y-26461D01*
X04743Y-26519D01*
X04743Y-26581D01*
X04743Y-26831D01*
X04767Y-26889D01*
X04811Y-26933D01*
X04869Y-26957D01*
X04931Y-26957D01*
X05381Y-26957D01*
X05439Y-26933D01*
X05483Y-26889D01*
X05499Y-26848D01*
X05508Y-26869D01*
X05630Y-26991D01*
X05788Y-27057D01*
X05960Y-27057D01*
X06119Y-26992D01*
X06241Y-26870D01*
X06261Y-26822D01*
X08488Y-26822D01*
X08508Y-26869D01*
X08630Y-26991D01*
X08788Y-27057D01*
X08960Y-27057D01*
X09119Y-26992D01*
X09241Y-26870D01*
X09307Y-26712D01*
X09307Y-26540D01*
X09242Y-26381D01*
X09120Y-26259D01*
X08962Y-26193D01*
X08790Y-26193D01*
X08631Y-26258D01*
X08509Y-26380D01*
X08488Y-26428D01*
X06261Y-26428D01*
X06242Y-26381D01*
X06120Y-26259D01*
X05962Y-26193D01*
X05790Y-26193D01*
X05631Y-26258D01*
X05509Y-26380D01*
X05488Y-26428D01*
X05450Y-26428D01*
X05441Y-26419D01*
X05485Y-26402D01*
X05552Y-26335D01*
X05588Y-26247D01*
X05589Y-26194D01*
X05589Y-25956D01*
X05588Y-25903D01*
X05552Y-25815D01*
X05485Y-25748D01*
X05398Y-25712D01*
X05303Y-25712D01*
X05244Y-25711D01*
X05185Y-25770D01*
X05185Y-26015D01*
X05530Y-26015D01*
X05589Y-25956D01*
X05589Y-26194D01*
X05530Y-26135D01*
X05225Y-26135D01*
X05185Y-26135D01*
X05065Y-26135D01*
X05065Y-26015D01*
X05065Y-25975D01*
X05065Y-25770D01*
X05006Y-25711D01*
X04947Y-25712D01*
X04852Y-25712D01*
X04765Y-25748D01*
X04698Y-25815D01*
X04697Y-25817D01*
X04697Y-25331D01*
X05206Y-24822D01*
X05488Y-24822D01*
X05508Y-24869D01*
X05630Y-24991D01*
X05788Y-25057D01*
X05960Y-25057D01*
X06119Y-24992D01*
X06241Y-24870D01*
X06261Y-24822D01*
X08488Y-24822D01*
X08508Y-24869D01*
X08630Y-24991D01*
X08788Y-25057D01*
X08960Y-25057D01*
X09119Y-24992D01*
X09241Y-24870D01*
X09307Y-24712D01*
X09307Y-24540D01*
X09242Y-24381D01*
X09120Y-24259D01*
X08962Y-24193D01*
X08790Y-24193D01*
X08631Y-24258D01*
X08509Y-24380D01*
X08488Y-24428D01*
X06261Y-24428D01*
X06242Y-24381D01*
X06120Y-24259D01*
X05962Y-24193D01*
X05790Y-24193D01*
X05631Y-24258D01*
X05509Y-24380D01*
X05488Y-24428D01*
X05206Y-24428D01*
X04697Y-23918D01*
X04697Y-23332D01*
X04698Y-23335D01*
X04765Y-23402D01*
X04808Y-23419D01*
X04767Y-23461D01*
X04743Y-23519D01*
X04743Y-23581D01*
X04743Y-23831D01*
X04767Y-23889D01*
X04811Y-23933D01*
X04869Y-23957D01*
X04931Y-23957D01*
X05381Y-23957D01*
X05439Y-23933D01*
X05483Y-23889D01*
X05499Y-23848D01*
X05508Y-23869D01*
X05630Y-23991D01*
X05788Y-24057D01*
X05960Y-24057D01*
X06119Y-23992D01*
X06241Y-23870D01*
X06261Y-23822D01*
X08488Y-23822D01*
X08508Y-23869D01*
X08630Y-23991D01*
X08788Y-24057D01*
X08960Y-24057D01*
X09119Y-23992D01*
X09241Y-23870D01*
X09307Y-23712D01*
X09307Y-23540D01*
X09242Y-23381D01*
X09120Y-23259D01*
X08962Y-23193D01*
X08790Y-23193D01*
X08631Y-23258D01*
X08509Y-23380D01*
X08488Y-23428D01*
X06261Y-23428D01*
X06242Y-23381D01*
X06120Y-23259D01*
X05962Y-23193D01*
X05790Y-23193D01*
X05631Y-23258D01*
X05509Y-23380D01*
X05488Y-23428D01*
X05450Y-23428D01*
X05441Y-23419D01*
X05485Y-23402D01*
X05552Y-23335D01*
X05588Y-23247D01*
X05589Y-23194D01*
X05589Y-22956D01*
X05588Y-22903D01*
X05552Y-22815D01*
X05485Y-22748D01*
X05398Y-22712D01*
X05303Y-22712D01*
X05244Y-22711D01*
X05185Y-22770D01*
X05185Y-23015D01*
X05530Y-23015D01*
X05589Y-22956D01*
X05589Y-23194D01*
X05530Y-23135D01*
X05225Y-23135D01*
X05185Y-23135D01*
X05065Y-23135D01*
X05065Y-23015D01*
X05065Y-22975D01*
X05065Y-22770D01*
X05006Y-22711D01*
X04947Y-22712D01*
X04852Y-22712D01*
X04765Y-22748D01*
X04698Y-22815D01*
X04697Y-22817D01*
X04697Y-21831D01*
X04706Y-21822D01*
X05125Y-21822D01*
X05488Y-21822D01*
X05508Y-21869D01*
X05630Y-21991D01*
X05788Y-22057D01*
X05960Y-22057D01*
X06119Y-21992D01*
X06241Y-21870D01*
X06261Y-21822D01*
X08488Y-21822D01*
X08508Y-21869D01*
X08630Y-21991D01*
X08788Y-22057D01*
X08960Y-22057D01*
X09119Y-21992D01*
X09241Y-21870D01*
X09307Y-21712D01*
X09307Y-21540D01*
X09242Y-21381D01*
X09120Y-21259D01*
X08962Y-21193D01*
X08790Y-21193D01*
X08631Y-21258D01*
X08509Y-21380D01*
X08488Y-21428D01*
X06261Y-21428D01*
X06242Y-21381D01*
X06120Y-21259D01*
X05962Y-21193D01*
X05790Y-21193D01*
X05631Y-21258D01*
X05509Y-21380D01*
X05488Y-21428D01*
X05206Y-21428D01*
X04697Y-20918D01*
X04697Y-20332D01*
X04698Y-20335D01*
X04765Y-20402D01*
X04808Y-20419D01*
X04767Y-20461D01*
X04743Y-20519D01*
X04743Y-20581D01*
X04743Y-20831D01*
X04767Y-20889D01*
X04811Y-20933D01*
X04869Y-20957D01*
X04931Y-20957D01*
X05381Y-20957D01*
X05439Y-20933D01*
X05483Y-20889D01*
X05499Y-20848D01*
X05508Y-20869D01*
X05630Y-20991D01*
X05788Y-21057D01*
X05960Y-21057D01*
X06119Y-20992D01*
X06241Y-20870D01*
X06261Y-20822D01*
X08488Y-20822D01*
X08508Y-20869D01*
X08630Y-20991D01*
X08788Y-21057D01*
X08960Y-21057D01*
X09119Y-20992D01*
X09241Y-20870D01*
X09307Y-20712D01*
X09307Y-20540D01*
X09242Y-20381D01*
X09120Y-20259D01*
X08962Y-20193D01*
X08790Y-20193D01*
X08631Y-20258D01*
X08509Y-20380D01*
X08488Y-20428D01*
X06261Y-20428D01*
X06242Y-20381D01*
X06120Y-20259D01*
X05962Y-20193D01*
X05790Y-20193D01*
X05631Y-20258D01*
X05509Y-20380D01*
X05488Y-20428D01*
X05450Y-20428D01*
X05441Y-20419D01*
X05485Y-20402D01*
X05552Y-20335D01*
X05588Y-20247D01*
X05589Y-20194D01*
X05589Y-19956D01*
X05588Y-19903D01*
X05552Y-19815D01*
X05485Y-19748D01*
X05398Y-19712D01*
X05303Y-19712D01*
X05244Y-19711D01*
X05185Y-19770D01*
X05185Y-20015D01*
X05530Y-20015D01*
X05589Y-19956D01*
X05589Y-20194D01*
X05530Y-20135D01*
X05225Y-20135D01*
X05185Y-20135D01*
X05065Y-20135D01*
X05065Y-20015D01*
X05065Y-19975D01*
X05065Y-19770D01*
X05036Y-19741D01*
X05081Y-19697D01*
X05500Y-19697D01*
X05575Y-19682D01*
X05576Y-19682D01*
X05639Y-19639D01*
X06014Y-19265D01*
X06014Y-19264D01*
X06042Y-19222D01*
X06056Y-19201D01*
X06057Y-19200D01*
X06071Y-19125D01*
X06072Y-19125D01*
X06072Y-19011D01*
X06119Y-18992D01*
X06241Y-18870D01*
X06261Y-18822D01*
X08488Y-18822D01*
X08508Y-18869D01*
X08630Y-18991D01*
X08788Y-19057D01*
X08960Y-19057D01*
X09119Y-18992D01*
X09241Y-18870D01*
X09307Y-18712D01*
X09307Y-18540D01*
X09242Y-18381D01*
X09120Y-18259D01*
X08962Y-18193D01*
X08790Y-18193D01*
X08631Y-18258D01*
X08509Y-18380D01*
X08488Y-18428D01*
X06261Y-18428D01*
X06242Y-18381D01*
X06120Y-18259D01*
X06072Y-18238D01*
X06072Y-18206D01*
X06081Y-18197D01*
X08750Y-18197D01*
X08825Y-18182D01*
X08826Y-18182D01*
X08889Y-18139D01*
X10139Y-16890D01*
X10139Y-16889D01*
X10167Y-16847D01*
X10181Y-16826D01*
X10182Y-16825D01*
X10196Y-16751D01*
X10197Y-16750D01*
X10197Y-15906D01*
X10255Y-15883D01*
X10382Y-15756D01*
X10451Y-15590D01*
X10451Y-15411D01*
X10383Y-15245D01*
X10256Y-15118D01*
X10090Y-15049D01*
X09911Y-15049D01*
X09745Y-15117D01*
X09618Y-15244D01*
X09549Y-15410D01*
X09549Y-15589D01*
X09617Y-15755D01*
X09744Y-15882D01*
X09803Y-15906D01*
X09803Y-16668D01*
X09190Y-17280D01*
X09197Y-17250D01*
X09197Y-15906D01*
X09255Y-15883D01*
X09382Y-15756D01*
X09451Y-15590D01*
X09451Y-15411D01*
X09383Y-15245D01*
X09256Y-15118D01*
X09090Y-15049D01*
X08911Y-15049D01*
X08745Y-15117D01*
X08618Y-15244D01*
X08549Y-15410D01*
X08549Y-15589D01*
X08617Y-15755D01*
X08744Y-15882D01*
X08803Y-15906D01*
X08803Y-17169D01*
X08419Y-17553D01*
X05000Y-17553D01*
X04924Y-17568D01*
X04861Y-17611D01*
X04361Y-18111D01*
X04318Y-18174D01*
X04303Y-18250D01*
X04303Y-18368D01*
X04294Y-18368D01*
X04044Y-18368D01*
X03986Y-18392D01*
X03942Y-18436D01*
X03918Y-18494D01*
X03918Y-18556D01*
X03918Y-18754D01*
X03819Y-18853D01*
X03115Y-18853D01*
X03108Y-18836D01*
X03064Y-18792D01*
X03006Y-18768D01*
X02944Y-18768D01*
X02494Y-18768D01*
X02436Y-18792D01*
X02392Y-18836D01*
X02368Y-18894D01*
X02368Y-18956D01*
X02368Y-19206D01*
X02392Y-19264D01*
X02436Y-19308D01*
X02494Y-19332D01*
X02553Y-19332D01*
X02553Y-19668D01*
X02418Y-19803D01*
X02289Y-19803D01*
X02289Y-19369D01*
X02289Y-19131D01*
X02288Y-18903D01*
X02252Y-18815D01*
X02185Y-18748D01*
X02098Y-18712D01*
X02003Y-18712D01*
X01869Y-18711D01*
X01810Y-18770D01*
X01810Y-19190D01*
X02230Y-19190D01*
X02289Y-19131D01*
X02289Y-19369D01*
X02230Y-19310D01*
X01810Y-19310D01*
X01810Y-19730D01*
X01869Y-19789D01*
X02003Y-19788D01*
X02098Y-19788D01*
X02185Y-19752D01*
X02252Y-19685D01*
X02288Y-19597D01*
X02289Y-19369D01*
X02289Y-19803D01*
X01581Y-19803D01*
X01567Y-19788D01*
X01631Y-19789D01*
X01690Y-19730D01*
X01690Y-19350D01*
X01690Y-19310D01*
X01690Y-19190D01*
X01690Y-19150D01*
X01690Y-18770D01*
X01631Y-18711D01*
X01497Y-18712D01*
X01447Y-18712D01*
X01447Y-18592D01*
X01491Y-18636D01*
X01659Y-18706D01*
X01840Y-18706D01*
X02008Y-18637D01*
X02136Y-18509D01*
X02161Y-18447D01*
X02368Y-18447D01*
X02368Y-18606D01*
X02392Y-18664D01*
X02436Y-18708D01*
X02494Y-18732D01*
X02556Y-18732D01*
X03006Y-18732D01*
X03064Y-18708D01*
X03108Y-18664D01*
X03132Y-18606D01*
X03132Y-18544D01*
X03132Y-18294D01*
X03108Y-18236D01*
X03064Y-18192D01*
X03006Y-18168D01*
X02947Y-18168D01*
X02947Y-18082D01*
X03006Y-18082D01*
X03064Y-18058D01*
X03108Y-18014D01*
X03132Y-17956D01*
X03132Y-17894D01*
X03132Y-17644D01*
X03108Y-17586D01*
X03066Y-17544D01*
X03110Y-17527D01*
X03177Y-17460D01*
X03213Y-17372D01*
X03214Y-17319D01*
X03155Y-17260D01*
X02850Y-17260D01*
X02810Y-17260D01*
X02690Y-17260D01*
X02650Y-17260D01*
X02345Y-17260D01*
X02286Y-17319D01*
X02287Y-17372D01*
X02323Y-17460D01*
X02390Y-17527D01*
X02433Y-17544D01*
X02392Y-17586D01*
X02368Y-17644D01*
X02368Y-17706D01*
X02368Y-17956D01*
X02392Y-18014D01*
X02431Y-18053D01*
X02162Y-18053D01*
X02137Y-17992D01*
X02009Y-17864D01*
X01841Y-17794D01*
X01660Y-17794D01*
X01492Y-17863D01*
X01447Y-17908D01*
X01447Y-17592D01*
X01491Y-17636D01*
X01659Y-17706D01*
X01840Y-17706D01*
X02008Y-17637D01*
X02136Y-17509D01*
X02206Y-17341D01*
X02206Y-17160D01*
X02160Y-17049D01*
X02263Y-16947D01*
X02320Y-16947D01*
X02287Y-17028D01*
X02286Y-17081D01*
X02345Y-17140D01*
X02650Y-17140D01*
X02690Y-17140D01*
X02810Y-17140D01*
X02850Y-17140D01*
X03155Y-17140D01*
X03214Y-17081D01*
X03213Y-17028D01*
X03179Y-16947D01*
X07500Y-16947D01*
X07575Y-16932D01*
X07576Y-16932D01*
X07639Y-16889D01*
X08139Y-16389D01*
X08182Y-16326D01*
X08182Y-16325D01*
X08197Y-16250D01*
X08197Y-15906D01*
X08255Y-15883D01*
X08382Y-15756D01*
X08451Y-15590D01*
X08451Y-15411D01*
X08383Y-15245D01*
X08256Y-15118D01*
X08090Y-15049D01*
X07911Y-15049D01*
X07745Y-15117D01*
X07697Y-15165D01*
X07697Y-14447D01*
X08500Y-14447D01*
X13919Y-14447D01*
X14803Y-15331D01*
X14803Y-20500D01*
X14818Y-20576D01*
X14861Y-20639D01*
X15361Y-21139D01*
X15819Y-21598D01*
X15794Y-21659D01*
X15794Y-21840D01*
X15863Y-22008D01*
X15991Y-22136D01*
X16159Y-22206D01*
X16340Y-22206D01*
X16508Y-22137D01*
X16636Y-22009D01*
X16661Y-21947D01*
X17000Y-21947D01*
X17075Y-21932D01*
X17076Y-21932D01*
X17139Y-21889D01*
X17294Y-21734D01*
X17294Y-21840D01*
X17363Y-22008D01*
X17491Y-22136D01*
X17659Y-22206D01*
X17840Y-22206D01*
X18008Y-22137D01*
X18136Y-22009D01*
X18206Y-21841D01*
X18206Y-21660D01*
X18137Y-21492D01*
X18076Y-21431D01*
X18139Y-21389D01*
X18639Y-20889D01*
X18682Y-20826D01*
X18682Y-20825D01*
X18697Y-20750D01*
X18697Y-17250D01*
X18682Y-17175D01*
X18682Y-17174D01*
X18639Y-17111D01*
X18475Y-16947D01*
X18500Y-16947D01*
X18575Y-16932D01*
X18576Y-16932D01*
X18639Y-16889D01*
X18803Y-16725D01*
X18803Y-30918D01*
X18475Y-31246D01*
X18475Y-28561D01*
X18475Y-28373D01*
X18403Y-28199D01*
X18347Y-28142D01*
X18362Y-28128D01*
X18398Y-28040D01*
X18399Y-27817D01*
X18399Y-27579D01*
X18398Y-27356D01*
X18362Y-27268D01*
X18295Y-27201D01*
X18208Y-27165D01*
X18206Y-27165D01*
X18206Y-23841D01*
X18206Y-23660D01*
X18206Y-22841D01*
X18206Y-22660D01*
X18137Y-22492D01*
X18009Y-22364D01*
X17841Y-22294D01*
X17660Y-22294D01*
X17492Y-22363D01*
X17364Y-22491D01*
X17294Y-22659D01*
X17294Y-22840D01*
X17363Y-23008D01*
X17491Y-23136D01*
X17659Y-23206D01*
X17840Y-23206D01*
X18008Y-23137D01*
X18136Y-23009D01*
X18206Y-22841D01*
X18206Y-23660D01*
X18137Y-23492D01*
X18009Y-23364D01*
X17841Y-23294D01*
X17660Y-23294D01*
X17492Y-23363D01*
X17364Y-23491D01*
X17294Y-23659D01*
X17294Y-23840D01*
X17363Y-24008D01*
X17491Y-24136D01*
X17659Y-24206D01*
X17840Y-24206D01*
X18008Y-24137D01*
X18136Y-24009D01*
X18206Y-23841D01*
X18206Y-27165D01*
X18113Y-27165D01*
X17728Y-27164D01*
X17669Y-27223D01*
X17669Y-27638D01*
X18340Y-27638D01*
X18399Y-27579D01*
X18399Y-27817D01*
X18340Y-27758D01*
X17709Y-27758D01*
X17669Y-27758D01*
X17549Y-27758D01*
X17549Y-27638D01*
X17549Y-27223D01*
X17490Y-27164D01*
X17105Y-27165D01*
X17010Y-27165D01*
X16923Y-27201D01*
X16856Y-27268D01*
X16820Y-27356D01*
X16819Y-27579D01*
X16878Y-27638D01*
X17549Y-27638D01*
X17549Y-27758D01*
X17509Y-27758D01*
X16878Y-27758D01*
X16819Y-27817D01*
X16820Y-28040D01*
X16856Y-28128D01*
X16889Y-28161D01*
X16789Y-28161D01*
X16789Y-22869D01*
X16789Y-22631D01*
X16788Y-22403D01*
X16752Y-22315D01*
X16685Y-22248D01*
X16598Y-22212D01*
X16503Y-22212D01*
X16369Y-22211D01*
X16310Y-22270D01*
X16310Y-22690D01*
X16730Y-22690D01*
X16789Y-22631D01*
X16789Y-22869D01*
X16730Y-22810D01*
X16310Y-22810D01*
X16310Y-23230D01*
X16369Y-23289D01*
X16503Y-23288D01*
X16598Y-23288D01*
X16685Y-23252D01*
X16752Y-23185D01*
X16788Y-23097D01*
X16789Y-22869D01*
X16789Y-28161D01*
X16575Y-28161D01*
X16517Y-28185D01*
X16473Y-28229D01*
X16449Y-28287D01*
X16449Y-28349D01*
X16449Y-28743D01*
X16473Y-28801D01*
X16517Y-28845D01*
X16575Y-28869D01*
X16637Y-28869D01*
X17227Y-28869D01*
X17285Y-28845D01*
X17329Y-28801D01*
X17353Y-28743D01*
X17353Y-28681D01*
X17353Y-28287D01*
X17330Y-28231D01*
X17490Y-28232D01*
X17509Y-28213D01*
X17509Y-28232D01*
X17549Y-28232D01*
X17588Y-28232D01*
X17549Y-28327D01*
X17531Y-28371D01*
X17531Y-28559D01*
X17603Y-28733D01*
X17735Y-28866D01*
X17908Y-28938D01*
X18096Y-28938D01*
X18270Y-28866D01*
X18403Y-28734D01*
X18475Y-28561D01*
X18475Y-31246D01*
X17466Y-32255D01*
X17452Y-32255D01*
X17435Y-32255D01*
X17435Y-31587D01*
X17435Y-31349D01*
X17434Y-31224D01*
X17398Y-31136D01*
X17331Y-31069D01*
X17244Y-31033D01*
X17149Y-31033D01*
X17020Y-31032D01*
X16961Y-31091D01*
X16961Y-31408D01*
X17376Y-31408D01*
X17435Y-31349D01*
X17435Y-31587D01*
X17376Y-31528D01*
X16961Y-31528D01*
X16961Y-31845D01*
X17020Y-31904D01*
X17149Y-31903D01*
X17244Y-31903D01*
X17331Y-31867D01*
X17398Y-31800D01*
X17434Y-31712D01*
X17435Y-31587D01*
X17435Y-32255D01*
X17353Y-32255D01*
X17353Y-32224D01*
X17329Y-32166D01*
X17285Y-32122D01*
X17227Y-32098D01*
X17165Y-32098D01*
X16841Y-32098D01*
X16841Y-31845D01*
X16841Y-31528D01*
X16841Y-31408D01*
X16841Y-31091D01*
X16782Y-31032D01*
X16653Y-31033D01*
X16558Y-31033D01*
X16471Y-31069D01*
X16404Y-31136D01*
X16368Y-31224D01*
X16367Y-31349D01*
X16426Y-31408D01*
X16841Y-31408D01*
X16841Y-31528D01*
X16426Y-31528D01*
X16367Y-31587D01*
X16368Y-31712D01*
X16404Y-31800D01*
X16471Y-31867D01*
X16558Y-31903D01*
X16653Y-31903D01*
X16782Y-31904D01*
X16841Y-31845D01*
X16841Y-32098D01*
X16575Y-32098D01*
X16517Y-32122D01*
X16473Y-32166D01*
X16449Y-32224D01*
X16449Y-32286D01*
X16449Y-32680D01*
X16473Y-32738D01*
X16517Y-32782D01*
X16567Y-32803D01*
X16339Y-32803D01*
X16339Y-31294D01*
X16280Y-31235D01*
X15935Y-31235D01*
X15935Y-31480D01*
X15994Y-31539D01*
X16053Y-31538D01*
X16148Y-31538D01*
X16235Y-31502D01*
X16302Y-31435D01*
X16338Y-31347D01*
X16339Y-31294D01*
X16339Y-32803D01*
X15831Y-32803D01*
X15815Y-32786D01*
X15815Y-31480D01*
X15815Y-31235D01*
X15470Y-31235D01*
X15411Y-31294D01*
X15412Y-31347D01*
X15448Y-31435D01*
X15515Y-31502D01*
X15602Y-31538D01*
X15697Y-31538D01*
X15756Y-31539D01*
X15815Y-31480D01*
X15815Y-32786D01*
X15197Y-32168D01*
X15197Y-30882D01*
X15206Y-30882D01*
X15456Y-30882D01*
X15498Y-30864D01*
X15448Y-30915D01*
X15412Y-31003D01*
X15411Y-31056D01*
X15470Y-31115D01*
X15775Y-31115D01*
X15815Y-31115D01*
X15935Y-31115D01*
X15975Y-31115D01*
X16280Y-31115D01*
X16339Y-31056D01*
X16338Y-31003D01*
X16302Y-30915D01*
X16235Y-30848D01*
X16191Y-30830D01*
X16233Y-30789D01*
X16240Y-30772D01*
X16476Y-30772D01*
X16517Y-30813D01*
X16575Y-30837D01*
X16637Y-30837D01*
X17227Y-30837D01*
X17285Y-30813D01*
X17329Y-30769D01*
X17353Y-30711D01*
X17353Y-30649D01*
X17353Y-30255D01*
X17353Y-29727D01*
X17353Y-29665D01*
X17353Y-29271D01*
X17329Y-29213D01*
X17285Y-29169D01*
X17227Y-29145D01*
X17165Y-29145D01*
X16575Y-29145D01*
X16517Y-29169D01*
X16473Y-29213D01*
X16449Y-29271D01*
X16449Y-29333D01*
X16449Y-29727D01*
X16473Y-29785D01*
X16517Y-29829D01*
X16575Y-29853D01*
X16637Y-29853D01*
X17227Y-29853D01*
X17285Y-29829D01*
X17329Y-29785D01*
X17353Y-29727D01*
X17353Y-30255D01*
X17329Y-30197D01*
X17285Y-30153D01*
X17227Y-30129D01*
X17165Y-30129D01*
X16575Y-30129D01*
X16517Y-30153D01*
X16473Y-30197D01*
X16449Y-30255D01*
X16449Y-30317D01*
X16449Y-30378D01*
X16240Y-30378D01*
X16233Y-30361D01*
X16190Y-30318D01*
X16190Y-23230D01*
X16190Y-22810D01*
X16190Y-22690D01*
X16190Y-22270D01*
X16131Y-22211D01*
X15997Y-22212D01*
X15902Y-22212D01*
X15815Y-22248D01*
X15748Y-22315D01*
X15712Y-22403D01*
X15711Y-22631D01*
X15770Y-22690D01*
X16190Y-22690D01*
X16190Y-22810D01*
X15770Y-22810D01*
X15711Y-22869D01*
X15712Y-23097D01*
X15748Y-23185D01*
X15815Y-23252D01*
X15902Y-23288D01*
X15997Y-23288D01*
X16131Y-23289D01*
X16190Y-23230D01*
X16190Y-30318D01*
X16189Y-30317D01*
X16131Y-30293D01*
X16069Y-30293D01*
X15619Y-30293D01*
X15594Y-30303D01*
X15582Y-30303D01*
X15582Y-30244D01*
X15558Y-30186D01*
X15514Y-30142D01*
X15456Y-30118D01*
X15394Y-30118D01*
X15197Y-30118D01*
X15197Y-21250D01*
X15184Y-21186D01*
X15182Y-21175D01*
X15182Y-21174D01*
X15139Y-21111D01*
X14197Y-20169D01*
X14197Y-15906D01*
X14255Y-15883D01*
X14382Y-15756D01*
X14451Y-15590D01*
X14451Y-15411D01*
X14383Y-15245D01*
X14256Y-15118D01*
X14090Y-15049D01*
X13911Y-15049D01*
X13745Y-15117D01*
X13618Y-15244D01*
X13549Y-15410D01*
X13549Y-15589D01*
X13617Y-15755D01*
X13744Y-15882D01*
X13803Y-15906D01*
X13803Y-20250D01*
X13809Y-20281D01*
X13197Y-19669D01*
X13197Y-15906D01*
X13255Y-15883D01*
X13382Y-15756D01*
X13451Y-15590D01*
X13451Y-15411D01*
X13383Y-15245D01*
X13256Y-15118D01*
X13090Y-15049D01*
X12911Y-15049D01*
X12745Y-15117D01*
X12618Y-15244D01*
X12549Y-15410D01*
X12549Y-15589D01*
X12617Y-15755D01*
X12744Y-15882D01*
X12803Y-15906D01*
X12803Y-19750D01*
X12818Y-19826D01*
X12861Y-19889D01*
X14503Y-21531D01*
X14503Y-30134D01*
X14486Y-30142D01*
X14442Y-30186D01*
X14418Y-30244D01*
X14418Y-30306D01*
X14418Y-30756D01*
X14442Y-30814D01*
X14486Y-30858D01*
X14544Y-30882D01*
X14606Y-30882D01*
X14803Y-30882D01*
X14803Y-31275D01*
X12197Y-28669D01*
X12197Y-15906D01*
X12255Y-15883D01*
X12382Y-15756D01*
X12451Y-15590D01*
X12451Y-15411D01*
X12383Y-15245D01*
X12256Y-15118D01*
X12090Y-15049D01*
X11911Y-15049D01*
X11745Y-15117D01*
X11618Y-15244D01*
X11549Y-15410D01*
X11549Y-15589D01*
X11617Y-15755D01*
X11744Y-15882D01*
X11803Y-15906D01*
X11803Y-28750D01*
X11809Y-28781D01*
X11197Y-28169D01*
X11197Y-15906D01*
X11255Y-15883D01*
X11382Y-15756D01*
X11451Y-15590D01*
X11451Y-15411D01*
X11383Y-15245D01*
X11256Y-15118D01*
X11090Y-15049D01*
X10911Y-15049D01*
X10745Y-15117D01*
X10618Y-15244D01*
X10549Y-15410D01*
X10549Y-15589D01*
X10617Y-15755D01*
X10744Y-15882D01*
X10803Y-15906D01*
X10803Y-28250D01*
X10818Y-28326D01*
X10861Y-28389D01*
X14253Y-31781D01*
X14253Y-32884D01*
X14236Y-32892D01*
X14192Y-32936D01*
X14168Y-32994D01*
X14168Y-33056D01*
X14168Y-33506D01*
X14192Y-33564D01*
X14236Y-33608D01*
X14294Y-33632D01*
X14356Y-33632D01*
X14553Y-33632D01*
X14553Y-34000D01*
X14568Y-34076D01*
X14611Y-34139D01*
X15549Y-35078D01*
X15517Y-35111D01*
X15493Y-35169D01*
X15493Y-35231D01*
X15493Y-35481D01*
X15517Y-35539D01*
X15558Y-35580D01*
X15515Y-35598D01*
X15448Y-35665D01*
X15412Y-35753D01*
X15411Y-35806D01*
X15470Y-35865D01*
X15775Y-35865D01*
X15815Y-35865D01*
X15935Y-35865D01*
X15935Y-35985D01*
X15935Y-36025D01*
X15935Y-36230D01*
X15963Y-36258D01*
X15928Y-36293D01*
X15815Y-36293D01*
X15815Y-36230D01*
X15815Y-35985D01*
X15470Y-35985D01*
X15411Y-36044D01*
X15412Y-36097D01*
X15448Y-36185D01*
X15515Y-36252D01*
X15602Y-36288D01*
X15697Y-36288D01*
X15756Y-36289D01*
X15815Y-36230D01*
X15815Y-36293D01*
X15619Y-36293D01*
X15561Y-36317D01*
X15517Y-36361D01*
X15493Y-36419D01*
X15493Y-36428D01*
X15457Y-36428D01*
X15457Y-36369D01*
X15433Y-36311D01*
X15389Y-36267D01*
X15331Y-36243D01*
X15269Y-36243D01*
X15019Y-36243D01*
X14961Y-36267D01*
X14917Y-36311D01*
X14893Y-36369D01*
X14893Y-36431D01*
X14893Y-36881D01*
X14917Y-36939D01*
X14961Y-36983D01*
X15019Y-37007D01*
X15081Y-37007D01*
X15331Y-37007D01*
X15389Y-36983D01*
X15433Y-36939D01*
X15457Y-36881D01*
X15457Y-36822D01*
X15550Y-36822D01*
X15558Y-36830D01*
X15515Y-36848D01*
X15448Y-36915D01*
X15412Y-37003D01*
X15411Y-37056D01*
X15470Y-37115D01*
X15775Y-37115D01*
X15815Y-37115D01*
X15935Y-37115D01*
X15975Y-37115D01*
X16280Y-37115D01*
X16339Y-37056D01*
X16338Y-37003D01*
X16302Y-36915D01*
X16235Y-36848D01*
X16191Y-36830D01*
X16233Y-36789D01*
X16257Y-36731D01*
X16257Y-36669D01*
X16257Y-36521D01*
X16465Y-36312D01*
X16472Y-36329D01*
X16449Y-36387D01*
X16449Y-36449D01*
X16449Y-36725D01*
X16473Y-36783D01*
X16482Y-36792D01*
X16473Y-36802D01*
X16449Y-36860D01*
X16449Y-36922D01*
X16449Y-37198D01*
X16473Y-37256D01*
X16517Y-37300D01*
X16575Y-37324D01*
X16637Y-37324D01*
X16819Y-37324D01*
X16819Y-37461D01*
X16878Y-37520D01*
X17549Y-37520D01*
X17549Y-37105D01*
X17490Y-37046D01*
X17435Y-37046D01*
X17435Y-34539D01*
X17435Y-34301D01*
X17434Y-34176D01*
X17398Y-34088D01*
X17331Y-34021D01*
X17244Y-33985D01*
X17149Y-33985D01*
X17020Y-33984D01*
X16961Y-34043D01*
X16961Y-34360D01*
X17376Y-34360D01*
X17435Y-34301D01*
X17435Y-34539D01*
X17376Y-34480D01*
X16961Y-34480D01*
X16961Y-34797D01*
X17020Y-34856D01*
X17149Y-34855D01*
X17244Y-34855D01*
X17331Y-34819D01*
X17398Y-34752D01*
X17434Y-34664D01*
X17435Y-34539D01*
X17435Y-37046D01*
X17353Y-37046D01*
X17353Y-36860D01*
X17329Y-36802D01*
X17319Y-36792D01*
X17329Y-36783D01*
X17353Y-36725D01*
X17353Y-36663D01*
X17353Y-36387D01*
X17329Y-36330D01*
X17329Y-36329D01*
X17353Y-36272D01*
X17353Y-36210D01*
X17353Y-35816D01*
X17329Y-35758D01*
X17285Y-35714D01*
X17274Y-35709D01*
X17285Y-35705D01*
X17329Y-35661D01*
X17353Y-35603D01*
X17353Y-35541D01*
X17353Y-35147D01*
X17329Y-35089D01*
X17285Y-35045D01*
X17227Y-35021D01*
X17165Y-35021D01*
X16841Y-35021D01*
X16841Y-34797D01*
X16841Y-34480D01*
X16841Y-34360D01*
X16841Y-34043D01*
X16782Y-33984D01*
X16653Y-33985D01*
X16558Y-33985D01*
X16471Y-34021D01*
X16404Y-34088D01*
X16368Y-34176D01*
X16367Y-34301D01*
X16426Y-34360D01*
X16841Y-34360D01*
X16841Y-34480D01*
X16426Y-34480D01*
X16367Y-34539D01*
X16368Y-34664D01*
X16404Y-34752D01*
X16471Y-34819D01*
X16558Y-34855D01*
X16653Y-34855D01*
X16782Y-34856D01*
X16841Y-34797D01*
X16841Y-35021D01*
X16575Y-35021D01*
X16517Y-35045D01*
X16473Y-35089D01*
X16449Y-35147D01*
X16449Y-35178D01*
X16339Y-35178D01*
X16339Y-34044D01*
X16280Y-33985D01*
X15935Y-33985D01*
X15935Y-34230D01*
X15994Y-34289D01*
X16053Y-34288D01*
X16148Y-34288D01*
X16235Y-34252D01*
X16302Y-34185D01*
X16338Y-34097D01*
X16339Y-34044D01*
X16339Y-35178D01*
X16257Y-35178D01*
X16257Y-35169D01*
X16233Y-35111D01*
X16189Y-35067D01*
X16131Y-35043D01*
X16069Y-35043D01*
X16052Y-35043D01*
X16042Y-35028D01*
X16014Y-34986D01*
X16014Y-34985D01*
X15815Y-34786D01*
X15815Y-34230D01*
X15815Y-33985D01*
X15470Y-33985D01*
X15411Y-34044D01*
X15412Y-34097D01*
X15448Y-34185D01*
X15515Y-34252D01*
X15602Y-34288D01*
X15697Y-34288D01*
X15756Y-34289D01*
X15815Y-34230D01*
X15815Y-34786D01*
X14947Y-33918D01*
X14947Y-33632D01*
X14956Y-33632D01*
X15206Y-33632D01*
X15264Y-33608D01*
X15308Y-33564D01*
X15332Y-33506D01*
X15332Y-33447D01*
X15493Y-33447D01*
X15493Y-33481D01*
X15517Y-33539D01*
X15558Y-33580D01*
X15515Y-33598D01*
X15448Y-33665D01*
X15412Y-33753D01*
X15411Y-33806D01*
X15470Y-33865D01*
X15775Y-33865D01*
X15815Y-33865D01*
X15935Y-33865D01*
X15975Y-33865D01*
X16280Y-33865D01*
X16339Y-33806D01*
X16338Y-33753D01*
X16302Y-33665D01*
X16270Y-33633D01*
X16449Y-33633D01*
X16449Y-33664D01*
X16473Y-33722D01*
X16517Y-33766D01*
X16575Y-33790D01*
X16637Y-33790D01*
X17227Y-33790D01*
X17285Y-33766D01*
X17329Y-33722D01*
X17353Y-33664D01*
X17353Y-33602D01*
X17353Y-33208D01*
X17348Y-33197D01*
X17418Y-33197D01*
X18553Y-34331D01*
X18553Y-37919D01*
X18399Y-38073D01*
X18399Y-37699D01*
X18399Y-37461D01*
X18398Y-37238D01*
X18362Y-37150D01*
X18295Y-37083D01*
X18214Y-37049D01*
X18319Y-36944D01*
X18376Y-36807D01*
X18376Y-36659D01*
X18319Y-36522D01*
X18214Y-36417D01*
X18077Y-36360D01*
X17929Y-36360D01*
X17792Y-36417D01*
X17687Y-36522D01*
X17630Y-36659D01*
X17630Y-36807D01*
X17687Y-36944D01*
X17789Y-37046D01*
X17728Y-37046D01*
X17669Y-37105D01*
X17669Y-37520D01*
X18340Y-37520D01*
X18399Y-37461D01*
X18399Y-37699D01*
X18340Y-37640D01*
X17669Y-37640D01*
X17669Y-38055D01*
X17728Y-38114D01*
X18113Y-38113D01*
X18208Y-38113D01*
X18295Y-38077D01*
X18362Y-38010D01*
X18398Y-37922D01*
X18399Y-37699D01*
X18399Y-38073D01*
X18169Y-38303D01*
X17549Y-38303D01*
X17549Y-38055D01*
X17549Y-37640D01*
X16878Y-37640D01*
X16819Y-37699D01*
X16820Y-37922D01*
X16856Y-38010D01*
X16923Y-38077D01*
X17010Y-38113D01*
X17105Y-38113D01*
X17490Y-38114D01*
X17549Y-38055D01*
X17549Y-38303D01*
X16339Y-38303D01*
X16339Y-37294D01*
X16280Y-37235D01*
X15935Y-37235D01*
X15935Y-37480D01*
X15994Y-37539D01*
X16053Y-37538D01*
X16148Y-37538D01*
X16235Y-37502D01*
X16302Y-37435D01*
X16338Y-37347D01*
X16339Y-37294D01*
X16339Y-38303D01*
X16081Y-38303D01*
X15815Y-38037D01*
X15815Y-37480D01*
X15815Y-37235D01*
X15470Y-37235D01*
X15411Y-37294D01*
X15412Y-37347D01*
X15448Y-37435D01*
X15515Y-37502D01*
X15602Y-37538D01*
X15697Y-37538D01*
X15756Y-37539D01*
X15815Y-37480D01*
X15815Y-38037D01*
X14772Y-36994D01*
X14772Y-36990D01*
X14789Y-36983D01*
X14833Y-36939D01*
X14857Y-36881D01*
X14857Y-36819D01*
X14857Y-36369D01*
X14833Y-36311D01*
X14789Y-36267D01*
X14731Y-36243D01*
X14669Y-36243D01*
X14419Y-36243D01*
X14361Y-36267D01*
X14317Y-36311D01*
X14293Y-36369D01*
X14293Y-36431D01*
X14293Y-36881D01*
X14317Y-36939D01*
X14361Y-36983D01*
X14378Y-36990D01*
X14378Y-37075D01*
X14393Y-37151D01*
X14436Y-37214D01*
X15775Y-38553D01*
X13938Y-38553D01*
X13938Y-37958D01*
X13938Y-37720D01*
X13937Y-37591D01*
X13937Y-37496D01*
X13901Y-37409D01*
X13834Y-37342D01*
X13746Y-37306D01*
X13523Y-37305D01*
X13464Y-37364D01*
X13464Y-37779D01*
X13879Y-37779D01*
X13938Y-37720D01*
X13938Y-37958D01*
X13879Y-37899D01*
X13464Y-37899D01*
X13464Y-38314D01*
X13523Y-38373D01*
X13746Y-38372D01*
X13834Y-38336D01*
X13901Y-38269D01*
X13937Y-38182D01*
X13937Y-38087D01*
X13938Y-37958D01*
X13938Y-38553D01*
X13344Y-38553D01*
X13344Y-38314D01*
X13344Y-37899D01*
X13344Y-37779D01*
X13344Y-37364D01*
X13285Y-37305D01*
X13228Y-37305D01*
X13228Y-37280D01*
X13229Y-37249D01*
X13170Y-37190D01*
X12755Y-37190D01*
X12755Y-37507D01*
X12814Y-37566D01*
X12871Y-37565D01*
X12871Y-37591D01*
X12870Y-37720D01*
X12929Y-37779D01*
X13344Y-37779D01*
X13344Y-37899D01*
X12929Y-37899D01*
X12870Y-37958D01*
X12871Y-38087D01*
X12871Y-38182D01*
X12907Y-38269D01*
X12974Y-38336D01*
X13062Y-38372D01*
X13285Y-38373D01*
X13344Y-38314D01*
X13344Y-38553D01*
X12635Y-38553D01*
X12635Y-37507D01*
X12635Y-37190D01*
X12220Y-37190D01*
X12161Y-37249D01*
X12162Y-37280D01*
X12162Y-37375D01*
X12198Y-37462D01*
X12265Y-37529D01*
X12353Y-37565D01*
X12576Y-37566D01*
X12635Y-37507D01*
X12635Y-38553D01*
X11339Y-38553D01*
X11339Y-37249D01*
X11280Y-37190D01*
X10865Y-37190D01*
X10865Y-37507D01*
X10924Y-37566D01*
X11147Y-37565D01*
X11235Y-37529D01*
X11302Y-37462D01*
X11338Y-37375D01*
X11338Y-37280D01*
X11339Y-37249D01*
X11339Y-38553D01*
X10745Y-38553D01*
X10745Y-37507D01*
X10745Y-37190D01*
X10330Y-37190D01*
X10271Y-37249D01*
X10272Y-37280D01*
X10272Y-37305D01*
X10215Y-37305D01*
X10156Y-37364D01*
X10156Y-37779D01*
X10571Y-37779D01*
X10630Y-37720D01*
X10629Y-37591D01*
X10629Y-37565D01*
X10686Y-37566D01*
X10745Y-37507D01*
X10745Y-38553D01*
X10630Y-38553D01*
X10630Y-37958D01*
X10571Y-37899D01*
X10156Y-37899D01*
X10156Y-38314D01*
X10215Y-38373D01*
X10438Y-38372D01*
X10526Y-38336D01*
X10593Y-38269D01*
X10629Y-38182D01*
X10629Y-38087D01*
X10630Y-37958D01*
X10630Y-38553D01*
X10036Y-38553D01*
X10036Y-38314D01*
X10036Y-37899D01*
X10036Y-37779D01*
X10036Y-37364D01*
X09977Y-37305D01*
X09754Y-37306D01*
X09666Y-37342D01*
X09625Y-37383D01*
X09584Y-37342D01*
X09496Y-37306D01*
X09273Y-37305D01*
X09214Y-37364D01*
X09214Y-37779D01*
X09621Y-37779D01*
X09629Y-37779D01*
X10036Y-37779D01*
X10036Y-37899D01*
X09629Y-37899D01*
X09621Y-37899D01*
X09214Y-37899D01*
X09214Y-38314D01*
X09273Y-38373D01*
X09496Y-38372D01*
X09584Y-38336D01*
X09625Y-38295D01*
X09666Y-38336D01*
X09754Y-38372D01*
X09977Y-38373D01*
X10036Y-38314D01*
X10036Y-38553D01*
X09094Y-38553D01*
X09094Y-38314D01*
X09094Y-37899D01*
X09094Y-37779D01*
X09094Y-37364D01*
X09035Y-37305D01*
X08978Y-37305D01*
X08978Y-37280D01*
X08979Y-37249D01*
X08920Y-37190D01*
X08505Y-37190D01*
X08505Y-37507D01*
X08564Y-37566D01*
X08621Y-37565D01*
X08621Y-37591D01*
X08620Y-37720D01*
X08679Y-37779D01*
X09094Y-37779D01*
X09094Y-37899D01*
X08679Y-37899D01*
X08620Y-37958D01*
X08621Y-38087D01*
X08621Y-38182D01*
X08657Y-38269D01*
X08724Y-38336D01*
X08812Y-38372D01*
X09035Y-38373D01*
X09094Y-38314D01*
X09094Y-38553D01*
X08385Y-38553D01*
X08385Y-37507D01*
X08385Y-37190D01*
X07970Y-37190D01*
X07911Y-37249D01*
X07912Y-37280D01*
X07912Y-37375D01*
X07948Y-37462D01*
X08015Y-37529D01*
X08103Y-37565D01*
X08326Y-37566D01*
X08385Y-37507D01*
X08385Y-38553D01*
X07089Y-38553D01*
X07089Y-37249D01*
X07030Y-37190D01*
X06615Y-37190D01*
X06615Y-37507D01*
X06674Y-37566D01*
X06897Y-37565D01*
X06985Y-37529D01*
X07052Y-37462D01*
X07088Y-37375D01*
X07088Y-37280D01*
X07089Y-37249D01*
X07089Y-38553D01*
X06495Y-38553D01*
X06495Y-37507D01*
X06495Y-37190D01*
X06080Y-37190D01*
X06021Y-37249D01*
X06022Y-37280D01*
X06022Y-37305D01*
X05965Y-37305D01*
X05906Y-37364D01*
X05906Y-37779D01*
X06321Y-37779D01*
X06380Y-37720D01*
X06379Y-37591D01*
X06379Y-37565D01*
X06436Y-37566D01*
X06495Y-37507D01*
X06495Y-38553D01*
X06380Y-38553D01*
X06380Y-37958D01*
X06321Y-37899D01*
X05906Y-37899D01*
X05906Y-38314D01*
X05965Y-38373D01*
X06188Y-38372D01*
X06276Y-38336D01*
X06343Y-38269D01*
X06379Y-38182D01*
X06379Y-38087D01*
X06380Y-37958D01*
X06380Y-38553D01*
X05786Y-38553D01*
X05786Y-38314D01*
X05786Y-37899D01*
X05786Y-37779D01*
X05786Y-37364D01*
X05727Y-37305D01*
X05504Y-37306D01*
X05416Y-37342D01*
X05375Y-37383D01*
X05334Y-37342D01*
X05246Y-37306D01*
X05023Y-37305D01*
X04964Y-37364D01*
X04964Y-37779D01*
X05371Y-37779D01*
X05379Y-37779D01*
X05786Y-37779D01*
X05786Y-37899D01*
X05379Y-37899D01*
X05371Y-37899D01*
X04964Y-37899D01*
X04964Y-38314D01*
X05023Y-38373D01*
X05246Y-38372D01*
X05334Y-38336D01*
X05375Y-38295D01*
X05416Y-38336D01*
X05504Y-38372D01*
X05727Y-38373D01*
X05786Y-38314D01*
X05786Y-38553D01*
X04844Y-38553D01*
X04844Y-38314D01*
X04844Y-37899D01*
X04844Y-37779D01*
X04844Y-37364D01*
X04785Y-37305D01*
X04728Y-37305D01*
X04728Y-37280D01*
X04729Y-37249D01*
X04670Y-37190D01*
X04255Y-37190D01*
X04255Y-37507D01*
X04314Y-37566D01*
X04371Y-37565D01*
X04371Y-37591D01*
X04370Y-37720D01*
X04429Y-37779D01*
X04844Y-37779D01*
X04844Y-37899D01*
X04429Y-37899D01*
X04370Y-37958D01*
X04371Y-38087D01*
X04371Y-38182D01*
X04407Y-38269D01*
X04474Y-38336D01*
X04562Y-38372D01*
X04785Y-38373D01*
X04844Y-38314D01*
X04844Y-38553D01*
X04135Y-38553D01*
X04135Y-37507D01*
X04135Y-37190D01*
X03720Y-37190D01*
X03661Y-37249D01*
X03662Y-37280D01*
X03662Y-37375D01*
X03698Y-37462D01*
X03765Y-37529D01*
X03853Y-37565D01*
X04076Y-37566D01*
X04135Y-37507D01*
X04135Y-38553D01*
X02839Y-38553D01*
X02839Y-37249D01*
X02780Y-37190D01*
X02365Y-37190D01*
X02365Y-37507D01*
X02424Y-37566D01*
X02647Y-37565D01*
X02735Y-37529D01*
X02802Y-37462D01*
X02838Y-37375D01*
X02838Y-37280D01*
X02839Y-37249D01*
X02839Y-38553D01*
X02245Y-38553D01*
X02245Y-37507D01*
X02245Y-37190D01*
X01830Y-37190D01*
X01771Y-37249D01*
X01772Y-37280D01*
X01772Y-37305D01*
X01715Y-37305D01*
X01656Y-37364D01*
X01656Y-37779D01*
X02071Y-37779D01*
X02130Y-37720D01*
X02129Y-37591D01*
X02129Y-37565D01*
X02186Y-37566D01*
X02245Y-37507D01*
X02245Y-38553D01*
X02130Y-38553D01*
X02130Y-37958D01*
X02071Y-37899D01*
X01656Y-37899D01*
X01656Y-38314D01*
X01715Y-38373D01*
X01938Y-38372D01*
X02026Y-38336D01*
X02093Y-38269D01*
X02129Y-38182D01*
X02129Y-38087D01*
X02130Y-37958D01*
X02130Y-38553D01*
X01536Y-38553D01*
X01536Y-38314D01*
X01536Y-37899D01*
X01536Y-37779D01*
X01536Y-37364D01*
X01477Y-37305D01*
X01254Y-37306D01*
X01166Y-37342D01*
X01099Y-37409D01*
X01063Y-37496D01*
X01063Y-37591D01*
X01062Y-37720D01*
X01121Y-37779D01*
X01536Y-37779D01*
X01536Y-37899D01*
X01121Y-37899D01*
X01062Y-37958D01*
X01063Y-38087D01*
X01063Y-38182D01*
X01099Y-38269D01*
X01166Y-38336D01*
X01254Y-38372D01*
X01477Y-38373D01*
X01536Y-38314D01*
X01536Y-38553D01*
X01331Y-38553D01*
X00697Y-37918D01*
X00697Y-28331D01*
X01081Y-27947D01*
X01318Y-27947D01*
X01318Y-28056D01*
X01342Y-28114D01*
X01386Y-28158D01*
X01444Y-28182D01*
X01506Y-28182D01*
X02056Y-28182D01*
X02114Y-28158D01*
X02158Y-28114D01*
X02182Y-28056D01*
X02182Y-27994D01*
X02182Y-27444D01*
X02158Y-27386D01*
X02114Y-27342D01*
X02056Y-27318D01*
X02026Y-27318D01*
X02026Y-27111D01*
X01750Y-26835D01*
X01665Y-26920D01*
X01665Y-26750D01*
X01389Y-26474D01*
X01302Y-26499D01*
X01241Y-26689D01*
X01256Y-26889D01*
X01302Y-27001D01*
X01389Y-27026D01*
X01665Y-26750D01*
X01665Y-26920D01*
X01474Y-27111D01*
X01499Y-27198D01*
X01689Y-27259D01*
X01889Y-27244D01*
X02001Y-27198D01*
X02026Y-27111D01*
X02026Y-27318D01*
X01994Y-27318D01*
X01444Y-27318D01*
X01386Y-27342D01*
X01342Y-27386D01*
X01318Y-27444D01*
X01318Y-27506D01*
X01318Y-27553D01*
X01081Y-27553D01*
X00447Y-26918D01*
X00447Y-08352D01*
X00455Y-08356D01*
X00678Y-08357D01*
X00737Y-08298D01*
X00737Y-08021D01*
X00737Y-07981D01*
X00737Y-07861D01*
X00857Y-07861D01*
X00897Y-07861D01*
X01272Y-07861D01*
X01331Y-07802D01*
X01330Y-07771D01*
X01330Y-07676D01*
X01294Y-07589D01*
X01249Y-07544D01*
X01249Y-07497D01*
X01249Y-07103D01*
X01225Y-07045D01*
X01181Y-07001D01*
X01123Y-06977D01*
X01061Y-06977D01*
X00755Y-06977D01*
X00447Y-06668D01*
X00447Y-01770D01*
X00471Y-01780D01*
X00533Y-01780D01*
X01123Y-01780D01*
X01181Y-01756D01*
X01225Y-01712D01*
X01249Y-01654D01*
X01249Y-01623D01*
X01344Y-01623D01*
X02803Y-03081D01*
X02803Y-09093D01*
X02745Y-09117D01*
X02618Y-09244D01*
X02549Y-09410D01*
X02549Y-09589D01*
X02617Y-09755D01*
X02744Y-09882D01*
X02910Y-09951D01*
X03089Y-09951D01*
X03255Y-09883D01*
X03382Y-09756D01*
X03451Y-09590D01*
X03451Y-09411D01*
X03383Y-09245D01*
X03256Y-09118D01*
X03197Y-09093D01*
X03197Y-03000D01*
X03196Y-02999D01*
X03190Y-02969D01*
X03803Y-03581D01*
X03803Y-09093D01*
X03745Y-09117D01*
X03618Y-09244D01*
X03549Y-09410D01*
X03549Y-09589D01*
X03617Y-09755D01*
X03744Y-09882D01*
X03910Y-09951D01*
X04089Y-09951D01*
X04255Y-09883D01*
X04382Y-09756D01*
X04451Y-09590D01*
X04451Y-09411D01*
X04383Y-09245D01*
X04256Y-09118D01*
X04197Y-09093D01*
X04197Y-03500D01*
X04196Y-03499D01*
X04190Y-03469D01*
X04803Y-04081D01*
X04803Y-06750D01*
X04818Y-06826D01*
X04861Y-06889D01*
X05441Y-07470D01*
X05442Y-07470D01*
X05484Y-07498D01*
X05505Y-07512D01*
X05506Y-07513D01*
X05581Y-07528D01*
X08595Y-07528D01*
X08595Y-07544D01*
X08550Y-07589D01*
X08514Y-07676D01*
X08514Y-07771D01*
X08513Y-07802D01*
X08572Y-07861D01*
X08947Y-07861D01*
X08987Y-07861D01*
X09107Y-07861D01*
X09107Y-07981D01*
X09107Y-08021D01*
X09107Y-08298D01*
X09166Y-08357D01*
X09389Y-08356D01*
X09477Y-08320D01*
X09544Y-08253D01*
X09553Y-08231D01*
X09553Y-08418D01*
X08987Y-08984D01*
X08987Y-08298D01*
X08987Y-07981D01*
X08572Y-07981D01*
X08513Y-08040D01*
X08514Y-08071D01*
X08514Y-08166D01*
X08550Y-08253D01*
X08617Y-08320D01*
X08705Y-08356D01*
X08928Y-08357D01*
X08987Y-08298D01*
X08987Y-08984D01*
X08922Y-09049D01*
X08911Y-09049D01*
X08745Y-09117D01*
X08618Y-09244D01*
X08549Y-09410D01*
X08549Y-09589D01*
X08617Y-09755D01*
X08744Y-09882D01*
X08910Y-09951D01*
X09089Y-09951D01*
X09255Y-09883D01*
X09382Y-09756D01*
X09451Y-09590D01*
X09451Y-09411D01*
X09383Y-09245D01*
X09333Y-09195D01*
X09803Y-08725D01*
X09803Y-09000D01*
X09803Y-09093D01*
X09745Y-09117D01*
X09618Y-09244D01*
X09549Y-09410D01*
X09549Y-09589D01*
X09617Y-09755D01*
X09744Y-09882D01*
X09910Y-09951D01*
X10089Y-09951D01*
X10255Y-09883D01*
X10382Y-09756D01*
X10451Y-09590D01*
X10451Y-09411D01*
X10383Y-09245D01*
X10256Y-09118D01*
X10197Y-09093D01*
X10197Y-09000D01*
X10197Y-01250D01*
X10196Y-01249D01*
X10182Y-01175D01*
X10181Y-01174D01*
X10167Y-01153D01*
X10139Y-01111D01*
X10139Y-01110D01*
X09724Y-00696D01*
X09661Y-00653D01*
X09585Y-00638D01*
X09499Y-00638D01*
X09499Y-00607D01*
X09475Y-00549D01*
X09431Y-00505D01*
X09373Y-00481D01*
X09311Y-00481D01*
X08721Y-00481D01*
X08663Y-00505D01*
X08619Y-00549D01*
X08595Y-00607D01*
X08595Y-00669D01*
X08595Y-01063D01*
X08619Y-01121D01*
X08628Y-01130D01*
X08619Y-01140D01*
X08595Y-01198D01*
X08595Y-01260D01*
X08595Y-01654D01*
X08619Y-01712D01*
X08663Y-01756D01*
X08721Y-01780D01*
X08783Y-01780D01*
X09373Y-01780D01*
X09431Y-01756D01*
X09475Y-01712D01*
X09499Y-01654D01*
X09499Y-01623D01*
X09553Y-01623D01*
X09553Y-07610D01*
X09544Y-07589D01*
X09499Y-07544D01*
X09499Y-07497D01*
X09499Y-07103D01*
X09475Y-07045D01*
X09431Y-07001D01*
X09373Y-06977D01*
X09311Y-06977D01*
X08940Y-06977D01*
X08940Y-04705D01*
X08940Y-04618D01*
X08940Y-04382D01*
X08940Y-04295D01*
X08940Y-03205D01*
X08940Y-03118D01*
X08940Y-02882D01*
X08940Y-02795D01*
X08904Y-02708D01*
X08837Y-02641D01*
X08749Y-02605D01*
X08664Y-02604D01*
X08605Y-02663D01*
X08605Y-02940D01*
X08882Y-02940D01*
X08940Y-02882D01*
X08940Y-03118D01*
X08882Y-03060D01*
X08605Y-03060D01*
X08605Y-03337D01*
X08664Y-03396D01*
X08749Y-03395D01*
X08837Y-03359D01*
X08904Y-03292D01*
X08940Y-03205D01*
X08940Y-04295D01*
X08904Y-04208D01*
X08837Y-04141D01*
X08749Y-04105D01*
X08664Y-04104D01*
X08605Y-04163D01*
X08605Y-04440D01*
X08882Y-04440D01*
X08940Y-04382D01*
X08940Y-04618D01*
X08882Y-04560D01*
X08605Y-04560D01*
X08605Y-04837D01*
X08664Y-04896D01*
X08749Y-04895D01*
X08837Y-04859D01*
X08904Y-04792D01*
X08940Y-04705D01*
X08940Y-06977D01*
X08721Y-06977D01*
X08663Y-07001D01*
X08619Y-07045D01*
X08595Y-07103D01*
X08595Y-07134D01*
X08485Y-07134D01*
X08485Y-04837D01*
X08485Y-04600D01*
X08485Y-04560D01*
X08485Y-04440D01*
X08485Y-04400D01*
X08485Y-04163D01*
X08426Y-04104D01*
X08341Y-04105D01*
X08253Y-04141D01*
X08247Y-04147D01*
X08247Y-04115D01*
X08264Y-04108D01*
X08308Y-04064D01*
X08332Y-04006D01*
X08332Y-03944D01*
X08332Y-03494D01*
X08308Y-03436D01*
X08264Y-03392D01*
X08206Y-03368D01*
X08144Y-03368D01*
X07894Y-03368D01*
X07836Y-03392D01*
X07792Y-03436D01*
X07768Y-03494D01*
X07768Y-03556D01*
X07768Y-04006D01*
X07792Y-04064D01*
X07836Y-04108D01*
X07853Y-04115D01*
X07853Y-04186D01*
X07767Y-04186D01*
X07709Y-04210D01*
X07665Y-04254D01*
X07641Y-04312D01*
X07641Y-04374D01*
X07641Y-04688D01*
X07665Y-04746D01*
X07709Y-04790D01*
X07767Y-04814D01*
X07829Y-04814D01*
X08143Y-04814D01*
X08188Y-04794D01*
X08253Y-04859D01*
X08341Y-04895D01*
X08426Y-04896D01*
X08485Y-04837D01*
X08485Y-07134D01*
X05662Y-07134D01*
X05197Y-06668D01*
X05197Y-04000D01*
X05184Y-03936D01*
X05182Y-03925D01*
X05182Y-03924D01*
X05139Y-03861D01*
X05139Y-03860D01*
X01510Y-00232D01*
X07293Y-00232D01*
X07293Y-00638D01*
X07154Y-00638D01*
X07154Y-00607D01*
X07130Y-00549D01*
X07086Y-00505D01*
X07028Y-00481D01*
X06966Y-00481D01*
X06376Y-00481D01*
X06318Y-00505D01*
X06274Y-00549D01*
X06250Y-00607D01*
X06250Y-00669D01*
X06250Y-01063D01*
X06274Y-01121D01*
X06318Y-01165D01*
X06376Y-01189D01*
X06438Y-01189D01*
X07028Y-01189D01*
X07086Y-01165D01*
X07130Y-01121D01*
X07154Y-01063D01*
X07154Y-01032D01*
X07253Y-01032D01*
X07253Y-01134D01*
X07236Y-01142D01*
X07192Y-01186D01*
X07168Y-01244D01*
X07168Y-01306D01*
X07168Y-01756D01*
X07192Y-01814D01*
X07197Y-01819D01*
X07154Y-01819D01*
X07154Y-01788D01*
X07130Y-01730D01*
X07086Y-01686D01*
X07028Y-01662D01*
X06966Y-01662D01*
X06376Y-01662D01*
X06318Y-01686D01*
X06274Y-01730D01*
X06250Y-01788D01*
X06250Y-01850D01*
X06250Y-02244D01*
X06274Y-02302D01*
X06283Y-02311D01*
X06274Y-02321D01*
X06250Y-02379D01*
X06250Y-02441D01*
X06250Y-02835D01*
X06274Y-02893D01*
X06318Y-02937D01*
X06376Y-02961D01*
X06438Y-02961D01*
X06505Y-02961D01*
X06505Y-03452D01*
X06520Y-03528D01*
X06563Y-03591D01*
X06860Y-03889D01*
X06861Y-03889D01*
X06903Y-03917D01*
X06924Y-03931D01*
X06925Y-03932D01*
X07000Y-03947D01*
X07168Y-03947D01*
X07168Y-04006D01*
X07192Y-04064D01*
X07236Y-04108D01*
X07294Y-04132D01*
X07356Y-04132D01*
X07606Y-04132D01*
X07664Y-04108D01*
X07708Y-04064D01*
X07732Y-04006D01*
X07732Y-03944D01*
X07732Y-03494D01*
X07708Y-03436D01*
X07664Y-03392D01*
X07606Y-03368D01*
X07544Y-03368D01*
X07294Y-03368D01*
X07236Y-03392D01*
X07192Y-03436D01*
X07168Y-03494D01*
X07168Y-03553D01*
X07081Y-03553D01*
X06899Y-03370D01*
X06899Y-02961D01*
X07028Y-02961D01*
X07086Y-02937D01*
X07130Y-02893D01*
X07154Y-02835D01*
X07154Y-02773D01*
X07154Y-02379D01*
X07130Y-02321D01*
X07120Y-02311D01*
X07130Y-02302D01*
X07154Y-02244D01*
X07154Y-02232D01*
X07168Y-02246D01*
X07168Y-02506D01*
X07192Y-02564D01*
X07236Y-02608D01*
X07294Y-02632D01*
X07356Y-02632D01*
X07606Y-02632D01*
X07664Y-02608D01*
X07708Y-02564D01*
X07732Y-02506D01*
X07732Y-02444D01*
X07732Y-01994D01*
X07708Y-01936D01*
X07664Y-01892D01*
X07622Y-01875D01*
X07664Y-01858D01*
X07705Y-01816D01*
X07723Y-01860D01*
X07790Y-01927D01*
X07797Y-01930D01*
X07792Y-01936D01*
X07768Y-01994D01*
X07768Y-02056D01*
X07768Y-02506D01*
X07792Y-02564D01*
X07836Y-02608D01*
X07853Y-02615D01*
X07853Y-02686D01*
X07767Y-02686D01*
X07709Y-02710D01*
X07665Y-02754D01*
X07641Y-02812D01*
X07641Y-02874D01*
X07641Y-03188D01*
X07665Y-03246D01*
X07709Y-03290D01*
X07767Y-03314D01*
X07829Y-03314D01*
X08143Y-03314D01*
X08188Y-03294D01*
X08253Y-03359D01*
X08341Y-03395D01*
X08426Y-03396D01*
X08485Y-03337D01*
X08485Y-03100D01*
X08485Y-03060D01*
X08485Y-02940D01*
X08485Y-02900D01*
X08485Y-02663D01*
X08426Y-02604D01*
X08341Y-02605D01*
X08253Y-02641D01*
X08247Y-02647D01*
X08247Y-02615D01*
X08264Y-02608D01*
X08308Y-02564D01*
X08332Y-02506D01*
X08332Y-02444D01*
X08332Y-01994D01*
X08308Y-01936D01*
X08302Y-01930D01*
X08310Y-01927D01*
X08377Y-01860D01*
X08413Y-01773D01*
X08413Y-01678D01*
X08414Y-01619D01*
X08414Y-01381D01*
X08413Y-01322D01*
X08413Y-01227D01*
X08377Y-01140D01*
X08310Y-01073D01*
X08222Y-01037D01*
X08169Y-01036D01*
X08110Y-01095D01*
X08110Y-01440D01*
X08355Y-01440D01*
X08414Y-01381D01*
X08414Y-01619D01*
X08355Y-01560D01*
X08150Y-01560D01*
X08110Y-01560D01*
X07990Y-01560D01*
X07990Y-01440D01*
X07990Y-01400D01*
X07990Y-01095D01*
X07931Y-01036D01*
X07878Y-01037D01*
X07790Y-01073D01*
X07723Y-01140D01*
X07705Y-01183D01*
X07664Y-01142D01*
X07647Y-01134D01*
X07647Y-00957D01*
X08081Y-00957D01*
X08139Y-00933D01*
X08183Y-00889D01*
X08207Y-00831D01*
X08207Y-00769D01*
X08207Y-00232D01*
X15543Y-00232D01*
X15543Y-00638D01*
X15404Y-00638D01*
X15404Y-00607D01*
X15380Y-00549D01*
X15336Y-00505D01*
X15278Y-00481D01*
X15216Y-00481D01*
X14626Y-00481D01*
X14568Y-00505D01*
X14524Y-00549D01*
X14500Y-00607D01*
X14500Y-00669D01*
X14500Y-01063D01*
X14524Y-01121D01*
X14568Y-01165D01*
X14626Y-01189D01*
X14688Y-01189D01*
X15278Y-01189D01*
X15336Y-01165D01*
X15380Y-01121D01*
X15404Y-01063D01*
X15404Y-01032D01*
X15503Y-01032D01*
X15503Y-01134D01*
X15486Y-01142D01*
X15442Y-01186D01*
X15418Y-01244D01*
X15418Y-01306D01*
X15418Y-01756D01*
X15442Y-01814D01*
X15447Y-01819D01*
X15404Y-01819D01*
X15404Y-01788D01*
X15380Y-01730D01*
X15336Y-01686D01*
X15278Y-01662D01*
X15216Y-01662D01*
X14626Y-01662D01*
X14568Y-01686D01*
X14524Y-01730D01*
X14500Y-01788D01*
X14500Y-01850D01*
X14500Y-02244D01*
X14524Y-02302D01*
X14533Y-02311D01*
X14524Y-02321D01*
X14500Y-02379D01*
X14500Y-02441D01*
X14500Y-02835D01*
X14524Y-02893D01*
X14568Y-02937D01*
X14626Y-02961D01*
X14688Y-02961D01*
X14755Y-02961D01*
X14755Y-03202D01*
X14770Y-03278D01*
X14813Y-03341D01*
X15360Y-03889D01*
X15361Y-03889D01*
X15403Y-03917D01*
X15418Y-03927D01*
X15418Y-04006D01*
X15442Y-04064D01*
X15486Y-04108D01*
X15544Y-04132D01*
X15606Y-04132D01*
X15856Y-04132D01*
X15914Y-04108D01*
X15958Y-04064D01*
X15982Y-04006D01*
X15982Y-03944D01*
X15982Y-03494D01*
X15958Y-03436D01*
X15914Y-03392D01*
X15856Y-03368D01*
X15794Y-03368D01*
X15544Y-03368D01*
X15486Y-03392D01*
X15453Y-03424D01*
X15149Y-03120D01*
X15149Y-02961D01*
X15278Y-02961D01*
X15336Y-02937D01*
X15380Y-02893D01*
X15404Y-02835D01*
X15404Y-02773D01*
X15404Y-02379D01*
X15380Y-02321D01*
X15370Y-02311D01*
X15380Y-02302D01*
X15404Y-02244D01*
X15404Y-02232D01*
X15418Y-02246D01*
X15418Y-02506D01*
X15442Y-02564D01*
X15486Y-02608D01*
X15544Y-02632D01*
X15606Y-02632D01*
X15856Y-02632D01*
X15914Y-02608D01*
X15958Y-02564D01*
X15982Y-02506D01*
X15982Y-02444D01*
X15982Y-01994D01*
X15958Y-01936D01*
X15914Y-01892D01*
X15872Y-01875D01*
X15914Y-01858D01*
X15955Y-01816D01*
X15973Y-01860D01*
X16040Y-01927D01*
X16047Y-01930D01*
X16042Y-01936D01*
X16018Y-01994D01*
X16018Y-02056D01*
X16018Y-02506D01*
X16042Y-02564D01*
X16086Y-02608D01*
X16103Y-02615D01*
X16103Y-02686D01*
X16017Y-02686D01*
X15959Y-02710D01*
X15915Y-02754D01*
X15891Y-02812D01*
X15891Y-02874D01*
X15891Y-03188D01*
X15915Y-03246D01*
X15959Y-03290D01*
X16017Y-03314D01*
X16079Y-03314D01*
X16393Y-03314D01*
X16438Y-03294D01*
X16503Y-03359D01*
X16591Y-03395D01*
X16676Y-03396D01*
X16735Y-03337D01*
X16735Y-03100D01*
X16735Y-03060D01*
X16735Y-02940D01*
X16735Y-02900D01*
X16735Y-02663D01*
X16676Y-02604D01*
X16591Y-02605D01*
X16503Y-02641D01*
X16497Y-02647D01*
X16497Y-02615D01*
X16514Y-02608D01*
X16558Y-02564D01*
X16582Y-02506D01*
X16582Y-02444D01*
X16582Y-01994D01*
X16558Y-01936D01*
X16552Y-01930D01*
X16560Y-01927D01*
X16627Y-01860D01*
X16663Y-01773D01*
X16663Y-01678D01*
X16664Y-01619D01*
X16664Y-01381D01*
X16663Y-01322D01*
X16663Y-01227D01*
X16627Y-01140D01*
X16560Y-01073D01*
X16472Y-01037D01*
X16419Y-01036D01*
X16360Y-01095D01*
X16360Y-01440D01*
X16605Y-01440D01*
X16664Y-01381D01*
X16664Y-01619D01*
X16605Y-01560D01*
X16400Y-01560D01*
X16360Y-01560D01*
X16240Y-01560D01*
X16240Y-01440D01*
X16240Y-01400D01*
X16240Y-01095D01*
X16181Y-01036D01*
X16128Y-01037D01*
X16040Y-01073D01*
X15973Y-01140D01*
X15955Y-01183D01*
X15914Y-01142D01*
X15897Y-01134D01*
X15897Y-00957D01*
X16331Y-00957D01*
X16389Y-00933D01*
X16433Y-00889D01*
X16457Y-00831D01*
X16457Y-00769D01*
X16457Y-00232D01*
X19453Y-00232D01*
X19453Y-39138D01*
M02*
