<?xml version="1.0" standalone="no"?>
<!DOCTYPE svg PUBLIC "-//W3C//DTD SVG 1.1//EN" 
"http://www.w3.org/Graphics/SVG/1.1/DTD/svg11.dtd"> 
<svg
  xmlns="http://www.w3.org/2000/svg"
  version="1.1"
  width="11.7in" height="8.267in" viewBox="0 0 117000 82670 "
>
  <title>SVG Picture created as wordclcockV01-Rückseite.svg </title>
  <desc>Picture generated by wxSVG v0101 </desc>
  <g style="fill:black; stroke:black; stroke-width:1">
</g>
<g style="fill:#000000; fill-opacity:0.0; 
  stroke:#FFFF00; stroke-linecap:round; stroke-linejoin:round; stroke-opacity:1.0; stroke-opacity:1.0; stroke-width:150" 
   transform="translate(0 0) scale(1 1)">
<path d="M19685 39370 L19685 0" /> 
<path d="M0 39370 L19685 39370" /> 
<path d="M0 0 L0 39370" /> 
<path d="M19685 0 L0 0" /> 
</g>
<g style="fill:#808000; fill-opacity:1.0; 
  stroke:#808000; stroke-linecap:round; stroke-linejoin:round; stroke-opacity:1.0; stroke-opacity:1.0; stroke-width:0" 
   transform="translate(0 0) scale(1 1)">
<ellipse cx="2000" cy="32000" rx="649" ry="649"  /> 
</g>
<g style="fill:#808000; fill-opacity:1.0; 
  stroke:#FFFFFF; stroke-linecap:round; stroke-linejoin:round; stroke-opacity:1.0; stroke-opacity:1.0; stroke-width:400" 
   transform="translate(0 0) scale(1 1)">
<path d="M2000 32300 L2000 31700" /> 
</g>
<g style="fill:#808000; fill-opacity:1.0; 
  stroke:#808000; stroke-linecap:round; stroke-linejoin:round; stroke-opacity:1.0; stroke-opacity:1.0; stroke-width:0" 
   transform="translate(0 0) scale(1 1)">
<polygon style="fill-rule:evenodd; " 
points="3751,32649
3751,31351
5049,31351
5049,32649
" /> 
</g>
<g style="fill:#808000; fill-opacity:1.0; 
  stroke:#FFFFFF; stroke-linecap:round; stroke-linejoin:round; stroke-opacity:1.0; stroke-opacity:1.0; stroke-width:400" 
   transform="translate(0 0) scale(1 1)">
<path d="M4400 32300 L4400 31700" /> 
</g>
<g style="fill:#808000; fill-opacity:1.0; 
  stroke:#808000; stroke-linecap:round; stroke-linejoin:round; stroke-opacity:1.0; stroke-opacity:1.0; stroke-width:0" 
   transform="translate(0 0) scale(1 1)">
<ellipse cx="2900" cy="30000" rx="649" ry="649"  /> 
</g>
<g style="fill:#808000; fill-opacity:1.0; 
  stroke:#FFFFFF; stroke-linecap:round; stroke-linejoin:round; stroke-opacity:1.0; stroke-opacity:1.0; stroke-width:400" 
   transform="translate(0 0) scale(1 1)">
<path d="M3200 30000 L2600 30000" /> 
</g>
<g style="fill:#808000; fill-opacity:1.0; 
  stroke:#808000; stroke-linecap:round; stroke-linejoin:round; stroke-opacity:1.0; stroke-opacity:1.0; stroke-width:0" 
   transform="translate(0 0) scale(1 1)">
<ellipse cx="5875" cy="18625" rx="275" ry="275"  /> 
</g>
<g style="fill:#FFFFFF; fill-opacity:1.0; 
  stroke:#808000; stroke-linecap:round; stroke-linejoin:round; stroke-opacity:1.0; stroke-opacity:1.0; stroke-width:0" 
   transform="translate(0 0) scale(1 1)">
<ellipse cx="5875" cy="18625" rx="160" ry="160"  /> 
</g>
<g style="fill:#808000; fill-opacity:1.0; 
  stroke:#808000; stroke-linecap:round; stroke-linejoin:round; stroke-opacity:1.0; stroke-opacity:1.0; stroke-width:0" 
   transform="translate(0 0) scale(1 1)">
<ellipse cx="5875" cy="20625" rx="275" ry="275"  /> 
</g>
<g style="fill:#FFFFFF; fill-opacity:1.0; 
  stroke:#808000; stroke-linecap:round; stroke-linejoin:round; stroke-opacity:1.0; stroke-opacity:1.0; stroke-width:0" 
   transform="translate(0 0) scale(1 1)">
<ellipse cx="5875" cy="20625" rx="160" ry="160"  /> 
</g>
<g style="fill:#808000; fill-opacity:1.0; 
  stroke:#808000; stroke-linecap:round; stroke-linejoin:round; stroke-opacity:1.0; stroke-opacity:1.0; stroke-width:0" 
   transform="translate(0 0) scale(1 1)">
<ellipse cx="8875" cy="18625" rx="275" ry="275"  /> 
</g>
<g style="fill:#FFFFFF; fill-opacity:1.0; 
  stroke:#808000; stroke-linecap:round; stroke-linejoin:round; stroke-opacity:1.0; stroke-opacity:1.0; stroke-width:0" 
   transform="translate(0 0) scale(1 1)">
<ellipse cx="8875" cy="18625" rx="160" ry="160"  /> 
</g>
<g style="fill:#808000; fill-opacity:1.0; 
  stroke:#808000; stroke-linecap:round; stroke-linejoin:round; stroke-opacity:1.0; stroke-opacity:1.0; stroke-width:0" 
   transform="translate(0 0) scale(1 1)">
<ellipse cx="8875" cy="20625" rx="275" ry="275"  /> 
</g>
<g style="fill:#FFFFFF; fill-opacity:1.0; 
  stroke:#808000; stroke-linecap:round; stroke-linejoin:round; stroke-opacity:1.0; stroke-opacity:1.0; stroke-width:0" 
   transform="translate(0 0) scale(1 1)">
<ellipse cx="8875" cy="20625" rx="160" ry="160"  /> 
</g>
<g style="fill:#808000; fill-opacity:1.0; 
  stroke:#808000; stroke-linecap:round; stroke-linejoin:round; stroke-opacity:1.0; stroke-opacity:1.0; stroke-width:0" 
   transform="translate(0 0) scale(1 1)">
<ellipse cx="5875" cy="24625" rx="275" ry="275"  /> 
</g>
<g style="fill:#FFFFFF; fill-opacity:1.0; 
  stroke:#808000; stroke-linecap:round; stroke-linejoin:round; stroke-opacity:1.0; stroke-opacity:1.0; stroke-width:0" 
   transform="translate(0 0) scale(1 1)">
<ellipse cx="5875" cy="24625" rx="160" ry="160"  /> 
</g>
<g style="fill:#808000; fill-opacity:1.0; 
  stroke:#808000; stroke-linecap:round; stroke-linejoin:round; stroke-opacity:1.0; stroke-opacity:1.0; stroke-width:0" 
   transform="translate(0 0) scale(1 1)">
<ellipse cx="5875" cy="26625" rx="275" ry="275"  /> 
</g>
<g style="fill:#FFFFFF; fill-opacity:1.0; 
  stroke:#808000; stroke-linecap:round; stroke-linejoin:round; stroke-opacity:1.0; stroke-opacity:1.0; stroke-width:0" 
   transform="translate(0 0) scale(1 1)">
<ellipse cx="5875" cy="26625" rx="160" ry="160"  /> 
</g>
<g style="fill:#808000; fill-opacity:1.0; 
  stroke:#808000; stroke-linecap:round; stroke-linejoin:round; stroke-opacity:1.0; stroke-opacity:1.0; stroke-width:0" 
   transform="translate(0 0) scale(1 1)">
<ellipse cx="8875" cy="24625" rx="275" ry="275"  /> 
</g>
<g style="fill:#FFFFFF; fill-opacity:1.0; 
  stroke:#808000; stroke-linecap:round; stroke-linejoin:round; stroke-opacity:1.0; stroke-opacity:1.0; stroke-width:0" 
   transform="translate(0 0) scale(1 1)">
<ellipse cx="8875" cy="24625" rx="160" ry="160"  /> 
</g>
<g style="fill:#808000; fill-opacity:1.0; 
  stroke:#808000; stroke-linecap:round; stroke-linejoin:round; stroke-opacity:1.0; stroke-opacity:1.0; stroke-width:0" 
   transform="translate(0 0) scale(1 1)">
<ellipse cx="8875" cy="26625" rx="275" ry="275"  /> 
</g>
<g style="fill:#FFFFFF; fill-opacity:1.0; 
  stroke:#808000; stroke-linecap:round; stroke-linejoin:round; stroke-opacity:1.0; stroke-opacity:1.0; stroke-width:0" 
   transform="translate(0 0) scale(1 1)">
<ellipse cx="8875" cy="26625" rx="160" ry="160"  /> 
</g>
<g style="fill:#808000; fill-opacity:1.0; 
  stroke:#808000; stroke-linecap:round; stroke-linejoin:round; stroke-opacity:1.0; stroke-opacity:1.0; stroke-width:0" 
   transform="translate(0 0) scale(1 1)">
<ellipse cx="5875" cy="21625" rx="275" ry="275"  /> 
</g>
<g style="fill:#FFFFFF; fill-opacity:1.0; 
  stroke:#808000; stroke-linecap:round; stroke-linejoin:round; stroke-opacity:1.0; stroke-opacity:1.0; stroke-width:0" 
   transform="translate(0 0) scale(1 1)">
<ellipse cx="5875" cy="21625" rx="160" ry="160"  /> 
</g>
<g style="fill:#808000; fill-opacity:1.0; 
  stroke:#808000; stroke-linecap:round; stroke-linejoin:round; stroke-opacity:1.0; stroke-opacity:1.0; stroke-width:0" 
   transform="translate(0 0) scale(1 1)">
<ellipse cx="5875" cy="23625" rx="275" ry="275"  /> 
</g>
<g style="fill:#FFFFFF; fill-opacity:1.0; 
  stroke:#808000; stroke-linecap:round; stroke-linejoin:round; stroke-opacity:1.0; stroke-opacity:1.0; stroke-width:0" 
   transform="translate(0 0) scale(1 1)">
<ellipse cx="5875" cy="23625" rx="160" ry="160"  /> 
</g>
<g style="fill:#808000; fill-opacity:1.0; 
  stroke:#808000; stroke-linecap:round; stroke-linejoin:round; stroke-opacity:1.0; stroke-opacity:1.0; stroke-width:0" 
   transform="translate(0 0) scale(1 1)">
<ellipse cx="8875" cy="21625" rx="275" ry="275"  /> 
</g>
<g style="fill:#FFFFFF; fill-opacity:1.0; 
  stroke:#808000; stroke-linecap:round; stroke-linejoin:round; stroke-opacity:1.0; stroke-opacity:1.0; stroke-width:0" 
   transform="translate(0 0) scale(1 1)">
<ellipse cx="8875" cy="21625" rx="160" ry="160"  /> 
</g>
<g style="fill:#808000; fill-opacity:1.0; 
  stroke:#808000; stroke-linecap:round; stroke-linejoin:round; stroke-opacity:1.0; stroke-opacity:1.0; stroke-width:0" 
   transform="translate(0 0) scale(1 1)">
<ellipse cx="8875" cy="23625" rx="275" ry="275"  /> 
</g>
<g style="fill:#FFFFFF; fill-opacity:1.0; 
  stroke:#808000; stroke-linecap:round; stroke-linejoin:round; stroke-opacity:1.0; stroke-opacity:1.0; stroke-width:0" 
   transform="translate(0 0) scale(1 1)">
<ellipse cx="8875" cy="23625" rx="160" ry="160"  /> 
</g>
<g style="fill:#808000; fill-opacity:1.0; 
  stroke:#808000; stroke-linecap:round; stroke-linejoin:round; stroke-opacity:1.0; stroke-opacity:1.0; stroke-width:0" 
   transform="translate(0 0) scale(1 1)">
<ellipse cx="5375" cy="28375" rx="275" ry="275"  /> 
</g>
<g style="fill:#FFFFFF; fill-opacity:1.0; 
  stroke:#808000; stroke-linecap:round; stroke-linejoin:round; stroke-opacity:1.0; stroke-opacity:1.0; stroke-width:0" 
   transform="translate(0 0) scale(1 1)">
<ellipse cx="5375" cy="28375" rx="160" ry="160"  /> 
</g>
<g style="fill:#808000; fill-opacity:1.0; 
  stroke:#808000; stroke-linecap:round; stroke-linejoin:round; stroke-opacity:1.0; stroke-opacity:1.0; stroke-width:0" 
   transform="translate(0 0) scale(1 1)">
<ellipse cx="6375" cy="28375" rx="275" ry="275"  /> 
</g>
<g style="fill:#FFFFFF; fill-opacity:1.0; 
  stroke:#808000; stroke-linecap:round; stroke-linejoin:round; stroke-opacity:1.0; stroke-opacity:1.0; stroke-width:0" 
   transform="translate(0 0) scale(1 1)">
<ellipse cx="6375" cy="28375" rx="160" ry="160"  /> 
</g>
<g style="fill:#808000; fill-opacity:1.0; 
  stroke:#808000; stroke-linecap:round; stroke-linejoin:round; stroke-opacity:1.0; stroke-opacity:1.0; stroke-width:0" 
   transform="translate(0 0) scale(1 1)">
<polygon style="fill-rule:evenodd; " 
points="18450,700
19050,700
19050,1300
18450,1300
" /> 
</g>
<g style="fill:#FFFFFF; fill-opacity:1.0; 
  stroke:#808000; stroke-linecap:round; stroke-linejoin:round; stroke-opacity:1.0; stroke-opacity:1.0; stroke-width:0" 
   transform="translate(0 0) scale(1 1)">
<ellipse cx="18750" cy="1000" rx="200" ry="200"  /> 
</g>
<g style="fill:#808000; fill-opacity:1.0; 
  stroke:#808000; stroke-linecap:round; stroke-linejoin:round; stroke-opacity:1.0; stroke-opacity:1.0; stroke-width:0" 
   transform="translate(0 0) scale(1 1)">
<ellipse cx="17750" cy="1000" rx="300" ry="300"  /> 
</g>
<g style="fill:#FFFFFF; fill-opacity:1.0; 
  stroke:#808000; stroke-linecap:round; stroke-linejoin:round; stroke-opacity:1.0; stroke-opacity:1.0; stroke-width:0" 
   transform="translate(0 0) scale(1 1)">
<ellipse cx="17750" cy="1000" rx="200" ry="200"  /> 
</g>
<g style="fill:#808000; fill-opacity:1.0; 
  stroke:#808000; stroke-linecap:round; stroke-linejoin:round; stroke-opacity:1.0; stroke-opacity:1.0; stroke-width:0" 
   transform="translate(0 0) scale(1 1)">
<ellipse cx="18750" cy="2000" rx="300" ry="300"  /> 
</g>
<g style="fill:#FFFFFF; fill-opacity:1.0; 
  stroke:#808000; stroke-linecap:round; stroke-linejoin:round; stroke-opacity:1.0; stroke-opacity:1.0; stroke-width:0" 
   transform="translate(0 0) scale(1 1)">
<ellipse cx="18750" cy="2000" rx="200" ry="200"  /> 
</g>
<g style="fill:#808000; fill-opacity:1.0; 
  stroke:#808000; stroke-linecap:round; stroke-linejoin:round; stroke-opacity:1.0; stroke-opacity:1.0; stroke-width:0" 
   transform="translate(0 0) scale(1 1)">
<ellipse cx="17750" cy="2000" rx="300" ry="300"  /> 
</g>
<g style="fill:#FFFFFF; fill-opacity:1.0; 
  stroke:#808000; stroke-linecap:round; stroke-linejoin:round; stroke-opacity:1.0; stroke-opacity:1.0; stroke-width:0" 
   transform="translate(0 0) scale(1 1)">
<ellipse cx="17750" cy="2000" rx="200" ry="200"  /> 
</g>
<g style="fill:#808000; fill-opacity:1.0; 
  stroke:#808000; stroke-linecap:round; stroke-linejoin:round; stroke-opacity:1.0; stroke-opacity:1.0; stroke-width:0" 
   transform="translate(0 0) scale(1 1)">
<ellipse cx="18750" cy="3000" rx="300" ry="300"  /> 
</g>
<g style="fill:#FFFFFF; fill-opacity:1.0; 
  stroke:#808000; stroke-linecap:round; stroke-linejoin:round; stroke-opacity:1.0; stroke-opacity:1.0; stroke-width:0" 
   transform="translate(0 0) scale(1 1)">
<ellipse cx="18750" cy="3000" rx="200" ry="200"  /> 
</g>
<g style="fill:#808000; fill-opacity:1.0; 
  stroke:#808000; stroke-linecap:round; stroke-linejoin:round; stroke-opacity:1.0; stroke-opacity:1.0; stroke-width:0" 
   transform="translate(0 0) scale(1 1)">
<ellipse cx="17750" cy="3000" rx="300" ry="300"  /> 
</g>
<g style="fill:#FFFFFF; fill-opacity:1.0; 
  stroke:#808000; stroke-linecap:round; stroke-linejoin:round; stroke-opacity:1.0; stroke-opacity:1.0; stroke-width:0" 
   transform="translate(0 0) scale(1 1)">
<ellipse cx="17750" cy="3000" rx="200" ry="200"  /> 
</g>
<g style="fill:#808000; fill-opacity:1.0; 
  stroke:#808000; stroke-linecap:round; stroke-linejoin:round; stroke-opacity:1.0; stroke-opacity:1.0; stroke-width:0" 
   transform="translate(0 0) scale(1 1)">
<ellipse cx="18750" cy="4000" rx="300" ry="300"  /> 
</g>
<g style="fill:#FFFFFF; fill-opacity:1.0; 
  stroke:#808000; stroke-linecap:round; stroke-linejoin:round; stroke-opacity:1.0; stroke-opacity:1.0; stroke-width:0" 
   transform="translate(0 0) scale(1 1)">
<ellipse cx="18750" cy="4000" rx="200" ry="200"  /> 
</g>
<g style="fill:#808000; fill-opacity:1.0; 
  stroke:#808000; stroke-linecap:round; stroke-linejoin:round; stroke-opacity:1.0; stroke-opacity:1.0; stroke-width:0" 
   transform="translate(0 0) scale(1 1)">
<ellipse cx="17750" cy="4000" rx="300" ry="300"  /> 
</g>
<g style="fill:#FFFFFF; fill-opacity:1.0; 
  stroke:#808000; stroke-linecap:round; stroke-linejoin:round; stroke-opacity:1.0; stroke-opacity:1.0; stroke-width:0" 
   transform="translate(0 0) scale(1 1)">
<ellipse cx="17750" cy="4000" rx="200" ry="200"  /> 
</g>
<g style="fill:#808000; fill-opacity:1.0; 
  stroke:#808000; stroke-linecap:round; stroke-linejoin:round; stroke-opacity:1.0; stroke-opacity:1.0; stroke-width:0" 
   transform="translate(0 0) scale(1 1)">
<polygon style="fill-rule:evenodd; " 
points="18050,9300
17450,9300
17450,8700
18050,8700
" /> 
</g>
<g style="fill:#FFFFFF; fill-opacity:1.0; 
  stroke:#808000; stroke-linecap:round; stroke-linejoin:round; stroke-opacity:1.0; stroke-opacity:1.0; stroke-width:0" 
   transform="translate(0 0) scale(1 1)">
<ellipse cx="17750" cy="9000" rx="200" ry="200"  /> 
</g>
<g style="fill:#808000; fill-opacity:1.0; 
  stroke:#808000; stroke-linecap:round; stroke-linejoin:round; stroke-opacity:1.0; stroke-opacity:1.0; stroke-width:0" 
   transform="translate(0 0) scale(1 1)">
<ellipse cx="17750" cy="8000" rx="300" ry="300"  /> 
</g>
<g style="fill:#FFFFFF; fill-opacity:1.0; 
  stroke:#808000; stroke-linecap:round; stroke-linejoin:round; stroke-opacity:1.0; stroke-opacity:1.0; stroke-width:0" 
   transform="translate(0 0) scale(1 1)">
<ellipse cx="17750" cy="8000" rx="200" ry="200"  /> 
</g>
<g style="fill:#808000; fill-opacity:1.0; 
  stroke:#808000; stroke-linecap:round; stroke-linejoin:round; stroke-opacity:1.0; stroke-opacity:1.0; stroke-width:0" 
   transform="translate(0 0) scale(1 1)">
<ellipse cx="17750" cy="7000" rx="300" ry="300"  /> 
</g>
<g style="fill:#FFFFFF; fill-opacity:1.0; 
  stroke:#808000; stroke-linecap:round; stroke-linejoin:round; stroke-opacity:1.0; stroke-opacity:1.0; stroke-width:0" 
   transform="translate(0 0) scale(1 1)">
<ellipse cx="17750" cy="7000" rx="200" ry="200"  /> 
</g>
<g style="fill:#808000; fill-opacity:1.0; 
  stroke:#808000; stroke-linecap:round; stroke-linejoin:round; stroke-opacity:1.0; stroke-opacity:1.0; stroke-width:0" 
   transform="translate(0 0) scale(1 1)">
<ellipse cx="17750" cy="6000" rx="300" ry="300"  /> 
</g>
<g style="fill:#FFFFFF; fill-opacity:1.0; 
  stroke:#808000; stroke-linecap:round; stroke-linejoin:round; stroke-opacity:1.0; stroke-opacity:1.0; stroke-width:0" 
   transform="translate(0 0) scale(1 1)">
<ellipse cx="17750" cy="6000" rx="200" ry="200"  /> 
</g>
<g style="fill:#808000; fill-opacity:1.0; 
  stroke:#808000; stroke-linecap:round; stroke-linejoin:round; stroke-opacity:1.0; stroke-opacity:1.0; stroke-width:0" 
   transform="translate(0 0) scale(1 1)">
<polygon style="fill-rule:evenodd; " 
points="18050,14300
17450,14300
17450,13700
18050,13700
" /> 
</g>
<g style="fill:#FFFFFF; fill-opacity:1.0; 
  stroke:#808000; stroke-linecap:round; stroke-linejoin:round; stroke-opacity:1.0; stroke-opacity:1.0; stroke-width:0" 
   transform="translate(0 0) scale(1 1)">
<ellipse cx="17750" cy="14000" rx="200" ry="200"  /> 
</g>
<g style="fill:#808000; fill-opacity:1.0; 
  stroke:#808000; stroke-linecap:round; stroke-linejoin:round; stroke-opacity:1.0; stroke-opacity:1.0; stroke-width:0" 
   transform="translate(0 0) scale(1 1)">
<ellipse cx="17750" cy="13000" rx="300" ry="300"  /> 
</g>
<g style="fill:#FFFFFF; fill-opacity:1.0; 
  stroke:#808000; stroke-linecap:round; stroke-linejoin:round; stroke-opacity:1.0; stroke-opacity:1.0; stroke-width:0" 
   transform="translate(0 0) scale(1 1)">
<ellipse cx="17750" cy="13000" rx="200" ry="200"  /> 
</g>
<g style="fill:#808000; fill-opacity:1.0; 
  stroke:#808000; stroke-linecap:round; stroke-linejoin:round; stroke-opacity:1.0; stroke-opacity:1.0; stroke-width:0" 
   transform="translate(0 0) scale(1 1)">
<ellipse cx="17750" cy="12000" rx="300" ry="300"  /> 
</g>
<g style="fill:#FFFFFF; fill-opacity:1.0; 
  stroke:#808000; stroke-linecap:round; stroke-linejoin:round; stroke-opacity:1.0; stroke-opacity:1.0; stroke-width:0" 
   transform="translate(0 0) scale(1 1)">
<ellipse cx="17750" cy="12000" rx="200" ry="200"  /> 
</g>
<g style="fill:#808000; fill-opacity:1.0; 
  stroke:#808000; stroke-linecap:round; stroke-linejoin:round; stroke-opacity:1.0; stroke-opacity:1.0; stroke-width:0" 
   transform="translate(0 0) scale(1 1)">
<ellipse cx="17750" cy="11000" rx="300" ry="300"  /> 
</g>
<g style="fill:#FFFFFF; fill-opacity:1.0; 
  stroke:#808000; stroke-linecap:round; stroke-linejoin:round; stroke-opacity:1.0; stroke-opacity:1.0; stroke-width:0" 
   transform="translate(0 0) scale(1 1)">
<ellipse cx="17750" cy="11000" rx="200" ry="200"  /> 
</g>
<g style="fill:#808000; fill-opacity:1.0; 
  stroke:#808000; stroke-linecap:round; stroke-linejoin:round; stroke-opacity:1.0; stroke-opacity:1.0; stroke-width:0" 
   transform="translate(0 0) scale(1 1)">
<polygon style="fill-rule:evenodd; " 
points="1450,20950
2050,20950
2050,21550
1450,21550
" /> 
</g>
<g style="fill:#FFFFFF; fill-opacity:1.0; 
  stroke:#808000; stroke-linecap:round; stroke-linejoin:round; stroke-opacity:1.0; stroke-opacity:1.0; stroke-width:0" 
   transform="translate(0 0) scale(1 1)">
<ellipse cx="1750" cy="21250" rx="200" ry="200"  /> 
</g>
<g style="fill:#808000; fill-opacity:1.0; 
  stroke:#808000; stroke-linecap:round; stroke-linejoin:round; stroke-opacity:1.0; stroke-opacity:1.0; stroke-width:0" 
   transform="translate(0 0) scale(1 1)">
<ellipse cx="1750" cy="22250" rx="300" ry="300"  /> 
</g>
<g style="fill:#FFFFFF; fill-opacity:1.0; 
  stroke:#808000; stroke-linecap:round; stroke-linejoin:round; stroke-opacity:1.0; stroke-opacity:1.0; stroke-width:0" 
   transform="translate(0 0) scale(1 1)">
<ellipse cx="1750" cy="22250" rx="200" ry="200"  /> 
</g>
<g style="fill:#808000; fill-opacity:1.0; 
  stroke:#808000; stroke-linecap:round; stroke-linejoin:round; stroke-opacity:1.0; stroke-opacity:1.0; stroke-width:0" 
   transform="translate(0 0) scale(1 1)">
<ellipse cx="1750" cy="23250" rx="300" ry="300"  /> 
</g>
<g style="fill:#FFFFFF; fill-opacity:1.0; 
  stroke:#808000; stroke-linecap:round; stroke-linejoin:round; stroke-opacity:1.0; stroke-opacity:1.0; stroke-width:0" 
   transform="translate(0 0) scale(1 1)">
<ellipse cx="1750" cy="23250" rx="200" ry="200"  /> 
</g>
<g style="fill:#808000; fill-opacity:1.0; 
  stroke:#808000; stroke-linecap:round; stroke-linejoin:round; stroke-opacity:1.0; stroke-opacity:1.0; stroke-width:0" 
   transform="translate(0 0) scale(1 1)">
<polygon style="fill-rule:evenodd; " 
points="2050,19550
1450,19550
1450,18950
2050,18950
" /> 
</g>
<g style="fill:#FFFFFF; fill-opacity:1.0; 
  stroke:#808000; stroke-linecap:round; stroke-linejoin:round; stroke-opacity:1.0; stroke-opacity:1.0; stroke-width:0" 
   transform="translate(0 0) scale(1 1)">
<ellipse cx="1750" cy="19250" rx="200" ry="200"  /> 
</g>
<g style="fill:#808000; fill-opacity:1.0; 
  stroke:#808000; stroke-linecap:round; stroke-linejoin:round; stroke-opacity:1.0; stroke-opacity:1.0; stroke-width:0" 
   transform="translate(0 0) scale(1 1)">
<ellipse cx="1750" cy="18250" rx="300" ry="300"  /> 
</g>
<g style="fill:#FFFFFF; fill-opacity:1.0; 
  stroke:#808000; stroke-linecap:round; stroke-linejoin:round; stroke-opacity:1.0; stroke-opacity:1.0; stroke-width:0" 
   transform="translate(0 0) scale(1 1)">
<ellipse cx="1750" cy="18250" rx="200" ry="200"  /> 
</g>
<g style="fill:#808000; fill-opacity:1.0; 
  stroke:#808000; stroke-linecap:round; stroke-linejoin:round; stroke-opacity:1.0; stroke-opacity:1.0; stroke-width:0" 
   transform="translate(0 0) scale(1 1)">
<ellipse cx="1750" cy="17250" rx="300" ry="300"  /> 
</g>
<g style="fill:#FFFFFF; fill-opacity:1.0; 
  stroke:#808000; stroke-linecap:round; stroke-linejoin:round; stroke-opacity:1.0; stroke-opacity:1.0; stroke-width:0" 
   transform="translate(0 0) scale(1 1)">
<ellipse cx="1750" cy="17250" rx="200" ry="200"  /> 
</g>
<g style="fill:#808000; fill-opacity:1.0; 
  stroke:#808000; stroke-linecap:round; stroke-linejoin:round; stroke-opacity:1.0; stroke-opacity:1.0; stroke-width:0" 
   transform="translate(0 0) scale(1 1)">
<polygon style="fill-rule:evenodd; " 
points="7200,28800
7200,28200
7800,28200
7800,28800
" /> 
</g>
<g style="fill:#FFFFFF; fill-opacity:1.0; 
  stroke:#808000; stroke-linecap:round; stroke-linejoin:round; stroke-opacity:1.0; stroke-opacity:1.0; stroke-width:0" 
   transform="translate(0 0) scale(1 1)">
<ellipse cx="7500" cy="28500" rx="200" ry="200"  /> 
</g>
<g style="fill:#808000; fill-opacity:1.0; 
  stroke:#808000; stroke-linecap:round; stroke-linejoin:round; stroke-opacity:1.0; stroke-opacity:1.0; stroke-width:0" 
   transform="translate(0 0) scale(1 1)">
<ellipse cx="8500" cy="28500" rx="300" ry="300"  /> 
</g>
<g style="fill:#FFFFFF; fill-opacity:1.0; 
  stroke:#808000; stroke-linecap:round; stroke-linejoin:round; stroke-opacity:1.0; stroke-opacity:1.0; stroke-width:0" 
   transform="translate(0 0) scale(1 1)">
<ellipse cx="8500" cy="28500" rx="200" ry="200"  /> 
</g>
<g style="fill:#808000; fill-opacity:1.0; 
  stroke:#808000; stroke-linecap:round; stroke-linejoin:round; stroke-opacity:1.0; stroke-opacity:1.0; stroke-width:0" 
   transform="translate(0 0) scale(1 1)">
<ellipse cx="17750" cy="16750" rx="300" ry="300"  /> 
</g>
<g style="fill:#FFFFFF; fill-opacity:1.0; 
  stroke:#808000; stroke-linecap:round; stroke-linejoin:round; stroke-opacity:1.0; stroke-opacity:1.0; stroke-width:0" 
   transform="translate(0 0) scale(1 1)">
<ellipse cx="17750" cy="16750" rx="160" ry="160"  /> 
</g>
<g style="fill:#808000; fill-opacity:1.0; 
  stroke:#808000; stroke-linecap:round; stroke-linejoin:round; stroke-opacity:1.0; stroke-opacity:1.0; stroke-width:0" 
   transform="translate(0 0) scale(1 1)">
<ellipse cx="17750" cy="17750" rx="300" ry="300"  /> 
</g>
<g style="fill:#FFFFFF; fill-opacity:1.0; 
  stroke:#808000; stroke-linecap:round; stroke-linejoin:round; stroke-opacity:1.0; stroke-opacity:1.0; stroke-width:0" 
   transform="translate(0 0) scale(1 1)">
<ellipse cx="17750" cy="17750" rx="160" ry="160"  /> 
</g>
<g style="fill:#808000; fill-opacity:1.0; 
  stroke:#808000; stroke-linecap:round; stroke-linejoin:round; stroke-opacity:1.0; stroke-opacity:1.0; stroke-width:0" 
   transform="translate(0 0) scale(1 1)">
<ellipse cx="17750" cy="18750" rx="300" ry="300"  /> 
</g>
<g style="fill:#FFFFFF; fill-opacity:1.0; 
  stroke:#808000; stroke-linecap:round; stroke-linejoin:round; stroke-opacity:1.0; stroke-opacity:1.0; stroke-width:0" 
   transform="translate(0 0) scale(1 1)">
<ellipse cx="17750" cy="18750" rx="160" ry="160"  /> 
</g>
<g style="fill:#808000; fill-opacity:1.0; 
  stroke:#808000; stroke-linecap:round; stroke-linejoin:round; stroke-opacity:1.0; stroke-opacity:1.0; stroke-width:0" 
   transform="translate(0 0) scale(1 1)">
<ellipse cx="17750" cy="19750" rx="300" ry="300"  /> 
</g>
<g style="fill:#FFFFFF; fill-opacity:1.0; 
  stroke:#808000; stroke-linecap:round; stroke-linejoin:round; stroke-opacity:1.0; stroke-opacity:1.0; stroke-width:0" 
   transform="translate(0 0) scale(1 1)">
<ellipse cx="17750" cy="19750" rx="160" ry="160"  /> 
</g>
<g style="fill:#808000; fill-opacity:1.0; 
  stroke:#808000; stroke-linecap:round; stroke-linejoin:round; stroke-opacity:1.0; stroke-opacity:1.0; stroke-width:0" 
   transform="translate(0 0) scale(1 1)">
<ellipse cx="17750" cy="20750" rx="300" ry="300"  /> 
</g>
<g style="fill:#FFFFFF; fill-opacity:1.0; 
  stroke:#808000; stroke-linecap:round; stroke-linejoin:round; stroke-opacity:1.0; stroke-opacity:1.0; stroke-width:0" 
   transform="translate(0 0) scale(1 1)">
<ellipse cx="17750" cy="20750" rx="160" ry="160"  /> 
</g>
<g style="fill:#808000; fill-opacity:1.0; 
  stroke:#808000; stroke-linecap:round; stroke-linejoin:round; stroke-opacity:1.0; stroke-opacity:1.0; stroke-width:0" 
   transform="translate(0 0) scale(1 1)">
<ellipse cx="17750" cy="21750" rx="300" ry="300"  /> 
</g>
<g style="fill:#FFFFFF; fill-opacity:1.0; 
  stroke:#808000; stroke-linecap:round; stroke-linejoin:round; stroke-opacity:1.0; stroke-opacity:1.0; stroke-width:0" 
   transform="translate(0 0) scale(1 1)">
<ellipse cx="17750" cy="21750" rx="160" ry="160"  /> 
</g>
<g style="fill:#808000; fill-opacity:1.0; 
  stroke:#808000; stroke-linecap:round; stroke-linejoin:round; stroke-opacity:1.0; stroke-opacity:1.0; stroke-width:0" 
   transform="translate(0 0) scale(1 1)">
<ellipse cx="17750" cy="22750" rx="300" ry="300"  /> 
</g>
<g style="fill:#FFFFFF; fill-opacity:1.0; 
  stroke:#808000; stroke-linecap:round; stroke-linejoin:round; stroke-opacity:1.0; stroke-opacity:1.0; stroke-width:0" 
   transform="translate(0 0) scale(1 1)">
<ellipse cx="17750" cy="22750" rx="160" ry="160"  /> 
</g>
<g style="fill:#808000; fill-opacity:1.0; 
  stroke:#808000; stroke-linecap:round; stroke-linejoin:round; stroke-opacity:1.0; stroke-opacity:1.0; stroke-width:0" 
   transform="translate(0 0) scale(1 1)">
<ellipse cx="17750" cy="23750" rx="300" ry="300"  /> 
</g>
<g style="fill:#FFFFFF; fill-opacity:1.0; 
  stroke:#808000; stroke-linecap:round; stroke-linejoin:round; stroke-opacity:1.0; stroke-opacity:1.0; stroke-width:0" 
   transform="translate(0 0) scale(1 1)">
<ellipse cx="17750" cy="23750" rx="160" ry="160"  /> 
</g>
<g style="fill:#808000; fill-opacity:1.0; 
  stroke:#808000; stroke-linecap:round; stroke-linejoin:round; stroke-opacity:1.0; stroke-opacity:1.0; stroke-width:0" 
   transform="translate(0 0) scale(1 1)">
<polygon style="fill-rule:evenodd; " 
points="1475,27475
2025,27475
2025,28025
1475,28025
" /> 
</g>
<g style="fill:#FFFFFF; fill-opacity:1.0; 
  stroke:#808000; stroke-linecap:round; stroke-linejoin:round; stroke-opacity:1.0; stroke-opacity:1.0; stroke-width:0" 
   transform="translate(0 0) scale(1 1)">
<ellipse cx="1750" cy="27750" rx="160" ry="160"  /> 
</g>
<g style="fill:#808000; fill-opacity:1.0; 
  stroke:#808000; stroke-linecap:round; stroke-linejoin:round; stroke-opacity:1.0; stroke-opacity:1.0; stroke-width:0" 
   transform="translate(0 0) scale(1 1)">
<ellipse cx="1750" cy="26750" rx="275" ry="275"  /> 
</g>
<g style="fill:#FFFFFF; fill-opacity:1.0; 
  stroke:#808000; stroke-linecap:round; stroke-linejoin:round; stroke-opacity:1.0; stroke-opacity:1.0; stroke-width:0" 
   transform="translate(0 0) scale(1 1)">
<ellipse cx="1750" cy="26750" rx="160" ry="160"  /> 
</g>
<g style="fill:#808000; fill-opacity:1.0; 
  stroke:#808000; stroke-linecap:round; stroke-linejoin:round; stroke-opacity:1.0; stroke-opacity:1.0; stroke-width:0" 
   transform="translate(0 0) scale(1 1)">
<ellipse cx="2750" cy="26750" rx="275" ry="275"  /> 
</g>
<g style="fill:#FFFFFF; fill-opacity:1.0; 
  stroke:#808000; stroke-linecap:round; stroke-linejoin:round; stroke-opacity:1.0; stroke-opacity:1.0; stroke-width:0" 
   transform="translate(0 0) scale(1 1)">
<ellipse cx="2750" cy="26750" rx="160" ry="160"  /> 
</g>
<g style="fill:#808000; fill-opacity:1.0; 
  stroke:#808000; stroke-linecap:round; stroke-linejoin:round; stroke-opacity:1.0; stroke-opacity:1.0; stroke-width:0" 
   transform="translate(0 0) scale(1 1)">
<polygon style="fill-rule:evenodd; " 
points="7450,800
7450,200
8050,200
8050,800
" /> 
</g>
<g style="fill:#FFFFFF; fill-opacity:1.0; 
  stroke:#808000; stroke-linecap:round; stroke-linejoin:round; stroke-opacity:1.0; stroke-opacity:1.0; stroke-width:0" 
   transform="translate(0 0) scale(1 1)">
<ellipse cx="7750" cy="500" rx="200" ry="200"  /> 
</g>
<g style="fill:#808000; fill-opacity:1.0; 
  stroke:#808000; stroke-linecap:round; stroke-linejoin:round; stroke-opacity:1.0; stroke-opacity:1.0; stroke-width:0" 
   transform="translate(0 0) scale(1 1)">
<polygon style="fill-rule:evenodd; " 
points="15700,800
15700,200
16300,200
16300,800
" /> 
</g>
<g style="fill:#FFFFFF; fill-opacity:1.0; 
  stroke:#808000; stroke-linecap:round; stroke-linejoin:round; stroke-opacity:1.0; stroke-opacity:1.0; stroke-width:0" 
   transform="translate(0 0) scale(1 1)">
<ellipse cx="16000" cy="500" rx="200" ry="200"  /> 
</g>
<g style="fill:#808000; fill-opacity:1.0; 
  stroke:#808000; stroke-linecap:round; stroke-linejoin:round; stroke-opacity:1.0; stroke-opacity:1.0; stroke-width:0" 
   transform="translate(0 0) scale(1 1)">
<ellipse cx="18003" cy="36733" rx="216" ry="216"  /> 
</g>
<g style="fill:#FFFFFF; fill-opacity:1.0; 
  stroke:#808000; stroke-linecap:round; stroke-linejoin:round; stroke-opacity:1.0; stroke-opacity:1.0; stroke-width:0" 
   transform="translate(0 0) scale(1 1)">
<ellipse cx="18003" cy="36733" rx="216" ry="216"  /> 
</g>
<g style="fill:#808000; fill-opacity:1.0; 
  stroke:#808000; stroke-linecap:round; stroke-linejoin:round; stroke-opacity:1.0; stroke-opacity:1.0; stroke-width:0" 
   transform="translate(0 0) scale(1 1)">
<ellipse cx="18003" cy="28466" rx="315" ry="315"  /> 
</g>
<g style="fill:#FFFFFF; fill-opacity:1.0; 
  stroke:#808000; stroke-linecap:round; stroke-linejoin:round; stroke-opacity:1.0; stroke-opacity:1.0; stroke-width:0" 
   transform="translate(0 0) scale(1 1)">
<ellipse cx="18003" cy="28466" rx="315" ry="315"  /> 
</g>
<g style="fill:#808000; fill-opacity:1.0; 
  stroke:#808000; stroke-linecap:round; stroke-linejoin:round; stroke-opacity:1.0; stroke-opacity:1.0; stroke-width:0" 
   transform="translate(0 0) scale(1 1)">
<ellipse cx="3000" cy="9500" rx="295" ry="295"  /> 
</g>
<g style="fill:#FFFFFF; fill-opacity:1.0; 
  stroke:#808000; stroke-linecap:round; stroke-linejoin:round; stroke-opacity:1.0; stroke-opacity:1.0; stroke-width:0" 
   transform="translate(0 0) scale(1 1)">
<ellipse cx="3000" cy="9500" rx="157" ry="157"  /> 
</g>
<g style="fill:#808000; fill-opacity:1.0; 
  stroke:#808000; stroke-linecap:round; stroke-linejoin:round; stroke-opacity:1.0; stroke-opacity:1.0; stroke-width:0" 
   transform="translate(0 0) scale(1 1)">
<ellipse cx="4000" cy="9500" rx="295" ry="295"  /> 
</g>
<g style="fill:#FFFFFF; fill-opacity:1.0; 
  stroke:#808000; stroke-linecap:round; stroke-linejoin:round; stroke-opacity:1.0; stroke-opacity:1.0; stroke-width:0" 
   transform="translate(0 0) scale(1 1)">
<ellipse cx="4000" cy="9500" rx="157" ry="157"  /> 
</g>
<g style="fill:#808000; fill-opacity:1.0; 
  stroke:#808000; stroke-linecap:round; stroke-linejoin:round; stroke-opacity:1.0; stroke-opacity:1.0; stroke-width:0" 
   transform="translate(0 0) scale(1 1)">
<ellipse cx="5000" cy="9500" rx="295" ry="295"  /> 
</g>
<g style="fill:#FFFFFF; fill-opacity:1.0; 
  stroke:#808000; stroke-linecap:round; stroke-linejoin:round; stroke-opacity:1.0; stroke-opacity:1.0; stroke-width:0" 
   transform="translate(0 0) scale(1 1)">
<ellipse cx="5000" cy="9500" rx="157" ry="157"  /> 
</g>
<g style="fill:#808000; fill-opacity:1.0; 
  stroke:#808000; stroke-linecap:round; stroke-linejoin:round; stroke-opacity:1.0; stroke-opacity:1.0; stroke-width:0" 
   transform="translate(0 0) scale(1 1)">
<ellipse cx="6000" cy="9500" rx="295" ry="295"  /> 
</g>
<g style="fill:#FFFFFF; fill-opacity:1.0; 
  stroke:#808000; stroke-linecap:round; stroke-linejoin:round; stroke-opacity:1.0; stroke-opacity:1.0; stroke-width:0" 
   transform="translate(0 0) scale(1 1)">
<ellipse cx="6000" cy="9500" rx="157" ry="157"  /> 
</g>
<g style="fill:#808000; fill-opacity:1.0; 
  stroke:#808000; stroke-linecap:round; stroke-linejoin:round; stroke-opacity:1.0; stroke-opacity:1.0; stroke-width:0" 
   transform="translate(0 0) scale(1 1)">
<ellipse cx="7000" cy="9500" rx="295" ry="295"  /> 
</g>
<g style="fill:#FFFFFF; fill-opacity:1.0; 
  stroke:#808000; stroke-linecap:round; stroke-linejoin:round; stroke-opacity:1.0; stroke-opacity:1.0; stroke-width:0" 
   transform="translate(0 0) scale(1 1)">
<ellipse cx="7000" cy="9500" rx="157" ry="157"  /> 
</g>
<g style="fill:#808000; fill-opacity:1.0; 
  stroke:#808000; stroke-linecap:round; stroke-linejoin:round; stroke-opacity:1.0; stroke-opacity:1.0; stroke-width:0" 
   transform="translate(0 0) scale(1 1)">
<ellipse cx="8000" cy="9500" rx="295" ry="295"  /> 
</g>
<g style="fill:#FFFFFF; fill-opacity:1.0; 
  stroke:#808000; stroke-linecap:round; stroke-linejoin:round; stroke-opacity:1.0; stroke-opacity:1.0; stroke-width:0" 
   transform="translate(0 0) scale(1 1)">
<ellipse cx="8000" cy="9500" rx="157" ry="157"  /> 
</g>
<g style="fill:#808000; fill-opacity:1.0; 
  stroke:#808000; stroke-linecap:round; stroke-linejoin:round; stroke-opacity:1.0; stroke-opacity:1.0; stroke-width:0" 
   transform="translate(0 0) scale(1 1)">
<ellipse cx="9000" cy="9500" rx="295" ry="295"  /> 
</g>
<g style="fill:#FFFFFF; fill-opacity:1.0; 
  stroke:#808000; stroke-linecap:round; stroke-linejoin:round; stroke-opacity:1.0; stroke-opacity:1.0; stroke-width:0" 
   transform="translate(0 0) scale(1 1)">
<ellipse cx="9000" cy="9500" rx="157" ry="157"  /> 
</g>
<g style="fill:#808000; fill-opacity:1.0; 
  stroke:#808000; stroke-linecap:round; stroke-linejoin:round; stroke-opacity:1.0; stroke-opacity:1.0; stroke-width:0" 
   transform="translate(0 0) scale(1 1)">
<ellipse cx="10000" cy="9500" rx="295" ry="295"  /> 
</g>
<g style="fill:#FFFFFF; fill-opacity:1.0; 
  stroke:#808000; stroke-linecap:round; stroke-linejoin:round; stroke-opacity:1.0; stroke-opacity:1.0; stroke-width:0" 
   transform="translate(0 0) scale(1 1)">
<ellipse cx="10000" cy="9500" rx="157" ry="157"  /> 
</g>
<g style="fill:#808000; fill-opacity:1.0; 
  stroke:#808000; stroke-linecap:round; stroke-linejoin:round; stroke-opacity:1.0; stroke-opacity:1.0; stroke-width:0" 
   transform="translate(0 0) scale(1 1)">
<ellipse cx="11000" cy="9500" rx="295" ry="295"  /> 
</g>
<g style="fill:#FFFFFF; fill-opacity:1.0; 
  stroke:#808000; stroke-linecap:round; stroke-linejoin:round; stroke-opacity:1.0; stroke-opacity:1.0; stroke-width:0" 
   transform="translate(0 0) scale(1 1)">
<ellipse cx="11000" cy="9500" rx="157" ry="157"  /> 
</g>
<g style="fill:#808000; fill-opacity:1.0; 
  stroke:#808000; stroke-linecap:round; stroke-linejoin:round; stroke-opacity:1.0; stroke-opacity:1.0; stroke-width:0" 
   transform="translate(0 0) scale(1 1)">
<ellipse cx="12000" cy="9500" rx="295" ry="295"  /> 
</g>
<g style="fill:#FFFFFF; fill-opacity:1.0; 
  stroke:#808000; stroke-linecap:round; stroke-linejoin:round; stroke-opacity:1.0; stroke-opacity:1.0; stroke-width:0" 
   transform="translate(0 0) scale(1 1)">
<ellipse cx="12000" cy="9500" rx="157" ry="157"  /> 
</g>
<g style="fill:#808000; fill-opacity:1.0; 
  stroke:#808000; stroke-linecap:round; stroke-linejoin:round; stroke-opacity:1.0; stroke-opacity:1.0; stroke-width:0" 
   transform="translate(0 0) scale(1 1)">
<ellipse cx="13000" cy="9500" rx="295" ry="295"  /> 
</g>
<g style="fill:#FFFFFF; fill-opacity:1.0; 
  stroke:#808000; stroke-linecap:round; stroke-linejoin:round; stroke-opacity:1.0; stroke-opacity:1.0; stroke-width:0" 
   transform="translate(0 0) scale(1 1)">
<ellipse cx="13000" cy="9500" rx="157" ry="157"  /> 
</g>
<g style="fill:#808000; fill-opacity:1.0; 
  stroke:#808000; stroke-linecap:round; stroke-linejoin:round; stroke-opacity:1.0; stroke-opacity:1.0; stroke-width:0" 
   transform="translate(0 0) scale(1 1)">
<ellipse cx="14000" cy="9500" rx="295" ry="295"  /> 
</g>
<g style="fill:#FFFFFF; fill-opacity:1.0; 
  stroke:#808000; stroke-linecap:round; stroke-linejoin:round; stroke-opacity:1.0; stroke-opacity:1.0; stroke-width:0" 
   transform="translate(0 0) scale(1 1)">
<ellipse cx="14000" cy="9500" rx="157" ry="157"  /> 
</g>
<g style="fill:#808000; fill-opacity:1.0; 
  stroke:#808000; stroke-linecap:round; stroke-linejoin:round; stroke-opacity:1.0; stroke-opacity:1.0; stroke-width:0" 
   transform="translate(0 0) scale(1 1)">
<ellipse cx="14000" cy="15500" rx="295" ry="295"  /> 
</g>
<g style="fill:#FFFFFF; fill-opacity:1.0; 
  stroke:#808000; stroke-linecap:round; stroke-linejoin:round; stroke-opacity:1.0; stroke-opacity:1.0; stroke-width:0" 
   transform="translate(0 0) scale(1 1)">
<ellipse cx="14000" cy="15500" rx="157" ry="157"  /> 
</g>
<g style="fill:#808000; fill-opacity:1.0; 
  stroke:#808000; stroke-linecap:round; stroke-linejoin:round; stroke-opacity:1.0; stroke-opacity:1.0; stroke-width:0" 
   transform="translate(0 0) scale(1 1)">
<ellipse cx="13000" cy="15500" rx="295" ry="295"  /> 
</g>
<g style="fill:#FFFFFF; fill-opacity:1.0; 
  stroke:#808000; stroke-linecap:round; stroke-linejoin:round; stroke-opacity:1.0; stroke-opacity:1.0; stroke-width:0" 
   transform="translate(0 0) scale(1 1)">
<ellipse cx="13000" cy="15500" rx="157" ry="157"  /> 
</g>
<g style="fill:#808000; fill-opacity:1.0; 
  stroke:#808000; stroke-linecap:round; stroke-linejoin:round; stroke-opacity:1.0; stroke-opacity:1.0; stroke-width:0" 
   transform="translate(0 0) scale(1 1)">
<ellipse cx="12000" cy="15500" rx="295" ry="295"  /> 
</g>
<g style="fill:#FFFFFF; fill-opacity:1.0; 
  stroke:#808000; stroke-linecap:round; stroke-linejoin:round; stroke-opacity:1.0; stroke-opacity:1.0; stroke-width:0" 
   transform="translate(0 0) scale(1 1)">
<ellipse cx="12000" cy="15500" rx="157" ry="157"  /> 
</g>
<g style="fill:#808000; fill-opacity:1.0; 
  stroke:#808000; stroke-linecap:round; stroke-linejoin:round; stroke-opacity:1.0; stroke-opacity:1.0; stroke-width:0" 
   transform="translate(0 0) scale(1 1)">
<ellipse cx="11000" cy="15500" rx="295" ry="295"  /> 
</g>
<g style="fill:#FFFFFF; fill-opacity:1.0; 
  stroke:#808000; stroke-linecap:round; stroke-linejoin:round; stroke-opacity:1.0; stroke-opacity:1.0; stroke-width:0" 
   transform="translate(0 0) scale(1 1)">
<ellipse cx="11000" cy="15500" rx="157" ry="157"  /> 
</g>
<g style="fill:#808000; fill-opacity:1.0; 
  stroke:#808000; stroke-linecap:round; stroke-linejoin:round; stroke-opacity:1.0; stroke-opacity:1.0; stroke-width:0" 
   transform="translate(0 0) scale(1 1)">
<ellipse cx="10000" cy="15500" rx="295" ry="295"  /> 
</g>
<g style="fill:#FFFFFF; fill-opacity:1.0; 
  stroke:#808000; stroke-linecap:round; stroke-linejoin:round; stroke-opacity:1.0; stroke-opacity:1.0; stroke-width:0" 
   transform="translate(0 0) scale(1 1)">
<ellipse cx="10000" cy="15500" rx="157" ry="157"  /> 
</g>
<g style="fill:#808000; fill-opacity:1.0; 
  stroke:#808000; stroke-linecap:round; stroke-linejoin:round; stroke-opacity:1.0; stroke-opacity:1.0; stroke-width:0" 
   transform="translate(0 0) scale(1 1)">
<ellipse cx="9000" cy="15500" rx="295" ry="295"  /> 
</g>
<g style="fill:#FFFFFF; fill-opacity:1.0; 
  stroke:#808000; stroke-linecap:round; stroke-linejoin:round; stroke-opacity:1.0; stroke-opacity:1.0; stroke-width:0" 
   transform="translate(0 0) scale(1 1)">
<ellipse cx="9000" cy="15500" rx="157" ry="157"  /> 
</g>
<g style="fill:#808000; fill-opacity:1.0; 
  stroke:#808000; stroke-linecap:round; stroke-linejoin:round; stroke-opacity:1.0; stroke-opacity:1.0; stroke-width:0" 
   transform="translate(0 0) scale(1 1)">
<ellipse cx="8000" cy="15500" rx="295" ry="295"  /> 
</g>
<g style="fill:#FFFFFF; fill-opacity:1.0; 
  stroke:#808000; stroke-linecap:round; stroke-linejoin:round; stroke-opacity:1.0; stroke-opacity:1.0; stroke-width:0" 
   transform="translate(0 0) scale(1 1)">
<ellipse cx="8000" cy="15500" rx="157" ry="157"  /> 
</g>
<g style="fill:#808000; fill-opacity:1.0; 
  stroke:#808000; stroke-linecap:round; stroke-linejoin:round; stroke-opacity:1.0; stroke-opacity:1.0; stroke-width:0" 
   transform="translate(0 0) scale(1 1)">
<ellipse cx="7000" cy="15500" rx="295" ry="295"  /> 
</g>
<g style="fill:#FFFFFF; fill-opacity:1.0; 
  stroke:#808000; stroke-linecap:round; stroke-linejoin:round; stroke-opacity:1.0; stroke-opacity:1.0; stroke-width:0" 
   transform="translate(0 0) scale(1 1)">
<ellipse cx="7000" cy="15500" rx="157" ry="157"  /> 
</g>
<g style="fill:#808000; fill-opacity:1.0; 
  stroke:#808000; stroke-linecap:round; stroke-linejoin:round; stroke-opacity:1.0; stroke-opacity:1.0; stroke-width:0" 
   transform="translate(0 0) scale(1 1)">
<ellipse cx="6000" cy="15500" rx="295" ry="295"  /> 
</g>
<g style="fill:#FFFFFF; fill-opacity:1.0; 
  stroke:#808000; stroke-linecap:round; stroke-linejoin:round; stroke-opacity:1.0; stroke-opacity:1.0; stroke-width:0" 
   transform="translate(0 0) scale(1 1)">
<ellipse cx="6000" cy="15500" rx="157" ry="157"  /> 
</g>
<g style="fill:#808000; fill-opacity:1.0; 
  stroke:#808000; stroke-linecap:round; stroke-linejoin:round; stroke-opacity:1.0; stroke-opacity:1.0; stroke-width:0" 
   transform="translate(0 0) scale(1 1)">
<ellipse cx="5000" cy="15500" rx="295" ry="295"  /> 
</g>
<g style="fill:#FFFFFF; fill-opacity:1.0; 
  stroke:#808000; stroke-linecap:round; stroke-linejoin:round; stroke-opacity:1.0; stroke-opacity:1.0; stroke-width:0" 
   transform="translate(0 0) scale(1 1)">
<ellipse cx="5000" cy="15500" rx="157" ry="157"  /> 
</g>
<g style="fill:#808000; fill-opacity:1.0; 
  stroke:#808000; stroke-linecap:round; stroke-linejoin:round; stroke-opacity:1.0; stroke-opacity:1.0; stroke-width:0" 
   transform="translate(0 0) scale(1 1)">
<ellipse cx="4000" cy="15500" rx="295" ry="295"  /> 
</g>
<g style="fill:#FFFFFF; fill-opacity:1.0; 
  stroke:#808000; stroke-linecap:round; stroke-linejoin:round; stroke-opacity:1.0; stroke-opacity:1.0; stroke-width:0" 
   transform="translate(0 0) scale(1 1)">
<ellipse cx="4000" cy="15500" rx="157" ry="157"  /> 
</g>
<g style="fill:#808000; fill-opacity:1.0; 
  stroke:#808000; stroke-linecap:round; stroke-linejoin:round; stroke-opacity:1.0; stroke-opacity:1.0; stroke-width:0" 
   transform="translate(0 0) scale(1 1)">
<ellipse cx="3000" cy="15500" rx="295" ry="295"  /> 
</g>
<g style="fill:#FFFFFF; fill-opacity:1.0; 
  stroke:#808000; stroke-linecap:round; stroke-linejoin:round; stroke-opacity:1.0; stroke-opacity:1.0; stroke-width:0" 
   transform="translate(0 0) scale(1 1)">
<ellipse cx="3000" cy="15500" rx="157" ry="157"  /> 
</g>
<g style="fill:#808000; fill-opacity:1.0; 
  stroke:#808000; stroke-linecap:round; stroke-linejoin:round; stroke-opacity:1.0; stroke-opacity:1.0; stroke-width:0" 
   transform="translate(0 0) scale(1 1)">
<polygon style="fill-rule:evenodd; " 
points="16550,23050
15950,23050
15950,22450
16550,22450
" /> 
</g>
<g style="fill:#FFFFFF; fill-opacity:1.0; 
  stroke:#808000; stroke-linecap:round; stroke-linejoin:round; stroke-opacity:1.0; stroke-opacity:1.0; stroke-width:0" 
   transform="translate(0 0) scale(1 1)">
<ellipse cx="16250" cy="22750" rx="200" ry="200"  /> 
</g>
<g style="fill:#808000; fill-opacity:1.0; 
  stroke:#808000; stroke-linecap:round; stroke-linejoin:round; stroke-opacity:1.0; stroke-opacity:1.0; stroke-width:0" 
   transform="translate(0 0) scale(1 1)">
<ellipse cx="16250" cy="21750" rx="300" ry="300"  /> 
</g>
<g style="fill:#FFFFFF; fill-opacity:1.0; 
  stroke:#808000; stroke-linecap:round; stroke-linejoin:round; stroke-opacity:1.0; stroke-opacity:1.0; stroke-width:0" 
   transform="translate(0 0) scale(1 1)">
<ellipse cx="16250" cy="21750" rx="200" ry="200"  /> 
</g>
<g style="fill:#808000; fill-opacity:1.0; 
  stroke:#808000; stroke-linecap:round; stroke-linejoin:round; stroke-opacity:1.0; stroke-opacity:1.0; stroke-width:0" 
   transform="translate(0 0) scale(1 1)">
<ellipse cx="16250" cy="20750" rx="300" ry="300"  /> 
</g>
<g style="fill:#FFFFFF; fill-opacity:1.0; 
  stroke:#808000; stroke-linecap:round; stroke-linejoin:round; stroke-opacity:1.0; stroke-opacity:1.0; stroke-width:0" 
   transform="translate(0 0) scale(1 1)">
<ellipse cx="16250" cy="20750" rx="200" ry="200"  /> 
</g>
<g style="fill:#808000; fill-opacity:1.0; 
  stroke:#808000; stroke-linecap:round; stroke-linejoin:round; stroke-opacity:1.0; stroke-opacity:1.0; stroke-width:0" 
   transform="translate(0 0) scale(1 1)">
<ellipse cx="16250" cy="19750" rx="300" ry="300"  /> 
</g>
<g style="fill:#FFFFFF; fill-opacity:1.0; 
  stroke:#808000; stroke-linecap:round; stroke-linejoin:round; stroke-opacity:1.0; stroke-opacity:1.0; stroke-width:0" 
   transform="translate(0 0) scale(1 1)">
<ellipse cx="16250" cy="19750" rx="200" ry="200"  /> 
</g>
<g style="fill:#808000; fill-opacity:1.0; 
  stroke:#808000; stroke-linecap:round; stroke-linejoin:round; stroke-opacity:1.0; stroke-opacity:1.0; stroke-width:0" 
   transform="translate(0 0) scale(1 1)">
<ellipse cx="16250" cy="18750" rx="300" ry="300"  /> 
</g>
<g style="fill:#FFFFFF; fill-opacity:1.0; 
  stroke:#808000; stroke-linecap:round; stroke-linejoin:round; stroke-opacity:1.0; stroke-opacity:1.0; stroke-width:0" 
   transform="translate(0 0) scale(1 1)">
<ellipse cx="16250" cy="18750" rx="200" ry="200"  /> 
</g> 
</svg> 
