<?xml version="1.0" standalone="no"?>
<!DOCTYPE svg PUBLIC "-//W3C//DTD SVG 1.1//EN" 
"http://www.w3.org/Graphics/SVG/1.1/DTD/svg11.dtd"> 
<svg
  xmlns="http://www.w3.org/2000/svg"
  version="1.1"
  width="11.7in" height="8.267in" viewBox="0 0 117000 82670 "
>
  <title>SVG Picture created as wordclcockV01-Siebdruck - vorderseitig.svg </title>
  <desc>Picture generated by wxSVG v0101 </desc>
  <g style="fill:black; stroke:black; stroke-width:1">
</g>
<g style="fill:#000000; fill-opacity:0.0; 
  stroke:#FFFF00; stroke-linecap:round; stroke-linejoin:round; stroke-opacity:1.0; stroke-opacity:1.0; stroke-width:150" 
   transform="translate(0 0) scale(1 1)">
<path d="M19685 39370 L19685 0" /> 
<path d="M0 39370 L19685 39370" /> 
<path d="M0 0 L0 39370" /> 
<path d="M19685 0 L0 0" /> 
</g>
<g style="fill:#000000; fill-opacity:0.0; 
  stroke:#0000C0; stroke-linecap:round; stroke-linejoin:round; stroke-opacity:1.0; stroke-opacity:1.0; stroke-width:0" 
   transform="translate(0 0) scale(1 1)">
<path d="M2748 17500 L2752 17500" /> 
<path d="M2750 17498 L2750 17502" /> 
</g>
<g style="fill:#C0C0C0; fill-opacity:0.0; 
  stroke:#C0C0C0; stroke-linecap:round; stroke-linejoin:round; stroke-opacity:1.0; stroke-opacity:1.0; stroke-width:45" 
   transform="translate(0 0) scale(1 1)">
<path d="M2812 17529 L2821 17538" /> 
<path d="M2821 17538 L2831 17564" /> 
<path d="M2831 17564 L2831 17581" /> 
<path d="M2831 17581 L2821 17606" /> 
<path d="M2821 17606 L2802 17624" /> 
<path d="M2802 17624 L2783 17632" /> 
<path d="M2783 17632 L2745 17641" /> 
<path d="M2745 17641 L2717 17641" /> 
<path d="M2717 17641 L2679 17632" /> 
<path d="M2679 17632 L2660 17624" /> 
<path d="M2660 17624 L2640 17606" /> 
<path d="M2640 17606 L2631 17581" /> 
<path d="M2631 17581 L2631 17564" /> 
<path d="M2631 17564 L2640 17538" /> 
<path d="M2640 17538 L2650 17529" /> 
<g style = "stroke-linecap:round;" > 
<path d="M2650 17529 L2650 17529" /> 
</g><path d="M2831 17358 L2831 17461" /> 
<g style = "stroke-linecap:round;" > 
<path d="M2831 17461 L2831 17461" /> 
</g><path d="M2831 17409 L2631 17409" /> 
<path d="M2631 17409 L2660 17426" /> 
<path d="M2660 17426 L2679 17444" /> 
<path d="M2679 17444 L2688 17461" /> 
<g style = "stroke-linecap:round;" > 
<path d="M2688 17461 L2688 17461" /> 
</g></g>
<g style="fill:#C0C0C0; fill-opacity:0.0; 
  stroke:#00A0A0; stroke-linecap:round; stroke-linejoin:round; stroke-opacity:1.0; stroke-opacity:1.0; stroke-width:50" 
   transform="translate(0 0) scale(1 1)">
<path d="M2500 17950 L2500 17050" /> 
<path d="M2500 17050 L3000 17050" /> 
<path d="M3000 17050 L3000 17950" /> 
<path d="M3000 17950 L2500 17950" /> 
</g>
<g style="fill:#C0C0C0; fill-opacity:0.0; 
  stroke:#0000C0; stroke-linecap:round; stroke-linejoin:round; stroke-opacity:1.0; stroke-opacity:1.0; stroke-width:0" 
   transform="translate(0 0) scale(1 1)">
<path d="M2748 18750 L2752 18750" /> 
<path d="M2750 18748 L2750 18752" /> 
</g>
<g style="fill:#C0C0C0; fill-opacity:0.0; 
  stroke:#C0C0C0; stroke-linecap:round; stroke-linejoin:round; stroke-opacity:1.0; stroke-opacity:1.0; stroke-width:45" 
   transform="translate(0 0) scale(1 1)">
<path d="M2831 18865 L2736 18925" /> 
<g style = "stroke-linecap:round;" > 
<path d="M2736 18925 L2736 18925" /> 
</g><path d="M2831 18968 L2631 18968" /> 
<path d="M2631 18968 L2631 18900" /> 
<path d="M2631 18900 L2640 18882" /> 
<path d="M2640 18882 L2650 18874" /> 
<path d="M2650 18874 L2669 18865" /> 
<path d="M2669 18865 L2698 18865" /> 
<path d="M2698 18865 L2717 18874" /> 
<path d="M2717 18874 L2726 18882" /> 
<path d="M2726 18882 L2736 18900" /> 
<path d="M2736 18900 L2736 18968" /> 
<g style = "stroke-linecap:round;" > 
<path d="M2736 18968 L2736 18968" /> 
</g><path d="M2831 18694 L2831 18797" /> 
<g style = "stroke-linecap:round;" > 
<path d="M2831 18797 L2831 18797" /> 
</g><path d="M2831 18745 L2631 18745" /> 
<path d="M2631 18745 L2660 18762" /> 
<path d="M2660 18762 L2679 18780" /> 
<path d="M2679 18780 L2688 18797" /> 
<g style = "stroke-linecap:round;" > 
<path d="M2688 18797 L2688 18797" /> 
</g><path d="M2717 18591 L2707 18609" /> 
<path d="M2707 18609 L2698 18617" /> 
<path d="M2698 18617 L2679 18626" /> 
<path d="M2679 18626 L2669 18626" /> 
<path d="M2669 18626 L2650 18617" /> 
<path d="M2650 18617 L2640 18609" /> 
<path d="M2640 18609 L2631 18591" /> 
<path d="M2631 18591 L2631 18557" /> 
<path d="M2631 18557 L2640 18540" /> 
<path d="M2640 18540 L2650 18531" /> 
<path d="M2650 18531 L2669 18523" /> 
<path d="M2669 18523 L2679 18523" /> 
<path d="M2679 18523 L2698 18531" /> 
<path d="M2698 18531 L2707 18540" /> 
<path d="M2707 18540 L2717 18557" /> 
<path d="M2717 18557 L2717 18591" /> 
<path d="M2717 18591 L2726 18609" /> 
<path d="M2726 18609 L2736 18617" /> 
<path d="M2736 18617 L2755 18626" /> 
<path d="M2755 18626 L2793 18626" /> 
<path d="M2793 18626 L2812 18617" /> 
<path d="M2812 18617 L2821 18609" /> 
<path d="M2821 18609 L2831 18591" /> 
<path d="M2831 18591 L2831 18557" /> 
<path d="M2831 18557 L2821 18540" /> 
<path d="M2821 18540 L2812 18531" /> 
<path d="M2812 18531 L2793 18523" /> 
<path d="M2793 18523 L2755 18523" /> 
<path d="M2755 18523 L2736 18531" /> 
<path d="M2736 18531 L2726 18540" /> 
<path d="M2726 18540 L2717 18557" /> 
<g style = "stroke-linecap:round;" > 
<path d="M2717 18557 L2717 18557" /> 
</g></g>
<g style="fill:#C0C0C0; fill-opacity:0.0; 
  stroke:#00A0A0; stroke-linecap:round; stroke-linejoin:round; stroke-opacity:1.0; stroke-opacity:1.0; stroke-width:50" 
   transform="translate(0 0) scale(1 1)">
<path d="M3000 18300 L3000 19200" /> 
<path d="M3000 19200 L2500 19200" /> 
<path d="M2500 19200 L2500 18300" /> 
<path d="M2500 18300 L3000 18300" /> 
</g>
<g style="fill:#C0C0C0; fill-opacity:0.0; 
  stroke:#0000C0; stroke-linecap:round; stroke-linejoin:round; stroke-opacity:1.0; stroke-opacity:1.0; stroke-width:0" 
   transform="translate(0 0) scale(1 1)">
<path d="M14748 33250 L14752 33250" /> 
<path d="M14750 33248 L14750 33252" /> 
</g>
<g style="fill:#C0C0C0; fill-opacity:0.0; 
  stroke:#C0C0C0; stroke-linecap:round; stroke-linejoin:round; stroke-opacity:1.0; stroke-opacity:1.0; stroke-width:45" 
   transform="translate(0 0) scale(1 1)">
<path d="M14635 33331 L14575 33236" /> 
<g style = "stroke-linecap:round;" > 
<path d="M14575 33236 L14575 33236" /> 
</g><path d="M14532 33331 L14532 33131" /> 
<path d="M14532 33131 L14600 33131" /> 
<path d="M14600 33131 L14618 33140" /> 
<path d="M14618 33140 L14626 33150" /> 
<path d="M14626 33150 L14635 33169" /> 
<path d="M14635 33169 L14635 33198" /> 
<path d="M14635 33198 L14626 33217" /> 
<path d="M14626 33217 L14618 33226" /> 
<path d="M14618 33226 L14600 33236" /> 
<path d="M14600 33236 L14532 33236" /> 
<g style = "stroke-linecap:round;" > 
<path d="M14532 33236 L14532 33236" /> 
</g><path d="M14806 33331 L14703 33331" /> 
<g style = "stroke-linecap:round;" > 
<path d="M14703 33331 L14703 33331" /> 
</g><path d="M14755 33331 L14755 33131" /> 
<path d="M14755 33131 L14738 33160" /> 
<path d="M14738 33160 L14720 33179" /> 
<path d="M14720 33179 L14703 33188" /> 
<g style = "stroke-linecap:round;" > 
<path d="M14703 33188 L14703 33188" /> 
</g><path d="M14866 33131 L14986 33131" /> 
<path d="M14986 33131 L14909 33331" /> 
<g style = "stroke-linecap:round;" > 
<path d="M14909 33331 L14909 33331" /> 
</g></g>
<g style="fill:#C0C0C0; fill-opacity:0.0; 
  stroke:#00A0A0; stroke-linecap:round; stroke-linejoin:round; stroke-opacity:1.0; stroke-opacity:1.0; stroke-width:50" 
   transform="translate(0 0) scale(1 1)">
<path d="M15200 33500 L14300 33500" /> 
<path d="M14300 33500 L14300 33000" /> 
<path d="M14300 33000 L15200 33000" /> 
<path d="M15200 33000 L15200 33500" /> 
</g>
<g style="fill:#C0C0C0; fill-opacity:0.0; 
  stroke:#0000C0; stroke-linecap:round; stroke-linejoin:round; stroke-opacity:1.0; stroke-opacity:1.0; stroke-width:0" 
   transform="translate(0 0) scale(1 1)">
<path d="M14998 30500 L15002 30500" /> 
<path d="M15000 30498 L15000 30502" /> 
</g>
<g style="fill:#C0C0C0; fill-opacity:0.0; 
  stroke:#C0C0C0; stroke-linecap:round; stroke-linejoin:round; stroke-opacity:1.0; stroke-opacity:1.0; stroke-width:45" 
   transform="translate(0 0) scale(1 1)">
<path d="M14885 30581 L14825 30486" /> 
<g style = "stroke-linecap:round;" > 
<path d="M14825 30486 L14825 30486" /> 
</g><path d="M14782 30581 L14782 30381" /> 
<path d="M14782 30381 L14850 30381" /> 
<path d="M14850 30381 L14868 30390" /> 
<path d="M14868 30390 L14876 30400" /> 
<path d="M14876 30400 L14885 30419" /> 
<path d="M14885 30419 L14885 30448" /> 
<path d="M14885 30448 L14876 30467" /> 
<path d="M14876 30467 L14868 30476" /> 
<path d="M14868 30476 L14850 30486" /> 
<path d="M14850 30486 L14782 30486" /> 
<g style = "stroke-linecap:round;" > 
<path d="M14782 30486 L14782 30486" /> 
</g><path d="M15056 30581 L14953 30581" /> 
<g style = "stroke-linecap:round;" > 
<path d="M14953 30581 L14953 30581" /> 
</g><path d="M15005 30581 L15005 30381" /> 
<path d="M15005 30381 L14988 30410" /> 
<path d="M14988 30410 L14970 30429" /> 
<path d="M14970 30429 L14953 30438" /> 
<g style = "stroke-linecap:round;" > 
<path d="M14953 30438 L14953 30438" /> 
</g><path d="M15210 30381 L15176 30381" /> 
<path d="M15176 30381 L15159 30390" /> 
<path d="M15159 30390 L15150 30400" /> 
<path d="M15150 30400 L15133 30429" /> 
<path d="M15133 30429 L15124 30467" /> 
<path d="M15124 30467 L15124 30543" /> 
<path d="M15124 30543 L15133 30562" /> 
<path d="M15133 30562 L15141 30571" /> 
<path d="M15141 30571 L15159 30581" /> 
<path d="M15159 30581 L15193 30581" /> 
<path d="M15193 30581 L15210 30571" /> 
<path d="M15210 30571 L15219 30562" /> 
<path d="M15219 30562 L15227 30543" /> 
<path d="M15227 30543 L15227 30495" /> 
<path d="M15227 30495 L15219 30476" /> 
<path d="M15219 30476 L15210 30467" /> 
<path d="M15210 30467 L15193 30457" /> 
<path d="M15193 30457 L15159 30457" /> 
<path d="M15159 30457 L15141 30467" /> 
<path d="M15141 30467 L15133 30476" /> 
<path d="M15133 30476 L15124 30495" /> 
<g style = "stroke-linecap:round;" > 
<path d="M15124 30495 L15124 30495" /> 
</g></g>
<g style="fill:#C0C0C0; fill-opacity:0.0; 
  stroke:#00A0A0; stroke-linecap:round; stroke-linejoin:round; stroke-opacity:1.0; stroke-opacity:1.0; stroke-width:50" 
   transform="translate(0 0) scale(1 1)">
<path d="M15450 30750 L14550 30750" /> 
<path d="M14550 30750 L14550 30250" /> 
<path d="M14550 30250 L15450 30250" /> 
<path d="M15450 30250 L15450 30750" /> 
</g>
<g style="fill:#C0C0C0; fill-opacity:0.0; 
  stroke:#0000C0; stroke-linecap:round; stroke-linejoin:round; stroke-opacity:1.0; stroke-opacity:1.0; stroke-width:0" 
   transform="translate(0 0) scale(1 1)">
<path d="M14873 36625 L14877 36625" /> 
<path d="M14875 36623 L14875 36627" /> 
</g>
<g style="fill:#C0C0C0; fill-opacity:0.0; 
  stroke:#C0C0C0; stroke-linecap:round; stroke-linejoin:round; stroke-opacity:1.0; stroke-opacity:1.0; stroke-width:45" 
   transform="translate(0 0) scale(1 1)">
<path d="M14760 36706 L14700 36611" /> 
<g style = "stroke-linecap:round;" > 
<path d="M14700 36611 L14700 36611" /> 
</g><path d="M14657 36706 L14657 36506" /> 
<path d="M14657 36506 L14725 36506" /> 
<path d="M14725 36506 L14743 36515" /> 
<path d="M14743 36515 L14751 36525" /> 
<path d="M14751 36525 L14760 36544" /> 
<path d="M14760 36544 L14760 36573" /> 
<path d="M14760 36573 L14751 36592" /> 
<path d="M14751 36592 L14743 36601" /> 
<path d="M14743 36601 L14725 36611" /> 
<path d="M14725 36611 L14657 36611" /> 
<g style = "stroke-linecap:round;" > 
<path d="M14657 36611 L14657 36611" /> 
</g><path d="M14931 36706 L14828 36706" /> 
<g style = "stroke-linecap:round;" > 
<path d="M14828 36706 L14828 36706" /> 
</g><path d="M14880 36706 L14880 36506" /> 
<path d="M14880 36506 L14863 36535" /> 
<path d="M14863 36535 L14845 36554" /> 
<path d="M14845 36554 L14828 36563" /> 
<g style = "stroke-linecap:round;" > 
<path d="M14828 36563 L14828 36563" /> 
</g><path d="M15094 36506 L15008 36506" /> 
<path d="M15008 36506 L14999 36601" /> 
<path d="M14999 36601 L15008 36592" /> 
<path d="M15008 36592 L15025 36582" /> 
<path d="M15025 36582 L15068 36582" /> 
<path d="M15068 36582 L15085 36592" /> 
<path d="M15085 36592 L15094 36601" /> 
<path d="M15094 36601 L15102 36620" /> 
<path d="M15102 36620 L15102 36668" /> 
<path d="M15102 36668 L15094 36687" /> 
<path d="M15094 36687 L15085 36696" /> 
<path d="M15085 36696 L15068 36706" /> 
<path d="M15068 36706 L15025 36706" /> 
<path d="M15025 36706 L15008 36696" /> 
<path d="M15008 36696 L14999 36687" /> 
<g style = "stroke-linecap:round;" > 
<path d="M14999 36687 L14999 36687" /> 
</g></g>
<g style="fill:#C0C0C0; fill-opacity:0.0; 
  stroke:#00A0A0; stroke-linecap:round; stroke-linejoin:round; stroke-opacity:1.0; stroke-opacity:1.0; stroke-width:50" 
   transform="translate(0 0) scale(1 1)">
<path d="M15325 36875 L14425 36875" /> 
<path d="M14425 36875 L14425 36375" /> 
<path d="M14425 36375 L15325 36375" /> 
<path d="M15325 36375 L15325 36875" /> 
</g>
<g style="fill:#C0C0C0; fill-opacity:0.0; 
  stroke:#0000C0; stroke-linecap:round; stroke-linejoin:round; stroke-opacity:1.0; stroke-opacity:1.0; stroke-width:0" 
   transform="translate(0 0) scale(1 1)">
<path d="M15873 36875 L15877 36875" /> 
<path d="M15875 36873 L15875 36877" /> 
</g>
<g style="fill:#C0C0C0; fill-opacity:0.0; 
  stroke:#C0C0C0; stroke-linecap:round; stroke-linejoin:round; stroke-opacity:1.0; stroke-opacity:1.0; stroke-width:45" 
   transform="translate(0 0) scale(1 1)">
<path d="M15956 36990 L15861 37050" /> 
<g style = "stroke-linecap:round;" > 
<path d="M15861 37050 L15861 37050" /> 
</g><path d="M15956 37093 L15756 37093" /> 
<path d="M15756 37093 L15756 37025" /> 
<path d="M15756 37025 L15765 37007" /> 
<path d="M15765 37007 L15775 36999" /> 
<path d="M15775 36999 L15794 36990" /> 
<path d="M15794 36990 L15823 36990" /> 
<path d="M15823 36990 L15842 36999" /> 
<path d="M15842 36999 L15851 37007" /> 
<path d="M15851 37007 L15861 37025" /> 
<path d="M15861 37025 L15861 37093" /> 
<g style = "stroke-linecap:round;" > 
<path d="M15861 37093 L15861 37093" /> 
</g><path d="M15956 36819 L15956 36922" /> 
<g style = "stroke-linecap:round;" > 
<path d="M15956 36922 L15956 36922" /> 
</g><path d="M15956 36870 L15756 36870" /> 
<path d="M15756 36870 L15785 36887" /> 
<path d="M15785 36887 L15804 36905" /> 
<path d="M15804 36905 L15813 36922" /> 
<g style = "stroke-linecap:round;" > 
<path d="M15813 36922 L15813 36922" /> 
</g><path d="M15823 36665 L15956 36665" /> 
<g style = "stroke-linecap:round;" > 
<path d="M15956 36665 L15956 36665" /> 
</g><path d="M15746 36708 L15889 36751" /> 
<path d="M15889 36751 L15889 36639" /> 
<g style = "stroke-linecap:round;" > 
<path d="M15889 36639 L15889 36639" /> 
</g></g>
<g style="fill:#C0C0C0; fill-opacity:0.0; 
  stroke:#00A0A0; stroke-linecap:round; stroke-linejoin:round; stroke-opacity:1.0; stroke-opacity:1.0; stroke-width:50" 
   transform="translate(0 0) scale(1 1)">
<path d="M15625 37325 L15625 36425" /> 
<path d="M15625 36425 L16125 36425" /> 
<path d="M16125 36425 L16125 37325" /> 
<path d="M16125 37325 L15625 37325" /> 
</g>
<g style="fill:#C0C0C0; fill-opacity:0.0; 
  stroke:#0000C0; stroke-linecap:round; stroke-linejoin:round; stroke-opacity:1.0; stroke-opacity:1.0; stroke-width:0" 
   transform="translate(0 0) scale(1 1)">
<path d="M15873 30875 L15877 30875" /> 
<path d="M15875 30873 L15875 30877" /> 
</g>
<g style="fill:#C0C0C0; fill-opacity:0.0; 
  stroke:#C0C0C0; stroke-linecap:round; stroke-linejoin:round; stroke-opacity:1.0; stroke-opacity:1.0; stroke-width:45" 
   transform="translate(0 0) scale(1 1)">
<path d="M15956 30990 L15861 31050" /> 
<g style = "stroke-linecap:round;" > 
<path d="M15861 31050 L15861 31050" /> 
</g><path d="M15956 31093 L15756 31093" /> 
<path d="M15756 31093 L15756 31025" /> 
<path d="M15756 31025 L15765 31007" /> 
<path d="M15765 31007 L15775 30999" /> 
<path d="M15775 30999 L15794 30990" /> 
<path d="M15794 30990 L15823 30990" /> 
<path d="M15823 30990 L15842 30999" /> 
<path d="M15842 30999 L15851 31007" /> 
<path d="M15851 31007 L15861 31025" /> 
<path d="M15861 31025 L15861 31093" /> 
<g style = "stroke-linecap:round;" > 
<path d="M15861 31093 L15861 31093" /> 
</g><path d="M15956 30819 L15956 30922" /> 
<g style = "stroke-linecap:round;" > 
<path d="M15956 30922 L15956 30922" /> 
</g><path d="M15956 30870 L15756 30870" /> 
<path d="M15756 30870 L15785 30887" /> 
<path d="M15785 30887 L15804 30905" /> 
<path d="M15804 30905 L15813 30922" /> 
<g style = "stroke-linecap:round;" > 
<path d="M15813 30922 L15813 30922" /> 
</g><path d="M15756 30759 L15756 30648" /> 
<path d="M15756 30648 L15832 30708" /> 
<path d="M15832 30708 L15832 30682" /> 
<path d="M15832 30682 L15842 30665" /> 
<path d="M15842 30665 L15851 30656" /> 
<path d="M15851 30656 L15870 30648" /> 
<path d="M15870 30648 L15918 30648" /> 
<path d="M15918 30648 L15937 30656" /> 
<path d="M15937 30656 L15946 30665" /> 
<path d="M15946 30665 L15956 30682" /> 
<path d="M15956 30682 L15956 30734" /> 
<path d="M15956 30734 L15946 30751" /> 
<path d="M15946 30751 L15937 30759" /> 
<g style = "stroke-linecap:round;" > 
<path d="M15937 30759 L15937 30759" /> 
</g></g>
<g style="fill:#C0C0C0; fill-opacity:0.0; 
  stroke:#00A0A0; stroke-linecap:round; stroke-linejoin:round; stroke-opacity:1.0; stroke-opacity:1.0; stroke-width:50" 
   transform="translate(0 0) scale(1 1)">
<path d="M15625 31325 L15625 30425" /> 
<path d="M15625 30425 L16125 30425" /> 
<path d="M16125 30425 L16125 31325" /> 
<path d="M16125 31325 L15625 31325" /> 
</g>
<g style="fill:#C0C0C0; fill-opacity:0.0; 
  stroke:#0000C0; stroke-linecap:round; stroke-linejoin:round; stroke-opacity:1.0; stroke-opacity:1.0; stroke-width:0" 
   transform="translate(0 0) scale(1 1)">
<path d="M15873 33625 L15877 33625" /> 
<path d="M15875 33623 L15875 33627" /> 
</g>
<g style="fill:#C0C0C0; fill-opacity:0.0; 
  stroke:#C0C0C0; stroke-linecap:round; stroke-linejoin:round; stroke-opacity:1.0; stroke-opacity:1.0; stroke-width:45" 
   transform="translate(0 0) scale(1 1)">
<path d="M15956 33740 L15861 33800" /> 
<g style = "stroke-linecap:round;" > 
<path d="M15861 33800 L15861 33800" /> 
</g><path d="M15956 33843 L15756 33843" /> 
<path d="M15756 33843 L15756 33775" /> 
<path d="M15756 33775 L15765 33757" /> 
<path d="M15765 33757 L15775 33749" /> 
<path d="M15775 33749 L15794 33740" /> 
<path d="M15794 33740 L15823 33740" /> 
<path d="M15823 33740 L15842 33749" /> 
<path d="M15842 33749 L15851 33757" /> 
<path d="M15851 33757 L15861 33775" /> 
<path d="M15861 33775 L15861 33843" /> 
<g style = "stroke-linecap:round;" > 
<path d="M15861 33843 L15861 33843" /> 
</g><path d="M15956 33569 L15956 33672" /> 
<g style = "stroke-linecap:round;" > 
<path d="M15956 33672 L15956 33672" /> 
</g><path d="M15956 33620 L15756 33620" /> 
<path d="M15756 33620 L15785 33637" /> 
<path d="M15785 33637 L15804 33655" /> 
<path d="M15804 33655 L15813 33672" /> 
<g style = "stroke-linecap:round;" > 
<path d="M15813 33672 L15813 33672" /> 
</g><path d="M15775 33501 L15765 33492" /> 
<path d="M15765 33492 L15756 33475" /> 
<path d="M15756 33475 L15756 33432" /> 
<path d="M15756 33432 L15765 33415" /> 
<path d="M15765 33415 L15775 33406" /> 
<path d="M15775 33406 L15794 33398" /> 
<path d="M15794 33398 L15813 33398" /> 
<path d="M15813 33398 L15842 33406" /> 
<path d="M15842 33406 L15956 33509" /> 
<path d="M15956 33509 L15956 33398" /> 
<g style = "stroke-linecap:round;" > 
<path d="M15956 33398 L15956 33398" /> 
</g></g>
<g style="fill:#C0C0C0; fill-opacity:0.0; 
  stroke:#00A0A0; stroke-linecap:round; stroke-linejoin:round; stroke-opacity:1.0; stroke-opacity:1.0; stroke-width:50" 
   transform="translate(0 0) scale(1 1)">
<path d="M15625 34075 L15625 33175" /> 
<path d="M15625 33175 L16125 33175" /> 
<path d="M16125 33175 L16125 34075" /> 
<path d="M16125 34075 L15625 34075" /> 
</g>
<g style="fill:#C0C0C0; fill-opacity:0.0; 
  stroke:#0000C0; stroke-linecap:round; stroke-linejoin:round; stroke-opacity:1.0; stroke-opacity:1.0; stroke-width:0" 
   transform="translate(0 0) scale(1 1)">
<path d="M7748 3750 L7752 3750" /> 
<path d="M7750 3748 L7750 3752" /> 
</g>
<g style="fill:#C0C0C0; fill-opacity:0.0; 
  stroke:#C0C0C0; stroke-linecap:round; stroke-linejoin:round; stroke-opacity:1.0; stroke-opacity:1.0; stroke-width:45" 
   transform="translate(0 0) scale(1 1)">
<path d="M7635 3831 L7575 3736" /> 
<g style = "stroke-linecap:round;" > 
<path d="M7575 3736 L7575 3736" /> 
</g><path d="M7532 3831 L7532 3631" /> 
<path d="M7532 3631 L7600 3631" /> 
<path d="M7600 3631 L7618 3640" /> 
<path d="M7618 3640 L7626 3650" /> 
<path d="M7626 3650 L7635 3669" /> 
<path d="M7635 3669 L7635 3698" /> 
<path d="M7635 3698 L7626 3717" /> 
<path d="M7626 3717 L7618 3726" /> 
<path d="M7618 3726 L7600 3736" /> 
<path d="M7600 3736 L7532 3736" /> 
<g style = "stroke-linecap:round;" > 
<path d="M7532 3736 L7532 3736" /> 
</g><path d="M7806 3831 L7703 3831" /> 
<g style = "stroke-linecap:round;" > 
<path d="M7703 3831 L7703 3831" /> 
</g><path d="M7755 3831 L7755 3631" /> 
<path d="M7755 3631 L7738 3660" /> 
<path d="M7738 3660 L7720 3679" /> 
<path d="M7720 3679 L7703 3688" /> 
<g style = "stroke-linecap:round;" > 
<path d="M7703 3688 L7703 3688" /> 
</g><path d="M7977 3831 L7874 3831" /> 
<g style = "stroke-linecap:round;" > 
<path d="M7874 3831 L7874 3831" /> 
</g><path d="M7926 3831 L7926 3631" /> 
<path d="M7926 3631 L7909 3660" /> 
<path d="M7909 3660 L7891 3679" /> 
<path d="M7891 3679 L7874 3688" /> 
<g style = "stroke-linecap:round;" > 
<path d="M7874 3688 L7874 3688" /> 
</g></g>
<g style="fill:#C0C0C0; fill-opacity:0.0; 
  stroke:#00A0A0; stroke-linecap:round; stroke-linejoin:round; stroke-opacity:1.0; stroke-opacity:1.0; stroke-width:50" 
   transform="translate(0 0) scale(1 1)">
<path d="M7300 3500 L8200 3500" /> 
<path d="M8200 3500 L8200 4000" /> 
<path d="M8200 4000 L7300 4000" /> 
<path d="M7300 4000 L7300 3500" /> 
</g>
<g style="fill:#C0C0C0; fill-opacity:0.0; 
  stroke:#0000C0; stroke-linecap:round; stroke-linejoin:round; stroke-opacity:1.0; stroke-opacity:1.0; stroke-width:0" 
   transform="translate(0 0) scale(1 1)">
<path d="M7748 2250 L7752 2250" /> 
<path d="M7750 2248 L7750 2252" /> 
</g>
<g style="fill:#C0C0C0; fill-opacity:0.0; 
  stroke:#C0C0C0; stroke-linecap:round; stroke-linejoin:round; stroke-opacity:1.0; stroke-opacity:1.0; stroke-width:45" 
   transform="translate(0 0) scale(1 1)">
<path d="M7635 2331 L7575 2236" /> 
<g style = "stroke-linecap:round;" > 
<path d="M7575 2236 L7575 2236" /> 
</g><path d="M7532 2331 L7532 2131" /> 
<path d="M7532 2131 L7600 2131" /> 
<path d="M7600 2131 L7618 2140" /> 
<path d="M7618 2140 L7626 2150" /> 
<path d="M7626 2150 L7635 2169" /> 
<path d="M7635 2169 L7635 2198" /> 
<path d="M7635 2198 L7626 2217" /> 
<path d="M7626 2217 L7618 2226" /> 
<path d="M7618 2226 L7600 2236" /> 
<path d="M7600 2236 L7532 2236" /> 
<g style = "stroke-linecap:round;" > 
<path d="M7532 2236 L7532 2236" /> 
</g><path d="M7806 2331 L7703 2331" /> 
<g style = "stroke-linecap:round;" > 
<path d="M7703 2331 L7703 2331" /> 
</g><path d="M7755 2331 L7755 2131" /> 
<path d="M7755 2131 L7738 2160" /> 
<path d="M7738 2160 L7720 2179" /> 
<path d="M7720 2179 L7703 2188" /> 
<g style = "stroke-linecap:round;" > 
<path d="M7703 2188 L7703 2188" /> 
</g><path d="M7917 2131 L7934 2131" /> 
<path d="M7934 2131 L7951 2140" /> 
<path d="M7951 2140 L7960 2150" /> 
<path d="M7960 2150 L7969 2169" /> 
<path d="M7969 2169 L7977 2207" /> 
<path d="M7977 2207 L7977 2255" /> 
<path d="M7977 2255 L7969 2293" /> 
<path d="M7969 2293 L7960 2312" /> 
<path d="M7960 2312 L7951 2321" /> 
<path d="M7951 2321 L7934 2331" /> 
<path d="M7934 2331 L7917 2331" /> 
<path d="M7917 2331 L7900 2321" /> 
<path d="M7900 2321 L7891 2312" /> 
<path d="M7891 2312 L7883 2293" /> 
<path d="M7883 2293 L7874 2255" /> 
<path d="M7874 2255 L7874 2207" /> 
<path d="M7874 2207 L7883 2169" /> 
<path d="M7883 2169 L7891 2150" /> 
<path d="M7891 2150 L7900 2140" /> 
<path d="M7900 2140 L7917 2131" /> 
</g>
<g style="fill:#C0C0C0; fill-opacity:0.0; 
  stroke:#00A0A0; stroke-linecap:round; stroke-linejoin:round; stroke-opacity:1.0; stroke-opacity:1.0; stroke-width:50" 
   transform="translate(0 0) scale(1 1)">
<path d="M7300 2000 L8200 2000" /> 
<path d="M8200 2000 L8200 2500" /> 
<path d="M8200 2500 L7300 2500" /> 
<path d="M7300 2500 L7300 2000" /> 
</g>
<g style="fill:#C0C0C0; fill-opacity:0.0; 
  stroke:#0000C0; stroke-linecap:round; stroke-linejoin:round; stroke-opacity:1.0; stroke-opacity:1.0; stroke-width:0" 
   transform="translate(0 0) scale(1 1)">
<path d="M7748 1500 L7752 1500" /> 
<path d="M7750 1498 L7750 1502" /> 
</g>
<g style="fill:#C0C0C0; fill-opacity:0.0; 
  stroke:#C0C0C0; stroke-linecap:round; stroke-linejoin:round; stroke-opacity:1.0; stroke-opacity:1.0; stroke-width:45" 
   transform="translate(0 0) scale(1 1)">
<path d="M7721 1581 L7661 1486" /> 
<g style = "stroke-linecap:round;" > 
<path d="M7661 1486 L7661 1486" /> 
</g><path d="M7618 1581 L7618 1381" /> 
<path d="M7618 1381 L7686 1381" /> 
<path d="M7686 1381 L7704 1390" /> 
<path d="M7704 1390 L7712 1400" /> 
<path d="M7712 1400 L7721 1419" /> 
<path d="M7721 1419 L7721 1448" /> 
<path d="M7721 1448 L7712 1467" /> 
<path d="M7712 1467 L7704 1476" /> 
<path d="M7704 1476 L7686 1486" /> 
<path d="M7686 1486 L7618 1486" /> 
<g style = "stroke-linecap:round;" > 
<path d="M7618 1486 L7618 1486" /> 
</g><path d="M7806 1581 L7841 1581" /> 
<path d="M7841 1581 L7858 1571" /> 
<path d="M7858 1571 L7866 1562" /> 
<path d="M7866 1562 L7884 1533" /> 
<path d="M7884 1533 L7892 1495" /> 
<path d="M7892 1495 L7892 1419" /> 
<path d="M7892 1419 L7884 1400" /> 
<path d="M7884 1400 L7875 1390" /> 
<path d="M7875 1390 L7858 1381" /> 
<path d="M7858 1381 L7824 1381" /> 
<path d="M7824 1381 L7806 1390" /> 
<path d="M7806 1390 L7798 1400" /> 
<path d="M7798 1400 L7789 1419" /> 
<path d="M7789 1419 L7789 1467" /> 
<path d="M7789 1467 L7798 1486" /> 
<path d="M7798 1486 L7806 1495" /> 
<path d="M7806 1495 L7824 1505" /> 
<path d="M7824 1505 L7858 1505" /> 
<path d="M7858 1505 L7875 1495" /> 
<path d="M7875 1495 L7884 1486" /> 
<path d="M7884 1486 L7892 1467" /> 
<g style = "stroke-linecap:round;" > 
<path d="M7892 1467 L7892 1467" /> 
</g></g>
<g style="fill:#C0C0C0; fill-opacity:0.0; 
  stroke:#00A0A0; stroke-linecap:round; stroke-linejoin:round; stroke-opacity:1.0; stroke-opacity:1.0; stroke-width:50" 
   transform="translate(0 0) scale(1 1)">
<path d="M7300 1250 L8200 1250" /> 
<path d="M8200 1250 L8200 1750" /> 
<path d="M8200 1750 L7300 1750" /> 
<path d="M7300 1750 L7300 1250" /> 
</g>
<g style="fill:#C0C0C0; fill-opacity:0.0; 
  stroke:#0000C0; stroke-linecap:round; stroke-linejoin:round; stroke-opacity:1.0; stroke-opacity:1.0; stroke-width:0" 
   transform="translate(0 0) scale(1 1)">
<path d="M15998 3750 L16002 3750" /> 
<path d="M16000 3748 L16000 3752" /> 
</g>
<g style="fill:#C0C0C0; fill-opacity:0.0; 
  stroke:#C0C0C0; stroke-linecap:round; stroke-linejoin:round; stroke-opacity:1.0; stroke-opacity:1.0; stroke-width:45" 
   transform="translate(0 0) scale(1 1)">
<path d="M15971 3831 L15911 3736" /> 
<g style = "stroke-linecap:round;" > 
<path d="M15911 3736 L15911 3736" /> 
</g><path d="M15868 3831 L15868 3631" /> 
<path d="M15868 3631 L15936 3631" /> 
<path d="M15936 3631 L15954 3640" /> 
<path d="M15954 3640 L15962 3650" /> 
<path d="M15962 3650 L15971 3669" /> 
<path d="M15971 3669 L15971 3698" /> 
<path d="M15971 3698 L15962 3717" /> 
<path d="M15962 3717 L15954 3726" /> 
<path d="M15954 3726 L15936 3736" /> 
<path d="M15936 3736 L15868 3736" /> 
<g style = "stroke-linecap:round;" > 
<path d="M15868 3736 L15868 3736" /> 
</g><path d="M16074 3717 L16056 3707" /> 
<path d="M16056 3707 L16048 3698" /> 
<path d="M16048 3698 L16039 3679" /> 
<path d="M16039 3679 L16039 3669" /> 
<path d="M16039 3669 L16048 3650" /> 
<path d="M16048 3650 L16056 3640" /> 
<path d="M16056 3640 L16074 3631" /> 
<path d="M16074 3631 L16108 3631" /> 
<path d="M16108 3631 L16125 3640" /> 
<path d="M16125 3640 L16134 3650" /> 
<path d="M16134 3650 L16142 3669" /> 
<path d="M16142 3669 L16142 3679" /> 
<path d="M16142 3679 L16134 3698" /> 
<path d="M16134 3698 L16125 3707" /> 
<path d="M16125 3707 L16108 3717" /> 
<path d="M16108 3717 L16074 3717" /> 
<path d="M16074 3717 L16056 3726" /> 
<path d="M16056 3726 L16048 3736" /> 
<path d="M16048 3736 L16039 3755" /> 
<path d="M16039 3755 L16039 3793" /> 
<path d="M16039 3793 L16048 3812" /> 
<path d="M16048 3812 L16056 3821" /> 
<path d="M16056 3821 L16074 3831" /> 
<path d="M16074 3831 L16108 3831" /> 
<path d="M16108 3831 L16125 3821" /> 
<path d="M16125 3821 L16134 3812" /> 
<path d="M16134 3812 L16142 3793" /> 
<path d="M16142 3793 L16142 3755" /> 
<path d="M16142 3755 L16134 3736" /> 
<path d="M16134 3736 L16125 3726" /> 
<path d="M16125 3726 L16108 3717" /> 
<g style = "stroke-linecap:round;" > 
<path d="M16108 3717 L16108 3717" /> 
</g></g>
<g style="fill:#C0C0C0; fill-opacity:0.0; 
  stroke:#00A0A0; stroke-linecap:round; stroke-linejoin:round; stroke-opacity:1.0; stroke-opacity:1.0; stroke-width:50" 
   transform="translate(0 0) scale(1 1)">
<path d="M15550 3500 L16450 3500" /> 
<path d="M16450 3500 L16450 4000" /> 
<path d="M16450 4000 L15550 4000" /> 
<path d="M15550 4000 L15550 3500" /> 
</g>
<g style="fill:#C0C0C0; fill-opacity:0.0; 
  stroke:#0000C0; stroke-linecap:round; stroke-linejoin:round; stroke-opacity:1.0; stroke-opacity:1.0; stroke-width:0" 
   transform="translate(0 0) scale(1 1)">
<path d="M15998 2250 L16002 2250" /> 
<path d="M16000 2248 L16000 2252" /> 
</g>
<g style="fill:#C0C0C0; fill-opacity:0.0; 
  stroke:#C0C0C0; stroke-linecap:round; stroke-linejoin:round; stroke-opacity:1.0; stroke-opacity:1.0; stroke-width:45" 
   transform="translate(0 0) scale(1 1)">
<path d="M15971 2331 L15911 2236" /> 
<g style = "stroke-linecap:round;" > 
<path d="M15911 2236 L15911 2236" /> 
</g><path d="M15868 2331 L15868 2131" /> 
<path d="M15868 2131 L15936 2131" /> 
<path d="M15936 2131 L15954 2140" /> 
<path d="M15954 2140 L15962 2150" /> 
<path d="M15962 2150 L15971 2169" /> 
<path d="M15971 2169 L15971 2198" /> 
<path d="M15971 2198 L15962 2217" /> 
<path d="M15962 2217 L15954 2226" /> 
<path d="M15954 2226 L15936 2236" /> 
<path d="M15936 2236 L15868 2236" /> 
<g style = "stroke-linecap:round;" > 
<path d="M15868 2236 L15868 2236" /> 
</g><path d="M16031 2131 L16151 2131" /> 
<path d="M16151 2131 L16074 2331" /> 
<g style = "stroke-linecap:round;" > 
<path d="M16074 2331 L16074 2331" /> 
</g></g>
<g style="fill:#C0C0C0; fill-opacity:0.0; 
  stroke:#00A0A0; stroke-linecap:round; stroke-linejoin:round; stroke-opacity:1.0; stroke-opacity:1.0; stroke-width:50" 
   transform="translate(0 0) scale(1 1)">
<path d="M15550 2000 L16450 2000" /> 
<path d="M16450 2000 L16450 2500" /> 
<path d="M16450 2500 L15550 2500" /> 
<path d="M15550 2500 L15550 2000" /> 
</g>
<g style="fill:#C0C0C0; fill-opacity:0.0; 
  stroke:#0000C0; stroke-linecap:round; stroke-linejoin:round; stroke-opacity:1.0; stroke-opacity:1.0; stroke-width:0" 
   transform="translate(0 0) scale(1 1)">
<path d="M5123 20375 L5127 20375" /> 
<path d="M5125 20373 L5125 20377" /> 
</g>
<g style="fill:#C0C0C0; fill-opacity:0.0; 
  stroke:#C0C0C0; stroke-linecap:round; stroke-linejoin:round; stroke-opacity:1.0; stroke-opacity:1.0; stroke-width:45" 
   transform="translate(0 0) scale(1 1)">
<path d="M5206 20404 L5111 20464" /> 
<g style = "stroke-linecap:round;" > 
<path d="M5111 20464 L5111 20464" /> 
</g><path d="M5206 20507 L5006 20507" /> 
<path d="M5006 20507 L5006 20439" /> 
<path d="M5006 20439 L5015 20421" /> 
<path d="M5015 20421 L5025 20413" /> 
<path d="M5025 20413 L5044 20404" /> 
<path d="M5044 20404 L5073 20404" /> 
<path d="M5073 20404 L5092 20413" /> 
<path d="M5092 20413 L5101 20421" /> 
<path d="M5101 20421 L5111 20439" /> 
<path d="M5111 20439 L5111 20507" /> 
<g style = "stroke-linecap:round;" > 
<path d="M5111 20507 L5111 20507" /> 
</g><path d="M5006 20241 L5006 20327" /> 
<path d="M5006 20327 L5101 20336" /> 
<path d="M5101 20336 L5092 20327" /> 
<path d="M5092 20327 L5082 20310" /> 
<path d="M5082 20310 L5082 20267" /> 
<path d="M5082 20267 L5092 20250" /> 
<path d="M5092 20250 L5101 20241" /> 
<path d="M5101 20241 L5120 20233" /> 
<path d="M5120 20233 L5168 20233" /> 
<path d="M5168 20233 L5187 20241" /> 
<path d="M5187 20241 L5196 20250" /> 
<path d="M5196 20250 L5206 20267" /> 
<path d="M5206 20267 L5206 20310" /> 
<path d="M5206 20310 L5196 20327" /> 
<path d="M5196 20327 L5187 20336" /> 
<g style = "stroke-linecap:round;" > 
<path d="M5187 20336 L5187 20336" /> 
</g></g>
<g style="fill:#C0C0C0; fill-opacity:0.0; 
  stroke:#00A0A0; stroke-linecap:round; stroke-linejoin:round; stroke-opacity:1.0; stroke-opacity:1.0; stroke-width:50" 
   transform="translate(0 0) scale(1 1)">
<path d="M4875 20825 L4875 19925" /> 
<path d="M4875 19925 L5375 19925" /> 
<path d="M5375 19925 L5375 20825" /> 
<path d="M5375 20825 L4875 20825" /> 
</g>
<g style="fill:#C0C0C0; fill-opacity:0.0; 
  stroke:#0000C0; stroke-linecap:round; stroke-linejoin:round; stroke-opacity:1.0; stroke-opacity:1.0; stroke-width:0" 
   transform="translate(0 0) scale(1 1)">
<path d="M5123 26375 L5127 26375" /> 
<path d="M5125 26373 L5125 26377" /> 
</g>
<g style="fill:#C0C0C0; fill-opacity:0.0; 
  stroke:#C0C0C0; stroke-linecap:round; stroke-linejoin:round; stroke-opacity:1.0; stroke-opacity:1.0; stroke-width:45" 
   transform="translate(0 0) scale(1 1)">
<path d="M5206 26404 L5111 26464" /> 
<g style = "stroke-linecap:round;" > 
<path d="M5111 26464 L5111 26464" /> 
</g><path d="M5206 26507 L5006 26507" /> 
<path d="M5006 26507 L5006 26439" /> 
<path d="M5006 26439 L5015 26421" /> 
<path d="M5015 26421 L5025 26413" /> 
<path d="M5025 26413 L5044 26404" /> 
<path d="M5044 26404 L5073 26404" /> 
<path d="M5073 26404 L5092 26413" /> 
<path d="M5092 26413 L5101 26421" /> 
<path d="M5101 26421 L5111 26439" /> 
<path d="M5111 26439 L5111 26507" /> 
<g style = "stroke-linecap:round;" > 
<path d="M5111 26507 L5111 26507" /> 
</g><path d="M5073 26250 L5206 26250" /> 
<g style = "stroke-linecap:round;" > 
<path d="M5206 26250 L5206 26250" /> 
</g><path d="M4996 26293 L5139 26336" /> 
<path d="M5139 26336 L5139 26224" /> 
<g style = "stroke-linecap:round;" > 
<path d="M5139 26224 L5139 26224" /> 
</g></g>
<g style="fill:#C0C0C0; fill-opacity:0.0; 
  stroke:#00A0A0; stroke-linecap:round; stroke-linejoin:round; stroke-opacity:1.0; stroke-opacity:1.0; stroke-width:50" 
   transform="translate(0 0) scale(1 1)">
<path d="M4875 26825 L4875 25925" /> 
<path d="M4875 25925 L5375 25925" /> 
<path d="M5375 25925 L5375 26825" /> 
<path d="M5375 26825 L4875 26825" /> 
</g>
<g style="fill:#C0C0C0; fill-opacity:0.0; 
  stroke:#0000C0; stroke-linecap:round; stroke-linejoin:round; stroke-opacity:1.0; stroke-opacity:1.0; stroke-width:0" 
   transform="translate(0 0) scale(1 1)">
<path d="M5123 23375 L5127 23375" /> 
<path d="M5125 23373 L5125 23377" /> 
</g>
<g style="fill:#C0C0C0; fill-opacity:0.0; 
  stroke:#C0C0C0; stroke-linecap:round; stroke-linejoin:round; stroke-opacity:1.0; stroke-opacity:1.0; stroke-width:45" 
   transform="translate(0 0) scale(1 1)">
<path d="M5206 23404 L5111 23464" /> 
<g style = "stroke-linecap:round;" > 
<path d="M5111 23464 L5111 23464" /> 
</g><path d="M5206 23507 L5006 23507" /> 
<path d="M5006 23507 L5006 23439" /> 
<path d="M5006 23439 L5015 23421" /> 
<path d="M5015 23421 L5025 23413" /> 
<path d="M5025 23413 L5044 23404" /> 
<path d="M5044 23404 L5073 23404" /> 
<path d="M5073 23404 L5092 23413" /> 
<path d="M5092 23413 L5101 23421" /> 
<path d="M5101 23421 L5111 23439" /> 
<path d="M5111 23439 L5111 23507" /> 
<g style = "stroke-linecap:round;" > 
<path d="M5111 23507 L5111 23507" /> 
</g><path d="M5006 23344 L5006 23233" /> 
<path d="M5006 23233 L5082 23293" /> 
<path d="M5082 23293 L5082 23267" /> 
<path d="M5082 23267 L5092 23250" /> 
<path d="M5092 23250 L5101 23241" /> 
<path d="M5101 23241 L5120 23233" /> 
<path d="M5120 23233 L5168 23233" /> 
<path d="M5168 23233 L5187 23241" /> 
<path d="M5187 23241 L5196 23250" /> 
<path d="M5196 23250 L5206 23267" /> 
<path d="M5206 23267 L5206 23319" /> 
<path d="M5206 23319 L5196 23336" /> 
<path d="M5196 23336 L5187 23344" /> 
<g style = "stroke-linecap:round;" > 
<path d="M5187 23344 L5187 23344" /> 
</g></g>
<g style="fill:#C0C0C0; fill-opacity:0.0; 
  stroke:#00A0A0; stroke-linecap:round; stroke-linejoin:round; stroke-opacity:1.0; stroke-opacity:1.0; stroke-width:50" 
   transform="translate(0 0) scale(1 1)">
<path d="M4875 23825 L4875 22925" /> 
<path d="M4875 22925 L5375 22925" /> 
<path d="M5375 22925 L5375 23825" /> 
<path d="M5375 23825 L4875 23825" /> 
</g>
<g style="fill:#C0C0C0; fill-opacity:0.0; 
  stroke:#0000C0; stroke-linecap:round; stroke-linejoin:round; stroke-opacity:1.0; stroke-opacity:1.0; stroke-width:0" 
   transform="translate(0 0) scale(1 1)">
<path d="M4498 18750 L4502 18750" /> 
<path d="M4500 18748 L4500 18752" /> 
</g>
<g style="fill:#C0C0C0; fill-opacity:0.0; 
  stroke:#C0C0C0; stroke-linecap:round; stroke-linejoin:round; stroke-opacity:1.0; stroke-opacity:1.0; stroke-width:45" 
   transform="translate(0 0) scale(1 1)">
<path d="M4471 18831 L4411 18736" /> 
<g style = "stroke-linecap:round;" > 
<path d="M4411 18736 L4411 18736" /> 
</g><path d="M4368 18831 L4368 18631" /> 
<path d="M4368 18631 L4436 18631" /> 
<path d="M4436 18631 L4454 18640" /> 
<path d="M4454 18640 L4462 18650" /> 
<path d="M4462 18650 L4471 18669" /> 
<path d="M4471 18669 L4471 18698" /> 
<path d="M4471 18698 L4462 18717" /> 
<path d="M4462 18717 L4454 18726" /> 
<path d="M4454 18726 L4436 18736" /> 
<path d="M4436 18736 L4368 18736" /> 
<g style = "stroke-linecap:round;" > 
<path d="M4368 18736 L4368 18736" /> 
</g><path d="M4642 18831 L4539 18831" /> 
<g style = "stroke-linecap:round;" > 
<path d="M4539 18831 L4539 18831" /> 
</g><path d="M4591 18831 L4591 18631" /> 
<path d="M4591 18631 L4574 18660" /> 
<path d="M4574 18660 L4556 18679" /> 
<path d="M4556 18679 L4539 18688" /> 
<g style = "stroke-linecap:round;" > 
<path d="M4539 18688 L4539 18688" /> 
</g></g>
<g style="fill:#C0C0C0; fill-opacity:0.0; 
  stroke:#00A0A0; stroke-linecap:round; stroke-linejoin:round; stroke-opacity:1.0; stroke-opacity:1.0; stroke-width:50" 
   transform="translate(0 0) scale(1 1)">
<path d="M4050 18500 L4950 18500" /> 
<path d="M4950 18500 L4950 19000" /> 
<path d="M4950 19000 L4050 19000" /> 
<path d="M4050 19000 L4050 18500" /> 
</g>
<g style="fill:#C0C0C0; fill-opacity:0.0; 
  stroke:#0000C0; stroke-linecap:round; stroke-linejoin:round; stroke-opacity:1.0; stroke-opacity:1.0; stroke-width:0" 
   transform="translate(0 0) scale(1 1)">
<path d="M15998 1500 L16002 1500" /> 
<path d="M16000 1498 L16000 1502" /> 
</g>
<g style="fill:#C0C0C0; fill-opacity:0.0; 
  stroke:#C0C0C0; stroke-linecap:round; stroke-linejoin:round; stroke-opacity:1.0; stroke-opacity:1.0; stroke-width:45" 
   transform="translate(0 0) scale(1 1)">
<path d="M15971 1581 L15911 1486" /> 
<g style = "stroke-linecap:round;" > 
<path d="M15911 1486 L15911 1486" /> 
</g><path d="M15868 1581 L15868 1381" /> 
<path d="M15868 1381 L15936 1381" /> 
<path d="M15936 1381 L15954 1390" /> 
<path d="M15954 1390 L15962 1400" /> 
<path d="M15962 1400 L15971 1419" /> 
<path d="M15971 1419 L15971 1448" /> 
<path d="M15971 1448 L15962 1467" /> 
<path d="M15962 1467 L15954 1476" /> 
<path d="M15954 1476 L15936 1486" /> 
<path d="M15936 1486 L15868 1486" /> 
<g style = "stroke-linecap:round;" > 
<path d="M15868 1486 L15868 1486" /> 
</g><path d="M16125 1381 L16091 1381" /> 
<path d="M16091 1381 L16074 1390" /> 
<path d="M16074 1390 L16065 1400" /> 
<path d="M16065 1400 L16048 1429" /> 
<path d="M16048 1429 L16039 1467" /> 
<path d="M16039 1467 L16039 1543" /> 
<path d="M16039 1543 L16048 1562" /> 
<path d="M16048 1562 L16056 1571" /> 
<path d="M16056 1571 L16074 1581" /> 
<path d="M16074 1581 L16108 1581" /> 
<path d="M16108 1581 L16125 1571" /> 
<path d="M16125 1571 L16134 1562" /> 
<path d="M16134 1562 L16142 1543" /> 
<path d="M16142 1543 L16142 1495" /> 
<path d="M16142 1495 L16134 1476" /> 
<path d="M16134 1476 L16125 1467" /> 
<path d="M16125 1467 L16108 1457" /> 
<path d="M16108 1457 L16074 1457" /> 
<path d="M16074 1457 L16056 1467" /> 
<path d="M16056 1467 L16048 1476" /> 
<path d="M16048 1476 L16039 1495" /> 
<g style = "stroke-linecap:round;" > 
<path d="M16039 1495 L16039 1495" /> 
</g></g>
<g style="fill:#C0C0C0; fill-opacity:0.0; 
  stroke:#00A0A0; stroke-linecap:round; stroke-linejoin:round; stroke-opacity:1.0; stroke-opacity:1.0; stroke-width:50" 
   transform="translate(0 0) scale(1 1)">
<path d="M15550 1250 L16450 1250" /> 
<path d="M16450 1250 L16450 1750" /> 
<path d="M16450 1750 L15550 1750" /> 
<path d="M15550 1750 L15550 1250" /> 
</g>
<g style="fill:#C0C0C0; fill-opacity:0.0; 
  stroke:#0000C0; stroke-linecap:round; stroke-linejoin:round; stroke-opacity:1.0; stroke-opacity:1.0; stroke-width:0" 
   transform="translate(0 0) scale(1 1)">
<path d="M16498 2600 L16502 2600" /> 
<path d="M16500 2598 L16500 2602" /> 
</g>
<g style="fill:#C0C0C0; fill-opacity:0.0; 
  stroke:#C0C0C0; stroke-linecap:round; stroke-linejoin:round; stroke-opacity:1.0; stroke-opacity:1.0; stroke-width:50" 
   transform="translate(0 0) scale(1 1)">
<path d="M16353 2681 L16353 2481" /> 
<path d="M16353 2481 L16400 2481" /> 
<path d="M16400 2481 L16429 2490" /> 
<path d="M16429 2490 L16448 2510" /> 
<path d="M16448 2510 L16457 2529" /> 
<path d="M16457 2529 L16467 2567" /> 
<path d="M16467 2567 L16467 2595" /> 
<path d="M16467 2595 L16457 2633" /> 
<path d="M16457 2633 L16448 2652" /> 
<path d="M16448 2652 L16429 2671" /> 
<path d="M16429 2671 L16400 2681" /> 
<path d="M16400 2681 L16353 2681" /> 
<path d="M16657 2681 L16543 2681" /> 
<g style = "stroke-linecap:round;" > 
<path d="M16543 2681 L16543 2681" /> 
</g><path d="M16600 2681 L16600 2481" /> 
<path d="M16600 2481 L16581 2510" /> 
<path d="M16581 2510 L16562 2529" /> 
<path d="M16562 2529 L16543 2538" /> 
<g style = "stroke-linecap:round;" > 
<path d="M16543 2538 L16543 2538" /> 
</g></g>
<g style="fill:#C0C0C0; fill-opacity:0.0; 
  stroke:#0000C0; stroke-linecap:round; stroke-linejoin:round; stroke-opacity:1.0; stroke-opacity:1.0; stroke-width:0" 
   transform="translate(0 0) scale(1 1)">
<path d="M16498 3400 L16502 3400" /> 
<path d="M16500 3398 L16500 3402" /> 
</g>
<g style="fill:#C0C0C0; fill-opacity:0.0; 
  stroke:#C0C0C0; stroke-linecap:round; stroke-linejoin:round; stroke-opacity:1.0; stroke-opacity:1.0; stroke-width:50" 
   transform="translate(0 0) scale(1 1)">
<path d="M16372 3481 L16277 3481" /> 
<path d="M16277 3481 L16277 3281" /> 
<g style = "stroke-linecap:round;" > 
<path d="M16277 3281 L16277 3281" /> 
</g><path d="M16439 3376 L16505 3376" /> 
<g style = "stroke-linecap:round;" > 
<path d="M16505 3376 L16505 3376" /> 
</g><path d="M16534 3481 L16439 3481" /> 
<path d="M16439 3481 L16439 3281" /> 
<path d="M16439 3281 L16534 3281" /> 
<g style = "stroke-linecap:round;" > 
<path d="M16534 3281 L16534 3281" /> 
</g><path d="M16620 3481 L16620 3281" /> 
<path d="M16620 3281 L16667 3281" /> 
<path d="M16667 3281 L16696 3290" /> 
<path d="M16696 3290 L16715 3310" /> 
<path d="M16715 3310 L16724 3329" /> 
<path d="M16724 3329 L16734 3367" /> 
<path d="M16734 3367 L16734 3395" /> 
<path d="M16734 3395 L16724 3433" /> 
<path d="M16724 3433 L16715 3452" /> 
<path d="M16715 3452 L16696 3471" /> 
<path d="M16696 3471 L16667 3481" /> 
<path d="M16667 3481 L16620 3481" /> 
</g>
<g style="fill:#C0C0C0; fill-opacity:0.0; 
  stroke:#00A0A0; stroke-linecap:round; stroke-linejoin:round; stroke-opacity:1.0; stroke-opacity:1.0; stroke-width:26" 
   transform="translate(0 0) scale(1 1)">
<path d="M16677 2823 L16677 3177" /> 
<path d="M16677 3177 L16834 3177" /> 
<path d="M16834 2823 L16834 3177" /> 
<path d="M16677 2823 L16834 2823" /> 
<path d="M16166 2823 L16166 3177" /> 
<path d="M16166 3177 L16323 3177" /> 
<path d="M16323 2823 L16323 3177" /> 
<path d="M16166 2823 L16323 2823" /> 
<path d="M16500 2823 L16500 2882" /> 
<path d="M16500 2882 L16618 2882" /> 
<path d="M16618 2823 L16618 2882" /> 
<path d="M16500 2823 L16618 2823" /> 
<path d="M16500 3118 L16500 3177" /> 
<path d="M16500 3177 L16618 3177" /> 
<path d="M16618 3118 L16618 3177" /> 
<path d="M16500 3118 L16618 3118" /> 
<path d="M16500 2941 L16500 3059" /> 
<path d="M16500 3059 L16618 3059" /> 
<path d="M16618 2941 L16618 3059" /> 
<path d="M16500 2941 L16618 2941" /> 
</g>
<g style="fill:#C0C0C0; fill-opacity:0.0; 
  stroke:#00A0A0; stroke-linecap:round; stroke-linejoin:round; stroke-opacity:1.0; stroke-opacity:1.0; stroke-width:40" 
   transform="translate(0 0) scale(1 1)">
<path d="M16677 2843 L16323 2843" /> 
<path d="M16677 3157 L16323 3157" /> 
</g>
<g style="fill:#C0C0C0; fill-opacity:0.0; 
  stroke:#0000C0; stroke-linecap:round; stroke-linejoin:round; stroke-opacity:1.0; stroke-opacity:1.0; stroke-width:0" 
   transform="translate(0 0) scale(1 1)">
<path d="M16498 4100 L16502 4100" /> 
<path d="M16500 4098 L16500 4102" /> 
</g>
<g style="fill:#C0C0C0; fill-opacity:0.0; 
  stroke:#C0C0C0; stroke-linecap:round; stroke-linejoin:round; stroke-opacity:1.0; stroke-opacity:1.0; stroke-width:50" 
   transform="translate(0 0) scale(1 1)">
<path d="M16353 4181 L16353 3981" /> 
<path d="M16353 3981 L16400 3981" /> 
<path d="M16400 3981 L16429 3990" /> 
<path d="M16429 3990 L16448 4010" /> 
<path d="M16448 4010 L16457 4029" /> 
<path d="M16457 4029 L16467 4067" /> 
<path d="M16467 4067 L16467 4095" /> 
<path d="M16467 4095 L16457 4133" /> 
<path d="M16457 4133 L16448 4152" /> 
<path d="M16448 4152 L16429 4171" /> 
<path d="M16429 4171 L16400 4181" /> 
<path d="M16400 4181 L16353 4181" /> 
<path d="M16543 4000 L16553 3990" /> 
<path d="M16553 3990 L16572 3981" /> 
<path d="M16572 3981 L16619 3981" /> 
<path d="M16619 3981 L16638 3990" /> 
<path d="M16638 3990 L16648 4000" /> 
<path d="M16648 4000 L16657 4019" /> 
<path d="M16657 4019 L16657 4038" /> 
<path d="M16657 4038 L16648 4067" /> 
<path d="M16648 4067 L16534 4181" /> 
<path d="M16534 4181 L16657 4181" /> 
<g style = "stroke-linecap:round;" > 
<path d="M16657 4181 L16657 4181" /> 
</g></g>
<g style="fill:#C0C0C0; fill-opacity:0.0; 
  stroke:#0000C0; stroke-linecap:round; stroke-linejoin:round; stroke-opacity:1.0; stroke-opacity:1.0; stroke-width:0" 
   transform="translate(0 0) scale(1 1)">
<path d="M16498 4900 L16502 4900" /> 
<path d="M16500 4898 L16500 4902" /> 
</g>
<g style="fill:#C0C0C0; fill-opacity:0.0; 
  stroke:#C0C0C0; stroke-linecap:round; stroke-linejoin:round; stroke-opacity:1.0; stroke-opacity:1.0; stroke-width:50" 
   transform="translate(0 0) scale(1 1)">
<path d="M16372 4981 L16277 4981" /> 
<path d="M16277 4981 L16277 4781" /> 
<g style = "stroke-linecap:round;" > 
<path d="M16277 4781 L16277 4781" /> 
</g><path d="M16439 4876 L16505 4876" /> 
<g style = "stroke-linecap:round;" > 
<path d="M16505 4876 L16505 4876" /> 
</g><path d="M16534 4981 L16439 4981" /> 
<path d="M16439 4981 L16439 4781" /> 
<path d="M16439 4781 L16534 4781" /> 
<g style = "stroke-linecap:round;" > 
<path d="M16534 4781 L16534 4781" /> 
</g><path d="M16620 4981 L16620 4781" /> 
<path d="M16620 4781 L16667 4781" /> 
<path d="M16667 4781 L16696 4790" /> 
<path d="M16696 4790 L16715 4810" /> 
<path d="M16715 4810 L16724 4829" /> 
<path d="M16724 4829 L16734 4867" /> 
<path d="M16734 4867 L16734 4895" /> 
<path d="M16734 4895 L16724 4933" /> 
<path d="M16724 4933 L16715 4952" /> 
<path d="M16715 4952 L16696 4971" /> 
<path d="M16696 4971 L16667 4981" /> 
<path d="M16667 4981 L16620 4981" /> 
</g>
<g style="fill:#C0C0C0; fill-opacity:0.0; 
  stroke:#00A0A0; stroke-linecap:round; stroke-linejoin:round; stroke-opacity:1.0; stroke-opacity:1.0; stroke-width:26" 
   transform="translate(0 0) scale(1 1)">
<path d="M16677 4323 L16677 4677" /> 
<path d="M16677 4677 L16834 4677" /> 
<path d="M16834 4323 L16834 4677" /> 
<path d="M16677 4323 L16834 4323" /> 
<path d="M16166 4323 L16166 4677" /> 
<path d="M16166 4677 L16323 4677" /> 
<path d="M16323 4323 L16323 4677" /> 
<path d="M16166 4323 L16323 4323" /> 
<path d="M16500 4323 L16500 4382" /> 
<path d="M16500 4382 L16618 4382" /> 
<path d="M16618 4323 L16618 4382" /> 
<path d="M16500 4323 L16618 4323" /> 
<path d="M16500 4618 L16500 4677" /> 
<path d="M16500 4677 L16618 4677" /> 
<path d="M16618 4618 L16618 4677" /> 
<path d="M16500 4618 L16618 4618" /> 
<path d="M16500 4441 L16500 4559" /> 
<path d="M16500 4559 L16618 4559" /> 
<path d="M16618 4441 L16618 4559" /> 
<path d="M16500 4441 L16618 4441" /> 
</g>
<g style="fill:#C0C0C0; fill-opacity:0.0; 
  stroke:#00A0A0; stroke-linecap:round; stroke-linejoin:round; stroke-opacity:1.0; stroke-opacity:1.0; stroke-width:40" 
   transform="translate(0 0) scale(1 1)">
<path d="M16677 4343 L16323 4343" /> 
<path d="M16677 4657 L16323 4657" /> 
</g>
<g style="fill:#C0C0C0; fill-opacity:0.0; 
  stroke:#0000C0; stroke-linecap:round; stroke-linejoin:round; stroke-opacity:1.0; stroke-opacity:1.0; stroke-width:0" 
   transform="translate(0 0) scale(1 1)">
<path d="M8248 2600 L8252 2600" /> 
<path d="M8250 2598 L8250 2602" /> 
</g>
<g style="fill:#C0C0C0; fill-opacity:0.0; 
  stroke:#C0C0C0; stroke-linecap:round; stroke-linejoin:round; stroke-opacity:1.0; stroke-opacity:1.0; stroke-width:50" 
   transform="translate(0 0) scale(1 1)">
<path d="M8103 2681 L8103 2481" /> 
<path d="M8103 2481 L8150 2481" /> 
<path d="M8150 2481 L8179 2490" /> 
<path d="M8179 2490 L8198 2510" /> 
<path d="M8198 2510 L8207 2529" /> 
<path d="M8207 2529 L8217 2567" /> 
<path d="M8217 2567 L8217 2595" /> 
<path d="M8217 2595 L8207 2633" /> 
<path d="M8207 2633 L8198 2652" /> 
<path d="M8198 2652 L8179 2671" /> 
<path d="M8179 2671 L8150 2681" /> 
<path d="M8150 2681 L8103 2681" /> 
<path d="M8284 2481 L8407 2481" /> 
<path d="M8407 2481 L8341 2557" /> 
<path d="M8341 2557 L8369 2557" /> 
<path d="M8369 2557 L8388 2567" /> 
<path d="M8388 2567 L8398 2576" /> 
<path d="M8398 2576 L8407 2595" /> 
<path d="M8407 2595 L8407 2643" /> 
<path d="M8407 2643 L8398 2662" /> 
<path d="M8398 2662 L8388 2671" /> 
<path d="M8388 2671 L8369 2681" /> 
<path d="M8369 2681 L8312 2681" /> 
<path d="M8312 2681 L8293 2671" /> 
<path d="M8293 2671 L8284 2662" /> 
<g style = "stroke-linecap:round;" > 
<path d="M8284 2662 L8284 2662" /> 
</g></g>
<g style="fill:#C0C0C0; fill-opacity:0.0; 
  stroke:#0000C0; stroke-linecap:round; stroke-linejoin:round; stroke-opacity:1.0; stroke-opacity:1.0; stroke-width:0" 
   transform="translate(0 0) scale(1 1)">
<path d="M8248 3400 L8252 3400" /> 
<path d="M8250 3398 L8250 3402" /> 
</g>
<g style="fill:#C0C0C0; fill-opacity:0.0; 
  stroke:#C0C0C0; stroke-linecap:round; stroke-linejoin:round; stroke-opacity:1.0; stroke-opacity:1.0; stroke-width:50" 
   transform="translate(0 0) scale(1 1)">
<path d="M8122 3481 L8027 3481" /> 
<path d="M8027 3481 L8027 3281" /> 
<g style = "stroke-linecap:round;" > 
<path d="M8027 3281 L8027 3281" /> 
</g><path d="M8189 3376 L8255 3376" /> 
<g style = "stroke-linecap:round;" > 
<path d="M8255 3376 L8255 3376" /> 
</g><path d="M8284 3481 L8189 3481" /> 
<path d="M8189 3481 L8189 3281" /> 
<path d="M8189 3281 L8284 3281" /> 
<g style = "stroke-linecap:round;" > 
<path d="M8284 3281 L8284 3281" /> 
</g><path d="M8370 3481 L8370 3281" /> 
<path d="M8370 3281 L8417 3281" /> 
<path d="M8417 3281 L8446 3290" /> 
<path d="M8446 3290 L8465 3310" /> 
<path d="M8465 3310 L8474 3329" /> 
<path d="M8474 3329 L8484 3367" /> 
<path d="M8484 3367 L8484 3395" /> 
<path d="M8484 3395 L8474 3433" /> 
<path d="M8474 3433 L8465 3452" /> 
<path d="M8465 3452 L8446 3471" /> 
<path d="M8446 3471 L8417 3481" /> 
<path d="M8417 3481 L8370 3481" /> 
</g>
<g style="fill:#C0C0C0; fill-opacity:0.0; 
  stroke:#00A0A0; stroke-linecap:round; stroke-linejoin:round; stroke-opacity:1.0; stroke-opacity:1.0; stroke-width:26" 
   transform="translate(0 0) scale(1 1)">
<path d="M8427 2823 L8427 3177" /> 
<path d="M8427 3177 L8584 3177" /> 
<path d="M8584 2823 L8584 3177" /> 
<path d="M8427 2823 L8584 2823" /> 
<path d="M7916 2823 L7916 3177" /> 
<path d="M7916 3177 L8073 3177" /> 
<path d="M8073 2823 L8073 3177" /> 
<path d="M7916 2823 L8073 2823" /> 
<path d="M8250 2823 L8250 2882" /> 
<path d="M8250 2882 L8368 2882" /> 
<path d="M8368 2823 L8368 2882" /> 
<path d="M8250 2823 L8368 2823" /> 
<path d="M8250 3118 L8250 3177" /> 
<path d="M8250 3177 L8368 3177" /> 
<path d="M8368 3118 L8368 3177" /> 
<path d="M8250 3118 L8368 3118" /> 
<path d="M8250 2941 L8250 3059" /> 
<path d="M8250 3059 L8368 3059" /> 
<path d="M8368 2941 L8368 3059" /> 
<path d="M8250 2941 L8368 2941" /> 
</g>
<g style="fill:#C0C0C0; fill-opacity:0.0; 
  stroke:#00A0A0; stroke-linecap:round; stroke-linejoin:round; stroke-opacity:1.0; stroke-opacity:1.0; stroke-width:40" 
   transform="translate(0 0) scale(1 1)">
<path d="M8427 2843 L8073 2843" /> 
<path d="M8427 3157 L8073 3157" /> 
</g>
<g style="fill:#C0C0C0; fill-opacity:0.0; 
  stroke:#0000C0; stroke-linecap:round; stroke-linejoin:round; stroke-opacity:1.0; stroke-opacity:1.0; stroke-width:0" 
   transform="translate(0 0) scale(1 1)">
<path d="M8248 4100 L8252 4100" /> 
<path d="M8250 4098 L8250 4102" /> 
</g>
<g style="fill:#C0C0C0; fill-opacity:0.0; 
  stroke:#C0C0C0; stroke-linecap:round; stroke-linejoin:round; stroke-opacity:1.0; stroke-opacity:1.0; stroke-width:50" 
   transform="translate(0 0) scale(1 1)">
<path d="M8103 4181 L8103 3981" /> 
<path d="M8103 3981 L8150 3981" /> 
<path d="M8150 3981 L8179 3990" /> 
<path d="M8179 3990 L8198 4010" /> 
<path d="M8198 4010 L8207 4029" /> 
<path d="M8207 4029 L8217 4067" /> 
<path d="M8217 4067 L8217 4095" /> 
<path d="M8217 4095 L8207 4133" /> 
<path d="M8207 4133 L8198 4152" /> 
<path d="M8198 4152 L8179 4171" /> 
<path d="M8179 4171 L8150 4181" /> 
<path d="M8150 4181 L8103 4181" /> 
<path d="M8388 4048 L8388 4181" /> 
<g style = "stroke-linecap:round;" > 
<path d="M8388 4181 L8388 4181" /> 
</g><path d="M8341 3971 L8293 4114" /> 
<path d="M8293 4114 L8417 4114" /> 
<g style = "stroke-linecap:round;" > 
<path d="M8417 4114 L8417 4114" /> 
</g></g>
<g style="fill:#C0C0C0; fill-opacity:0.0; 
  stroke:#0000C0; stroke-linecap:round; stroke-linejoin:round; stroke-opacity:1.0; stroke-opacity:1.0; stroke-width:0" 
   transform="translate(0 0) scale(1 1)">
<path d="M8248 4900 L8252 4900" /> 
<path d="M8250 4898 L8250 4902" /> 
</g>
<g style="fill:#C0C0C0; fill-opacity:0.0; 
  stroke:#C0C0C0; stroke-linecap:round; stroke-linejoin:round; stroke-opacity:1.0; stroke-opacity:1.0; stroke-width:50" 
   transform="translate(0 0) scale(1 1)">
<path d="M8122 4981 L8027 4981" /> 
<path d="M8027 4981 L8027 4781" /> 
<g style = "stroke-linecap:round;" > 
<path d="M8027 4781 L8027 4781" /> 
</g><path d="M8189 4876 L8255 4876" /> 
<g style = "stroke-linecap:round;" > 
<path d="M8255 4876 L8255 4876" /> 
</g><path d="M8284 4981 L8189 4981" /> 
<path d="M8189 4981 L8189 4781" /> 
<path d="M8189 4781 L8284 4781" /> 
<g style = "stroke-linecap:round;" > 
<path d="M8284 4781 L8284 4781" /> 
</g><path d="M8370 4981 L8370 4781" /> 
<path d="M8370 4781 L8417 4781" /> 
<path d="M8417 4781 L8446 4790" /> 
<path d="M8446 4790 L8465 4810" /> 
<path d="M8465 4810 L8474 4829" /> 
<path d="M8474 4829 L8484 4867" /> 
<path d="M8484 4867 L8484 4895" /> 
<path d="M8484 4895 L8474 4933" /> 
<path d="M8474 4933 L8465 4952" /> 
<path d="M8465 4952 L8446 4971" /> 
<path d="M8446 4971 L8417 4981" /> 
<path d="M8417 4981 L8370 4981" /> 
</g>
<g style="fill:#C0C0C0; fill-opacity:0.0; 
  stroke:#00A0A0; stroke-linecap:round; stroke-linejoin:round; stroke-opacity:1.0; stroke-opacity:1.0; stroke-width:26" 
   transform="translate(0 0) scale(1 1)">
<path d="M8427 4323 L8427 4677" /> 
<path d="M8427 4677 L8584 4677" /> 
<path d="M8584 4323 L8584 4677" /> 
<path d="M8427 4323 L8584 4323" /> 
<path d="M7916 4323 L7916 4677" /> 
<path d="M7916 4677 L8073 4677" /> 
<path d="M8073 4323 L8073 4677" /> 
<path d="M7916 4323 L8073 4323" /> 
<path d="M8250 4323 L8250 4382" /> 
<path d="M8250 4382 L8368 4382" /> 
<path d="M8368 4323 L8368 4382" /> 
<path d="M8250 4323 L8368 4323" /> 
<path d="M8250 4618 L8250 4677" /> 
<path d="M8250 4677 L8368 4677" /> 
<path d="M8368 4618 L8368 4677" /> 
<path d="M8250 4618 L8368 4618" /> 
<path d="M8250 4441 L8250 4559" /> 
<path d="M8250 4559 L8368 4559" /> 
<path d="M8368 4441 L8368 4559" /> 
<path d="M8250 4441 L8368 4441" /> 
</g>
<g style="fill:#C0C0C0; fill-opacity:0.0; 
  stroke:#00A0A0; stroke-linecap:round; stroke-linejoin:round; stroke-opacity:1.0; stroke-opacity:1.0; stroke-width:40" 
   transform="translate(0 0) scale(1 1)">
<path d="M8427 4343 L8073 4343" /> 
<path d="M8427 4657 L8073 4657" /> 
</g>
<g style="fill:#C0C0C0; fill-opacity:0.0; 
  stroke:#0000C0; stroke-linecap:round; stroke-linejoin:round; stroke-opacity:1.0; stroke-opacity:1.0; stroke-width:0" 
   transform="translate(0 0) scale(1 1)">
<path d="M11998 7724 L12002 7724" /> 
<path d="M12000 7722 L12000 7726" /> 
</g>
<g style="fill:#C0C0C0; fill-opacity:0.0; 
  stroke:#C0C0C0; stroke-linecap:round; stroke-linejoin:round; stroke-opacity:1.0; stroke-opacity:1.0; stroke-width:120" 
   transform="translate(0 0) scale(1 1)">
<path d="M10586 7967 L10586 7367" /> 
<g style = "stroke-linecap:round;" > 
<path d="M10586 7367 L10586 7367" /> 
</g><path d="M10586 7653 L10929 7653" /> 
<g style = "stroke-linecap:round;" > 
<path d="M10929 7653 L10929 7653" /> 
</g><path d="M10929 7967 L10929 7367" /> 
<g style = "stroke-linecap:round;" > 
<path d="M10929 7367 L10929 7367" /> 
</g><path d="M11558 7910 L11529 7938" /> 
<path d="M11529 7938 L11443 7967" /> 
<path d="M11443 7967 L11386 7967" /> 
<path d="M11386 7967 L11301 7938" /> 
<path d="M11301 7938 L11243 7881" /> 
<path d="M11243 7881 L11215 7824" /> 
<path d="M11215 7824 L11186 7710" /> 
<path d="M11186 7710 L11186 7624" /> 
<path d="M11186 7624 L11215 7510" /> 
<path d="M11215 7510 L11243 7453" /> 
<path d="M11243 7453 L11301 7395" /> 
<path d="M11301 7395 L11386 7367" /> 
<path d="M11386 7367 L11443 7367" /> 
<path d="M11443 7367 L11529 7395" /> 
<path d="M11529 7395 L11558 7424" /> 
<g style = "stroke-linecap:round;" > 
<path d="M11558 7424 L11558 7424" /> 
</g><path d="M11815 7738 L12272 7738" /> 
<g style = "stroke-linecap:round;" > 
<path d="M12272 7738 L12272 7738" /> 
</g><path d="M12672 7367 L12729 7367" /> 
<path d="M12729 7367 L12786 7395" /> 
<path d="M12786 7395 L12815 7424" /> 
<path d="M12815 7424 L12844 7481" /> 
<path d="M12844 7481 L12872 7595" /> 
<path d="M12872 7595 L12872 7738" /> 
<path d="M12872 7738 L12844 7853" /> 
<path d="M12844 7853 L12815 7910" /> 
<path d="M12815 7910 L12786 7938" /> 
<path d="M12786 7938 L12729 7967" /> 
<path d="M12729 7967 L12672 7967" /> 
<path d="M12672 7967 L12615 7938" /> 
<path d="M12615 7938 L12586 7910" /> 
<path d="M12586 7910 L12558 7853" /> 
<path d="M12558 7853 L12529 7738" /> 
<path d="M12529 7738 L12529 7595" /> 
<path d="M12529 7595 L12558 7481" /> 
<path d="M12558 7481 L12586 7424" /> 
<path d="M12586 7424 L12615 7395" /> 
<path d="M12615 7395 L12672 7367" /> 
<path d="M13415 7367 L13129 7367" /> 
<path d="M13129 7367 L13100 7653" /> 
<path d="M13100 7653 L13129 7624" /> 
<path d="M13129 7624 L13186 7595" /> 
<path d="M13186 7595 L13329 7595" /> 
<path d="M13329 7595 L13386 7624" /> 
<path d="M13386 7624 L13415 7653" /> 
<path d="M13415 7653 L13443 7710" /> 
<path d="M13443 7710 L13443 7853" /> 
<path d="M13443 7853 L13415 7910" /> 
<path d="M13415 7910 L13386 7938" /> 
<path d="M13386 7938 L13329 7967" /> 
<path d="M13329 7967 L13186 7967" /> 
<path d="M13186 7967 L13129 7938" /> 
<path d="M13129 7938 L13100 7910" /> 
<g style = "stroke-linecap:round;" > 
<path d="M13100 7910 L13100 7910" /> 
</g></g>
<g style="fill:#C0C0C0; fill-opacity:0.0; 
  stroke:#00A0A0; stroke-linecap:round; stroke-linejoin:round; stroke-opacity:1.0; stroke-opacity:1.0; stroke-width:150" 
   transform="translate(0 0) scale(1 1)">
<path d="M14953 -75 L14953 8512" /> 
<path d="M14953 8512 L9047 8512" /> 
<path d="M9047 8512 L9047 -75" /> 
</g>
<g style="fill:#C0C0C0; fill-opacity:0.0; 
  stroke:#0000C0; stroke-linecap:round; stroke-linejoin:round; stroke-opacity:1.0; stroke-opacity:1.0; stroke-width:0" 
   transform="translate(0 0) scale(1 1)">
<path d="M3748 7724 L3752 7724" /> 
<path d="M3750 7722 L3750 7726" /> 
</g>
<g style="fill:#C0C0C0; fill-opacity:0.0; 
  stroke:#C0C0C0; stroke-linecap:round; stroke-linejoin:round; stroke-opacity:1.0; stroke-opacity:1.0; stroke-width:120" 
   transform="translate(0 0) scale(1 1)">
<path d="M2336 7967 L2336 7367" /> 
<g style = "stroke-linecap:round;" > 
<path d="M2336 7367 L2336 7367" /> 
</g><path d="M2336 7653 L2679 7653" /> 
<g style = "stroke-linecap:round;" > 
<path d="M2679 7653 L2679 7653" /> 
</g><path d="M2679 7967 L2679 7367" /> 
<g style = "stroke-linecap:round;" > 
<path d="M2679 7367 L2679 7367" /> 
</g><path d="M3308 7910 L3279 7938" /> 
<path d="M3279 7938 L3193 7967" /> 
<path d="M3193 7967 L3136 7967" /> 
<path d="M3136 7967 L3051 7938" /> 
<path d="M3051 7938 L2993 7881" /> 
<path d="M2993 7881 L2965 7824" /> 
<path d="M2965 7824 L2936 7710" /> 
<path d="M2936 7710 L2936 7624" /> 
<path d="M2936 7624 L2965 7510" /> 
<path d="M2965 7510 L2993 7453" /> 
<path d="M2993 7453 L3051 7395" /> 
<path d="M3051 7395 L3136 7367" /> 
<path d="M3136 7367 L3193 7367" /> 
<path d="M3193 7367 L3279 7395" /> 
<path d="M3279 7395 L3308 7424" /> 
<g style = "stroke-linecap:round;" > 
<path d="M3308 7424 L3308 7424" /> 
</g><path d="M3565 7738 L4022 7738" /> 
<g style = "stroke-linecap:round;" > 
<path d="M4022 7738 L4022 7738" /> 
</g><path d="M4422 7367 L4479 7367" /> 
<path d="M4479 7367 L4536 7395" /> 
<path d="M4536 7395 L4565 7424" /> 
<path d="M4565 7424 L4594 7481" /> 
<path d="M4594 7481 L4622 7595" /> 
<path d="M4622 7595 L4622 7738" /> 
<path d="M4622 7738 L4594 7853" /> 
<path d="M4594 7853 L4565 7910" /> 
<path d="M4565 7910 L4536 7938" /> 
<path d="M4536 7938 L4479 7967" /> 
<path d="M4479 7967 L4422 7967" /> 
<path d="M4422 7967 L4365 7938" /> 
<path d="M4365 7938 L4336 7910" /> 
<path d="M4336 7910 L4308 7853" /> 
<path d="M4308 7853 L4279 7738" /> 
<path d="M4279 7738 L4279 7595" /> 
<path d="M4279 7595 L4308 7481" /> 
<path d="M4308 7481 L4336 7424" /> 
<path d="M4336 7424 L4365 7395" /> 
<path d="M4365 7395 L4422 7367" /> 
<path d="M5165 7367 L4879 7367" /> 
<path d="M4879 7367 L4850 7653" /> 
<path d="M4850 7653 L4879 7624" /> 
<path d="M4879 7624 L4936 7595" /> 
<path d="M4936 7595 L5079 7595" /> 
<path d="M5079 7595 L5136 7624" /> 
<path d="M5136 7624 L5165 7653" /> 
<path d="M5165 7653 L5193 7710" /> 
<path d="M5193 7710 L5193 7853" /> 
<path d="M5193 7853 L5165 7910" /> 
<path d="M5165 7910 L5136 7938" /> 
<path d="M5136 7938 L5079 7967" /> 
<path d="M5079 7967 L4936 7967" /> 
<path d="M4936 7967 L4879 7938" /> 
<path d="M4879 7938 L4850 7910" /> 
<g style = "stroke-linecap:round;" > 
<path d="M4850 7910 L4850 7910" /> 
</g></g>
<g style="fill:#C0C0C0; fill-opacity:0.0; 
  stroke:#00A0A0; stroke-linecap:round; stroke-linejoin:round; stroke-opacity:1.0; stroke-opacity:1.0; stroke-width:150" 
   transform="translate(0 0) scale(1 1)">
<path d="M6703 -75 L6703 8512" /> 
<path d="M6703 8512 L797 8512" /> 
<path d="M797 8512 L797 -75" /> 
</g>
<g style="fill:#C0C0C0; fill-opacity:0.0; 
  stroke:#0000C0; stroke-linecap:round; stroke-linejoin:round; stroke-opacity:1.0; stroke-opacity:1.0; stroke-width:0" 
   transform="translate(0 0) scale(1 1)">
<path d="M15873 35625 L15877 35625" /> 
<path d="M15875 35623 L15875 35627" /> 
</g>
<g style="fill:#C0C0C0; fill-opacity:0.0; 
  stroke:#C0C0C0; stroke-linecap:round; stroke-linejoin:round; stroke-opacity:1.0; stroke-opacity:1.0; stroke-width:45" 
   transform="translate(0 0) scale(1 1)">
<path d="M15956 35740 L15861 35800" /> 
<g style = "stroke-linecap:round;" > 
<path d="M15861 35800 L15861 35800" /> 
</g><path d="M15956 35843 L15756 35843" /> 
<path d="M15756 35843 L15756 35775" /> 
<path d="M15756 35775 L15765 35757" /> 
<path d="M15765 35757 L15775 35749" /> 
<path d="M15775 35749 L15794 35740" /> 
<path d="M15794 35740 L15823 35740" /> 
<path d="M15823 35740 L15842 35749" /> 
<path d="M15842 35749 L15851 35757" /> 
<path d="M15851 35757 L15861 35775" /> 
<path d="M15861 35775 L15861 35843" /> 
<g style = "stroke-linecap:round;" > 
<path d="M15861 35843 L15861 35843" /> 
</g><path d="M15956 35569 L15956 35672" /> 
<g style = "stroke-linecap:round;" > 
<path d="M15956 35672 L15956 35672" /> 
</g><path d="M15956 35620 L15756 35620" /> 
<path d="M15756 35620 L15785 35637" /> 
<path d="M15785 35637 L15804 35655" /> 
<path d="M15804 35655 L15813 35672" /> 
<g style = "stroke-linecap:round;" > 
<path d="M15813 35672 L15813 35672" /> 
</g><path d="M15956 35484 L15956 35449" /> 
<path d="M15956 35449 L15946 35432" /> 
<path d="M15946 35432 L15937 35424" /> 
<path d="M15937 35424 L15908 35406" /> 
<path d="M15908 35406 L15870 35398" /> 
<path d="M15870 35398 L15794 35398" /> 
<path d="M15794 35398 L15775 35406" /> 
<path d="M15775 35406 L15765 35415" /> 
<path d="M15765 35415 L15756 35432" /> 
<path d="M15756 35432 L15756 35466" /> 
<path d="M15756 35466 L15765 35484" /> 
<path d="M15765 35484 L15775 35492" /> 
<path d="M15775 35492 L15794 35501" /> 
<path d="M15794 35501 L15842 35501" /> 
<path d="M15842 35501 L15861 35492" /> 
<path d="M15861 35492 L15870 35484" /> 
<path d="M15870 35484 L15880 35466" /> 
<path d="M15880 35466 L15880 35432" /> 
<path d="M15880 35432 L15870 35415" /> 
<path d="M15870 35415 L15861 35406" /> 
<path d="M15861 35406 L15842 35398" /> 
<g style = "stroke-linecap:round;" > 
<path d="M15842 35398 L15842 35398" /> 
</g></g>
<g style="fill:#C0C0C0; fill-opacity:0.0; 
  stroke:#00A0A0; stroke-linecap:round; stroke-linejoin:round; stroke-opacity:1.0; stroke-opacity:1.0; stroke-width:50" 
   transform="translate(0 0) scale(1 1)">
<path d="M16125 35175 L16125 36075" /> 
<path d="M16125 36075 L15625 36075" /> 
<path d="M15625 36075 L15625 35175" /> 
<path d="M15625 35175 L16125 35175" /> 
</g>
<g style="fill:#808000; fill-opacity:0.0; 
  stroke:#808000; stroke-linecap:round; stroke-linejoin:round; stroke-opacity:1.0; stroke-opacity:1.0; stroke-width:60" 
   transform="translate(0 0) scale(1 1)">
<ellipse cx="18003" cy="36733" rx="216" ry="216"  /> 
<ellipse cx="18003" cy="28466" rx="315" ry="315"  /> 
</g>
<g style="fill:#808000; fill-opacity:0.0; 
  stroke:#0000C0; stroke-linecap:round; stroke-linejoin:round; stroke-opacity:1.0; stroke-opacity:1.0; stroke-width:0" 
   transform="translate(0 0) scale(1 1)">
<path d="M22135 37875 L22139 37875" /> 
<path d="M22137 37873 L22137 37877" /> 
</g>
<g style="fill:#C0C0C0; fill-opacity:0.0; 
  stroke:#C0C0C0; stroke-linecap:round; stroke-linejoin:round; stroke-opacity:1.0; stroke-opacity:1.0; stroke-width:120" 
   transform="translate(0 0) scale(1 1)">
<path d="M21780 38617 L22266 38617" /> 
<path d="M22266 38617 L22323 38589" /> 
<path d="M22323 38589 L22351 38560" /> 
<path d="M22351 38560 L22380 38503" /> 
<path d="M22380 38503 L22380 38389" /> 
<path d="M22380 38389 L22351 38331" /> 
<path d="M22351 38331 L22323 38303" /> 
<path d="M22323 38303 L22266 38274" /> 
<path d="M22266 38274 L21780 38274" /> 
<g style = "stroke-linecap:round;" > 
<path d="M21780 38274 L21780 38274" /> 
</g><path d="M22380 37674 L22380 38017" /> 
<g style = "stroke-linecap:round;" > 
<path d="M22380 38017 L22380 38017" /> 
</g><path d="M22380 37845 L21780 37845" /> 
<path d="M21780 37845 L21866 37902" /> 
<path d="M21866 37902 L21923 37960" /> 
<path d="M21923 37960 L21951 38017" /> 
<g style = "stroke-linecap:round;" > 
<path d="M21951 38017 L21951 38017" /> 
</g><path d="M21980 37160 L22380 37160" /> 
<g style = "stroke-linecap:round;" > 
<path d="M22380 37160 L22380 37160" /> 
</g><path d="M21751 37303 L22180 37446" /> 
<path d="M22180 37446 L22180 37074" /> 
<g style = "stroke-linecap:round;" > 
<path d="M22180 37074 L22180 37074" /> 
</g></g>
<g style="fill:#C0C0C0; fill-opacity:0.0; 
  stroke:#0000C0; stroke-linecap:round; stroke-linejoin:round; stroke-opacity:1.0; stroke-opacity:1.0; stroke-width:0" 
   transform="translate(0 0) scale(1 1)">
<path d="M26623 37875 L26627 37875" /> 
<path d="M26625 37873 L26625 37877" /> 
</g>
<g style="fill:#C0C0C0; fill-opacity:0.0; 
  stroke:#C0C0C0; stroke-linecap:round; stroke-linejoin:round; stroke-opacity:1.0; stroke-opacity:1.0; stroke-width:120" 
   transform="translate(0 0) scale(1 1)">
<path d="M26839 39875 L26868 39789" /> 
<path d="M26868 39789 L26868 39646" /> 
<path d="M26868 39646 L26839 39589" /> 
<path d="M26839 39589 L26811 39560" /> 
<path d="M26811 39560 L26754 39532" /> 
<path d="M26754 39532 L26696 39532" /> 
<path d="M26696 39532 L26639 39560" /> 
<path d="M26639 39560 L26611 39589" /> 
<path d="M26611 39589 L26582 39646" /> 
<path d="M26582 39646 L26554 39760" /> 
<path d="M26554 39760 L26525 39818" /> 
<path d="M26525 39818 L26496 39846" /> 
<path d="M26496 39846 L26439 39875" /> 
<path d="M26439 39875 L26382 39875" /> 
<path d="M26382 39875 L26325 39846" /> 
<path d="M26325 39846 L26296 39818" /> 
<path d="M26296 39818 L26268 39760" /> 
<path d="M26268 39760 L26268 39618" /> 
<path d="M26268 39618 L26296 39532" /> 
<g style = "stroke-linecap:round;" > 
<path d="M26296 39532 L26296 39532" /> 
</g><path d="M26868 39275 L26268 39275" /> 
<path d="M26268 39275 L26268 39132" /> 
<path d="M26268 39132 L26296 39047" /> 
<path d="M26296 39047 L26354 38989" /> 
<path d="M26354 38989 L26411 38961" /> 
<path d="M26411 38961 L26525 38932" /> 
<path d="M26525 38932 L26611 38932" /> 
<path d="M26611 38932 L26725 38961" /> 
<path d="M26725 38961 L26782 38989" /> 
<path d="M26782 38989 L26839 39047" /> 
<path d="M26839 39047 L26868 39132" /> 
<path d="M26868 39132 L26868 39275" /> 
<path d="M26639 38675 L26639 38218" /> 
<g style = "stroke-linecap:round;" > 
<path d="M26639 38218 L26639 38218" /> 
</g><path d="M26811 37589 L26839 37618" /> 
<path d="M26839 37618 L26868 37704" /> 
<path d="M26868 37704 L26868 37761" /> 
<path d="M26868 37761 L26839 37846" /> 
<path d="M26839 37846 L26782 37904" /> 
<path d="M26782 37904 L26725 37932" /> 
<path d="M26725 37932 L26611 37961" /> 
<path d="M26611 37961 L26525 37961" /> 
<path d="M26525 37961 L26411 37932" /> 
<path d="M26411 37932 L26354 37904" /> 
<path d="M26354 37904 L26296 37846" /> 
<path d="M26296 37846 L26268 37761" /> 
<path d="M26268 37761 L26268 37704" /> 
<path d="M26268 37704 L26296 37618" /> 
<path d="M26296 37618 L26325 37589" /> 
<g style = "stroke-linecap:round;" > 
<path d="M26325 37589 L26325 37589" /> 
</g><path d="M26696 37361 L26696 37075" /> 
<g style = "stroke-linecap:round;" > 
<path d="M26696 37075 L26696 37075" /> 
</g><path d="M26868 37418 L26268 37218" /> 
<path d="M26268 37218 L26868 37018" /> 
<g style = "stroke-linecap:round;" > 
<path d="M26868 37018 L26868 37018" /> 
</g><path d="M26868 36475 L26582 36675" /> 
<g style = "stroke-linecap:round;" > 
<path d="M26582 36675 L26582 36675" /> 
</g><path d="M26868 36818 L26268 36818" /> 
<path d="M26268 36818 L26268 36590" /> 
<path d="M26268 36590 L26296 36532" /> 
<path d="M26296 36532 L26325 36504" /> 
<path d="M26325 36504 L26382 36475" /> 
<path d="M26382 36475 L26468 36475" /> 
<path d="M26468 36475 L26525 36504" /> 
<path d="M26525 36504 L26554 36532" /> 
<path d="M26554 36532 L26582 36590" /> 
<path d="M26582 36590 L26582 36818" /> 
<g style = "stroke-linecap:round;" > 
<path d="M26582 36818 L26582 36818" /> 
</g><path d="M26868 36218 L26268 36218" /> 
<path d="M26268 36218 L26268 36075" /> 
<path d="M26268 36075 L26296 35990" /> 
<path d="M26296 35990 L26354 35932" /> 
<path d="M26354 35932 L26411 35904" /> 
<path d="M26411 35904 L26525 35875" /> 
<path d="M26525 35875 L26611 35875" /> 
<path d="M26611 35875 L26725 35904" /> 
<path d="M26725 35904 L26782 35932" /> 
<path d="M26782 35932 L26839 35990" /> 
<path d="M26839 35990 L26868 36075" /> 
<path d="M26868 36075 L26868 36218" /> 
</g>
<g style="fill:#C0C0C0; fill-opacity:0.0; 
  stroke:#00A0A0; stroke-linecap:round; stroke-linejoin:round; stroke-opacity:1.0; stroke-opacity:1.0; stroke-width:150" 
   transform="translate(0 0) scale(1 1)">
<path d="M27019 37875 L27019 26694" /> 
<path d="M27019 26694 L17176 26694" /> 
<path d="M17176 26694 L17176 37875" /> 
<path d="M17176 37875 L27019 37875" /> 
</g>
<g style="fill:#C0C0C0; fill-opacity:0.0; 
  stroke:#0000C0; stroke-linecap:round; stroke-linejoin:round; stroke-opacity:1.0; stroke-opacity:1.0; stroke-width:0" 
   transform="translate(0 0) scale(1 1)">
<path d="M3248 33941 L3252 33941" /> 
<path d="M3250 33939 L3250 33943" /> 
</g>
<g style="fill:#C0C0C0; fill-opacity:0.0; 
  stroke:#C0C0C0; stroke-linecap:round; stroke-linejoin:round; stroke-opacity:1.0; stroke-opacity:1.0; stroke-width:120" 
   transform="translate(0 0) scale(1 1)">
<path d="M2793 33584 L2793 34070" /> 
<path d="M2793 34070 L2821 34127" /> 
<path d="M2821 34127 L2850 34155" /> 
<path d="M2850 34155 L2907 34184" /> 
<path d="M2907 34184 L3021 34184" /> 
<path d="M3021 34184 L3079 34155" /> 
<path d="M3079 34155 L3107 34127" /> 
<path d="M3107 34127 L3136 34070" /> 
<path d="M3136 34070 L3136 33584" /> 
<g style = "stroke-linecap:round;" > 
<path d="M3136 33584 L3136 33584" /> 
</g><path d="M3679 33784 L3679 34184" /> 
<g style = "stroke-linecap:round;" > 
<path d="M3679 34184 L3679 34184" /> 
</g><path d="M3536 33555 L3393 33984" /> 
<path d="M3393 33984 L3765 33984" /> 
<g style = "stroke-linecap:round;" > 
<path d="M3765 33984 L3765 33984" /> 
</g></g>
<g style="fill:#C0C0C0; fill-opacity:0.0; 
  stroke:#0000C0; stroke-linecap:round; stroke-linejoin:round; stroke-opacity:1.0; stroke-opacity:1.0; stroke-width:0" 
   transform="translate(0 0) scale(1 1)">
<path d="M3248 39256 L3252 39256" /> 
<path d="M3250 39254 L3250 39258" /> 
</g>
<g style="fill:#C0C0C0; fill-opacity:0.0; 
  stroke:#C0C0C0; stroke-linecap:round; stroke-linejoin:round; stroke-opacity:1.0; stroke-opacity:1.0; stroke-width:120" 
   transform="translate(0 0) scale(1 1)">
<path d="M1566 38899 L1709 39499" /> 
<path d="M1709 39499 L1823 39070" /> 
<path d="M1823 39070 L1937 39499" /> 
<path d="M1937 39499 L2080 38899" /> 
<g style = "stroke-linecap:round;" > 
<path d="M2080 38899 L2080 38899" /> 
</g><path d="M2280 39470 L2366 39499" /> 
<path d="M2366 39499 L2509 39499" /> 
<path d="M2509 39499 L2566 39470" /> 
<path d="M2566 39470 L2595 39442" /> 
<path d="M2595 39442 L2623 39385" /> 
<path d="M2623 39385 L2623 39327" /> 
<path d="M2623 39327 L2595 39270" /> 
<path d="M2595 39270 L2566 39242" /> 
<path d="M2566 39242 L2509 39213" /> 
<path d="M2509 39213 L2395 39185" /> 
<path d="M2395 39185 L2337 39156" /> 
<path d="M2337 39156 L2309 39127" /> 
<path d="M2309 39127 L2280 39070" /> 
<path d="M2280 39070 L2280 39013" /> 
<path d="M2280 39013 L2309 38956" /> 
<path d="M2309 38956 L2337 38927" /> 
<path d="M2337 38927 L2395 38899" /> 
<path d="M2395 38899 L2537 38899" /> 
<path d="M2537 38899 L2623 38927" /> 
<g style = "stroke-linecap:round;" > 
<path d="M2623 38927 L2623 38927" /> 
</g><path d="M2851 38956 L2880 38927" /> 
<path d="M2880 38927 L2937 38899" /> 
<path d="M2937 38899 L3080 38899" /> 
<path d="M3080 38899 L3137 38927" /> 
<path d="M3137 38927 L3166 38956" /> 
<path d="M3166 38956 L3194 39013" /> 
<path d="M3194 39013 L3194 39070" /> 
<path d="M3194 39070 L3166 39156" /> 
<path d="M3166 39156 L2823 39499" /> 
<path d="M2823 39499 L3194 39499" /> 
<g style = "stroke-linecap:round;" > 
<path d="M3194 39499 L3194 39499" /> 
</g><path d="M3537 39156 L3479 39127" /> 
<path d="M3479 39127 L3451 39099" /> 
<path d="M3451 39099 L3422 39042" /> 
<path d="M3422 39042 L3422 39013" /> 
<path d="M3422 39013 L3451 38956" /> 
<path d="M3451 38956 L3479 38927" /> 
<path d="M3479 38927 L3537 38899" /> 
<path d="M3537 38899 L3651 38899" /> 
<path d="M3651 38899 L3708 38927" /> 
<path d="M3708 38927 L3737 38956" /> 
<path d="M3737 38956 L3765 39013" /> 
<path d="M3765 39013 L3765 39042" /> 
<path d="M3765 39042 L3737 39099" /> 
<path d="M3737 39099 L3708 39127" /> 
<path d="M3708 39127 L3651 39156" /> 
<path d="M3651 39156 L3537 39156" /> 
<path d="M3537 39156 L3479 39185" /> 
<path d="M3479 39185 L3451 39213" /> 
<path d="M3451 39213 L3422 39270" /> 
<path d="M3422 39270 L3422 39385" /> 
<path d="M3422 39385 L3451 39442" /> 
<path d="M3451 39442 L3479 39470" /> 
<path d="M3479 39470 L3537 39499" /> 
<path d="M3537 39499 L3651 39499" /> 
<path d="M3651 39499 L3708 39470" /> 
<path d="M3708 39470 L3737 39442" /> 
<path d="M3737 39442 L3765 39385" /> 
<path d="M3765 39385 L3765 39270" /> 
<path d="M3765 39270 L3737 39213" /> 
<path d="M3737 39213 L3708 39185" /> 
<path d="M3708 39185 L3651 39156" /> 
<g style = "stroke-linecap:round;" > 
<path d="M3651 39156 L3651 39156" /> 
</g><path d="M4336 39499 L3993 39499" /> 
<g style = "stroke-linecap:round;" > 
<path d="M3993 39499 L3993 39499" /> 
</g><path d="M4165 39499 L4165 38899" /> 
<path d="M4165 38899 L4108 38985" /> 
<path d="M4108 38985 L4050 39042" /> 
<path d="M4050 39042 L3993 39070" /> 
<g style = "stroke-linecap:round;" > 
<path d="M3993 39070 L3993 39070" /> 
</g><path d="M4907 39499 L4564 39499" /> 
<g style = "stroke-linecap:round;" > 
<path d="M4564 39499 L4564 39499" /> 
</g><path d="M4736 39499 L4736 38899" /> 
<path d="M4736 38899 L4679 38985" /> 
<path d="M4679 38985 L4621 39042" /> 
<path d="M4621 39042 L4564 39070" /> 
<g style = "stroke-linecap:round;" > 
<path d="M4564 39070 L4564 39070" /> 
</g></g>
<g style="fill:#C0C0C0; fill-opacity:0.0; 
  stroke:#00A0A0; stroke-linecap:round; stroke-linejoin:round; stroke-opacity:1.0; stroke-opacity:1.0; stroke-width:150" 
   transform="translate(0 0) scale(1 1)">
<path d="M4628 34138 L4628 38862" /> 
<path d="M1872 34138 L1872 38862" /> 
<path d="M1872 34138 L4628 34138" /> 
<path d="M4628 38862 L1872 38862" /> 
</g>
<g style="fill:#C0C0C0; fill-opacity:0.0; 
  stroke:#0000C0; stroke-linecap:round; stroke-linejoin:round; stroke-opacity:1.0; stroke-opacity:1.0; stroke-width:0" 
   transform="translate(0 0) scale(1 1)">
<path d="M7498 33941 L7502 33941" /> 
<path d="M7500 33939 L7500 33943" /> 
</g>
<g style="fill:#C0C0C0; fill-opacity:0.0; 
  stroke:#C0C0C0; stroke-linecap:round; stroke-linejoin:round; stroke-opacity:1.0; stroke-opacity:1.0; stroke-width:120" 
   transform="translate(0 0) scale(1 1)">
<path d="M6758 33584 L6758 34070" /> 
<path d="M6758 34070 L6786 34127" /> 
<path d="M6786 34127 L6815 34155" /> 
<path d="M6815 34155 L6872 34184" /> 
<path d="M6872 34184 L6986 34184" /> 
<path d="M6986 34184 L7044 34155" /> 
<path d="M7044 34155 L7072 34127" /> 
<path d="M7072 34127 L7101 34070" /> 
<path d="M7101 34070 L7101 33584" /> 
<g style = "stroke-linecap:round;" > 
<path d="M7101 33584 L7101 33584" /> 
</g><path d="M7701 34184 L7358 34184" /> 
<g style = "stroke-linecap:round;" > 
<path d="M7358 34184 L7358 34184" /> 
</g><path d="M7530 34184 L7530 33584" /> 
<path d="M7530 33584 L7473 33670" /> 
<path d="M7473 33670 L7415 33727" /> 
<path d="M7415 33727 L7358 33755" /> 
<g style = "stroke-linecap:round;" > 
<path d="M7358 33755 L7358 33755" /> 
</g><path d="M7929 33641 L7958 33612" /> 
<path d="M7958 33612 L8015 33584" /> 
<path d="M8015 33584 L8158 33584" /> 
<path d="M8158 33584 L8215 33612" /> 
<path d="M8215 33612 L8244 33641" /> 
<path d="M8244 33641 L8272 33698" /> 
<path d="M8272 33698 L8272 33755" /> 
<path d="M8272 33755 L8244 33841" /> 
<path d="M8244 33841 L7901 34184" /> 
<path d="M7901 34184 L8272 34184" /> 
<g style = "stroke-linecap:round;" > 
<path d="M8272 34184 L8272 34184" /> 
</g></g>
<g style="fill:#C0C0C0; fill-opacity:0.0; 
  stroke:#0000C0; stroke-linecap:round; stroke-linejoin:round; stroke-opacity:1.0; stroke-opacity:1.0; stroke-width:0" 
   transform="translate(0 0) scale(1 1)">
<path d="M7498 39256 L7502 39256" /> 
<path d="M7500 39254 L7500 39258" /> 
</g>
<g style="fill:#C0C0C0; fill-opacity:0.0; 
  stroke:#C0C0C0; stroke-linecap:round; stroke-linejoin:round; stroke-opacity:1.0; stroke-opacity:1.0; stroke-width:120" 
   transform="translate(0 0) scale(1 1)">
<path d="M5816 38899 L5959 39499" /> 
<path d="M5959 39499 L6073 39070" /> 
<path d="M6073 39070 L6187 39499" /> 
<path d="M6187 39499 L6330 38899" /> 
<g style = "stroke-linecap:round;" > 
<path d="M6330 38899 L6330 38899" /> 
</g><path d="M6530 39470 L6616 39499" /> 
<path d="M6616 39499 L6759 39499" /> 
<path d="M6759 39499 L6816 39470" /> 
<path d="M6816 39470 L6845 39442" /> 
<path d="M6845 39442 L6873 39385" /> 
<path d="M6873 39385 L6873 39327" /> 
<path d="M6873 39327 L6845 39270" /> 
<path d="M6845 39270 L6816 39242" /> 
<path d="M6816 39242 L6759 39213" /> 
<path d="M6759 39213 L6645 39185" /> 
<path d="M6645 39185 L6587 39156" /> 
<path d="M6587 39156 L6559 39127" /> 
<path d="M6559 39127 L6530 39070" /> 
<path d="M6530 39070 L6530 39013" /> 
<path d="M6530 39013 L6559 38956" /> 
<path d="M6559 38956 L6587 38927" /> 
<path d="M6587 38927 L6645 38899" /> 
<path d="M6645 38899 L6787 38899" /> 
<path d="M6787 38899 L6873 38927" /> 
<g style = "stroke-linecap:round;" > 
<path d="M6873 38927 L6873 38927" /> 
</g><path d="M7101 38956 L7130 38927" /> 
<path d="M7130 38927 L7187 38899" /> 
<path d="M7187 38899 L7330 38899" /> 
<path d="M7330 38899 L7387 38927" /> 
<path d="M7387 38927 L7416 38956" /> 
<path d="M7416 38956 L7444 39013" /> 
<path d="M7444 39013 L7444 39070" /> 
<path d="M7444 39070 L7416 39156" /> 
<path d="M7416 39156 L7073 39499" /> 
<path d="M7073 39499 L7444 39499" /> 
<g style = "stroke-linecap:round;" > 
<path d="M7444 39499 L7444 39499" /> 
</g><path d="M7787 39156 L7729 39127" /> 
<path d="M7729 39127 L7701 39099" /> 
<path d="M7701 39099 L7672 39042" /> 
<path d="M7672 39042 L7672 39013" /> 
<path d="M7672 39013 L7701 38956" /> 
<path d="M7701 38956 L7729 38927" /> 
<path d="M7729 38927 L7787 38899" /> 
<path d="M7787 38899 L7901 38899" /> 
<path d="M7901 38899 L7958 38927" /> 
<path d="M7958 38927 L7987 38956" /> 
<path d="M7987 38956 L8015 39013" /> 
<path d="M8015 39013 L8015 39042" /> 
<path d="M8015 39042 L7987 39099" /> 
<path d="M7987 39099 L7958 39127" /> 
<path d="M7958 39127 L7901 39156" /> 
<path d="M7901 39156 L7787 39156" /> 
<path d="M7787 39156 L7729 39185" /> 
<path d="M7729 39185 L7701 39213" /> 
<path d="M7701 39213 L7672 39270" /> 
<path d="M7672 39270 L7672 39385" /> 
<path d="M7672 39385 L7701 39442" /> 
<path d="M7701 39442 L7729 39470" /> 
<path d="M7729 39470 L7787 39499" /> 
<path d="M7787 39499 L7901 39499" /> 
<path d="M7901 39499 L7958 39470" /> 
<path d="M7958 39470 L7987 39442" /> 
<path d="M7987 39442 L8015 39385" /> 
<path d="M8015 39385 L8015 39270" /> 
<path d="M8015 39270 L7987 39213" /> 
<path d="M7987 39213 L7958 39185" /> 
<path d="M7958 39185 L7901 39156" /> 
<g style = "stroke-linecap:round;" > 
<path d="M7901 39156 L7901 39156" /> 
</g><path d="M8586 39499 L8243 39499" /> 
<g style = "stroke-linecap:round;" > 
<path d="M8243 39499 L8243 39499" /> 
</g><path d="M8415 39499 L8415 38899" /> 
<path d="M8415 38899 L8358 38985" /> 
<path d="M8358 38985 L8300 39042" /> 
<path d="M8300 39042 L8243 39070" /> 
<g style = "stroke-linecap:round;" > 
<path d="M8243 39070 L8243 39070" /> 
</g><path d="M9157 39499 L8814 39499" /> 
<g style = "stroke-linecap:round;" > 
<path d="M8814 39499 L8814 39499" /> 
</g><path d="M8986 39499 L8986 38899" /> 
<path d="M8986 38899 L8929 38985" /> 
<path d="M8929 38985 L8871 39042" /> 
<path d="M8871 39042 L8814 39070" /> 
<g style = "stroke-linecap:round;" > 
<path d="M8814 39070 L8814 39070" /> 
</g></g>
<g style="fill:#C0C0C0; fill-opacity:0.0; 
  stroke:#00A0A0; stroke-linecap:round; stroke-linejoin:round; stroke-opacity:1.0; stroke-opacity:1.0; stroke-width:150" 
   transform="translate(0 0) scale(1 1)">
<path d="M8878 34138 L8878 38862" /> 
<path d="M6122 34138 L6122 38862" /> 
<path d="M6122 34138 L8878 34138" /> 
<path d="M8878 38862 L6122 38862" /> 
</g>
<g style="fill:#C0C0C0; fill-opacity:0.0; 
  stroke:#0000C0; stroke-linecap:round; stroke-linejoin:round; stroke-opacity:1.0; stroke-opacity:1.0; stroke-width:0" 
   transform="translate(0 0) scale(1 1)">
<path d="M11748 33941 L11752 33941" /> 
<path d="M11750 33939 L11750 33943" /> 
</g>
<g style="fill:#C0C0C0; fill-opacity:0.0; 
  stroke:#C0C0C0; stroke-linecap:round; stroke-linejoin:round; stroke-opacity:1.0; stroke-opacity:1.0; stroke-width:120" 
   transform="translate(0 0) scale(1 1)">
<path d="M11008 33584 L11008 34070" /> 
<path d="M11008 34070 L11036 34127" /> 
<path d="M11036 34127 L11065 34155" /> 
<path d="M11065 34155 L11122 34184" /> 
<path d="M11122 34184 L11236 34184" /> 
<path d="M11236 34184 L11294 34155" /> 
<path d="M11294 34155 L11322 34127" /> 
<path d="M11322 34127 L11351 34070" /> 
<path d="M11351 34070 L11351 33584" /> 
<g style = "stroke-linecap:round;" > 
<path d="M11351 33584 L11351 33584" /> 
</g><path d="M11951 34184 L11608 34184" /> 
<g style = "stroke-linecap:round;" > 
<path d="M11608 34184 L11608 34184" /> 
</g><path d="M11780 34184 L11780 33584" /> 
<path d="M11780 33584 L11723 33670" /> 
<path d="M11723 33670 L11665 33727" /> 
<path d="M11665 33727 L11608 33755" /> 
<g style = "stroke-linecap:round;" > 
<path d="M11608 33755 L11608 33755" /> 
</g><path d="M12151 33584 L12522 33584" /> 
<path d="M12522 33584 L12322 33812" /> 
<path d="M12322 33812 L12408 33812" /> 
<path d="M12408 33812 L12465 33841" /> 
<path d="M12465 33841 L12494 33870" /> 
<path d="M12494 33870 L12522 33927" /> 
<path d="M12522 33927 L12522 34070" /> 
<path d="M12522 34070 L12494 34127" /> 
<path d="M12494 34127 L12465 34155" /> 
<path d="M12465 34155 L12408 34184" /> 
<path d="M12408 34184 L12236 34184" /> 
<path d="M12236 34184 L12179 34155" /> 
<path d="M12179 34155 L12151 34127" /> 
<g style = "stroke-linecap:round;" > 
<path d="M12151 34127 L12151 34127" /> 
</g></g>
<g style="fill:#C0C0C0; fill-opacity:0.0; 
  stroke:#0000C0; stroke-linecap:round; stroke-linejoin:round; stroke-opacity:1.0; stroke-opacity:1.0; stroke-width:0" 
   transform="translate(0 0) scale(1 1)">
<path d="M11748 39256 L11752 39256" /> 
<path d="M11750 39254 L11750 39258" /> 
</g>
<g style="fill:#C0C0C0; fill-opacity:0.0; 
  stroke:#C0C0C0; stroke-linecap:round; stroke-linejoin:round; stroke-opacity:1.0; stroke-opacity:1.0; stroke-width:120" 
   transform="translate(0 0) scale(1 1)">
<path d="M10066 38899 L10209 39499" /> 
<path d="M10209 39499 L10323 39070" /> 
<path d="M10323 39070 L10437 39499" /> 
<path d="M10437 39499 L10580 38899" /> 
<g style = "stroke-linecap:round;" > 
<path d="M10580 38899 L10580 38899" /> 
</g><path d="M10780 39470 L10866 39499" /> 
<path d="M10866 39499 L11009 39499" /> 
<path d="M11009 39499 L11066 39470" /> 
<path d="M11066 39470 L11095 39442" /> 
<path d="M11095 39442 L11123 39385" /> 
<path d="M11123 39385 L11123 39327" /> 
<path d="M11123 39327 L11095 39270" /> 
<path d="M11095 39270 L11066 39242" /> 
<path d="M11066 39242 L11009 39213" /> 
<path d="M11009 39213 L10895 39185" /> 
<path d="M10895 39185 L10837 39156" /> 
<path d="M10837 39156 L10809 39127" /> 
<path d="M10809 39127 L10780 39070" /> 
<path d="M10780 39070 L10780 39013" /> 
<path d="M10780 39013 L10809 38956" /> 
<path d="M10809 38956 L10837 38927" /> 
<path d="M10837 38927 L10895 38899" /> 
<path d="M10895 38899 L11037 38899" /> 
<path d="M11037 38899 L11123 38927" /> 
<g style = "stroke-linecap:round;" > 
<path d="M11123 38927 L11123 38927" /> 
</g><path d="M11351 38956 L11380 38927" /> 
<path d="M11380 38927 L11437 38899" /> 
<path d="M11437 38899 L11580 38899" /> 
<path d="M11580 38899 L11637 38927" /> 
<path d="M11637 38927 L11666 38956" /> 
<path d="M11666 38956 L11694 39013" /> 
<path d="M11694 39013 L11694 39070" /> 
<path d="M11694 39070 L11666 39156" /> 
<path d="M11666 39156 L11323 39499" /> 
<path d="M11323 39499 L11694 39499" /> 
<g style = "stroke-linecap:round;" > 
<path d="M11694 39499 L11694 39499" /> 
</g><path d="M12037 39156 L11979 39127" /> 
<path d="M11979 39127 L11951 39099" /> 
<path d="M11951 39099 L11922 39042" /> 
<path d="M11922 39042 L11922 39013" /> 
<path d="M11922 39013 L11951 38956" /> 
<path d="M11951 38956 L11979 38927" /> 
<path d="M11979 38927 L12037 38899" /> 
<path d="M12037 38899 L12151 38899" /> 
<path d="M12151 38899 L12208 38927" /> 
<path d="M12208 38927 L12237 38956" /> 
<path d="M12237 38956 L12265 39013" /> 
<path d="M12265 39013 L12265 39042" /> 
<path d="M12265 39042 L12237 39099" /> 
<path d="M12237 39099 L12208 39127" /> 
<path d="M12208 39127 L12151 39156" /> 
<path d="M12151 39156 L12037 39156" /> 
<path d="M12037 39156 L11979 39185" /> 
<path d="M11979 39185 L11951 39213" /> 
<path d="M11951 39213 L11922 39270" /> 
<path d="M11922 39270 L11922 39385" /> 
<path d="M11922 39385 L11951 39442" /> 
<path d="M11951 39442 L11979 39470" /> 
<path d="M11979 39470 L12037 39499" /> 
<path d="M12037 39499 L12151 39499" /> 
<path d="M12151 39499 L12208 39470" /> 
<path d="M12208 39470 L12237 39442" /> 
<path d="M12237 39442 L12265 39385" /> 
<path d="M12265 39385 L12265 39270" /> 
<path d="M12265 39270 L12237 39213" /> 
<path d="M12237 39213 L12208 39185" /> 
<path d="M12208 39185 L12151 39156" /> 
<g style = "stroke-linecap:round;" > 
<path d="M12151 39156 L12151 39156" /> 
</g><path d="M12836 39499 L12493 39499" /> 
<g style = "stroke-linecap:round;" > 
<path d="M12493 39499 L12493 39499" /> 
</g><path d="M12665 39499 L12665 38899" /> 
<path d="M12665 38899 L12608 38985" /> 
<path d="M12608 38985 L12550 39042" /> 
<path d="M12550 39042 L12493 39070" /> 
<g style = "stroke-linecap:round;" > 
<path d="M12493 39070 L12493 39070" /> 
</g><path d="M13407 39499 L13064 39499" /> 
<g style = "stroke-linecap:round;" > 
<path d="M13064 39499 L13064 39499" /> 
</g><path d="M13236 39499 L13236 38899" /> 
<path d="M13236 38899 L13179 38985" /> 
<path d="M13179 38985 L13121 39042" /> 
<path d="M13121 39042 L13064 39070" /> 
<g style = "stroke-linecap:round;" > 
<path d="M13064 39070 L13064 39070" /> 
</g></g>
<g style="fill:#C0C0C0; fill-opacity:0.0; 
  stroke:#00A0A0; stroke-linecap:round; stroke-linejoin:round; stroke-opacity:1.0; stroke-opacity:1.0; stroke-width:150" 
   transform="translate(0 0) scale(1 1)">
<path d="M13128 34138 L13128 38862" /> 
<path d="M10372 34138 L10372 38862" /> 
<path d="M10372 34138 L13128 34138" /> 
<path d="M13128 38862 L10372 38862" /> 
</g> 
</svg> 
