<?xml version="1.0" standalone="no"?>
<!DOCTYPE svg PUBLIC "-//W3C//DTD SVG 1.1//EN" 
"http://www.w3.org/Graphics/SVG/1.1/DTD/svg11.dtd"> 
<svg
  xmlns="http://www.w3.org/2000/svg"
  version="1.1"
  width="11.7in" height="8.267in" viewBox="0 0 117000 82670 "
>
  <title>SVG Picture created as wordclcockV01-Siebdruck - rückseitig.svg </title>
  <desc>Picture generated by wxSVG v0101 </desc>
  <g style="fill:black; stroke:black; stroke-width:1">
</g>
<g style="fill:#000000; fill-opacity:0.0; 
  stroke:#FFFF00; stroke-linecap:round; stroke-linejoin:round; stroke-opacity:1.0; stroke-opacity:1.0; stroke-width:150" 
   transform="translate(0 0) scale(1 1)">
<path d="M19685 39370 L19685 0" /> 
<path d="M0 39370 L19685 39370" /> 
<path d="M0 0 L0 39370" /> 
<path d="M19685 0 L0 0" /> 
</g>
<g style="fill:#808000; fill-opacity:0.0; 
  stroke:#808000; stroke-linecap:round; stroke-linejoin:round; stroke-opacity:1.0; stroke-opacity:1.0; stroke-width:60" 
   transform="translate(0 0) scale(1 1)">
<ellipse cx="2000" cy="32000" rx="649" ry="649"  /> 
<path d="M3751 32649 L3751 31351" /> 
<path d="M3751 31351 L5049 31351" /> 
<path d="M5049 31351 L5049 32649" /> 
<path d="M3751 32649 L5049 32649" /> 
<ellipse cx="2900" cy="30000" rx="649" ry="649"  /> 
</g>
<g style="fill:#808000; fill-opacity:0.0; 
  stroke:#0000C0; stroke-linecap:round; stroke-linejoin:round; stroke-opacity:1.0; stroke-opacity:1.0; stroke-width:0" 
   transform="translate(0 0) scale(1 1)">
<path d="M2098 34200 L2102 34200" /> 
<path d="M2100 34198 L2100 34202" /> 
</g>
<g style="fill:#0000C0; fill-opacity:0.0; 
  stroke:#0000C0; stroke-linecap:round; stroke-linejoin:round; stroke-opacity:1.0; stroke-opacity:1.0; stroke-width:100" 
   transform="translate(0 0) scale(1 1)">
<path d="M2405 33962 L2405 34286" /> 
<path d="M2405 34286 L2386 34324" /> 
<path d="M2386 34324 L2367 34343" /> 
<path d="M2367 34343 L2329 34362" /> 
<path d="M2329 34362 L2252 34362" /> 
<path d="M2252 34362 L2214 34343" /> 
<path d="M2214 34343 L2195 34324" /> 
<path d="M2195 34324 L2176 34286" /> 
<path d="M2176 34286 L2176 33962" /> 
<g style = "stroke-linecap:round;" > 
<path d="M2176 33962 L2176 33962" /> 
</g><path d="M1776 34362 L2005 34362" /> 
<g style = "stroke-linecap:round;" > 
<path d="M2005 34362 L2005 34362" /> 
</g><path d="M1891 34362 L1891 33962" /> 
<path d="M1891 33962 L1929 34019" /> 
<path d="M1929 34019 L1967 34057" /> 
<path d="M1967 34057 L2005 34076" /> 
<g style = "stroke-linecap:round;" > 
<path d="M2005 34076 L2005 34076" /> 
</g></g>
<g style="fill:#0000C0; fill-opacity:0.0; 
  stroke:#0000C0; stroke-linecap:round; stroke-linejoin:round; stroke-opacity:1.0; stroke-opacity:1.0; stroke-width:0" 
   transform="translate(0 0) scale(1 1)">
<path d="M0 29800 L2 29800" /> 
<path d="M0 29798 L0 29802" /> 
</g>
<g style="fill:#0000C0; fill-opacity:0.0; 
  stroke:#0000C0; stroke-linecap:round; stroke-linejoin:round; stroke-opacity:1.0; stroke-opacity:1.0; stroke-width:100" 
   transform="translate(0 0) scale(1 1)">
<path d="M2000 29962 L2000 29562" /> 
<g style = "stroke-linecap:round;" > 
<path d="M2000 29562 L2000 29562" /> 
</g><path d="M2000 29752 L1771 29752" /> 
<g style = "stroke-linecap:round;" > 
<path d="M1771 29752 L1771 29752" /> 
</g><path d="M1771 29962 L1771 29562" /> 
<g style = "stroke-linecap:round;" > 
<path d="M1771 29562 L1771 29562" /> 
</g><path d="M1505 29562 L1428 29562" /> 
<path d="M1428 29562 L1390 29581" /> 
<path d="M1390 29581 L1352 29619" /> 
<path d="M1352 29619 L1333 29695" /> 
<path d="M1333 29695 L1333 29829" /> 
<path d="M1333 29829 L1352 29905" /> 
<path d="M1352 29905 L1390 29943" /> 
<path d="M1390 29943 L1428 29962" /> 
<path d="M1428 29962 L1505 29962" /> 
<path d="M1505 29962 L1543 29943" /> 
<path d="M1543 29943 L1581 29905" /> 
<path d="M1581 29905 L1600 29829" /> 
<path d="M1600 29829 L1600 29695" /> 
<path d="M1600 29695 L1581 29619" /> 
<path d="M1581 29619 L1543 29581" /> 
<path d="M1543 29581 L1505 29562" /> 
<path d="M1162 29962 L1162 29562" /> 
<g style = "stroke-linecap:round;" > 
<path d="M1162 29562 L1162 29562" /> 
</g><path d="M1162 29752 L933 29752" /> 
<g style = "stroke-linecap:round;" > 
<path d="M933 29752 L933 29752" /> 
</g><path d="M933 29962 L933 29562" /> 
<g style = "stroke-linecap:round;" > 
<path d="M933 29562 L933 29562" /> 
</g><path d="M552 29962 L743 29962" /> 
<path d="M743 29962 L743 29562" /> 
<g style = "stroke-linecap:round;" > 
<path d="M743 29562 L743 29562" /> 
</g><path d="M438 29943 L381 29962" /> 
<path d="M381 29962 L285 29962" /> 
<path d="M285 29962 L247 29943" /> 
<path d="M247 29943 L228 29924" /> 
<path d="M228 29924 L209 29886" /> 
<path d="M209 29886 L209 29848" /> 
<path d="M209 29848 L228 29810" /> 
<path d="M228 29810 L247 29790" /> 
<path d="M247 29790 L285 29771" /> 
<path d="M285 29771 L362 29752" /> 
<path d="M362 29752 L400 29733" /> 
<path d="M400 29733 L419 29714" /> 
<path d="M419 29714 L438 29676" /> 
<path d="M438 29676 L438 29638" /> 
<path d="M438 29638 L419 29600" /> 
<path d="M419 29600 L400 29581" /> 
<path d="M400 29581 L362 29562" /> 
<path d="M362 29562 L266 29562" /> 
<path d="M266 29562 L209 29581" /> 
<g style = "stroke-linecap:round;" > 
<path d="M209 29581 L209 29581" /> 
</g><path d="M95 29562 L-134 29562" /> 
<g style = "stroke-linecap:round;" > 
<path d="M-134 29562 L-134 29562" /> 
</g></g>
<g style="fill:#0000C0; fill-opacity:0.0; 
  stroke:#A000A0; stroke-linecap:round; stroke-linejoin:round; stroke-opacity:1.0; stroke-opacity:1.0; stroke-width:150" 
   transform="translate(0 0) scale(1 1)">
<path d="M400 33700 L400 30300" /> 
<path d="M4200 33700 L4200 30300" /> 
<path d="M-75 30300 L4200 30300" /> 
<path d="M-75 33700 L4200 33700" /> 
</g>
<g style="fill:#808000; fill-opacity:0.0; 
  stroke:#808000; stroke-linecap:round; stroke-linejoin:round; stroke-opacity:1.0; stroke-opacity:1.0; stroke-width:60" 
   transform="translate(0 0) scale(1 1)">
<ellipse cx="5875" cy="18625" rx="275" ry="275"  /> 
<ellipse cx="5875" cy="20625" rx="275" ry="275"  /> 
<ellipse cx="8875" cy="18625" rx="275" ry="275"  /> 
<ellipse cx="8875" cy="20625" rx="275" ry="275"  /> 
</g>
<g style="fill:#808000; fill-opacity:0.0; 
  stroke:#0000C0; stroke-linecap:round; stroke-linejoin:round; stroke-opacity:1.0; stroke-opacity:1.0; stroke-width:0" 
   transform="translate(0 0) scale(1 1)">
<path d="M7373 19325 L7377 19325" /> 
<path d="M7375 19323 L7375 19327" /> 
</g>
<g style="fill:#0000C0; fill-opacity:0.0; 
  stroke:#0000C0; stroke-linecap:round; stroke-linejoin:round; stroke-opacity:1.0; stroke-opacity:1.0; stroke-width:80" 
   transform="translate(0 0) scale(1 1)">
<path d="M7908 19468 L7851 19487" /> 
<path d="M7851 19487 L7755 19487" /> 
<path d="M7755 19487 L7717 19468" /> 
<path d="M7717 19468 L7698 19449" /> 
<path d="M7698 19449 L7679 19411" /> 
<path d="M7679 19411 L7679 19373" /> 
<path d="M7679 19373 L7698 19335" /> 
<path d="M7698 19335 L7717 19315" /> 
<path d="M7717 19315 L7755 19296" /> 
<path d="M7755 19296 L7832 19277" /> 
<path d="M7832 19277 L7870 19258" /> 
<path d="M7870 19258 L7889 19239" /> 
<path d="M7889 19239 L7908 19201" /> 
<path d="M7908 19201 L7908 19163" /> 
<path d="M7908 19163 L7889 19125" /> 
<path d="M7889 19125 L7870 19106" /> 
<path d="M7870 19106 L7832 19087" /> 
<path d="M7832 19087 L7736 19087" /> 
<path d="M7736 19087 L7679 19106" /> 
<g style = "stroke-linecap:round;" > 
<path d="M7679 19106 L7679 19106" /> 
</g><path d="M7546 19087 L7451 19487" /> 
<path d="M7451 19487 L7374 19201" /> 
<path d="M7374 19201 L7298 19487" /> 
<path d="M7298 19487 L7203 19087" /> 
<g style = "stroke-linecap:round;" > 
<path d="M7203 19087 L7203 19087" /> 
</g><path d="M7089 19087 L6841 19087" /> 
<path d="M6841 19087 L6975 19239" /> 
<path d="M6975 19239 L6917 19239" /> 
<path d="M6917 19239 L6879 19258" /> 
<path d="M6879 19258 L6860 19277" /> 
<path d="M6860 19277 L6841 19315" /> 
<path d="M6841 19315 L6841 19411" /> 
<path d="M6841 19411 L6860 19449" /> 
<path d="M6860 19449 L6879 19468" /> 
<path d="M6879 19468 L6917 19487" /> 
<path d="M6917 19487 L7032 19487" /> 
<path d="M7032 19487 L7070 19468" /> 
<path d="M7070 19468 L7089 19449" /> 
<g style = "stroke-linecap:round;" > 
<path d="M7089 19449 L7089 19449" /> 
</g></g>
<g style="fill:#0000C0; fill-opacity:0.0; 
  stroke:#0000C0; stroke-linecap:round; stroke-linejoin:round; stroke-opacity:1.0; stroke-opacity:1.0; stroke-width:0" 
   transform="translate(0 0) scale(1 1)">
<path d="M7373 20025 L7377 20025" /> 
<path d="M7375 20023 L7375 20027" /> 
</g>
<g style="fill:#0000C0; fill-opacity:0.0; 
  stroke:#0000C0; stroke-linecap:round; stroke-linejoin:round; stroke-opacity:1.0; stroke-opacity:1.0; stroke-width:80" 
   transform="translate(0 0) scale(1 1)">
<path d="M7860 20187 L7860 19787" /> 
<g style = "stroke-linecap:round;" > 
<path d="M7860 19787 L7860 19787" /> 
</g><path d="M7860 20168 L7898 20187" /> 
<path d="M7898 20187 L7975 20187" /> 
<path d="M7975 20187 L8013 20168" /> 
<path d="M8013 20168 L8032 20149" /> 
<path d="M8032 20149 L8051 20111" /> 
<path d="M8051 20111 L8051 19996" /> 
<path d="M8051 19996 L8032 19958" /> 
<path d="M8032 19958 L8013 19939" /> 
<path d="M8013 19939 L7975 19920" /> 
<path d="M7975 19920 L7898 19920" /> 
<path d="M7898 19920 L7860 19939" /> 
<g style = "stroke-linecap:round;" > 
<path d="M7860 19939 L7860 19939" /> 
</g><path d="M7613 20187 L7651 20168" /> 
<path d="M7651 20168 L7670 20149" /> 
<path d="M7670 20149 L7689 20111" /> 
<path d="M7689 20111 L7689 19996" /> 
<path d="M7689 19996 L7670 19958" /> 
<path d="M7670 19958 L7651 19939" /> 
<path d="M7651 19939 L7613 19920" /> 
<path d="M7613 19920 L7555 19920" /> 
<path d="M7555 19920 L7517 19939" /> 
<path d="M7517 19939 L7498 19958" /> 
<path d="M7498 19958 L7479 19996" /> 
<path d="M7479 19996 L7479 20111" /> 
<path d="M7479 20111 L7498 20149" /> 
<path d="M7498 20149 L7517 20168" /> 
<path d="M7517 20168 L7555 20187" /> 
<path d="M7555 20187 L7613 20187" /> 
<path d="M7346 19920 L7270 20187" /> 
<path d="M7270 20187 L7193 19996" /> 
<path d="M7193 19996 L7117 20187" /> 
<path d="M7117 20187 L7041 19920" /> 
<g style = "stroke-linecap:round;" > 
<path d="M7041 19920 L7041 19920" /> 
</g><path d="M6889 19920 L6889 20187" /> 
<g style = "stroke-linecap:round;" > 
<path d="M6889 20187 L6889 20187" /> 
</g><path d="M6889 19958 L6870 19939" /> 
<path d="M6870 19939 L6832 19920" /> 
<path d="M6832 19920 L6774 19920" /> 
<path d="M6774 19920 L6736 19939" /> 
<path d="M6736 19939 L6717 19977" /> 
<path d="M6717 19977 L6717 20187" /> 
<g style = "stroke-linecap:round;" > 
<path d="M6717 20187 L6717 20187" /> 
</g></g>
<g style="fill:#A000A0; fill-opacity:0.0; 
  stroke:#A000A0; stroke-linecap:round; stroke-linejoin:round; stroke-opacity:1.0; stroke-opacity:1.0; stroke-width:50" 
   transform="translate(0 0) scale(1 1)">
<ellipse cx="7375" cy="19625" rx="1000" ry="1000"  /> 
<path d="M8875 18125 L5875 18125" /> 
<path d="M5875 18125 L5875 21125" /> 
<path d="M5875 21125 L8875 21125" /> 
<path d="M8875 18125 L8875 21125" /> 
</g>
<g style="fill:#808000; fill-opacity:0.0; 
  stroke:#808000; stroke-linecap:round; stroke-linejoin:round; stroke-opacity:1.0; stroke-opacity:1.0; stroke-width:60" 
   transform="translate(0 0) scale(1 1)">
<ellipse cx="5875" cy="24625" rx="275" ry="275"  /> 
<ellipse cx="5875" cy="26625" rx="275" ry="275"  /> 
<ellipse cx="8875" cy="24625" rx="275" ry="275"  /> 
<ellipse cx="8875" cy="26625" rx="275" ry="275"  /> 
</g>
<g style="fill:#808000; fill-opacity:0.0; 
  stroke:#0000C0; stroke-linecap:round; stroke-linejoin:round; stroke-opacity:1.0; stroke-opacity:1.0; stroke-width:0" 
   transform="translate(0 0) scale(1 1)">
<path d="M7373 25325 L7377 25325" /> 
<path d="M7375 25323 L7375 25327" /> 
</g>
<g style="fill:#0000C0; fill-opacity:0.0; 
  stroke:#0000C0; stroke-linecap:round; stroke-linejoin:round; stroke-opacity:1.0; stroke-opacity:1.0; stroke-width:80" 
   transform="translate(0 0) scale(1 1)">
<path d="M7908 25468 L7851 25487" /> 
<path d="M7851 25487 L7755 25487" /> 
<path d="M7755 25487 L7717 25468" /> 
<path d="M7717 25468 L7698 25449" /> 
<path d="M7698 25449 L7679 25411" /> 
<path d="M7679 25411 L7679 25373" /> 
<path d="M7679 25373 L7698 25335" /> 
<path d="M7698 25335 L7717 25315" /> 
<path d="M7717 25315 L7755 25296" /> 
<path d="M7755 25296 L7832 25277" /> 
<path d="M7832 25277 L7870 25258" /> 
<path d="M7870 25258 L7889 25239" /> 
<path d="M7889 25239 L7908 25201" /> 
<path d="M7908 25201 L7908 25163" /> 
<path d="M7908 25163 L7889 25125" /> 
<path d="M7889 25125 L7870 25106" /> 
<path d="M7870 25106 L7832 25087" /> 
<path d="M7832 25087 L7736 25087" /> 
<path d="M7736 25087 L7679 25106" /> 
<g style = "stroke-linecap:round;" > 
<path d="M7679 25106 L7679 25106" /> 
</g><path d="M7546 25087 L7451 25487" /> 
<path d="M7451 25487 L7374 25201" /> 
<path d="M7374 25201 L7298 25487" /> 
<path d="M7298 25487 L7203 25087" /> 
<g style = "stroke-linecap:round;" > 
<path d="M7203 25087 L7203 25087" /> 
</g><path d="M7070 25125 L7051 25106" /> 
<path d="M7051 25106 L7013 25087" /> 
<path d="M7013 25087 L6917 25087" /> 
<path d="M6917 25087 L6879 25106" /> 
<path d="M6879 25106 L6860 25125" /> 
<path d="M6860 25125 L6841 25163" /> 
<path d="M6841 25163 L6841 25201" /> 
<path d="M6841 25201 L6860 25258" /> 
<path d="M6860 25258 L7089 25487" /> 
<path d="M7089 25487 L6841 25487" /> 
<g style = "stroke-linecap:round;" > 
<path d="M6841 25487 L6841 25487" /> 
</g></g>
<g style="fill:#0000C0; fill-opacity:0.0; 
  stroke:#0000C0; stroke-linecap:round; stroke-linejoin:round; stroke-opacity:1.0; stroke-opacity:1.0; stroke-width:0" 
   transform="translate(0 0) scale(1 1)">
<path d="M7373 26025 L7377 26025" /> 
<path d="M7375 26023 L7375 26027" /> 
</g>
<g style="fill:#0000C0; fill-opacity:0.0; 
  stroke:#0000C0; stroke-linecap:round; stroke-linejoin:round; stroke-opacity:1.0; stroke-opacity:1.0; stroke-width:80" 
   transform="translate(0 0) scale(1 1)">
<path d="M7566 26187 L7604 26168" /> 
<path d="M7604 26168 L7623 26149" /> 
<path d="M7623 26149 L7642 26111" /> 
<path d="M7642 26111 L7642 25996" /> 
<path d="M7642 25996 L7623 25958" /> 
<path d="M7623 25958 L7604 25939" /> 
<path d="M7604 25939 L7566 25920" /> 
<path d="M7566 25920 L7508 25920" /> 
<path d="M7508 25920 L7470 25939" /> 
<path d="M7470 25939 L7451 25958" /> 
<path d="M7451 25958 L7432 25996" /> 
<path d="M7432 25996 L7432 26111" /> 
<path d="M7432 26111 L7451 26149" /> 
<path d="M7451 26149 L7470 26168" /> 
<path d="M7470 26168 L7508 26187" /> 
<path d="M7508 26187 L7566 26187" /> 
<path d="M7261 26187 L7261 25787" /> 
<g style = "stroke-linecap:round;" > 
<path d="M7261 25787 L7261 25787" /> 
</g><path d="M7223 26035 L7108 26187" /> 
<g style = "stroke-linecap:round;" > 
<path d="M7108 26187 L7108 26187" /> 
</g><path d="M7108 25920 L7261 26073" /> 
<g style = "stroke-linecap:round;" > 
<path d="M7261 26073 L7261 26073" /> 
</g></g>
<g style="fill:#A000A0; fill-opacity:0.0; 
  stroke:#A000A0; stroke-linecap:round; stroke-linejoin:round; stroke-opacity:1.0; stroke-opacity:1.0; stroke-width:50" 
   transform="translate(0 0) scale(1 1)">
<ellipse cx="7375" cy="25625" rx="1000" ry="1000"  /> 
<path d="M8875 24125 L5875 24125" /> 
<path d="M5875 24125 L5875 27125" /> 
<path d="M5875 27125 L8875 27125" /> 
<path d="M8875 24125 L8875 27125" /> 
</g>
<g style="fill:#808000; fill-opacity:0.0; 
  stroke:#808000; stroke-linecap:round; stroke-linejoin:round; stroke-opacity:1.0; stroke-opacity:1.0; stroke-width:60" 
   transform="translate(0 0) scale(1 1)">
<ellipse cx="5875" cy="21625" rx="275" ry="275"  /> 
<ellipse cx="5875" cy="23625" rx="275" ry="275"  /> 
<ellipse cx="8875" cy="21625" rx="275" ry="275"  /> 
<ellipse cx="8875" cy="23625" rx="275" ry="275"  /> 
</g>
<g style="fill:#808000; fill-opacity:0.0; 
  stroke:#0000C0; stroke-linecap:round; stroke-linejoin:round; stroke-opacity:1.0; stroke-opacity:1.0; stroke-width:0" 
   transform="translate(0 0) scale(1 1)">
<path d="M7373 22325 L7377 22325" /> 
<path d="M7375 22323 L7375 22327" /> 
</g>
<g style="fill:#0000C0; fill-opacity:0.0; 
  stroke:#0000C0; stroke-linecap:round; stroke-linejoin:round; stroke-opacity:1.0; stroke-opacity:1.0; stroke-width:80" 
   transform="translate(0 0) scale(1 1)">
<path d="M7908 22468 L7851 22487" /> 
<path d="M7851 22487 L7755 22487" /> 
<path d="M7755 22487 L7717 22468" /> 
<path d="M7717 22468 L7698 22449" /> 
<path d="M7698 22449 L7679 22411" /> 
<path d="M7679 22411 L7679 22373" /> 
<path d="M7679 22373 L7698 22335" /> 
<path d="M7698 22335 L7717 22315" /> 
<path d="M7717 22315 L7755 22296" /> 
<path d="M7755 22296 L7832 22277" /> 
<path d="M7832 22277 L7870 22258" /> 
<path d="M7870 22258 L7889 22239" /> 
<path d="M7889 22239 L7908 22201" /> 
<path d="M7908 22201 L7908 22163" /> 
<path d="M7908 22163 L7889 22125" /> 
<path d="M7889 22125 L7870 22106" /> 
<path d="M7870 22106 L7832 22087" /> 
<path d="M7832 22087 L7736 22087" /> 
<path d="M7736 22087 L7679 22106" /> 
<g style = "stroke-linecap:round;" > 
<path d="M7679 22106 L7679 22106" /> 
</g><path d="M7546 22087 L7451 22487" /> 
<path d="M7451 22487 L7374 22201" /> 
<path d="M7374 22201 L7298 22487" /> 
<path d="M7298 22487 L7203 22087" /> 
<g style = "stroke-linecap:round;" > 
<path d="M7203 22087 L7203 22087" /> 
</g><path d="M6841 22487 L7070 22487" /> 
<g style = "stroke-linecap:round;" > 
<path d="M7070 22487 L7070 22487" /> 
</g><path d="M6956 22487 L6956 22087" /> 
<path d="M6956 22087 L6994 22144" /> 
<path d="M6994 22144 L7032 22182" /> 
<path d="M7032 22182 L7070 22201" /> 
<g style = "stroke-linecap:round;" > 
<path d="M7070 22201 L7070 22201" /> 
</g></g>
<g style="fill:#0000C0; fill-opacity:0.0; 
  stroke:#0000C0; stroke-linecap:round; stroke-linejoin:round; stroke-opacity:1.0; stroke-opacity:1.0; stroke-width:0" 
   transform="translate(0 0) scale(1 1)">
<path d="M7373 23025 L7377 23025" /> 
<path d="M7375 23023 L7375 23027" /> 
</g>
<g style="fill:#0000C0; fill-opacity:0.0; 
  stroke:#0000C0; stroke-linecap:round; stroke-linejoin:round; stroke-opacity:1.0; stroke-opacity:1.0; stroke-width:80" 
   transform="translate(0 0) scale(1 1)">
<path d="M7470 22920 L7470 23187" /> 
<g style = "stroke-linecap:round;" > 
<path d="M7470 23187 L7470 23187" /> 
</g><path d="M7642 22920 L7642 23130" /> 
<path d="M7642 23130 L7623 23168" /> 
<path d="M7623 23168 L7585 23187" /> 
<path d="M7585 23187 L7527 23187" /> 
<path d="M7527 23187 L7489 23168" /> 
<path d="M7489 23168 L7470 23149" /> 
<g style = "stroke-linecap:round;" > 
<path d="M7470 23149 L7470 23149" /> 
</g><path d="M7280 22920 L7280 23320" /> 
<g style = "stroke-linecap:round;" > 
<path d="M7280 23320 L7280 23320" /> 
</g><path d="M7280 22939 L7242 22920" /> 
<path d="M7242 22920 L7165 22920" /> 
<path d="M7165 22920 L7127 22939" /> 
<path d="M7127 22939 L7108 22958" /> 
<path d="M7108 22958 L7089 22996" /> 
<path d="M7089 22996 L7089 23111" /> 
<path d="M7089 23111 L7108 23149" /> 
<path d="M7108 23149 L7127 23168" /> 
<path d="M7127 23168 L7165 23187" /> 
<path d="M7165 23187 L7242 23187" /> 
<path d="M7242 23187 L7280 23168" /> 
<g style = "stroke-linecap:round;" > 
<path d="M7280 23168 L7280 23168" /> 
</g></g>
<g style="fill:#A000A0; fill-opacity:0.0; 
  stroke:#A000A0; stroke-linecap:round; stroke-linejoin:round; stroke-opacity:1.0; stroke-opacity:1.0; stroke-width:50" 
   transform="translate(0 0) scale(1 1)">
<ellipse cx="7375" cy="22625" rx="1000" ry="1000"  /> 
<path d="M8875 21125 L5875 21125" /> 
<path d="M5875 21125 L5875 24125" /> 
<path d="M5875 24125 L8875 24125" /> 
<path d="M8875 21125 L8875 24125" /> 
</g>
<g style="fill:#808000; fill-opacity:0.0; 
  stroke:#808000; stroke-linecap:round; stroke-linejoin:round; stroke-opacity:1.0; stroke-opacity:1.0; stroke-width:60" 
   transform="translate(0 0) scale(1 1)">
<ellipse cx="5375" cy="28375" rx="275" ry="275"  /> 
<ellipse cx="6375" cy="28375" rx="275" ry="275"  /> 
</g>
<g style="fill:#808000; fill-opacity:0.0; 
  stroke:#0000C0; stroke-linecap:round; stroke-linejoin:round; stroke-opacity:1.0; stroke-opacity:1.0; stroke-width:0" 
   transform="translate(0 0) scale(1 1)">
<path d="M5473 27375 L5477 27375" /> 
<path d="M5475 27373 L5475 27377" /> 
</g>
<g style="fill:#0000C0; fill-opacity:0.0; 
  stroke:#0000C0; stroke-linecap:round; stroke-linejoin:round; stroke-opacity:1.0; stroke-opacity:1.0; stroke-width:80" 
   transform="translate(0 0) scale(1 1)">
<path d="M5558 27598 L5725 27336" /> 
<g style = "stroke-linecap:round;" > 
<path d="M5725 27336 L5725 27336" /> 
</g><path d="M5844 27598 L5844 27048" /> 
<path d="M5844 27048 L5653 27048" /> 
<path d="M5653 27048 L5606 27074" /> 
<path d="M5606 27074 L5582 27100" /> 
<path d="M5582 27100 L5558 27152" /> 
<path d="M5558 27152 L5558 27231" /> 
<path d="M5558 27231 L5582 27283" /> 
<path d="M5582 27283 L5606 27310" /> 
<path d="M5606 27310 L5653 27336" /> 
<path d="M5653 27336 L5844 27336" /> 
<g style = "stroke-linecap:round;" > 
<path d="M5844 27336 L5844 27336" /> 
</g><path d="M5368 27100 L5344 27074" /> 
<path d="M5344 27074 L5296 27048" /> 
<path d="M5296 27048 L5177 27048" /> 
<path d="M5177 27048 L5130 27074" /> 
<path d="M5130 27074 L5106 27100" /> 
<path d="M5106 27100 L5082 27152" /> 
<path d="M5082 27152 L5082 27205" /> 
<path d="M5082 27205 L5106 27283" /> 
<path d="M5106 27283 L5392 27598" /> 
<path d="M5392 27598 L5082 27598" /> 
<g style = "stroke-linecap:round;" > 
<path d="M5082 27598 L5082 27598" /> 
</g></g>
<g style="fill:#0000C0; fill-opacity:0.0; 
  stroke:#A000A0; stroke-linecap:round; stroke-linejoin:round; stroke-opacity:1.0; stroke-opacity:1.0; stroke-width:150" 
   transform="translate(0 0) scale(1 1)">
<path d="M5375 28375 L6375 28375" /> 
</g>
<g style="fill:#A000A0; fill-opacity:0.0; 
  stroke:#A000A0; stroke-linecap:round; stroke-linejoin:round; stroke-opacity:1.0; stroke-opacity:1.0; stroke-width:150" 
   transform="translate(0 0) scale(1 1)">
<ellipse cx="5375" cy="28375" rx="559" ry="559"  /> 
</g>
<g style="fill:#808000; fill-opacity:0.0; 
  stroke:#808000; stroke-linecap:round; stroke-linejoin:round; stroke-opacity:1.0; stroke-opacity:1.0; stroke-width:60" 
   transform="translate(0 0) scale(1 1)">
<path d="M18450 700 L19050 700" /> 
<path d="M19050 700 L19050 1300" /> 
<path d="M19050 1300 L18450 1300" /> 
<path d="M18450 700 L18450 1300" /> 
<ellipse cx="17750" cy="1000" rx="300" ry="300"  /> 
<ellipse cx="18750" cy="2000" rx="300" ry="300"  /> 
<ellipse cx="17750" cy="2000" rx="300" ry="300"  /> 
<ellipse cx="18750" cy="3000" rx="300" ry="300"  /> 
<ellipse cx="17750" cy="3000" rx="300" ry="300"  /> 
<ellipse cx="18750" cy="4000" rx="300" ry="300"  /> 
<ellipse cx="17750" cy="4000" rx="300" ry="300"  /> 
</g>
<g style="fill:#808000; fill-opacity:0.0; 
  stroke:#0000C0; stroke-linecap:round; stroke-linejoin:round; stroke-opacity:1.0; stroke-opacity:1.0; stroke-width:0" 
   transform="translate(0 0) scale(1 1)">
<path d="M16748 2500 L16752 2500" /> 
<path d="M16750 2498 L16750 2502" /> 
</g>
<g style="fill:#0000C0; fill-opacity:0.0; 
  stroke:#0000C0; stroke-linecap:round; stroke-linejoin:round; stroke-opacity:1.0; stroke-opacity:1.0; stroke-width:80" 
   transform="translate(0 0) scale(1 1)">
<path d="M16512 2195 L16836 2195" /> 
<path d="M16836 2195 L16874 2214" /> 
<path d="M16874 2214 L16893 2233" /> 
<path d="M16893 2233 L16912 2271" /> 
<path d="M16912 2271 L16912 2348" /> 
<path d="M16912 2348 L16893 2386" /> 
<path d="M16893 2386 L16874 2405" /> 
<path d="M16874 2405 L16836 2424" /> 
<path d="M16836 2424 L16512 2424" /> 
<g style = "stroke-linecap:round;" > 
<path d="M16512 2424 L16512 2424" /> 
</g><path d="M16683 2671 L16664 2633" /> 
<path d="M16664 2633 L16645 2614" /> 
<path d="M16645 2614 L16607 2595" /> 
<path d="M16607 2595 L16588 2595" /> 
<path d="M16588 2595 L16550 2614" /> 
<path d="M16550 2614 L16531 2633" /> 
<path d="M16531 2633 L16512 2671" /> 
<path d="M16512 2671 L16512 2748" /> 
<path d="M16512 2748 L16531 2786" /> 
<path d="M16531 2786 L16550 2805" /> 
<path d="M16550 2805 L16588 2824" /> 
<path d="M16588 2824 L16607 2824" /> 
<path d="M16607 2824 L16645 2805" /> 
<path d="M16645 2805 L16664 2786" /> 
<path d="M16664 2786 L16683 2748" /> 
<path d="M16683 2748 L16683 2671" /> 
<path d="M16683 2671 L16702 2633" /> 
<path d="M16702 2633 L16721 2614" /> 
<path d="M16721 2614 L16760 2595" /> 
<path d="M16760 2595 L16836 2595" /> 
<path d="M16836 2595 L16874 2614" /> 
<path d="M16874 2614 L16893 2633" /> 
<path d="M16893 2633 L16912 2671" /> 
<path d="M16912 2671 L16912 2748" /> 
<path d="M16912 2748 L16893 2786" /> 
<path d="M16893 2786 L16874 2805" /> 
<path d="M16874 2805 L16836 2824" /> 
<path d="M16836 2824 L16760 2824" /> 
<path d="M16760 2824 L16721 2805" /> 
<path d="M16721 2805 L16702 2786" /> 
<path d="M16702 2786 L16683 2748" /> 
<g style = "stroke-linecap:round;" > 
<path d="M16683 2748 L16683 2748" /> 
</g></g>
<g style="fill:#0000C0; fill-opacity:0.0; 
  stroke:#A000A0; stroke-linecap:round; stroke-linejoin:round; stroke-opacity:1.0; stroke-opacity:1.0; stroke-width:120" 
   transform="translate(0 0) scale(1 1)">
<path d="M17250 500 L17250 4500" /> 
<path d="M17250 4500 L19250 4500" /> 
<path d="M19250 4500 L19250 500" /> 
<path d="M19250 500 L17250 500" /> 
</g>
<g style="fill:#808000; fill-opacity:0.0; 
  stroke:#808000; stroke-linecap:round; stroke-linejoin:round; stroke-opacity:1.0; stroke-opacity:1.0; stroke-width:60" 
   transform="translate(0 0) scale(1 1)">
<path d="M18050 9300 L17450 9300" /> 
<path d="M17450 9300 L17450 8700" /> 
<path d="M17450 8700 L18050 8700" /> 
<path d="M18050 9300 L18050 8700" /> 
<ellipse cx="17750" cy="8000" rx="300" ry="300"  /> 
<ellipse cx="17750" cy="7000" rx="300" ry="300"  /> 
<ellipse cx="17750" cy="6000" rx="300" ry="300"  /> 
</g>
<g style="fill:#808000; fill-opacity:0.0; 
  stroke:#0000C0; stroke-linecap:round; stroke-linejoin:round; stroke-opacity:1.0; stroke-opacity:1.0; stroke-width:0" 
   transform="translate(0 0) scale(1 1)">
<path d="M18748 7500 L18752 7500" /> 
<path d="M18750 7498 L18750 7502" /> 
</g>
<g style="fill:#0000C0; fill-opacity:0.0; 
  stroke:#0000C0; stroke-linecap:round; stroke-linejoin:round; stroke-opacity:1.0; stroke-opacity:1.0; stroke-width:80" 
   transform="translate(0 0) scale(1 1)">
<path d="M18512 7005 L18836 7005" /> 
<path d="M18836 7005 L18874 7024" /> 
<path d="M18874 7024 L18893 7043" /> 
<path d="M18893 7043 L18912 7081" /> 
<path d="M18912 7081 L18912 7158" /> 
<path d="M18912 7158 L18893 7196" /> 
<path d="M18893 7196 L18874 7215" /> 
<path d="M18874 7215 L18836 7234" /> 
<path d="M18836 7234 L18512 7234" /> 
<g style = "stroke-linecap:round;" > 
<path d="M18512 7234 L18512 7234" /> 
</g><path d="M18912 7634 L18912 7405" /> 
<g style = "stroke-linecap:round;" > 
<path d="M18912 7405 L18912 7405" /> 
</g><path d="M18912 7519 L18512 7519" /> 
<path d="M18512 7519 L18569 7481" /> 
<path d="M18569 7481 L18607 7443" /> 
<path d="M18607 7443 L18626 7405" /> 
<g style = "stroke-linecap:round;" > 
<path d="M18626 7405 L18626 7405" /> 
</g><path d="M18912 8015 L18912 7786" /> 
<g style = "stroke-linecap:round;" > 
<path d="M18912 7786 L18912 7786" /> 
</g><path d="M18912 7900 L18512 7900" /> 
<path d="M18512 7900 L18569 7862" /> 
<path d="M18569 7862 L18607 7824" /> 
<path d="M18607 7824 L18626 7786" /> 
<g style = "stroke-linecap:round;" > 
<path d="M18626 7786 L18626 7786" /> 
</g></g>
<g style="fill:#0000C0; fill-opacity:0.0; 
  stroke:#A000A0; stroke-linecap:round; stroke-linejoin:round; stroke-opacity:1.0; stroke-opacity:1.0; stroke-width:100" 
   transform="translate(0 0) scale(1 1)">
<path d="M17250 5500 L17250 9500" /> 
<path d="M18250 5500 L18250 9500" /> 
<path d="M18250 9500 L17250 9500" /> 
<path d="M17250 5500 L18250 5500" /> 
</g>
<g style="fill:#808000; fill-opacity:0.0; 
  stroke:#808000; stroke-linecap:round; stroke-linejoin:round; stroke-opacity:1.0; stroke-opacity:1.0; stroke-width:60" 
   transform="translate(0 0) scale(1 1)">
<path d="M18050 14300 L17450 14300" /> 
<path d="M17450 14300 L17450 13700" /> 
<path d="M17450 13700 L18050 13700" /> 
<path d="M18050 14300 L18050 13700" /> 
<ellipse cx="17750" cy="13000" rx="300" ry="300"  /> 
<ellipse cx="17750" cy="12000" rx="300" ry="300"  /> 
<ellipse cx="17750" cy="11000" rx="300" ry="300"  /> 
</g>
<g style="fill:#808000; fill-opacity:0.0; 
  stroke:#0000C0; stroke-linecap:round; stroke-linejoin:round; stroke-opacity:1.0; stroke-opacity:1.0; stroke-width:0" 
   transform="translate(0 0) scale(1 1)">
<path d="M18748 12500 L18752 12500" /> 
<path d="M18750 12498 L18750 12502" /> 
</g>
<g style="fill:#0000C0; fill-opacity:0.0; 
  stroke:#0000C0; stroke-linecap:round; stroke-linejoin:round; stroke-opacity:1.0; stroke-opacity:1.0; stroke-width:80" 
   transform="translate(0 0) scale(1 1)">
<path d="M18512 12005 L18836 12005" /> 
<path d="M18836 12005 L18874 12024" /> 
<path d="M18874 12024 L18893 12043" /> 
<path d="M18893 12043 L18912 12081" /> 
<path d="M18912 12081 L18912 12158" /> 
<path d="M18912 12158 L18893 12196" /> 
<path d="M18893 12196 L18874 12215" /> 
<path d="M18874 12215 L18836 12234" /> 
<path d="M18836 12234 L18512 12234" /> 
<g style = "stroke-linecap:round;" > 
<path d="M18512 12234 L18512 12234" /> 
</g><path d="M18912 12634 L18912 12405" /> 
<g style = "stroke-linecap:round;" > 
<path d="M18912 12405 L18912 12405" /> 
</g><path d="M18912 12519 L18512 12519" /> 
<path d="M18512 12519 L18569 12481" /> 
<path d="M18569 12481 L18607 12443" /> 
<path d="M18607 12443 L18626 12405" /> 
<g style = "stroke-linecap:round;" > 
<path d="M18626 12405 L18626 12405" /> 
</g><path d="M18512 12881 L18512 12920" /> 
<path d="M18512 12920 L18531 12958" /> 
<path d="M18531 12958 L18550 12977" /> 
<path d="M18550 12977 L18588 12996" /> 
<path d="M18588 12996 L18664 13015" /> 
<path d="M18664 13015 L18760 13015" /> 
<path d="M18760 13015 L18836 12996" /> 
<path d="M18836 12996 L18874 12977" /> 
<path d="M18874 12977 L18893 12958" /> 
<path d="M18893 12958 L18912 12920" /> 
<path d="M18912 12920 L18912 12881" /> 
<path d="M18912 12881 L18893 12843" /> 
<path d="M18893 12843 L18874 12824" /> 
<path d="M18874 12824 L18836 12805" /> 
<path d="M18836 12805 L18760 12786" /> 
<path d="M18760 12786 L18664 12786" /> 
<path d="M18664 12786 L18588 12805" /> 
<path d="M18588 12805 L18550 12824" /> 
<path d="M18550 12824 L18531 12843" /> 
<path d="M18531 12843 L18512 12881" /> 
</g>
<g style="fill:#0000C0; fill-opacity:0.0; 
  stroke:#A000A0; stroke-linecap:round; stroke-linejoin:round; stroke-opacity:1.0; stroke-opacity:1.0; stroke-width:100" 
   transform="translate(0 0) scale(1 1)">
<path d="M17250 10500 L17250 14500" /> 
<path d="M18250 10500 L18250 14500" /> 
<path d="M18250 14500 L17250 14500" /> 
<path d="M17250 10500 L18250 10500" /> 
</g>
<g style="fill:#808000; fill-opacity:0.0; 
  stroke:#808000; stroke-linecap:round; stroke-linejoin:round; stroke-opacity:1.0; stroke-opacity:1.0; stroke-width:60" 
   transform="translate(0 0) scale(1 1)">
<path d="M1450 20950 L2050 20950" /> 
<path d="M2050 20950 L2050 21550" /> 
<path d="M2050 21550 L1450 21550" /> 
<path d="M1450 20950 L1450 21550" /> 
<ellipse cx="1750" cy="22250" rx="300" ry="300"  /> 
<ellipse cx="1750" cy="23250" rx="300" ry="300"  /> 
</g>
<g style="fill:#808000; fill-opacity:0.0; 
  stroke:#0000C0; stroke-linecap:round; stroke-linejoin:round; stroke-opacity:1.0; stroke-opacity:1.0; stroke-width:0" 
   transform="translate(0 0) scale(1 1)">
<path d="M898 22350 L902 22350" /> 
<path d="M900 22348 L900 22352" /> 
</g>
<g style="fill:#0000C0; fill-opacity:0.0; 
  stroke:#0000C0; stroke-linecap:round; stroke-linejoin:round; stroke-opacity:1.0; stroke-opacity:1.0; stroke-width:60" 
   transform="translate(0 0) scale(1 1)">
<path d="M1062 22055 L662 22055" /> 
<g style = "stroke-linecap:round;" > 
<path d="M662 22055 L662 22055" /> 
</g><path d="M1062 22284 L833 22112" /> 
<g style = "stroke-linecap:round;" > 
<path d="M833 22112 L833 22112" /> 
</g><path d="M662 22284 L890 22055" /> 
<g style = "stroke-linecap:round;" > 
<path d="M890 22055 L890 22055" /> 
</g><path d="M1062 22665 L1062 22436" /> 
<g style = "stroke-linecap:round;" > 
<path d="M1062 22436 L1062 22436" /> 
</g><path d="M1062 22550 L662 22550" /> 
<path d="M662 22550 L719 22512" /> 
<path d="M719 22512 L757 22474" /> 
<path d="M757 22474 L776 22436" /> 
<g style = "stroke-linecap:round;" > 
<path d="M776 22436 L776 22436" /> 
</g></g>
<g style="fill:#0000C0; fill-opacity:0.0; 
  stroke:#A000A0; stroke-linecap:round; stroke-linejoin:round; stroke-opacity:1.0; stroke-opacity:1.0; stroke-width:60" 
   transform="translate(0 0) scale(1 1)">
<path d="M2250 20750 L1250 20750" /> 
<path d="M1250 20750 L1250 23750" /> 
<path d="M1250 23750 L2250 23750" /> 
<path d="M2250 23750 L2250 20750" /> 
<path d="M1250 21750 L2250 21750" /> 
</g>
<g style="fill:#808000; fill-opacity:0.0; 
  stroke:#808000; stroke-linecap:round; stroke-linejoin:round; stroke-opacity:1.0; stroke-opacity:1.0; stroke-width:60" 
   transform="translate(0 0) scale(1 1)">
<path d="M2050 19550 L1450 19550" /> 
<path d="M1450 19550 L1450 18950" /> 
<path d="M1450 18950 L2050 18950" /> 
<path d="M2050 19550 L2050 18950" /> 
<ellipse cx="1750" cy="18250" rx="300" ry="300"  /> 
<ellipse cx="1750" cy="17250" rx="300" ry="300"  /> 
</g>
<g style="fill:#808000; fill-opacity:0.0; 
  stroke:#0000C0; stroke-linecap:round; stroke-linejoin:round; stroke-opacity:1.0; stroke-opacity:1.0; stroke-width:0" 
   transform="translate(0 0) scale(1 1)">
<path d="M2598 18150 L2602 18150" /> 
<path d="M2600 18148 L2600 18152" /> 
</g>
<g style="fill:#0000C0; fill-opacity:0.0; 
  stroke:#0000C0; stroke-linecap:round; stroke-linejoin:round; stroke-opacity:1.0; stroke-opacity:1.0; stroke-width:60" 
   transform="translate(0 0) scale(1 1)">
<path d="M2762 17855 L2362 17855" /> 
<g style = "stroke-linecap:round;" > 
<path d="M2362 17855 L2362 17855" /> 
</g><path d="M2762 18084 L2533 17912" /> 
<g style = "stroke-linecap:round;" > 
<path d="M2533 17912 L2533 17912" /> 
</g><path d="M2362 18084 L2590 17855" /> 
<g style = "stroke-linecap:round;" > 
<path d="M2590 17855 L2590 17855" /> 
</g><path d="M2400 18236 L2381 18255" /> 
<path d="M2381 18255 L2362 18293" /> 
<path d="M2362 18293 L2362 18389" /> 
<path d="M2362 18389 L2381 18427" /> 
<path d="M2381 18427 L2400 18446" /> 
<path d="M2400 18446 L2438 18465" /> 
<path d="M2438 18465 L2476 18465" /> 
<path d="M2476 18465 L2533 18446" /> 
<path d="M2533 18446 L2762 18217" /> 
<path d="M2762 18217 L2762 18465" /> 
<g style = "stroke-linecap:round;" > 
<path d="M2762 18465 L2762 18465" /> 
</g></g>
<g style="fill:#0000C0; fill-opacity:0.0; 
  stroke:#A000A0; stroke-linecap:round; stroke-linejoin:round; stroke-opacity:1.0; stroke-opacity:1.0; stroke-width:60" 
   transform="translate(0 0) scale(1 1)">
<path d="M1250 19750 L2250 19750" /> 
<path d="M2250 19750 L2250 16750" /> 
<path d="M2250 16750 L1250 16750" /> 
<path d="M1250 16750 L1250 19750" /> 
<path d="M2250 18750 L1250 18750" /> 
</g>
<g style="fill:#808000; fill-opacity:0.0; 
  stroke:#808000; stroke-linecap:round; stroke-linejoin:round; stroke-opacity:1.0; stroke-opacity:1.0; stroke-width:60" 
   transform="translate(0 0) scale(1 1)">
<path d="M7200 28800 L7200 28200" /> 
<path d="M7200 28200 L7800 28200" /> 
<path d="M7800 28200 L7800 28800" /> 
<path d="M7200 28800 L7800 28800" /> 
<ellipse cx="8500" cy="28500" rx="300" ry="300"  /> 
</g>
<g style="fill:#808000; fill-opacity:0.0; 
  stroke:#0000C0; stroke-linecap:round; stroke-linejoin:round; stroke-opacity:1.0; stroke-opacity:1.0; stroke-width:0" 
   transform="translate(0 0) scale(1 1)">
<path d="M7998 29250 L8002 29250" /> 
<path d="M8000 29248 L8000 29252" /> 
</g>
<g style="fill:#0000C0; fill-opacity:0.0; 
  stroke:#0000C0; stroke-linecap:round; stroke-linejoin:round; stroke-opacity:1.0; stroke-opacity:1.0; stroke-width:60" 
   transform="translate(0 0) scale(1 1)">
<path d="M8222 29371 L8222 29071" /> 
<path d="M8222 29071 L8107 29071" /> 
<path d="M8107 29071 L8079 29086" /> 
<path d="M8079 29086 L8064 29100" /> 
<path d="M8064 29100 L8050 29129" /> 
<path d="M8050 29129 L8050 29171" /> 
<path d="M8050 29171 L8064 29200" /> 
<path d="M8064 29200 L8079 29214" /> 
<path d="M8079 29214 L8107 29229" /> 
<path d="M8107 29229 L8222 29229" /> 
<g style = "stroke-linecap:round;" > 
<path d="M8222 29229 L8222 29229" /> 
</g><path d="M7764 29371 L7936 29371" /> 
<g style = "stroke-linecap:round;" > 
<path d="M7936 29371 L7936 29371" /> 
</g><path d="M7850 29371 L7850 29071" /> 
<path d="M7850 29071 L7879 29114" /> 
<path d="M7879 29114 L7907 29143" /> 
<path d="M7907 29143 L7936 29157" /> 
<g style = "stroke-linecap:round;" > 
<path d="M7936 29157 L7936 29157" /> 
</g></g>
<g style="fill:#0000C0; fill-opacity:0.0; 
  stroke:#A000A0; stroke-linecap:round; stroke-linejoin:round; stroke-opacity:1.0; stroke-opacity:1.0; stroke-width:60" 
   transform="translate(0 0) scale(1 1)">
<path d="M7000 28000 L7000 29000" /> 
<path d="M7000 29000 L9000 29000" /> 
<path d="M9000 29000 L9000 28000" /> 
<path d="M9000 28000 L7000 28000" /> 
</g>
<g style="fill:#808000; fill-opacity:0.0; 
  stroke:#808000; stroke-linecap:round; stroke-linejoin:round; stroke-opacity:1.0; stroke-opacity:1.0; stroke-width:60" 
   transform="translate(0 0) scale(1 1)">
<ellipse cx="17750" cy="16750" rx="300" ry="300"  /> 
<ellipse cx="17750" cy="17750" rx="300" ry="300"  /> 
<ellipse cx="17750" cy="18750" rx="300" ry="300"  /> 
<ellipse cx="17750" cy="19750" rx="300" ry="300"  /> 
<ellipse cx="17750" cy="20750" rx="300" ry="300"  /> 
<ellipse cx="17750" cy="21750" rx="300" ry="300"  /> 
<ellipse cx="17750" cy="22750" rx="300" ry="300"  /> 
<ellipse cx="17750" cy="23750" rx="300" ry="300"  /> 
</g>
<g style="fill:#808000; fill-opacity:0.0; 
  stroke:#0000C0; stroke-linecap:round; stroke-linejoin:round; stroke-opacity:1.0; stroke-opacity:1.0; stroke-width:0" 
   transform="translate(0 0) scale(1 1)">
<path d="M16748 20250 L16752 20250" /> 
<path d="M16750 20248 L16750 20252" /> 
</g>
<g style="fill:#0000C0; fill-opacity:0.0; 
  stroke:#0000C0; stroke-linecap:round; stroke-linejoin:round; stroke-opacity:1.0; stroke-opacity:1.0; stroke-width:120" 
   transform="translate(0 0) scale(1 1)">
<path d="M16393 19793 L16879 19793" /> 
<path d="M16879 19793 L16936 19821" /> 
<path d="M16936 19821 L16964 19850" /> 
<path d="M16964 19850 L16993 19907" /> 
<path d="M16993 19907 L16993 20021" /> 
<path d="M16993 20021 L16964 20079" /> 
<path d="M16964 20079 L16936 20107" /> 
<path d="M16936 20107 L16879 20136" /> 
<path d="M16879 20136 L16393 20136" /> 
<g style = "stroke-linecap:round;" > 
<path d="M16393 20136 L16393 20136" /> 
</g><path d="M16993 20450 L16993 20565" /> 
<path d="M16993 20565 L16964 20622" /> 
<path d="M16964 20622 L16936 20650" /> 
<path d="M16936 20650 L16850 20708" /> 
<path d="M16850 20708 L16736 20736" /> 
<path d="M16736 20736 L16507 20736" /> 
<path d="M16507 20736 L16450 20708" /> 
<path d="M16450 20708 L16421 20679" /> 
<path d="M16421 20679 L16393 20622" /> 
<path d="M16393 20622 L16393 20508" /> 
<path d="M16393 20508 L16421 20450" /> 
<path d="M16421 20450 L16450 20422" /> 
<path d="M16450 20422 L16507 20393" /> 
<path d="M16507 20393 L16650 20393" /> 
<path d="M16650 20393 L16707 20422" /> 
<path d="M16707 20422 L16736 20450" /> 
<path d="M16736 20450 L16764 20508" /> 
<path d="M16764 20508 L16764 20622" /> 
<path d="M16764 20622 L16736 20679" /> 
<path d="M16736 20679 L16707 20708" /> 
<path d="M16707 20708 L16650 20736" /> 
<g style = "stroke-linecap:round;" > 
<path d="M16650 20736 L16650 20736" /> 
</g></g>
<g style="fill:#0000C0; fill-opacity:0.0; 
  stroke:#0000C0; stroke-linecap:round; stroke-linejoin:round; stroke-opacity:1.0; stroke-opacity:1.0; stroke-width:0" 
   transform="translate(0 0) scale(1 1)">
<path d="M18748 20250 L18752 20250" /> 
<path d="M18750 20248 L18750 20252" /> 
</g>
<g style="fill:#0000C0; fill-opacity:0.0; 
  stroke:#0000C0; stroke-linecap:round; stroke-linejoin:round; stroke-opacity:1.0; stroke-opacity:1.0; stroke-width:120" 
   transform="translate(0 0) scale(1 1)">
<path d="M18993 19265 L18993 18922" /> 
<g style = "stroke-linecap:round;" > 
<path d="M18993 18922 L18993 18922" /> 
</g><path d="M18993 19094 L18393 19094" /> 
<path d="M18393 19094 L18479 19037" /> 
<path d="M18479 19037 L18536 18979" /> 
<path d="M18536 18979 L18564 18922" /> 
<g style = "stroke-linecap:round;" > 
<path d="M18564 18922 L18564 18922" /> 
</g><path d="M18393 19636 L18393 19693" /> 
<path d="M18393 19693 L18421 19750" /> 
<path d="M18421 19750 L18450 19779" /> 
<path d="M18450 19779 L18507 19808" /> 
<path d="M18507 19808 L18621 19836" /> 
<path d="M18621 19836 L18764 19836" /> 
<path d="M18764 19836 L18879 19808" /> 
<path d="M18879 19808 L18936 19779" /> 
<path d="M18936 19779 L18964 19750" /> 
<path d="M18964 19750 L18993 19693" /> 
<path d="M18993 19693 L18993 19636" /> 
<path d="M18993 19636 L18964 19579" /> 
<path d="M18964 19579 L18936 19550" /> 
<path d="M18936 19550 L18879 19522" /> 
<path d="M18879 19522 L18764 19493" /> 
<path d="M18764 19493 L18621 19493" /> 
<path d="M18621 19493 L18507 19522" /> 
<path d="M18507 19522 L18450 19550" /> 
<path d="M18450 19550 L18421 19579" /> 
<path d="M18421 19579 L18393 19636" /> 
<path d="M18993 20093 L18393 20093" /> 
<path d="M18393 20093 L18393 20236" /> 
<path d="M18393 20236 L18421 20321" /> 
<path d="M18421 20321 L18479 20379" /> 
<path d="M18479 20379 L18536 20407" /> 
<path d="M18536 20407 L18650 20436" /> 
<path d="M18650 20436 L18736 20436" /> 
<path d="M18736 20436 L18850 20407" /> 
<path d="M18850 20407 L18907 20379" /> 
<path d="M18907 20379 L18964 20321" /> 
<path d="M18964 20321 L18993 20236" /> 
<path d="M18993 20236 L18993 20093" /> 
<path d="M18393 20807 L18393 20921" /> 
<path d="M18393 20921 L18421 20979" /> 
<path d="M18421 20979 L18479 21036" /> 
<path d="M18479 21036 L18593 21064" /> 
<path d="M18593 21064 L18793 21064" /> 
<path d="M18793 21064 L18907 21036" /> 
<path d="M18907 21036 L18964 20979" /> 
<path d="M18964 20979 L18993 20921" /> 
<path d="M18993 20921 L18993 20807" /> 
<path d="M18993 20807 L18964 20750" /> 
<path d="M18964 20750 L18907 20693" /> 
<path d="M18907 20693 L18793 20664" /> 
<path d="M18793 20664 L18593 20664" /> 
<path d="M18593 20664 L18479 20693" /> 
<path d="M18479 20693 L18421 20750" /> 
<path d="M18421 20750 L18393 20807" /> 
<path d="M18679 21522 L18679 21322" /> 
<g style = "stroke-linecap:round;" > 
<path d="M18679 21322 L18679 21322" /> 
</g><path d="M18993 21322 L18393 21322" /> 
<path d="M18393 21322 L18393 21608" /> 
<g style = "stroke-linecap:round;" > 
<path d="M18393 21608 L18393 21608" /> 
</g></g>
<g style="fill:#0000C0; fill-opacity:0.0; 
  stroke:#A000A0; stroke-linecap:round; stroke-linejoin:round; stroke-opacity:1.0; stroke-opacity:1.0; stroke-width:150" 
   transform="translate(0 0) scale(1 1)">
<path d="M17250 16250 L18250 16250" /> 
<path d="M18250 16250 L18250 24250" /> 
<path d="M18250 24250 L17250 24250" /> 
<path d="M17250 24250 L17250 16250" /> 
</g>
<g style="fill:#808000; fill-opacity:0.0; 
  stroke:#808000; stroke-linecap:round; stroke-linejoin:round; stroke-opacity:1.0; stroke-opacity:1.0; stroke-width:60" 
   transform="translate(0 0) scale(1 1)">
<path d="M1475 27475 L2025 27475" /> 
<path d="M2025 27475 L2025 28025" /> 
<path d="M2025 28025 L1475 28025" /> 
<path d="M1475 27475 L1475 28025" /> 
<ellipse cx="1750" cy="26750" rx="275" ry="275"  /> 
<ellipse cx="2750" cy="26750" rx="275" ry="275"  /> 
</g>
<g style="fill:#808000; fill-opacity:0.0; 
  stroke:#0000C0; stroke-linecap:round; stroke-linejoin:round; stroke-opacity:1.0; stroke-opacity:1.0; stroke-width:0" 
   transform="translate(0 0) scale(1 1)">
<path d="M3748 26750 L3752 26750" /> 
<path d="M3750 26748 L3750 26752" /> 
</g>
<g style="fill:#0000C0; fill-opacity:0.0; 
  stroke:#0000C0; stroke-linecap:round; stroke-linejoin:round; stroke-opacity:1.0; stroke-opacity:1.0; stroke-width:80" 
   transform="translate(0 0) scale(1 1)">
<path d="M3912 26455 L3512 26455" /> 
<g style = "stroke-linecap:round;" > 
<path d="M3512 26455 L3512 26455" /> 
</g><path d="M3912 26684 L3683 26512" /> 
<g style = "stroke-linecap:round;" > 
<path d="M3683 26512 L3683 26512" /> 
</g><path d="M3512 26684 L3740 26455" /> 
<g style = "stroke-linecap:round;" > 
<path d="M3740 26455 L3740 26455" /> 
</g><path d="M3512 26817 L3512 27065" /> 
<path d="M3512 27065 L3664 26931" /> 
<path d="M3664 26931 L3664 26989" /> 
<path d="M3664 26989 L3683 27027" /> 
<path d="M3683 27027 L3702 27046" /> 
<path d="M3702 27046 L3740 27065" /> 
<path d="M3740 27065 L3836 27065" /> 
<path d="M3836 27065 L3874 27046" /> 
<path d="M3874 27046 L3893 27027" /> 
<path d="M3893 27027 L3912 26989" /> 
<path d="M3912 26989 L3912 26874" /> 
<path d="M3912 26874 L3893 26836" /> 
<path d="M3893 26836 L3874 26817" /> 
<g style = "stroke-linecap:round;" > 
<path d="M3874 26817 L3874 26817" /> 
</g></g>
<g style="fill:#0000C0; fill-opacity:0.0; 
  stroke:#0000C0; stroke-linecap:round; stroke-linejoin:round; stroke-opacity:1.0; stroke-opacity:1.0; stroke-width:0" 
   transform="translate(0 0) scale(1 1)">
<path d="M248 26750 L252 26750" /> 
<path d="M250 26748 L250 26752" /> 
</g>
<g style="fill:#0000C0; fill-opacity:0.0; 
  stroke:#0000C0; stroke-linecap:round; stroke-linejoin:round; stroke-opacity:1.0; stroke-opacity:1.0; stroke-width:80" 
   transform="translate(0 0) scale(1 1)">
<path d="M374 25903 L393 25884" /> 
<path d="M393 25884 L412 25827" /> 
<path d="M412 25827 L412 25789" /> 
<path d="M412 25789 L393 25731" /> 
<path d="M393 25731 L355 25693" /> 
<path d="M355 25693 L317 25674" /> 
<path d="M317 25674 L240 25655" /> 
<path d="M240 25655 L183 25655" /> 
<path d="M183 25655 L107 25674" /> 
<path d="M107 25674 L69 25693" /> 
<path d="M69 25693 L31 25731" /> 
<path d="M31 25731 L12 25789" /> 
<path d="M12 25789 L12 25827" /> 
<path d="M12 25827 L31 25884" /> 
<path d="M31 25884 L50 25903" /> 
<g style = "stroke-linecap:round;" > 
<path d="M50 25903 L50 25903" /> 
</g><path d="M12 26150 L12 26227" /> 
<path d="M12 26227 L31 26265" /> 
<path d="M31 26265 L69 26303" /> 
<path d="M69 26303 L145 26322" /> 
<path d="M145 26322 L279 26322" /> 
<path d="M279 26322 L355 26303" /> 
<path d="M355 26303 L393 26265" /> 
<path d="M393 26265 L412 26227" /> 
<path d="M412 26227 L412 26150" /> 
<path d="M412 26150 L393 26112" /> 
<path d="M393 26112 L355 26074" /> 
<path d="M355 26074 L279 26055" /> 
<path d="M279 26055 L145 26055" /> 
<path d="M145 26055 L69 26074" /> 
<path d="M69 26074 L31 26112" /> 
<path d="M31 26112 L12 26150" /> 
<path d="M412 26493 L12 26493" /> 
<path d="M12 26493 L412 26722" /> 
<path d="M412 26722 L12 26722" /> 
<g style = "stroke-linecap:round;" > 
<path d="M12 26722 L12 26722" /> 
</g><path d="M412 26912 L12 26912" /> 
<path d="M12 26912 L412 27141" /> 
<path d="M412 27141 L12 27141" /> 
<g style = "stroke-linecap:round;" > 
<path d="M12 27141 L12 27141" /> 
</g><path d="M450 27236 L450 27541" /> 
<g style = "stroke-linecap:round;" > 
<path d="M450 27541 L450 27541" /> 
</g><path d="M12 27598 L12 27846" /> 
<path d="M12 27846 L164 27712" /> 
<path d="M164 27712 L164 27770" /> 
<path d="M164 27770 L183 27808" /> 
<path d="M183 27808 L202 27827" /> 
<path d="M202 27827 L240 27846" /> 
<path d="M240 27846 L336 27846" /> 
<path d="M336 27846 L374 27827" /> 
<path d="M374 27827 L393 27808" /> 
<path d="M393 27808 L412 27770" /> 
<path d="M412 27770 L412 27655" /> 
<path d="M412 27655 L393 27617" /> 
<path d="M393 27617 L374 27598" /> 
<g style = "stroke-linecap:round;" > 
<path d="M374 27598 L374 27598" /> 
</g></g>
<g style="fill:#0000C0; fill-opacity:0.0; 
  stroke:#A000A0; stroke-linecap:round; stroke-linejoin:round; stroke-opacity:1.0; stroke-opacity:1.0; stroke-width:120" 
   transform="translate(0 0) scale(1 1)">
<path d="M3250 26750 L1750 28250" /> 
<path d="M1750 28250 L1250 28250" /> 
<path d="M1250 28250 L750 27750" /> 
<path d="M750 27750 L750 26750" /> 
<path d="M750 26750 L1750 25750" /> 
<path d="M1750 25750 L2750 25750" /> 
<path d="M2750 25750 L3250 26250" /> 
<path d="M3250 26250 L3250 26750" /> 
</g>
<g style="fill:#808000; fill-opacity:0.0; 
  stroke:#808000; stroke-linecap:round; stroke-linejoin:round; stroke-opacity:1.0; stroke-opacity:1.0; stroke-width:60" 
   transform="translate(0 0) scale(1 1)">
<path d="M7450 800 L7450 200" /> 
<path d="M7450 200 L8050 200" /> 
<path d="M8050 200 L8050 800" /> 
<path d="M7450 800 L8050 800" /> 
</g>
<g style="fill:#808000; fill-opacity:0.0; 
  stroke:#0000C0; stroke-linecap:round; stroke-linejoin:round; stroke-opacity:1.0; stroke-opacity:1.0; stroke-width:0" 
   transform="translate(0 0) scale(1 1)">
<path d="M7748 1250 L7752 1250" /> 
<path d="M7750 1248 L7750 1252" /> 
</g>
<g style="fill:#0000C0; fill-opacity:0.0; 
  stroke:#0000C0; stroke-linecap:round; stroke-linejoin:round; stroke-opacity:1.0; stroke-opacity:1.0; stroke-width:60" 
   transform="translate(0 0) scale(1 1)">
<path d="M7972 1371 L7972 1071" /> 
<path d="M7972 1071 L7857 1071" /> 
<path d="M7857 1071 L7829 1086" /> 
<path d="M7829 1086 L7814 1100" /> 
<path d="M7814 1100 L7800 1129" /> 
<path d="M7800 1129 L7800 1171" /> 
<path d="M7800 1171 L7814 1200" /> 
<path d="M7814 1200 L7829 1214" /> 
<path d="M7829 1214 L7857 1229" /> 
<path d="M7857 1229 L7972 1229" /> 
<g style = "stroke-linecap:round;" > 
<path d="M7972 1229 L7972 1229" /> 
</g><path d="M7686 1100 L7672 1086" /> 
<path d="M7672 1086 L7643 1071" /> 
<path d="M7643 1071 L7572 1071" /> 
<path d="M7572 1071 L7543 1086" /> 
<path d="M7543 1086 L7529 1100" /> 
<path d="M7529 1100 L7514 1129" /> 
<path d="M7514 1129 L7514 1157" /> 
<path d="M7514 1157 L7529 1200" /> 
<path d="M7529 1200 L7700 1371" /> 
<path d="M7700 1371 L7514 1371" /> 
<g style = "stroke-linecap:round;" > 
<path d="M7514 1371 L7514 1371" /> 
</g></g>
<g style="fill:#0000C0; fill-opacity:0.0; 
  stroke:#A000A0; stroke-linecap:round; stroke-linejoin:round; stroke-opacity:1.0; stroke-opacity:1.0; stroke-width:60" 
   transform="translate(0 0) scale(1 1)">
<path d="M8250 0 L7250 0" /> 
<path d="M7250 1000 L8250 1000" /> 
<path d="M7250 0 L7250 1000" /> 
<path d="M8250 1000 L8250 0" /> 
</g>
<g style="fill:#808000; fill-opacity:0.0; 
  stroke:#808000; stroke-linecap:round; stroke-linejoin:round; stroke-opacity:1.0; stroke-opacity:1.0; stroke-width:60" 
   transform="translate(0 0) scale(1 1)">
<path d="M15700 800 L15700 200" /> 
<path d="M15700 200 L16300 200" /> 
<path d="M16300 200 L16300 800" /> 
<path d="M15700 800 L16300 800" /> 
</g>
<g style="fill:#808000; fill-opacity:0.0; 
  stroke:#0000C0; stroke-linecap:round; stroke-linejoin:round; stroke-opacity:1.0; stroke-opacity:1.0; stroke-width:0" 
   transform="translate(0 0) scale(1 1)">
<path d="M15998 1250 L16002 1250" /> 
<path d="M16000 1248 L16000 1252" /> 
</g>
<g style="fill:#0000C0; fill-opacity:0.0; 
  stroke:#0000C0; stroke-linecap:round; stroke-linejoin:round; stroke-opacity:1.0; stroke-opacity:1.0; stroke-width:60" 
   transform="translate(0 0) scale(1 1)">
<path d="M16222 1371 L16222 1071" /> 
<path d="M16222 1071 L16107 1071" /> 
<path d="M16107 1071 L16079 1086" /> 
<path d="M16079 1086 L16064 1100" /> 
<path d="M16064 1100 L16050 1129" /> 
<path d="M16050 1129 L16050 1171" /> 
<path d="M16050 1171 L16064 1200" /> 
<path d="M16064 1200 L16079 1214" /> 
<path d="M16079 1214 L16107 1229" /> 
<path d="M16107 1229 L16222 1229" /> 
<g style = "stroke-linecap:round;" > 
<path d="M16222 1229 L16222 1229" /> 
</g><path d="M15950 1071 L15764 1071" /> 
<path d="M15764 1071 L15864 1186" /> 
<path d="M15864 1186 L15822 1186" /> 
<path d="M15822 1186 L15793 1200" /> 
<path d="M15793 1200 L15779 1214" /> 
<path d="M15779 1214 L15764 1243" /> 
<path d="M15764 1243 L15764 1314" /> 
<path d="M15764 1314 L15779 1343" /> 
<path d="M15779 1343 L15793 1357" /> 
<path d="M15793 1357 L15822 1371" /> 
<path d="M15822 1371 L15907 1371" /> 
<path d="M15907 1371 L15936 1357" /> 
<path d="M15936 1357 L15950 1343" /> 
<g style = "stroke-linecap:round;" > 
<path d="M15950 1343 L15950 1343" /> 
</g></g>
<g style="fill:#0000C0; fill-opacity:0.0; 
  stroke:#A000A0; stroke-linecap:round; stroke-linejoin:round; stroke-opacity:1.0; stroke-opacity:1.0; stroke-width:60" 
   transform="translate(0 0) scale(1 1)">
<path d="M16500 0 L15500 0" /> 
<path d="M15500 1000 L16500 1000" /> 
<path d="M15500 0 L15500 1000" /> 
<path d="M16500 1000 L16500 0" /> 
</g>
<g style="fill:#808000; fill-opacity:0.0; 
  stroke:#808000; stroke-linecap:round; stroke-linejoin:round; stroke-opacity:1.0; stroke-opacity:1.0; stroke-width:60" 
   transform="translate(0 0) scale(1 1)">
<ellipse cx="3000" cy="9500" rx="295" ry="295"  /> 
<ellipse cx="4000" cy="9500" rx="295" ry="295"  /> 
<ellipse cx="5000" cy="9500" rx="295" ry="295"  /> 
<ellipse cx="6000" cy="9500" rx="295" ry="295"  /> 
<ellipse cx="7000" cy="9500" rx="295" ry="295"  /> 
<ellipse cx="8000" cy="9500" rx="295" ry="295"  /> 
<ellipse cx="9000" cy="9500" rx="295" ry="295"  /> 
<ellipse cx="10000" cy="9500" rx="295" ry="295"  /> 
<ellipse cx="11000" cy="9500" rx="295" ry="295"  /> 
<ellipse cx="12000" cy="9500" rx="295" ry="295"  /> 
<ellipse cx="13000" cy="9500" rx="295" ry="295"  /> 
<ellipse cx="14000" cy="9500" rx="295" ry="295"  /> 
<ellipse cx="14000" cy="15500" rx="295" ry="295"  /> 
<ellipse cx="13000" cy="15500" rx="295" ry="295"  /> 
<ellipse cx="12000" cy="15500" rx="295" ry="295"  /> 
<ellipse cx="11000" cy="15500" rx="295" ry="295"  /> 
<ellipse cx="10000" cy="15500" rx="295" ry="295"  /> 
<ellipse cx="9000" cy="15500" rx="295" ry="295"  /> 
<ellipse cx="8000" cy="15500" rx="295" ry="295"  /> 
<ellipse cx="7000" cy="15500" rx="295" ry="295"  /> 
<ellipse cx="6000" cy="15500" rx="295" ry="295"  /> 
<ellipse cx="5000" cy="15500" rx="295" ry="295"  /> 
<ellipse cx="4000" cy="15500" rx="295" ry="295"  /> 
<ellipse cx="3000" cy="15500" rx="295" ry="295"  /> 
</g>
<g style="fill:#808000; fill-opacity:0.0; 
  stroke:#0000C0; stroke-linecap:round; stroke-linejoin:round; stroke-opacity:1.0; stroke-opacity:1.0; stroke-width:0" 
   transform="translate(0 0) scale(1 1)">
<path d="M8498 11000 L8502 11000" /> 
<path d="M8500 10998 L8500 11002" /> 
</g>
<g style="fill:#0000C0; fill-opacity:0.0; 
  stroke:#0000C0; stroke-linecap:round; stroke-linejoin:round; stroke-opacity:1.0; stroke-opacity:1.0; stroke-width:120" 
   transform="translate(0 0) scale(1 1)">
<path d="M8957 10643 L8957 11129" /> 
<path d="M8957 11129 L8929 11186" /> 
<path d="M8929 11186 L8900 11214" /> 
<path d="M8900 11214 L8843 11243" /> 
<path d="M8843 11243 L8729 11243" /> 
<path d="M8729 11243 L8671 11214" /> 
<path d="M8671 11214 L8643 11186" /> 
<path d="M8643 11186 L8614 11129" /> 
<path d="M8614 11129 L8614 10643" /> 
<g style = "stroke-linecap:round;" > 
<path d="M8614 10643 L8614 10643" /> 
</g><path d="M8385 10643 L8014 10643" /> 
<path d="M8014 10643 L8214 10871" /> 
<path d="M8214 10871 L8128 10871" /> 
<path d="M8128 10871 L8071 10900" /> 
<path d="M8071 10900 L8042 10929" /> 
<path d="M8042 10929 L8014 10986" /> 
<path d="M8014 10986 L8014 11129" /> 
<path d="M8014 11129 L8042 11186" /> 
<path d="M8042 11186 L8071 11214" /> 
<path d="M8071 11214 L8128 11243" /> 
<path d="M8128 11243 L8300 11243" /> 
<path d="M8300 11243 L8357 11214" /> 
<path d="M8357 11214 L8385 11186" /> 
<g style = "stroke-linecap:round;" > 
<path d="M8385 11186 L8385 11186" /> 
</g></g>
<g style="fill:#0000C0; fill-opacity:0.0; 
  stroke:#0000C0; stroke-linecap:round; stroke-linejoin:round; stroke-opacity:1.0; stroke-opacity:1.0; stroke-width:0" 
   transform="translate(0 0) scale(1 1)">
<path d="M8498 13500 L8502 13500" /> 
<path d="M8500 13498 L8500 13502" /> 
</g>
<g style="fill:#0000C0; fill-opacity:0.0; 
  stroke:#0000C0; stroke-linecap:round; stroke-linejoin:round; stroke-opacity:1.0; stroke-opacity:1.0; stroke-width:120" 
   transform="translate(0 0) scale(1 1)">
<path d="M12644 13571 L12358 13571" /> 
<g style = "stroke-linecap:round;" > 
<path d="M12358 13571 L12358 13571" /> 
</g><path d="M12701 13743 L12501 13143" /> 
<path d="M12501 13143 L12301 13743" /> 
<g style = "stroke-linecap:round;" > 
<path d="M12301 13743 L12301 13743" /> 
</g><path d="M11758 13743 L11958 13457" /> 
<g style = "stroke-linecap:round;" > 
<path d="M11958 13457 L11958 13457" /> 
</g><path d="M12101 13743 L12101 13143" /> 
<path d="M12101 13143 L11873 13143" /> 
<path d="M11873 13143 L11815 13171" /> 
<path d="M11815 13171 L11787 13200" /> 
<path d="M11787 13200 L11758 13257" /> 
<path d="M11758 13257 L11758 13343" /> 
<path d="M11758 13343 L11787 13400" /> 
<path d="M11787 13400 L11815 13429" /> 
<path d="M11815 13429 L11873 13457" /> 
<path d="M11873 13457 L12101 13457" /> 
<g style = "stroke-linecap:round;" > 
<path d="M12101 13457 L12101 13457" /> 
</g><path d="M11501 13743 L11501 13143" /> 
<path d="M11501 13143 L11358 13143" /> 
<path d="M11358 13143 L11273 13171" /> 
<path d="M11273 13171 L11215 13229" /> 
<path d="M11215 13229 L11187 13286" /> 
<path d="M11187 13286 L11158 13400" /> 
<path d="M11158 13400 L11158 13486" /> 
<path d="M11158 13486 L11187 13600" /> 
<path d="M11187 13600 L11215 13657" /> 
<path d="M11215 13657 L11273 13714" /> 
<path d="M11273 13714 L11358 13743" /> 
<path d="M11358 13743 L11501 13743" /> 
<path d="M10901 13143 L10901 13629" /> 
<path d="M10901 13629 L10873 13686" /> 
<path d="M10873 13686 L10844 13714" /> 
<path d="M10844 13714 L10787 13743" /> 
<path d="M10787 13743 L10673 13743" /> 
<path d="M10673 13743 L10615 13714" /> 
<path d="M10615 13714 L10587 13686" /> 
<path d="M10587 13686 L10558 13629" /> 
<path d="M10558 13629 L10558 13143" /> 
<g style = "stroke-linecap:round;" > 
<path d="M10558 13143 L10558 13143" /> 
</g><path d="M10272 13743 L10272 13143" /> 
<g style = "stroke-linecap:round;" > 
<path d="M10272 13143 L10272 13143" /> 
</g><path d="M9986 13743 L9986 13143" /> 
<path d="M9986 13143 L9643 13743" /> 
<path d="M9643 13743 L9643 13143" /> 
<g style = "stroke-linecap:round;" > 
<path d="M9643 13143 L9643 13143" /> 
</g><path d="M9243 13143 L9129 13143" /> 
<path d="M9129 13143 L9071 13171" /> 
<path d="M9071 13171 L9014 13229" /> 
<path d="M9014 13229 L8986 13343" /> 
<path d="M8986 13343 L8986 13543" /> 
<path d="M8986 13543 L9014 13657" /> 
<path d="M9014 13657 L9071 13714" /> 
<path d="M9071 13714 L9129 13743" /> 
<path d="M9129 13743 L9243 13743" /> 
<path d="M9243 13743 L9300 13714" /> 
<path d="M9300 13714 L9357 13657" /> 
<path d="M9357 13657 L9386 13543" /> 
<path d="M9386 13543 L9386 13343" /> 
<path d="M9386 13343 L9357 13229" /> 
<path d="M9357 13229 L9300 13171" /> 
<path d="M9300 13171 L9243 13143" /> 
<path d="M8871 13800 L8414 13800" /> 
<g style = "stroke-linecap:round;" > 
<path d="M8414 13800 L8414 13800" /> 
</g><path d="M8271 13743 L8271 13143" /> 
<path d="M8271 13143 L8071 13571" /> 
<path d="M8071 13571 L7871 13143" /> 
<path d="M7871 13143 L7871 13743" /> 
<g style = "stroke-linecap:round;" > 
<path d="M7871 13743 L7871 13743" /> 
</g><path d="M7585 13743 L7585 13143" /> 
<g style = "stroke-linecap:round;" > 
<path d="M7585 13143 L7585 13143" /> 
</g><path d="M7299 13743 L7299 13143" /> 
<path d="M7299 13143 L6956 13743" /> 
<path d="M6956 13743 L6956 13143" /> 
<g style = "stroke-linecap:round;" > 
<path d="M6956 13143 L6956 13143" /> 
</g><path d="M6670 13743 L6670 13143" /> 
<g style = "stroke-linecap:round;" > 
<path d="M6670 13143 L6670 13143" /> 
</g><path d="M6527 13800 L6070 13800" /> 
<g style = "stroke-linecap:round;" > 
<path d="M6070 13800 L6070 13800" /> 
</g><path d="M5927 13743 L5927 13143" /> 
<path d="M5927 13143 L5699 13143" /> 
<path d="M5699 13143 L5641 13171" /> 
<path d="M5641 13171 L5613 13200" /> 
<path d="M5613 13200 L5584 13257" /> 
<path d="M5584 13257 L5584 13343" /> 
<path d="M5584 13343 L5613 13400" /> 
<path d="M5613 13400 L5641 13429" /> 
<path d="M5641 13429 L5699 13457" /> 
<path d="M5699 13457 L5927 13457" /> 
<g style = "stroke-linecap:round;" > 
<path d="M5927 13457 L5927 13457" /> 
</g><path d="M4984 13743 L5184 13457" /> 
<g style = "stroke-linecap:round;" > 
<path d="M5184 13457 L5184 13457" /> 
</g><path d="M5327 13743 L5327 13143" /> 
<path d="M5327 13143 L5099 13143" /> 
<path d="M5099 13143 L5041 13171" /> 
<path d="M5041 13171 L5013 13200" /> 
<path d="M5013 13200 L4984 13257" /> 
<path d="M4984 13257 L4984 13343" /> 
<path d="M4984 13343 L5013 13400" /> 
<path d="M5013 13400 L5041 13429" /> 
<path d="M5041 13429 L5099 13457" /> 
<path d="M5099 13457 L5327 13457" /> 
<g style = "stroke-linecap:round;" > 
<path d="M5327 13457 L5327 13457" /> 
</g><path d="M4613 13143 L4499 13143" /> 
<path d="M4499 13143 L4441 13171" /> 
<path d="M4441 13171 L4384 13229" /> 
<path d="M4384 13229 L4356 13343" /> 
<path d="M4356 13343 L4356 13543" /> 
<path d="M4356 13543 L4384 13657" /> 
<path d="M4384 13657 L4441 13714" /> 
<path d="M4441 13714 L4499 13743" /> 
<path d="M4499 13743 L4613 13743" /> 
<path d="M4613 13743 L4670 13714" /> 
<path d="M4670 13714 L4727 13657" /> 
<path d="M4727 13657 L4756 13543" /> 
<path d="M4756 13543 L4756 13343" /> 
<path d="M4756 13343 L4727 13229" /> 
<path d="M4727 13229 L4670 13171" /> 
<path d="M4670 13171 L4613 13143" /> 
</g>
<g style="fill:#0000C0; fill-opacity:0.0; 
  stroke:#A000A0; stroke-linecap:round; stroke-linejoin:round; stroke-opacity:1.0; stroke-opacity:1.0; stroke-width:150" 
   transform="translate(0 0) scale(1 1)">
<path d="M500 14000 L1500 14000" /> 
<path d="M500 11000 L500 14000" /> 
<path d="M500 11000 L1500 11000" /> 
<path d="M1500 16000 L14500 16000" /> 
<path d="M1500 9000 L14500 9000" /> 
<path d="M1500 16000 L1500 9000" /> 
<path d="M14500 9000 L14500 16000" /> 
</g>
<g style="fill:#808000; fill-opacity:0.0; 
  stroke:#808000; stroke-linecap:round; stroke-linejoin:round; stroke-opacity:1.0; stroke-opacity:1.0; stroke-width:60" 
   transform="translate(0 0) scale(1 1)">
<path d="M16550 23050 L15950 23050" /> 
<path d="M15950 23050 L15950 22450" /> 
<path d="M15950 22450 L16550 22450" /> 
<path d="M16550 23050 L16550 22450" /> 
<ellipse cx="16250" cy="21750" rx="300" ry="300"  /> 
<ellipse cx="16250" cy="20750" rx="300" ry="300"  /> 
<ellipse cx="16250" cy="19750" rx="300" ry="300"  /> 
<ellipse cx="16250" cy="18750" rx="300" ry="300"  /> 
</g>
<g style="fill:#808000; fill-opacity:0.0; 
  stroke:#0000C0; stroke-linecap:round; stroke-linejoin:round; stroke-opacity:1.0; stroke-opacity:1.0; stroke-width:0" 
   transform="translate(0 0) scale(1 1)">
<path d="M17248 20750 L17252 20750" /> 
<path d="M17250 20748 L17250 20752" /> 
</g>
<g style="fill:#0000C0; fill-opacity:0.0; 
  stroke:#0000C0; stroke-linecap:round; stroke-linejoin:round; stroke-opacity:1.0; stroke-opacity:1.0; stroke-width:80" 
   transform="translate(0 0) scale(1 1)">
<path d="M17012 20445 L17336 20445" /> 
<path d="M17336 20445 L17374 20464" /> 
<path d="M17374 20464 L17393 20483" /> 
<path d="M17393 20483 L17412 20521" /> 
<path d="M17412 20521 L17412 20598" /> 
<path d="M17412 20598 L17393 20636" /> 
<path d="M17393 20636 L17374 20655" /> 
<path d="M17374 20655 L17336 20674" /> 
<path d="M17336 20674 L17012 20674" /> 
<g style = "stroke-linecap:round;" > 
<path d="M17012 20674 L17012 20674" /> 
</g><path d="M17050 20845 L17031 20864" /> 
<path d="M17031 20864 L17012 20902" /> 
<path d="M17012 20902 L17012 20998" /> 
<path d="M17012 20998 L17031 21036" /> 
<path d="M17031 21036 L17050 21055" /> 
<path d="M17050 21055 L17088 21074" /> 
<path d="M17088 21074 L17126 21074" /> 
<path d="M17126 21074 L17183 21055" /> 
<path d="M17183 21055 L17412 20826" /> 
<path d="M17412 20826 L17412 21074" /> 
<g style = "stroke-linecap:round;" > 
<path d="M17412 21074 L17412 21074" /> 
</g></g>
<g style="fill:#0000C0; fill-opacity:0.0; 
  stroke:#A000A0; stroke-linecap:round; stroke-linejoin:round; stroke-opacity:1.0; stroke-opacity:1.0; stroke-width:120" 
   transform="translate(0 0) scale(1 1)">
<path d="M16750 23250 L15750 23250" /> 
<path d="M15750 18250 L16750 18250" /> 
<path d="M16750 23250 L16750 18250" /> 
<path d="M15750 18250 L15750 23250" /> 
</g> 
</svg> 
